G04 #@! TF.GenerationSoftware,KiCad,Pcbnew,(5.1.4)-1*
G04 #@! TF.CreationDate,2020-08-16T19:18:02-07:00*
G04 #@! TF.ProjectId,Plate,506c6174-652e-46b6-9963-61645f706362,rev?*
G04 #@! TF.SameCoordinates,Original*
G04 #@! TF.FileFunction,Soldermask,Top*
G04 #@! TF.FilePolarity,Negative*
%FSLAX46Y46*%
G04 Gerber Fmt 4.6, Leading zero omitted, Abs format (unit mm)*
G04 Created by KiCad (PCBNEW (5.1.4)-1) date 2020-08-16 19:18:02*
%MOMM*%
%LPD*%
G04 APERTURE LIST*
%ADD10C,0.200000*%
%ADD11C,0.150000*%
%ADD12C,0.875000*%
G04 APERTURE END LIST*
D10*
X25638000Y-77800200D02*
G75*
G03X25638000Y-77800200I-1000000J0D01*
G01*
X25663400Y-166116000D02*
G75*
G03X25663400Y-166116000I-1000000J0D01*
G01*
X82153000Y-184099200D02*
G75*
G03X82153000Y-184099200I-1000000J0D01*
G01*
X209889600Y-184099200D02*
G75*
G03X209889600Y-184099200I-1000000J0D01*
G01*
X342503000Y-184099200D02*
G75*
G03X342503000Y-184099200I-1000000J0D01*
G01*
X400592800Y-166090600D02*
G75*
G03X400592800Y-166090600I-1000000J0D01*
G01*
X400618200Y-77800200D02*
G75*
G03X400618200Y-77800200I-1000000J0D01*
G01*
X259995111Y-60497821D02*
G75*
G03X259995111Y-60497821I-1000000J0D01*
G01*
X166295129Y-60497821D02*
G75*
G03X166295129Y-60497821I-1000000J0D01*
G01*
X264000000Y-63200000D02*
X398100000Y-63200000D01*
X261499999Y-60499999D02*
X261500000Y-60700000D01*
X256500000Y-60750000D02*
X256490223Y-60500010D01*
X170300000Y-63200000D02*
X254000000Y-63250000D01*
X167799999Y-60499999D02*
X167800000Y-60700000D01*
X162800000Y-60750000D02*
X162790259Y-60499847D01*
X26162000Y-63246000D02*
X160300000Y-63250000D01*
X264000000Y-63200000D02*
G75*
G02X261500000Y-60700000I0J2500000D01*
G01*
X256500000Y-60750000D02*
G75*
G02X254000000Y-63250000I-2500000J0D01*
G01*
X170300000Y-63200000D02*
G75*
G02X167800000Y-60700000I0J2500000D01*
G01*
X162800000Y-60750000D02*
G75*
G02X160300000Y-63250000I-2500000J0D01*
G01*
X256490223Y-60500010D02*
G75*
G02X261499999Y-60499999I2504888J2189D01*
G01*
X162790259Y-60499847D02*
G75*
G02X167799999Y-60499999I2504870J2026D01*
G01*
X402095110Y-91751363D02*
X402100000Y-67200000D01*
X398100000Y-63200000D02*
G75*
G02X402100000Y-67200000I0J-4000000D01*
G01*
X22162000Y-67246000D02*
X22145123Y-91753523D01*
X22162000Y-67246000D02*
G75*
G02X26162000Y-63246000I4000000J0D01*
G01*
X351970123Y-119222812D02*
X338970117Y-119222760D01*
X66220123Y-81122812D02*
X53220077Y-81122830D01*
X148470077Y-81122830D02*
X161470123Y-81122812D01*
X167520123Y-67122812D02*
X180520142Y-67122803D01*
X47670123Y-86672812D02*
X47670117Y-99672846D01*
X114345123Y-105722812D02*
X114345117Y-118722822D01*
X272295129Y-119222772D02*
X285295123Y-119222812D01*
X119895104Y-119222809D02*
X132895123Y-119222812D01*
X296107629Y-119222772D02*
X309107623Y-119222812D01*
X338970128Y-138272809D02*
X351970123Y-138272812D01*
X358020117Y-138272858D02*
X371020123Y-138272812D01*
X371520102Y-137772843D02*
G75*
G02X371020123Y-138272812I-499974J5D01*
G01*
X115713911Y-182897788D02*
G75*
G02X122713873Y-182897812I3499981J-12D01*
G01*
X115713869Y-182897810D02*
X115713869Y-183897812D01*
X122713876Y-182897810D02*
X122713876Y-183897812D01*
X115713874Y-183897821D02*
G75*
G02X113713873Y-185897812I-1999996J5D01*
G01*
X124713871Y-185897818D02*
G75*
G02X122713873Y-183897812I4J2000002D01*
G01*
X300670111Y-183897840D02*
G75*
G02X298670123Y-185897812I-1999980J8D01*
G01*
X300670115Y-182897810D02*
X300670115Y-183897812D01*
X300670135Y-182897788D02*
G75*
G02X307670123Y-182897812I3499994J-12D01*
G01*
X309670108Y-185897837D02*
G75*
G02X307670123Y-183897812I20J2000005D01*
G01*
X307670114Y-182897810D02*
X307670114Y-183897812D01*
X402095115Y-180897786D02*
G75*
G02X397095123Y-185897812I-5000009J-17D01*
G01*
X27145137Y-185897808D02*
G75*
G02X22145123Y-180897812I-9J5000005D01*
G01*
X124713871Y-185897818D02*
X298670123Y-185897812D01*
X397095123Y-185897812D02*
X309670108Y-185897837D01*
X27145137Y-185897808D02*
X113713873Y-185897812D01*
X352470114Y-137772795D02*
G75*
G02X351970123Y-138272812I-500004J-13D01*
G01*
X285795175Y-118721946D02*
G75*
G02X285295123Y-119222812I-500022J-843D01*
G01*
X163851380Y-162372821D02*
G75*
G02X164351373Y-162872812I1J-499992D01*
G01*
X108700876Y-163872812D02*
X108700876Y-176872809D01*
X150351373Y-162872810D02*
X150351373Y-175872814D01*
X150351364Y-162872805D02*
G75*
G02X150851373Y-162372812I500001J-8D01*
G01*
X115450882Y-176872825D02*
G75*
G02X114950873Y-177372812I-499998J11D01*
G01*
X133076873Y-177372786D02*
G75*
G02X132576873Y-176872812I-13J499987D01*
G01*
X139326875Y-176872809D02*
X139326875Y-163872812D01*
X117513870Y-176372815D02*
X130513874Y-176372815D01*
X109200870Y-177372810D02*
X114950870Y-177372810D01*
X138826875Y-163372816D02*
G75*
G02X139326873Y-163872812I1J-499997D01*
G01*
X164351371Y-175872814D02*
X164351371Y-162872810D01*
X109200866Y-177372809D02*
G75*
G02X108700873Y-176872812I2J499995D01*
G01*
X114950870Y-163372811D02*
X109200870Y-163372811D01*
X108700882Y-163872793D02*
G75*
G02X109200873Y-163372812I499986J-5D01*
G01*
X133076874Y-177372810D02*
X138826874Y-177372810D01*
X163851378Y-162372809D02*
X150851374Y-162372809D01*
X138826874Y-163372811D02*
X133076874Y-163372811D01*
X139326889Y-176872802D02*
G75*
G02X138826873Y-177372812I-500013J3D01*
G01*
X164351394Y-175872807D02*
G75*
G02X163851373Y-176372812I-500013J8D01*
G01*
X130513886Y-162372827D02*
G75*
G02X131013873Y-162872812I1J-499986D01*
G01*
X130513874Y-162372809D02*
X117513870Y-162372809D01*
X117013870Y-162872811D02*
G75*
G02X117513873Y-162372812I500001J-2D01*
G01*
X84176360Y-176372803D02*
G75*
G02X83676373Y-175872812I2J499989D01*
G01*
X59076374Y-143322814D02*
X46076373Y-143322814D01*
X45576366Y-143822801D02*
G75*
G02X46076373Y-143322812I499998J-9D01*
G01*
X77032623Y-157322813D02*
X90032623Y-157322813D01*
X61639373Y-158322815D02*
X67389374Y-158322815D01*
X95582614Y-143822799D02*
G75*
G02X96082623Y-143322812I499998J-11D01*
G01*
X61639353Y-158322820D02*
G75*
G02X61139373Y-157822812I14J499994D01*
G01*
X67389385Y-144322820D02*
G75*
G02X67889373Y-144822812I-2J-499990D01*
G01*
X357520163Y-124772812D02*
G75*
G02X358020123Y-124272812I499980J20D01*
G01*
X37263370Y-144822805D02*
G75*
G02X37763373Y-144322812I499998J-5D01*
G01*
X59076382Y-143322817D02*
G75*
G02X59576373Y-143822812I-2J-499993D01*
G01*
X37763373Y-158322815D02*
X43513373Y-158322815D01*
X95582624Y-143822815D02*
X95582624Y-156822812D01*
X371520129Y-137772810D02*
X371520129Y-124772813D01*
X351970134Y-124272812D02*
X338970122Y-124272812D01*
X90532624Y-156822812D02*
X90532624Y-143822815D01*
X338470129Y-124772813D02*
X338470129Y-137772810D01*
X76532619Y-143822804D02*
G75*
G02X77032623Y-143322812I499998J-6D01*
G01*
X67889369Y-157822836D02*
G75*
G02X67389373Y-158322812I-499986J10D01*
G01*
X37263373Y-144822810D02*
X37263373Y-157822814D01*
X43513373Y-144322809D02*
X37763373Y-144322809D01*
X76532622Y-143822815D02*
X76532622Y-156822812D01*
X358020117Y-138272858D02*
G75*
G02X357520123Y-137772812I26J500020D01*
G01*
X90032635Y-143322820D02*
G75*
G02X90532623Y-143822812I-2J-499990D01*
G01*
X371020148Y-124272797D02*
G75*
G02X371520123Y-124772812I-20J-499995D01*
G01*
X338970128Y-138272809D02*
G75*
G02X338470123Y-137772812I-4J500001D01*
G01*
X67389374Y-144322809D02*
X61639373Y-144322809D01*
X319920141Y-138272822D02*
G75*
G02X319420123Y-137772812I-4J500014D01*
G01*
X90532619Y-156822836D02*
G75*
G02X90032623Y-157322812I-499986J10D01*
G01*
X67889375Y-157822814D02*
X67889375Y-144822810D01*
X37763354Y-158322821D02*
G75*
G02X37263373Y-157822812I14J499995D01*
G01*
X352470127Y-137772810D02*
X352470127Y-124772813D01*
X357520131Y-124772813D02*
X357520131Y-137772810D01*
X77032603Y-157322820D02*
G75*
G02X76532623Y-156822812I14J499994D01*
G01*
X338470114Y-124772823D02*
G75*
G02X338970123Y-124272812I500010J1D01*
G01*
X351970100Y-124272809D02*
G75*
G02X352470123Y-124772812I10J-500013D01*
G01*
X319920120Y-138272811D02*
X332920132Y-138272811D01*
X371020136Y-124272812D02*
X358020124Y-124272812D01*
X333420126Y-137772807D02*
G75*
G02X332920123Y-138272812I-500004J-1D01*
G01*
X109082622Y-143322814D02*
X96082625Y-143322814D01*
X90032623Y-143322814D02*
X77032623Y-143322814D01*
X44013370Y-157822837D02*
G75*
G02X43513373Y-158322812I-499986J11D01*
G01*
X46076373Y-157322813D02*
X59076374Y-157322813D01*
X252745127Y-105722738D02*
G75*
G02X253245123Y-105222812I499961J-35D01*
G01*
X266245173Y-105222784D02*
G75*
G02X266745123Y-105722812I-39J-499989D01*
G01*
X247695139Y-118722844D02*
G75*
G02X247195123Y-119222812I-499992J24D01*
G01*
X233695139Y-105722750D02*
G75*
G02X234195123Y-105222812I499961J-23D01*
G01*
X228645151Y-118722856D02*
G75*
G02X228145123Y-119222812I-499992J36D01*
G01*
X209095164Y-105222775D02*
G75*
G02X209595123Y-105722812I-39J-499998D01*
G01*
X190545124Y-118722811D02*
X190545124Y-105722811D01*
X253245080Y-119222785D02*
G75*
G02X252745123Y-118722812I8J499965D01*
G01*
X247695116Y-118722811D02*
X247695116Y-105722811D01*
X295607614Y-105722787D02*
G75*
G02X296107623Y-105222812I499992J-17D01*
G01*
X266245124Y-105222810D02*
X253245128Y-105222810D01*
X247195186Y-105222797D02*
G75*
G02X247695123Y-105722812I-39J-499976D01*
G01*
X247195122Y-105222810D02*
X234195126Y-105222810D01*
X309107661Y-105222834D02*
G75*
G02X309607623Y-105722812I-8J-499970D01*
G01*
X215145123Y-119222812D02*
X228145120Y-119222812D01*
X295607624Y-105722811D02*
X295607624Y-118722811D01*
X309607675Y-118721946D02*
G75*
G02X309107623Y-119222812I-500022J-843D01*
G01*
X252745119Y-105722811D02*
X252745119Y-118722811D01*
X228145198Y-105222809D02*
G75*
G02X228645123Y-105722812I-39J-499964D01*
G01*
X209595126Y-118722811D02*
X209595126Y-105722811D01*
X272295129Y-119222772D02*
G75*
G02X271795123Y-118722812I-23J499983D01*
G01*
X285295161Y-105222834D02*
G75*
G02X285795123Y-105722812I-8J-499970D01*
G01*
X234195092Y-119222797D02*
G75*
G02X233695123Y-118722812I8J499977D01*
G01*
X215145104Y-119222809D02*
G75*
G02X214645123Y-118722812I8J499989D01*
G01*
X196095121Y-119222812D02*
X209095118Y-119222812D01*
X271795114Y-105722787D02*
G75*
G02X272295123Y-105222812I499992J-17D01*
G01*
X214645130Y-105722811D02*
X214645130Y-118722811D01*
X209095118Y-105222810D02*
X196095121Y-105222810D01*
X233695117Y-105722811D02*
X233695117Y-118722811D01*
X285295126Y-105222810D02*
X272295130Y-105222810D01*
X177045113Y-119222818D02*
G75*
G02X176545123Y-118722812I8J499998D01*
G01*
X209595117Y-118722822D02*
G75*
G02X209095123Y-119222812I-499992J2D01*
G01*
X309607622Y-118722811D02*
X309607622Y-105722811D01*
X266745118Y-118722811D02*
X266745118Y-105722811D01*
X214645151Y-105722762D02*
G75*
G02X215145123Y-105222812I499961J-11D01*
G01*
X271795121Y-105722811D02*
X271795121Y-118722811D01*
X196095101Y-119222806D02*
G75*
G02X195595123Y-118722812I8J499986D01*
G01*
X228645128Y-118722811D02*
X228645128Y-105722811D01*
X195595148Y-105722759D02*
G75*
G02X196095123Y-105222812I499961J-14D01*
G01*
X195595128Y-105722811D02*
X195595128Y-118722811D01*
X177045119Y-119222812D02*
X190045116Y-119222812D01*
X190545129Y-118722834D02*
G75*
G02X190045123Y-119222812I-499992J14D01*
G01*
X190045176Y-105222787D02*
G75*
G02X190545123Y-105722812I-39J-499986D01*
G01*
X190045116Y-105222810D02*
X177045119Y-105222810D01*
X176545160Y-105722771D02*
G75*
G02X177045123Y-105222812I499961J-2D01*
G01*
X176545126Y-105722811D02*
X176545126Y-118722811D01*
X157995110Y-119222815D02*
G75*
G02X157495123Y-118722812I8J499995D01*
G01*
X296107629Y-119222772D02*
G75*
G02X295607623Y-118722812I-23J499983D01*
G01*
X285795120Y-118722811D02*
X285795120Y-105722811D01*
X157995117Y-119222812D02*
X170995129Y-119222812D01*
X266745126Y-118722831D02*
G75*
G02X266245123Y-119222812I-499992J11D01*
G01*
X171495126Y-118722831D02*
G75*
G02X170995123Y-119222812I-499992J11D01*
G01*
X228145120Y-105222810D02*
X215145123Y-105222810D01*
X309107629Y-105222810D02*
X296107617Y-105222810D01*
X234195126Y-119222812D02*
X247195122Y-119222812D01*
X253245128Y-119222812D02*
X266245124Y-119222812D01*
X38932603Y-119222808D02*
G75*
G02X38432623Y-118722812I8J499988D01*
G01*
X38932623Y-119222812D02*
X51932623Y-119222812D01*
X52432634Y-118722839D02*
G75*
G02X51932623Y-119222812I-499992J19D01*
G01*
X138445122Y-105722811D02*
X138445122Y-118722811D01*
X113845164Y-105222775D02*
G75*
G02X114345123Y-105722812I-39J-499998D01*
G01*
X113845122Y-105222810D02*
X100845126Y-105222810D01*
X81795124Y-119222812D02*
X94795120Y-119222812D01*
X152445123Y-118722828D02*
G75*
G02X151945123Y-119222812I-499992J8D01*
G01*
X170995173Y-105222784D02*
G75*
G02X171495123Y-105722812I-39J-499989D01*
G01*
X157495157Y-105722768D02*
G75*
G02X157995123Y-105222812I499961J-5D01*
G01*
X151945127Y-105222810D02*
X138945123Y-105222810D01*
X152445120Y-118722811D02*
X152445120Y-105722811D01*
X114345117Y-118722822D02*
G75*
G02X113845123Y-119222812I-499992J2D01*
G01*
X151945170Y-105222781D02*
G75*
G02X152445123Y-105722812I-39J-499992D01*
G01*
X100345148Y-105722759D02*
G75*
G02X100845123Y-105222812I499961J-14D01*
G01*
X100345125Y-105722811D02*
X100345125Y-118722811D01*
X94795176Y-105222787D02*
G75*
G02X95295123Y-105722812I-39J-499986D01*
G01*
X62745122Y-119222812D02*
X75745122Y-119222812D01*
X75745181Y-105222792D02*
G75*
G02X76245123Y-105722812I-39J-499981D01*
G01*
X133395120Y-118722825D02*
G75*
G02X132895123Y-119222812I-499992J5D01*
G01*
X75745122Y-105222810D02*
X62745122Y-105222810D01*
X138945123Y-119222812D02*
X151945127Y-119222812D01*
X170995129Y-105222810D02*
X157995117Y-105222810D01*
X132895124Y-105222810D02*
X119895120Y-105222810D01*
X95295129Y-118722834D02*
G75*
G02X94795123Y-119222812I-499992J14D01*
G01*
X62245122Y-105722811D02*
X62245122Y-118722811D01*
X62245150Y-105722761D02*
G75*
G02X62745123Y-105222812I499961J-12D01*
G01*
X171495122Y-118722811D02*
X171495122Y-105722811D01*
X157495124Y-105722811D02*
X157495124Y-118722811D01*
X95295121Y-118722811D02*
X95295121Y-105722811D01*
X132895167Y-105222778D02*
G75*
G02X133395123Y-105722812I-39J-499995D01*
G01*
X76245134Y-118722839D02*
G75*
G02X75745123Y-119222812I-499992J19D01*
G01*
X81295123Y-105722811D02*
X81295123Y-118722811D01*
X138945107Y-119222812D02*
G75*
G02X138445123Y-118722812I8J499992D01*
G01*
X100845101Y-119222806D02*
G75*
G02X100345123Y-118722812I8J499986D01*
G01*
X119895104Y-119222809D02*
G75*
G02X119395123Y-118722812I8J499989D01*
G01*
X81795098Y-119222803D02*
G75*
G02X81295123Y-118722812I8J499983D01*
G01*
X94795120Y-105222810D02*
X81795124Y-105222810D01*
X62745103Y-119222808D02*
G75*
G02X62245123Y-118722812I8J499988D01*
G01*
X76245123Y-118722811D02*
X76245123Y-105722811D01*
X133395125Y-118722811D02*
X133395125Y-105722811D01*
X119395119Y-105722811D02*
X119395119Y-118722811D01*
X119395151Y-105722762D02*
G75*
G02X119895123Y-105222812I499961J-11D01*
G01*
X100845126Y-119222812D02*
X113845122Y-119222812D01*
X138445154Y-105722765D02*
G75*
G02X138945123Y-105222812I499961J-8D01*
G01*
X81295145Y-105722756D02*
G75*
G02X81795123Y-105222812I499961J-17D01*
G01*
X282532123Y-87672811D02*
X282532123Y-100672811D01*
X338970104Y-100172773D02*
G75*
G02X338470123Y-99672812I-10J499971D01*
G01*
X38432623Y-105722811D02*
X38432623Y-118722811D01*
X38432650Y-105722761D02*
G75*
G02X38932623Y-105222812I499961J-12D01*
G01*
X288782117Y-87172812D02*
X283032117Y-87172812D01*
X313158122Y-100672811D02*
X313158122Y-87672811D01*
X304345136Y-86172833D02*
G75*
G02X304845123Y-86672812I4J-499983D01*
G01*
X262770129Y-100172810D02*
X275770125Y-100172810D01*
X377070080Y-100172809D02*
G75*
G02X376570123Y-99672812I20J499977D01*
G01*
X319420127Y-86672811D02*
X319420127Y-99672813D01*
X351970134Y-86172812D02*
X338970122Y-86172812D01*
X376570126Y-86672763D02*
G75*
G02X377070123Y-86172812I499974J-23D01*
G01*
X371020136Y-86172812D02*
X358020124Y-86172812D01*
X357520138Y-86672775D02*
G75*
G02X358020123Y-86172812I499974J-11D01*
G01*
X282532102Y-87672799D02*
G75*
G02X283032123Y-87172812I500004J-17D01*
G01*
X312658185Y-87172822D02*
G75*
G02X313158123Y-87672812I-26J-499964D01*
G01*
X352470127Y-99672813D02*
X352470127Y-86672811D01*
X390070138Y-86172812D02*
X377070126Y-86172812D01*
X338470090Y-86672787D02*
G75*
G02X338970123Y-86172812I500004J-29D01*
G01*
X338970122Y-100172810D02*
X351970134Y-100172810D01*
X319920116Y-100172785D02*
G75*
G02X319420123Y-99672812I-10J499983D01*
G01*
X390070173Y-86172810D02*
G75*
G02X390570123Y-86672812I-26J-499976D01*
G01*
X377070126Y-100172810D02*
X390070138Y-100172810D01*
X390570127Y-99672856D02*
G75*
G02X390070123Y-100172812I-499980J24D01*
G01*
X371520139Y-99672868D02*
G75*
G02X371020123Y-100172812I-499980J36D01*
G01*
X319920120Y-100172810D02*
X332920132Y-100172810D01*
X338470129Y-86672811D02*
X338470129Y-99672813D01*
X333420125Y-99672813D02*
X333420125Y-86672811D01*
X306908093Y-101172822D02*
G75*
G02X306408123Y-100672812I20J499990D01*
G01*
X306908128Y-101172812D02*
X312658129Y-101172812D01*
X312658129Y-87172812D02*
X306908128Y-87172812D01*
X332920132Y-86172812D02*
X319920120Y-86172812D01*
X291345117Y-100172810D02*
X304345128Y-100172810D01*
X290845090Y-86672787D02*
G75*
G02X291345123Y-86172812I500004J-29D01*
G01*
X358020092Y-100172821D02*
G75*
G02X357520123Y-99672812I20J499989D01*
G01*
X376570133Y-86672811D02*
X376570133Y-99672813D01*
X51932623Y-105222810D02*
X38932623Y-105222810D01*
X52432624Y-118722811D02*
X52432624Y-105722811D01*
X51932681Y-105222792D02*
G75*
G02X52432623Y-105722812I-39J-499981D01*
G01*
X371520129Y-99672813D02*
X371520129Y-86672811D01*
X390570131Y-99672813D02*
X390570131Y-86672811D01*
X358020124Y-100172810D02*
X371020136Y-100172810D01*
X371020185Y-86172822D02*
G75*
G02X371520123Y-86672812I-26J-499964D01*
G01*
X352470150Y-99672819D02*
G75*
G02X351970123Y-100172812I-500010J17D01*
G01*
X332920149Y-86172846D02*
G75*
G02X333420123Y-86672812I4J-499970D01*
G01*
X319420102Y-86672799D02*
G75*
G02X319920123Y-86172812I500004J-17D01*
G01*
X289282162Y-100672831D02*
G75*
G02X288782123Y-101172812I-500010J29D01*
G01*
X304345128Y-86172812D02*
X291345117Y-86172812D01*
X262770092Y-100172821D02*
G75*
G02X262270123Y-99672812I20J499989D01*
G01*
X276270139Y-99672868D02*
G75*
G02X275770123Y-100172812I-499980J36D01*
G01*
X276270119Y-99672813D02*
X276270119Y-86672811D01*
X275770185Y-86172822D02*
G75*
G02X276270123Y-86672812I-26J-499964D01*
G01*
X275770125Y-86172812D02*
X262770129Y-86172812D01*
X262270138Y-86672775D02*
G75*
G02X262770123Y-86172812I499974J-11D01*
G01*
X262270120Y-86672811D02*
X262270120Y-99672813D01*
X357520131Y-86672811D02*
X357520131Y-99672813D01*
X333420163Y-99672832D02*
G75*
G02X332920123Y-100172812I-500010J30D01*
G01*
X243720127Y-100172810D02*
X256720123Y-100172810D01*
X283032117Y-101172812D02*
X288782117Y-101172812D01*
X243720104Y-100172773D02*
G75*
G02X243220123Y-99672812I-10J499971D01*
G01*
X257220150Y-99672819D02*
G75*
G02X256720123Y-100172812I-500010J17D01*
G01*
X351970136Y-86172833D02*
G75*
G02X352470123Y-86672812I4J-499983D01*
G01*
X313158139Y-100672868D02*
G75*
G02X312658123Y-101172812I-499980J36D01*
G01*
X283032116Y-101172785D02*
G75*
G02X282532123Y-100672812I-10J499983D01*
G01*
X205620122Y-100172810D02*
X218620119Y-100172810D01*
X257220117Y-99672813D02*
X257220117Y-86672811D01*
X186070127Y-86672811D02*
X186070127Y-99672813D01*
X181020108Y-99672837D02*
G75*
G02X180520123Y-100172812I-499980J5D01*
G01*
X199570117Y-86172812D02*
X186570120Y-86172812D01*
X238170163Y-99672832D02*
G75*
G02X237670123Y-100172812I-500010J30D01*
G01*
X147970135Y-86672772D02*
G75*
G02X148470123Y-86172812I499974J-14D01*
G01*
X205120144Y-86672781D02*
G75*
G02X205620123Y-86172812I499974J-5D01*
G01*
X167020138Y-86672775D02*
G75*
G02X167520123Y-86172812I499974J-11D01*
G01*
X243220118Y-86672811D02*
X243220118Y-99672813D01*
X218620130Y-86172827D02*
G75*
G02X219120123Y-86672812I4J-499989D01*
G01*
X205120129Y-86672811D02*
X205120129Y-99672813D01*
X142920117Y-99672846D02*
G75*
G02X142420123Y-100172812I-499980J14D01*
G01*
X180520130Y-86172812D02*
X167520118Y-86172812D01*
X219120144Y-99672813D02*
G75*
G02X218620123Y-100172812I-500010J11D01*
G01*
X218620119Y-86172812D02*
X205620122Y-86172812D01*
X199570157Y-86172794D02*
G75*
G02X200070123Y-86672812I-26J-499992D01*
G01*
X129420101Y-100172830D02*
G75*
G02X128920123Y-99672812I20J499998D01*
G01*
X142920126Y-99672813D02*
X142920126Y-86672811D01*
X224670116Y-100172785D02*
G75*
G02X224170123Y-99672812I-10J499983D01*
G01*
X186570095Y-100172824D02*
G75*
G02X186070123Y-99672812I20J499992D01*
G01*
X129420121Y-100172810D02*
X142420125Y-100172810D01*
X237670149Y-86172846D02*
G75*
G02X238170123Y-86672812I4J-499970D01*
G01*
X128920120Y-86672811D02*
X128920120Y-99672813D01*
X110370127Y-100172810D02*
X123370123Y-100172810D01*
X224170116Y-86672811D02*
X224170116Y-99672813D01*
X123870114Y-99672843D02*
G75*
G02X123370123Y-100172812I-499980J11D01*
G01*
X161470151Y-86172788D02*
G75*
G02X161970123Y-86672812I-26J-499998D01*
G01*
X123370160Y-86172797D02*
G75*
G02X123870123Y-86672812I-26J-499989D01*
G01*
X256720136Y-86172833D02*
G75*
G02X257220123Y-86672812I4J-499983D01*
G01*
X128920147Y-86672784D02*
G75*
G02X129420123Y-86172812I499974J-2D01*
G01*
X205620098Y-100172827D02*
G75*
G02X205120123Y-99672812I20J499995D01*
G01*
X167520118Y-100172810D02*
X180520130Y-100172810D01*
X237670121Y-86172812D02*
X224670125Y-86172812D01*
X200070125Y-99672813D02*
X200070125Y-86672811D01*
X161470128Y-86172812D02*
X148470124Y-86172812D01*
X142420163Y-86172800D02*
G75*
G02X142920123Y-86672812I-26J-499986D01*
G01*
X200070111Y-99672840D02*
G75*
G02X199570123Y-100172812I-499980J8D01*
G01*
X110370098Y-100172827D02*
G75*
G02X109870123Y-99672812I20J499995D01*
G01*
X123870124Y-99672813D02*
X123870124Y-86672811D01*
X123370123Y-86172812D02*
X110370127Y-86172812D01*
X238170130Y-99672813D02*
X238170130Y-86672811D01*
X186070141Y-86672778D02*
G75*
G02X186570123Y-86172812I499974J-8D01*
G01*
X161970105Y-99672834D02*
G75*
G02X161470123Y-100172812I-499980J2D01*
G01*
X142420125Y-86172812D02*
X129420121Y-86172812D01*
X109870144Y-86672781D02*
G75*
G02X110370123Y-86172812I499974J-5D01*
G01*
X109870126Y-86672811D02*
X109870126Y-99672813D01*
X91320095Y-100172824D02*
G75*
G02X90820123Y-99672812I20J499992D01*
G01*
X91320125Y-100172810D02*
X104320121Y-100172810D01*
X224670125Y-100172810D02*
X237670121Y-100172810D01*
X104820111Y-99672840D02*
G75*
G02X104320123Y-100172812I-499980J8D01*
G01*
X104820122Y-99672813D02*
X104820122Y-86672811D01*
X256720123Y-86172812D02*
X243720127Y-86172812D01*
X186570120Y-100172810D02*
X199570117Y-100172810D01*
X180520154Y-86172791D02*
G75*
G02X181020123Y-86672812I-26J-499995D01*
G01*
X167020125Y-86672811D02*
X167020125Y-99672813D01*
X148470124Y-100172810D02*
X161470128Y-100172810D01*
X161970121Y-99672813D02*
X161970121Y-86672811D01*
X243220090Y-86672787D02*
G75*
G02X243720123Y-86172812I500004J-29D01*
G01*
X167520092Y-100172821D02*
G75*
G02X167020123Y-99672812I20J499989D01*
G01*
X224170102Y-86672799D02*
G75*
G02X224670123Y-86172812I500004J-17D01*
G01*
X148470089Y-100172818D02*
G75*
G02X147970123Y-99672812I20J499986D01*
G01*
X181020123Y-99672813D02*
X181020123Y-86672811D01*
X219120127Y-99672813D02*
X219120127Y-86672811D01*
X85270162Y-86172799D02*
G75*
G02X85770123Y-86672812I-26J-499987D01*
G01*
X357520126Y-67622787D02*
G75*
G02X358020123Y-67122812I499986J-11D01*
G01*
X52720135Y-86672772D02*
G75*
G02X53220123Y-86172812I499974J-14D01*
G01*
X390070161Y-67122822D02*
G75*
G02X390570123Y-67622812I-14J-499976D01*
G01*
X71770122Y-86672811D02*
X71770122Y-99672813D01*
X333420125Y-80622811D02*
X333420125Y-67622812D01*
X104320157Y-86172794D02*
G75*
G02X104820123Y-86672812I-26J-499992D01*
G01*
X71770131Y-86672768D02*
G75*
G02X72270123Y-86172812I499974J-18D01*
G01*
X376570133Y-67622812D02*
X376570133Y-80622811D01*
X352470127Y-80622811D02*
X352470127Y-67622812D01*
X66720120Y-99672849D02*
G75*
G02X66220123Y-100172812I-499980J17D01*
G01*
X319920120Y-81122812D02*
X332920132Y-81122812D01*
X34170086Y-100172815D02*
G75*
G02X33670123Y-99672812I20J499983D01*
G01*
X390570115Y-80622868D02*
G75*
G02X390070123Y-81122812I-499968J24D01*
G01*
X47170163Y-86172800D02*
G75*
G02X47670123Y-86672812I-26J-499986D01*
G01*
X377070068Y-81122821D02*
G75*
G02X376570123Y-80622812I32J499977D01*
G01*
X351970134Y-67122812D02*
X338970122Y-67122812D01*
X338470078Y-67622799D02*
G75*
G02X338970123Y-67122812I500016J-29D01*
G01*
X371520129Y-80622811D02*
X371520129Y-67622812D01*
X72270085Y-100172814D02*
G75*
G02X71770123Y-99672812I20J499982D01*
G01*
X319420090Y-67622811D02*
G75*
G02X319920123Y-67122812I500016J-17D01*
G01*
X90820124Y-86672811D02*
X90820124Y-99672813D01*
X53220122Y-100172810D02*
X66220125Y-100172810D01*
X358020080Y-81122833D02*
G75*
G02X357520123Y-80622812I32J499989D01*
G01*
X332920137Y-67122858D02*
G75*
G02X333420123Y-67622812I16J-499970D01*
G01*
X300870056Y-81122809D02*
G75*
G02X300370123Y-80622812I32J499965D01*
G01*
X104320121Y-86172812D02*
X91320125Y-86172812D01*
X85770124Y-99672813D02*
X85770124Y-86672811D01*
X90820141Y-86672778D02*
G75*
G02X91320123Y-86172812I499974J-8D01*
G01*
X53220089Y-100172818D02*
G75*
G02X52720123Y-99672812I20J499986D01*
G01*
X66720122Y-99672813D02*
X66720122Y-86672811D01*
X34170123Y-100172810D02*
X47170122Y-100172810D01*
X371520127Y-80622880D02*
G75*
G02X371020123Y-81122812I-499968J36D01*
G01*
X66220166Y-86172803D02*
G75*
G02X66720123Y-86672812I-26J-499983D01*
G01*
X33670132Y-86672769D02*
G75*
G02X34170123Y-86172812I499974J-17D01*
G01*
X377070126Y-81122812D02*
X390070138Y-81122812D01*
X371020173Y-67122834D02*
G75*
G02X371520123Y-67622812I-14J-499964D01*
G01*
X358020124Y-81122812D02*
X371020136Y-81122812D01*
X85270123Y-86172812D02*
X72270123Y-86172812D01*
X390570131Y-80622811D02*
X390570131Y-67622812D01*
X338970092Y-81122785D02*
G75*
G02X338470123Y-80622812I2J499971D01*
G01*
X338970122Y-81122812D02*
X351970134Y-81122812D01*
X352470138Y-80622831D02*
G75*
G02X351970123Y-81122812I-499998J17D01*
G01*
X351970124Y-67122845D02*
G75*
G02X352470123Y-67622812I16J-499983D01*
G01*
X338470129Y-67622812D02*
X338470129Y-80622811D01*
X333420151Y-80622844D02*
G75*
G02X332920123Y-81122812I-499998J30D01*
G01*
X319420127Y-67622812D02*
X319420127Y-80622811D01*
X300870118Y-81122812D02*
X313870129Y-81122812D01*
X314370102Y-80622855D02*
G75*
G02X313870123Y-81122812I-499968J11D01*
G01*
X314370123Y-80622811D02*
X314370123Y-67622812D01*
X47170122Y-86172812D02*
X34170123Y-86172812D01*
X85770116Y-99672845D02*
G75*
G02X85270123Y-100172812I-499980J13D01*
G01*
X313870148Y-67122809D02*
G75*
G02X314370123Y-67622812I-14J-499989D01*
G01*
X390070138Y-67122812D02*
X377070126Y-67122812D01*
X72270123Y-100172810D02*
X85270123Y-100172810D01*
X313870129Y-67122812D02*
X300870118Y-67122812D01*
X371020136Y-67122812D02*
X358020124Y-67122812D01*
X319920104Y-81122797D02*
G75*
G02X319420123Y-80622812I2J499983D01*
G01*
X332920132Y-67122812D02*
X319920120Y-67122812D01*
X376570114Y-67622775D02*
G75*
G02X377070123Y-67122812I499986J-23D01*
G01*
X47670117Y-99672846D02*
G75*
G02X47170123Y-100172812I-499980J14D01*
G01*
X357520131Y-67622812D02*
X357520131Y-80622811D01*
X66220125Y-86172812D02*
X53220122Y-86172812D01*
X281820068Y-81122821D02*
G75*
G02X281320123Y-80622812I32J499977D01*
G01*
X186570120Y-81122812D02*
X199570117Y-81122812D01*
X276270127Y-80622880D02*
G75*
G02X275770123Y-81122812I-499968J36D01*
G01*
X243220078Y-67622799D02*
G75*
G02X243720123Y-67122812I500016J-29D01*
G01*
X295320121Y-80622811D02*
X295320121Y-67622812D01*
X224670125Y-81122812D02*
X237670121Y-81122812D01*
X295320115Y-80622868D02*
G75*
G02X294820123Y-81122812I-499968J24D01*
G01*
X262270126Y-67622787D02*
G75*
G02X262770123Y-67122812I499986J-11D01*
G01*
X167520080Y-81122833D02*
G75*
G02X167020123Y-80622812I32J499989D01*
G01*
X186070127Y-67622812D02*
X186070127Y-80622811D01*
X281320114Y-67622775D02*
G75*
G02X281820123Y-67122812I499986J-23D01*
G01*
X167520118Y-81122812D02*
X180520130Y-81122812D01*
X276270119Y-80622811D02*
X276270119Y-67622812D01*
X256720124Y-67122845D02*
G75*
G02X257220123Y-67622812I16J-499983D01*
G01*
X262270120Y-67622812D02*
X262270120Y-80622811D01*
X257220138Y-80622831D02*
G75*
G02X256720123Y-81122812I-499998J17D01*
G01*
X180520142Y-67122803D02*
G75*
G02X181020123Y-67622812I-14J-499995D01*
G01*
X167020125Y-67622812D02*
X167020125Y-80622811D01*
X237670121Y-67122812D02*
X224670125Y-67122812D01*
X205620122Y-81122812D02*
X218620119Y-81122812D01*
X294820127Y-67122812D02*
X281820116Y-67122812D01*
X238170151Y-80622844D02*
G75*
G02X237670123Y-81122812I-499998J30D01*
G01*
X186570083Y-81122836D02*
G75*
G02X186070123Y-80622812I32J499992D01*
G01*
X161970093Y-80622846D02*
G75*
G02X161470123Y-81122812I-499968J2D01*
G01*
X200070099Y-80622852D02*
G75*
G02X199570123Y-81122812I-499968J8D01*
G01*
X294820161Y-67122822D02*
G75*
G02X295320123Y-67622812I-14J-499976D01*
G01*
X300370124Y-67622812D02*
X300370124Y-80622811D01*
X281320122Y-67622812D02*
X281320122Y-80622811D01*
X205120132Y-67622793D02*
G75*
G02X205620123Y-67122812I499986J-5D01*
G01*
X275770173Y-67122834D02*
G75*
G02X276270123Y-67622812I-14J-499964D01*
G01*
X237670137Y-67122858D02*
G75*
G02X238170123Y-67622812I16J-499970D01*
G01*
X218620118Y-67122839D02*
G75*
G02X219120123Y-67622812I16J-499989D01*
G01*
X262770080Y-81122833D02*
G75*
G02X262270123Y-80622812I32J499989D01*
G01*
X243720127Y-81122812D02*
X256720123Y-81122812D01*
X257220117Y-80622811D02*
X257220117Y-67622812D01*
X224170090Y-67622811D02*
G75*
G02X224670123Y-67122812I500016J-17D01*
G01*
X238170130Y-80622811D02*
X238170130Y-67622812D01*
X281820116Y-81122812D02*
X294820127Y-81122812D01*
X256720123Y-67122812D02*
X243720127Y-67122812D01*
X219120127Y-80622811D02*
X219120127Y-67622812D01*
X205120129Y-67622812D02*
X205120129Y-80622811D01*
X200070125Y-80622811D02*
X200070125Y-67622812D01*
X218620119Y-67122812D02*
X205620122Y-67122812D01*
X205620086Y-81122839D02*
G75*
G02X205120123Y-80622812I32J499995D01*
G01*
X199570145Y-67122806D02*
G75*
G02X200070123Y-67622812I-14J-499992D01*
G01*
X199570117Y-67122812D02*
X186570120Y-67122812D01*
X186070129Y-67622790D02*
G75*
G02X186570123Y-67122812I499986J-8D01*
G01*
X181020096Y-80622849D02*
G75*
G02X180520123Y-81122812I-499968J5D01*
G01*
X181020123Y-80622811D02*
X181020123Y-67622812D01*
X243720092Y-81122785D02*
G75*
G02X243220123Y-80622812I2J499971D01*
G01*
X300370102Y-67622763D02*
G75*
G02X300870123Y-67122812I499986J-35D01*
G01*
X167020126Y-67622787D02*
G75*
G02X167520123Y-67122812I499986J-11D01*
G01*
X243220118Y-67622812D02*
X243220118Y-80622811D01*
X148470077Y-81122830D02*
G75*
G02X147970123Y-80622812I32J499986D01*
G01*
X161970121Y-80622811D02*
X161970121Y-67622812D01*
X224170116Y-67622812D02*
X224170116Y-80622811D01*
X161470139Y-67122800D02*
G75*
G02X161970123Y-67622812I-14J-499998D01*
G01*
X161470128Y-67122812D02*
X148470124Y-67122812D01*
X224670104Y-81122797D02*
G75*
G02X224170123Y-80622812I2J499983D01*
G01*
X275770125Y-67122812D02*
X262770129Y-67122812D01*
X219120132Y-80622825D02*
G75*
G02X218620123Y-81122812I-499998J11D01*
G01*
X262770129Y-81122812D02*
X275770125Y-81122812D01*
X142420151Y-67122812D02*
G75*
G02X142920123Y-67622812I-14J-499986D01*
G01*
X128920135Y-67622796D02*
G75*
G02X129420123Y-67122812I499986J-2D01*
G01*
X91320125Y-81122812D02*
X104320121Y-81122812D01*
X104820099Y-80622852D02*
G75*
G02X104320123Y-81122812I-499968J8D01*
G01*
X90820129Y-67622790D02*
G75*
G02X91320123Y-67122812I499986J-8D01*
G01*
X147970123Y-67622812D02*
X147970123Y-80622811D01*
X142920105Y-80622858D02*
G75*
G02X142420123Y-81122812I-499968J14D01*
G01*
X104820122Y-80622811D02*
X104820122Y-67622812D01*
X72270123Y-81122812D02*
X85270123Y-81122812D01*
X129420089Y-81122842D02*
G75*
G02X128920123Y-80622812I32J499998D01*
G01*
X109870126Y-67622812D02*
X109870126Y-80622811D01*
X129420121Y-81122812D02*
X142420125Y-81122812D01*
X104320145Y-67122806D02*
G75*
G02X104820123Y-67622812I-14J-499992D01*
G01*
X71770119Y-67622780D02*
G75*
G02X72270123Y-67122812I499986J-18D01*
G01*
X66220125Y-67122812D02*
X53220122Y-67122812D01*
X34170123Y-81122812D02*
X47170122Y-81122812D01*
X128920120Y-67622812D02*
X128920120Y-80622811D01*
X66720108Y-80622861D02*
G75*
G02X66220123Y-81122812I-499968J17D01*
G01*
X147970123Y-67622784D02*
G75*
G02X148470123Y-67122812I499986J-14D01*
G01*
X123870102Y-80622855D02*
G75*
G02X123370123Y-81122812I-499968J11D01*
G01*
X66220154Y-67122815D02*
G75*
G02X66720123Y-67622812I-14J-499983D01*
G01*
X90820124Y-67622812D02*
X90820124Y-80622811D01*
X47170151Y-67122812D02*
G75*
G02X47670123Y-67622812I-14J-499986D01*
G01*
X66720122Y-80622811D02*
X66720122Y-67622812D01*
X33670123Y-67622812D02*
X33670123Y-80622811D01*
X91320083Y-81122836D02*
G75*
G02X90820123Y-80622812I32J499992D01*
G01*
X72270073Y-81122826D02*
G75*
G02X71770123Y-80622812I32J499982D01*
G01*
X52720123Y-67622812D02*
X52720123Y-80622811D01*
X47670105Y-80622858D02*
G75*
G02X47170123Y-81122812I-499968J14D01*
G01*
X110370127Y-81122812D02*
X123370123Y-81122812D01*
X71770122Y-67622812D02*
X71770122Y-80622811D01*
X85270150Y-67122811D02*
G75*
G02X85770123Y-67622812I-14J-499987D01*
G01*
X123370123Y-67122812D02*
X110370127Y-67122812D01*
X104320121Y-67122812D02*
X91320125Y-67122812D01*
X142420125Y-67122812D02*
X129420121Y-67122812D01*
X85770104Y-80622857D02*
G75*
G02X85270123Y-81122812I-499968J13D01*
G01*
X85270123Y-67122812D02*
X72270123Y-67122812D01*
X53220077Y-81122830D02*
G75*
G02X52720123Y-80622812I32J499986D01*
G01*
X52720123Y-67622784D02*
G75*
G02X53220123Y-67122812I499986J-14D01*
G01*
X110370086Y-81122839D02*
G75*
G02X109870123Y-80622812I32J499995D01*
G01*
X123370148Y-67122809D02*
G75*
G02X123870123Y-67622812I-14J-499989D01*
G01*
X123870124Y-80622811D02*
X123870124Y-67622812D01*
X109870132Y-67622793D02*
G75*
G02X110370123Y-67122812I499986J-5D01*
G01*
X34170074Y-81122827D02*
G75*
G02X33670123Y-80622812I32J499983D01*
G01*
X142920126Y-80622811D02*
X142920126Y-67622812D01*
X33670120Y-67622781D02*
G75*
G02X34170123Y-67122812I499986J-17D01*
G01*
X47170122Y-67122812D02*
X34170123Y-67122812D01*
X85770124Y-80622811D02*
X85770124Y-67622812D01*
X47670123Y-80622811D02*
X47670123Y-67622812D01*
X271007636Y-124272785D02*
G75*
G02X271507623Y-124772812I-20J-500007D01*
G01*
X271007625Y-124272812D02*
X258007628Y-124272812D01*
X286900840Y-138772831D02*
G75*
G02X286400873Y-139272812I-499974J-7D01*
G01*
X219907624Y-138272811D02*
X232907621Y-138272811D01*
X280650854Y-139272845D02*
G75*
G02X280150873Y-138772812I26J500007D01*
G01*
X258007628Y-138272811D02*
X271007625Y-138272811D01*
X219407614Y-124772823D02*
G75*
G02X219907623Y-124272812I500010J1D01*
G01*
X238957626Y-138272811D02*
X251957623Y-138272811D01*
X310776887Y-138772812D02*
X310776887Y-125772812D01*
X232907600Y-124272809D02*
G75*
G02X233407623Y-124772812I10J-500013D01*
G01*
X238457618Y-124772813D02*
X238457618Y-137772810D01*
X214357627Y-137772810D02*
X214357627Y-124772813D01*
X200357627Y-124772836D02*
G75*
G02X200857623Y-124272812I500010J14D01*
G01*
X310776877Y-138772808D02*
G75*
G02X310276873Y-139272812I-500004J0D01*
G01*
X181807638Y-138272819D02*
G75*
G02X181307623Y-137772812I-4J500011D01*
G01*
X252457616Y-137772810D02*
X252457616Y-124772813D01*
X319420127Y-124772813D02*
X319420127Y-137772810D01*
X271507590Y-137772831D02*
G75*
G02X271007623Y-138272812I-499974J-7D01*
G01*
X251957648Y-124272797D02*
G75*
G02X252457623Y-124772812I-20J-499995D01*
G01*
X271507618Y-137772810D02*
X271507618Y-124772813D01*
X333420125Y-137772810D02*
X333420125Y-124772813D01*
X214357626Y-137772807D02*
G75*
G02X213857623Y-138272812I-500004J-1D01*
G01*
X200857622Y-138272811D02*
X213857618Y-138272811D01*
X181807620Y-138272811D02*
X194807616Y-138272811D01*
X195307625Y-137772810D02*
X195307625Y-124772813D01*
X233407614Y-137772795D02*
G75*
G02X232907623Y-138272812I-500004J-13D01*
G01*
X194807609Y-124272818D02*
G75*
G02X195307623Y-124772812I10J-500004D01*
G01*
X288463888Y-124772787D02*
G75*
G02X288963873Y-124272812I499980J-5D01*
G01*
X219407630Y-124772813D02*
X219407630Y-137772810D01*
X252457602Y-137772843D02*
G75*
G02X251957623Y-138272812I-499974J5D01*
G01*
X238957617Y-138272858D02*
G75*
G02X238457623Y-137772812I26J500020D01*
G01*
X200857641Y-138272822D02*
G75*
G02X200357623Y-137772812I-4J500014D01*
G01*
X280150900Y-125772799D02*
G75*
G02X280650873Y-125272812I499980J7D01*
G01*
X319420127Y-124772836D02*
G75*
G02X319920123Y-124272812I500010J14D01*
G01*
X258007605Y-138272846D02*
G75*
G02X257507623Y-137772812I26J500008D01*
G01*
X257507651Y-124772800D02*
G75*
G02X258007623Y-124272812I499980J8D01*
G01*
X251957623Y-124272812D02*
X238957626Y-124272812D01*
X332920132Y-124272812D02*
X319920120Y-124272812D01*
X213857618Y-124272812D02*
X200857622Y-124272812D01*
X200357628Y-124772813D02*
X200357628Y-137772810D01*
X195307623Y-137772804D02*
G75*
G02X194807623Y-138272812I-500004J-4D01*
G01*
X280650866Y-139272813D02*
X286400882Y-139272813D01*
X301963874Y-124272773D02*
G75*
G02X302463873Y-124772812I-20J-500019D01*
G01*
X257507620Y-124772813D02*
X257507620Y-137772810D01*
X232907621Y-124272812D02*
X219907624Y-124272812D01*
X219907628Y-138272809D02*
G75*
G02X219407623Y-137772812I-4J500001D01*
G01*
X194807616Y-124272812D02*
X181807620Y-124272812D01*
X181307624Y-124772833D02*
G75*
G02X181807623Y-124272812I500010J11D01*
G01*
X181307626Y-124772813D02*
X181307626Y-137772810D01*
X162757635Y-138272816D02*
G75*
G02X162257623Y-137772812I-4J500008D01*
G01*
X162757618Y-138272811D02*
X175757629Y-138272811D01*
X176257620Y-137772801D02*
G75*
G02X175757623Y-138272812I-500004J-7D01*
G01*
X304526863Y-139272813D02*
X310276863Y-139272813D01*
X332920112Y-124272821D02*
G75*
G02X333420123Y-124772812I10J-500001D01*
G01*
X213857612Y-124272821D02*
G75*
G02X214357623Y-124772812I10J-500001D01*
G01*
X310276863Y-125272822D02*
G75*
G02X310776873Y-125772812I10J-500000D01*
G01*
X288963882Y-138272811D02*
X301963863Y-138272811D01*
X301963863Y-124272812D02*
X288963882Y-124272812D01*
X286400882Y-125272811D02*
X280650866Y-125272811D01*
X310276863Y-125272811D02*
X304526863Y-125272811D01*
X238457663Y-124772812D02*
G75*
G02X238957623Y-124272812I499980J20D01*
G01*
X233407629Y-137772810D02*
X233407629Y-124772813D01*
X304526891Y-139272822D02*
G75*
G02X304026873Y-138772812I-4J500014D01*
G01*
X280150873Y-125772812D02*
X280150873Y-138772812D01*
X156707603Y-124272812D02*
G75*
G02X157207623Y-124772812I10J-500010D01*
G01*
X105607641Y-138272822D02*
G75*
G02X105107623Y-137772812I-4J500014D01*
G01*
X119107626Y-137772807D02*
G75*
G02X118607623Y-138272812I-500004J-1D01*
G01*
X175757606Y-124272815D02*
G75*
G02X176257623Y-124772812I10J-500007D01*
G01*
X143207622Y-124772813D02*
X143207622Y-137772810D01*
X119107624Y-137772810D02*
X119107624Y-124772813D01*
X175757629Y-124272812D02*
X162757618Y-124272812D01*
X143707631Y-138272812D02*
G75*
G02X143207623Y-137772812I-4J500004D01*
G01*
X157207617Y-137772798D02*
G75*
G02X156707623Y-138272812I-500004J-10D01*
G01*
X138157626Y-137772810D02*
X138157626Y-124772813D01*
X124157620Y-124772813D02*
X124157620Y-137772810D01*
X124657628Y-138272809D02*
G75*
G02X124157623Y-137772812I-4J500001D01*
G01*
X118607612Y-124272821D02*
G75*
G02X119107623Y-124772812I10J-500001D01*
G01*
X118607623Y-124272812D02*
X105607626Y-124272812D01*
X105107627Y-124772836D02*
G75*
G02X105607623Y-124272812I500010J14D01*
G01*
X162257624Y-124772813D02*
X162257624Y-137772810D01*
X143707623Y-138272811D02*
X156707627Y-138272811D01*
X157207621Y-137772810D02*
X157207621Y-124772813D01*
X124657621Y-138272811D02*
X137657625Y-138272811D01*
X138157614Y-137772795D02*
G75*
G02X137657623Y-138272812I-500004J-13D01*
G01*
X137657600Y-124272809D02*
G75*
G02X138157623Y-124772812I10J-500013D01*
G01*
X124157614Y-124772823D02*
G75*
G02X124657623Y-124272812I500010J1D01*
G01*
X162257621Y-124772830D02*
G75*
G02X162757623Y-124272812I500010J8D01*
G01*
X105607626Y-138272811D02*
X118607623Y-138272811D01*
X156707627Y-124272812D02*
X143707623Y-124272812D01*
X137657625Y-124272812D02*
X124657621Y-124272812D01*
X176257623Y-137772810D02*
X176257623Y-124772813D01*
X143207617Y-124772826D02*
G75*
G02X143707623Y-124272812I500010J4D01*
G01*
X84176374Y-176372815D02*
X97176370Y-176372815D01*
X59863876Y-162872787D02*
G75*
G02X60363873Y-162372812I499986J-11D01*
G01*
X49551392Y-162372803D02*
G75*
G02X50051373Y-162872812I-14J-499995D01*
G01*
X97176392Y-162372803D02*
G75*
G02X97676373Y-162872812I-14J-499995D01*
G01*
X49551373Y-162372809D02*
X36551373Y-162372809D01*
X50051374Y-175872814D02*
X50051374Y-162872810D01*
X36051376Y-162872787D02*
G75*
G02X36551373Y-162372812I499986J-11D01*
G01*
X375570112Y-145034777D02*
G75*
G02X376070123Y-144534812I499988J-23D01*
G01*
X60363873Y-176372815D02*
X73363872Y-176372815D01*
X97176370Y-162372809D02*
X84176374Y-162372809D01*
X73363872Y-162372809D02*
X60363873Y-162372809D01*
X375570116Y-145034809D02*
X375570116Y-150784809D01*
X60363860Y-176372803D02*
G75*
G02X59863873Y-175872812I2J499989D01*
G01*
X73863876Y-175872819D02*
G75*
G02X73363873Y-176372812I-499998J5D01*
G01*
X83676376Y-162872787D02*
G75*
G02X84176373Y-162372812I499986J-11D01*
G01*
X36551360Y-176372803D02*
G75*
G02X36051373Y-175872812I2J499989D01*
G01*
X59863874Y-162872810D02*
X59863874Y-175872814D01*
X73363892Y-162372803D02*
G75*
G02X73863873Y-162872812I-14J-499995D01*
G01*
X36551373Y-176372815D02*
X49551373Y-176372815D01*
X50051376Y-175872819D02*
G75*
G02X49551373Y-176372812I-499998J5D01*
G01*
X97676376Y-175872819D02*
G75*
G02X97176373Y-176372812I-499998J5D01*
G01*
X73863873Y-175872814D02*
X73863873Y-162872810D01*
X97676371Y-175872814D02*
X97676371Y-162872810D01*
X371020136Y-105222810D02*
X358020124Y-105222810D01*
X357520151Y-105722762D02*
G75*
G02X358020123Y-105222812I499961J-11D01*
G01*
X80507614Y-124272823D02*
G75*
G02X81007623Y-124772812I10J-499999D01*
G01*
X81007628Y-137772809D02*
G75*
G02X80507623Y-138272812I-500004J1D01*
G01*
X99557621Y-124272812D02*
X86557624Y-124272812D01*
X86057616Y-124772825D02*
G75*
G02X86557623Y-124272812I500010J3D01*
G01*
X67007613Y-124772822D02*
G75*
G02X67507623Y-124272812I500010J0D01*
G01*
X99557609Y-124272818D02*
G75*
G02X100057623Y-124772812I10J-500004D01*
G01*
X67507622Y-138272811D02*
X80507622Y-138272811D01*
X54313858Y-124272817D02*
G75*
G02X54813873Y-124772812I10J-500005D01*
G01*
X40813872Y-124772831D02*
G75*
G02X41313873Y-124272812I500010J9D01*
G01*
X40813873Y-124772813D02*
X40813873Y-137772810D01*
X375570164Y-106934787D02*
G75*
G02X376070123Y-106434812I499967J8D01*
G01*
X375570116Y-106934812D02*
X375570116Y-112684812D01*
X389570114Y-112684812D02*
X389570114Y-106934812D01*
X67007625Y-124772813D02*
X67007625Y-137772810D01*
X105107625Y-124772813D02*
X105107625Y-137772810D01*
X389070149Y-106434772D02*
G75*
G02X389570123Y-106934812I-33J-500007D01*
G01*
X375570126Y-130810763D02*
G75*
G02X376070123Y-130310812I499974J-23D01*
G01*
X389570114Y-136560809D02*
X389570114Y-130810808D01*
X390570131Y-128247809D02*
X390570131Y-115247812D01*
X54313873Y-124272812D02*
X41313873Y-124272812D01*
X80507622Y-124272812D02*
X67507622Y-124272812D01*
X389070121Y-106434811D02*
X376070109Y-106434811D01*
X100057623Y-137772804D02*
G75*
G02X99557623Y-138272812I-500004J-4D01*
G01*
X390070161Y-114747822D02*
G75*
G02X390570123Y-115247812I-14J-499976D01*
G01*
X358020104Y-119222809D02*
G75*
G02X357520123Y-118722812I8J499989D01*
G01*
X86557630Y-138272811D02*
G75*
G02X86057623Y-137772812I-4J500003D01*
G01*
X67507627Y-138272808D02*
G75*
G02X67007623Y-137772812I-4J500000D01*
G01*
X86557624Y-138272811D02*
X99557621Y-138272811D01*
X86057623Y-124772813D02*
X86057623Y-137772810D01*
X81007623Y-137772810D02*
X81007623Y-124772813D01*
X54813872Y-137772803D02*
G75*
G02X54313873Y-138272812I-500004J-5D01*
G01*
X100057622Y-137772810D02*
X100057622Y-124772813D01*
X376070117Y-113184834D02*
G75*
G02X375570123Y-112684812I14J500008D01*
G01*
X375570116Y-130810808D02*
X375570116Y-136560809D01*
X376070109Y-137060810D02*
X389070121Y-137060810D01*
X41313873Y-138272811D02*
X54313873Y-138272811D01*
X41313886Y-138272817D02*
G75*
G02X40813873Y-137772812I-4J500009D01*
G01*
X54813872Y-137772810D02*
X54813872Y-124772813D01*
X389570126Y-136560857D02*
G75*
G02X389070123Y-137060812I-499979J24D01*
G01*
X376570133Y-115247812D02*
X376570133Y-128247809D01*
X390570115Y-128247868D02*
G75*
G02X390070123Y-128747812I-499968J24D01*
G01*
X358020124Y-119222812D02*
X371020136Y-119222812D01*
X371520151Y-118722856D02*
G75*
G02X371020123Y-119222812I-499992J36D01*
G01*
X376070079Y-137060810D02*
G75*
G02X375570123Y-136560812I21J499977D01*
G01*
X371520129Y-118722811D02*
X371520129Y-105722811D01*
X371020198Y-105222809D02*
G75*
G02X371520123Y-105722812I-39J-499964D01*
G01*
X319920129Y-119222772D02*
G75*
G02X319420123Y-118722812I-23J499983D01*
G01*
X351970148Y-105222821D02*
G75*
G02X352470123Y-105722812I-8J-499983D01*
G01*
X357520131Y-105722811D02*
X357520131Y-118722811D01*
X338470102Y-105722775D02*
G75*
G02X338970123Y-105222812I499992J-29D01*
G01*
X319920120Y-119222812D02*
X332920132Y-119222812D01*
X333420125Y-118722811D02*
X333420125Y-105722811D01*
X332920132Y-105222810D02*
X319920120Y-105222810D01*
X319420114Y-105722787D02*
G75*
G02X319920123Y-105222812I499992J-17D01*
G01*
X332920161Y-105222834D02*
G75*
G02X333420123Y-105722812I-8J-499970D01*
G01*
X351970134Y-105222810D02*
X338970122Y-105222810D01*
X338470129Y-105722811D02*
X338470129Y-118722811D01*
X333420175Y-118721946D02*
G75*
G02X332920123Y-119222812I-500022J-843D01*
G01*
X352470127Y-118722811D02*
X352470127Y-105722811D01*
X352470163Y-118722806D02*
G75*
G02X351970123Y-119222812I-500023J17D01*
G01*
X338970117Y-119222760D02*
G75*
G02X338470123Y-118722812I-23J499971D01*
G01*
X319420127Y-105722811D02*
X319420127Y-118722811D01*
X389570114Y-174660813D02*
X389570114Y-168910813D01*
X376070109Y-175160814D02*
X389070121Y-175160814D01*
X338970122Y-157322813D02*
X351970134Y-157322813D01*
X389070159Y-144534824D02*
G75*
G02X389570123Y-145034812I-12J-499976D01*
G01*
X389070121Y-144534815D02*
X376070109Y-144534815D01*
X390570131Y-166347813D02*
X390570131Y-153347809D01*
X389570114Y-150784809D02*
X389570114Y-145034809D01*
X358020098Y-157322815D02*
G75*
G02X357520123Y-156822812I14J499989D01*
G01*
X371020161Y-143322846D02*
G75*
G02X371520123Y-143822812I-2J-499964D01*
G01*
X376070089Y-175160800D02*
G75*
G02X375570123Y-174660812I11J499977D01*
G01*
X371020136Y-143322814D02*
X358020124Y-143322814D01*
X357520114Y-143822799D02*
G75*
G02X358020123Y-143322812I499998J-11D01*
G01*
X357520131Y-143822815D02*
X357520131Y-156822812D01*
X352470127Y-156822812D02*
X352470127Y-143822815D01*
X351970097Y-143322812D02*
G75*
G02X352470123Y-143822812I13J-500013D01*
G01*
X371520129Y-156822812D02*
X371520129Y-143822815D01*
X390070155Y-152847828D02*
G75*
G02X390570123Y-153347812I-8J-499976D01*
G01*
X338470129Y-143822815D02*
X338470129Y-156822812D01*
X332920109Y-143322824D02*
G75*
G02X333420123Y-143822812I13J-500001D01*
G01*
X319420124Y-143822839D02*
G75*
G02X319920123Y-143322812I500013J14D01*
G01*
X319420127Y-143822815D02*
X319420127Y-156822812D01*
X332920132Y-143322814D02*
X319920120Y-143322814D01*
X390570139Y-166347844D02*
G75*
G02X390070123Y-166847812I-499992J24D01*
G01*
X358020124Y-157322813D02*
X371020136Y-157322813D01*
X300870074Y-157322791D02*
G75*
G02X300370123Y-156822812I14J499965D01*
G01*
X300870118Y-157322813D02*
X313870129Y-157322813D01*
X338470111Y-143822826D02*
G75*
G02X338970123Y-143322812I500013J1D01*
G01*
X375570116Y-168910813D02*
X375570116Y-174660813D01*
X375570105Y-168910784D02*
G75*
G02X376070123Y-168410812I499995J-23D01*
G01*
X389570136Y-174660847D02*
G75*
G02X389070123Y-175160812I-499989J24D01*
G01*
X371520145Y-156822862D02*
G75*
G02X371020123Y-157322812I-499986J36D01*
G01*
X352470111Y-156822798D02*
G75*
G02X351970123Y-157322812I-500001J-13D01*
G01*
X333420123Y-156822810D02*
G75*
G02X332920123Y-157322812I-500001J-1D01*
G01*
X376070096Y-151284793D02*
G75*
G02X375570123Y-150784812I4J499977D01*
G01*
X314370120Y-156822837D02*
G75*
G02X313870123Y-157322812I-499986J11D01*
G01*
X351970134Y-143322814D02*
X338970122Y-143322814D01*
X319920120Y-157322813D02*
X332920132Y-157322813D01*
X319920138Y-157322825D02*
G75*
G02X319420123Y-156822812I-1J500014D01*
G01*
X333420125Y-156822812D02*
X333420125Y-143822815D01*
X338970125Y-157322812D02*
G75*
G02X338470123Y-156822812I-1J500001D01*
G01*
X314370123Y-156822812D02*
X314370123Y-143822815D01*
X313870136Y-143322821D02*
G75*
G02X314370123Y-143822812I-2J-499989D01*
G01*
X313870129Y-143322814D02*
X300870118Y-143322814D01*
X300370090Y-143822775D02*
G75*
G02X300870123Y-143322812I499998J-35D01*
G01*
X300370124Y-143822815D02*
X300370124Y-156822812D01*
X223882633Y-156822850D02*
G75*
G02X223382623Y-157322812I-499986J24D01*
G01*
X229432574Y-157322791D02*
G75*
G02X228932623Y-156822812I14J499965D01*
G01*
X247982619Y-143822815D02*
X247982619Y-156822812D01*
X223882628Y-156822812D02*
X223882628Y-143822815D01*
X223382649Y-143322834D02*
G75*
G02X223882623Y-143822812I-2J-499976D01*
G01*
X274176372Y-143822815D02*
X274176372Y-156822812D01*
X229432625Y-157322813D02*
X242432622Y-157322813D01*
X228932617Y-143822815D02*
X228932617Y-156822812D01*
X228932590Y-143822775D02*
G75*
G02X229432623Y-143322812I499998J-35D01*
G01*
X223382619Y-143322814D02*
X210382623Y-143322814D01*
X209882602Y-143822817D02*
G75*
G02X210382623Y-143322812I500013J-8D01*
G01*
X242432622Y-143322814D02*
X229432625Y-143322814D01*
X242932620Y-156822837D02*
G75*
G02X242432623Y-157322812I-499986J11D01*
G01*
X242932630Y-156822812D02*
X242932630Y-143822815D01*
X274676348Y-157322815D02*
G75*
G02X274176373Y-156822812I14J499989D01*
G01*
X288176385Y-156822812D02*
X288176385Y-143822815D01*
X248482638Y-157322825D02*
G75*
G02X247982623Y-156822812I-1J500014D01*
G01*
X287676362Y-143322814D02*
X274676380Y-143322814D01*
X261482609Y-143322824D02*
G75*
G02X261982623Y-143822812I13J-500001D01*
G01*
X261982623Y-156822810D02*
G75*
G02X261482623Y-157322812I-500001J-1D01*
G01*
X261482624Y-143322814D02*
X248482627Y-143322814D01*
X247982624Y-143822839D02*
G75*
G02X248482623Y-143322812I500013J14D01*
G01*
X261982617Y-156822812D02*
X261982617Y-143822815D01*
X287676411Y-143322846D02*
G75*
G02X288176373Y-143822812I-2J-499964D01*
G01*
X274176364Y-143822799D02*
G75*
G02X274676373Y-143322812I499998J-11D01*
G01*
X248482627Y-157322813D02*
X261482624Y-157322813D01*
X288176395Y-156822862D02*
G75*
G02X287676373Y-157322812I-499986J36D01*
G01*
X242432636Y-143322821D02*
G75*
G02X242932623Y-143822812I-2J-499989D01*
G01*
X274676380Y-157322813D02*
X287676362Y-157322813D01*
X210382616Y-157322803D02*
G75*
G02X209882623Y-156822812I-1J499992D01*
G01*
X210382623Y-157322813D02*
X223382619Y-157322813D01*
X36051373Y-175872812D02*
X36051376Y-162872847D01*
X376560000Y-153350000D02*
X376570123Y-166347812D01*
X306410000Y-100170000D02*
X306408123Y-100672812D01*
X289280000Y-100170000D02*
X289282162Y-100672444D01*
X52720123Y-99672812D02*
X52720135Y-86672808D01*
X290845090Y-86673148D02*
X290840000Y-87170000D01*
X33670123Y-99672812D02*
X33670132Y-86672841D01*
X288463888Y-124772746D02*
X288460000Y-125270000D01*
X302463873Y-124772812D02*
X302470000Y-125270000D01*
X45570000Y-144320000D02*
X45576366Y-143822902D01*
X44013370Y-157822781D02*
X44010000Y-157320000D01*
X376570000Y-113190000D02*
X376070315Y-113184834D01*
X376070123Y-130310812D02*
X376570000Y-130310000D01*
X286900840Y-138773047D02*
X286900000Y-138270000D01*
X59580000Y-144320000D02*
X59576373Y-143822812D01*
X304845123Y-86672812D02*
X304850000Y-87170000D01*
X131013873Y-162872812D02*
X131020000Y-163370000D01*
X390070123Y-128747812D02*
X389570000Y-128750000D01*
X117013870Y-162872838D02*
X117010000Y-163370000D01*
X132570000Y-176370000D02*
X132576873Y-176872812D01*
X83676373Y-175872812D02*
X83676376Y-162872847D01*
X389570000Y-114750000D02*
X390070113Y-114747822D01*
X376070039Y-151284793D02*
X376560000Y-151290000D01*
X389570000Y-152850000D02*
X390070178Y-152847828D01*
X389570000Y-166850000D02*
X390070123Y-166847812D01*
X147970123Y-99672812D02*
X147970135Y-86672808D01*
X376070123Y-168410812D02*
X376570000Y-168410000D01*
X304026873Y-138772812D02*
X304020000Y-138270000D01*
X115450000Y-176370000D02*
X115450882Y-176872710D01*
X203970000Y-176370000D02*
X203976373Y-176872812D01*
X186930000Y-176370000D02*
X186926376Y-176872769D01*
X61140000Y-157320000D02*
X61139373Y-157822812D01*
X332920121Y-162372812D02*
G75*
G02X333420123Y-162872812I1J-500001D01*
G01*
X332920132Y-162372809D02*
X319920120Y-162372809D01*
X133076874Y-163372811D02*
X131020000Y-163370000D01*
X130513874Y-176372815D02*
X132570000Y-176370000D01*
X319420136Y-162872827D02*
G75*
G02X319920123Y-162372812I500001J14D01*
G01*
X319420127Y-162872810D02*
X319420127Y-175872814D01*
X300870086Y-176372779D02*
G75*
G02X300370123Y-175872812I2J499965D01*
G01*
X202451373Y-162872812D02*
X202450000Y-163370000D01*
X114950870Y-163372811D02*
X117010000Y-163370000D01*
X301963873Y-138272812D02*
X304020000Y-138270000D01*
X371520157Y-175872850D02*
G75*
G02X371020123Y-176372812I-499998J36D01*
G01*
X376570123Y-166347812D02*
X376570000Y-168410000D01*
X371020173Y-162372834D02*
G75*
G02X371520123Y-162872812I-14J-499964D01*
G01*
X371020136Y-162372809D02*
X358020124Y-162372809D01*
X376570123Y-128247812D02*
X376570000Y-130310000D01*
X338970137Y-176372800D02*
G75*
G02X338470123Y-175872812I-13J500001D01*
G01*
X352470123Y-175872786D02*
G75*
G02X351970123Y-176372812I-500013J-13D01*
G01*
X357520126Y-162872787D02*
G75*
G02X358020123Y-162372812I499986J-11D01*
G01*
X352470127Y-175872814D02*
X352470127Y-162872810D01*
X188451370Y-162872838D02*
X188450000Y-163370000D01*
X117513870Y-176372815D02*
X115450000Y-176370000D01*
X376570133Y-115247812D02*
X376570000Y-113190000D01*
X351970109Y-162372800D02*
G75*
G02X352470123Y-162872812I1J-500013D01*
G01*
X61639373Y-144322812D02*
X59580000Y-144320000D01*
X389570114Y-112684812D02*
X389570000Y-114750000D01*
X304345123Y-100172812D02*
X306410000Y-100170000D01*
X304526873Y-125272812D02*
X302470000Y-125270000D01*
X389570114Y-168910813D02*
X389570000Y-166850000D01*
X389570114Y-150784809D02*
X389570000Y-152850000D01*
X291344846Y-100172773D02*
X289280000Y-100170000D01*
X186426369Y-163372811D02*
X188450000Y-163370000D01*
X204476369Y-163372811D02*
X202450000Y-163370000D01*
X188951223Y-176372797D02*
X186930000Y-176370000D01*
X286400882Y-125272811D02*
X288460000Y-125270000D01*
X357520131Y-162872810D02*
X357520131Y-175872814D01*
X351970134Y-162372809D02*
X338970122Y-162372809D01*
X338470123Y-162872814D02*
G75*
G02X338970123Y-162372812I500001J1D01*
G01*
X201951373Y-176372812D02*
X203970000Y-176370000D01*
X319920150Y-176372813D02*
G75*
G02X319420123Y-175872812I-13J500014D01*
G01*
X319920120Y-176372815D02*
X332920132Y-176372815D01*
X389570123Y-130810812D02*
X389570000Y-128750000D01*
X306908128Y-87172812D02*
X304850000Y-87170000D01*
X288782340Y-87172845D02*
X290840000Y-87170000D01*
X288963882Y-138272811D02*
X286900000Y-138270000D01*
X371520129Y-175872814D02*
X371520129Y-162872810D01*
X333420135Y-175872798D02*
G75*
G02X332920123Y-176372812I-500013J-1D01*
G01*
X376560000Y-153350000D02*
X376560000Y-151290000D01*
X338470129Y-162872810D02*
X338470129Y-175872814D01*
X46076472Y-157322817D02*
X44010000Y-157320000D01*
X43513419Y-144322821D02*
X45570000Y-144320000D01*
X333420125Y-175872814D02*
X333420125Y-162872810D01*
X358020110Y-176372803D02*
G75*
G02X357520123Y-175872812I2J499989D01*
G01*
X59076374Y-157322813D02*
X61140000Y-157320000D01*
X358020124Y-176372815D02*
X371020136Y-176372815D01*
X338970122Y-176372815D02*
X351970134Y-176372815D01*
X240551380Y-175872814D02*
X240551380Y-162872810D01*
X281820116Y-176372815D02*
X294820127Y-176372815D01*
X240051423Y-162372834D02*
G75*
G02X240551373Y-162872812I-14J-499964D01*
G01*
X300370124Y-162872810D02*
X300370124Y-175872814D01*
X227051360Y-176372803D02*
G75*
G02X226551373Y-175872812I2J499989D01*
G01*
X180176375Y-163872812D02*
X180176375Y-176872809D01*
X204476369Y-177372810D02*
X210226369Y-177372810D01*
X250863860Y-176372803D02*
G75*
G02X250363873Y-175872812I2J499989D01*
G01*
X210226380Y-163372821D02*
G75*
G02X210726373Y-163872812I1J-499992D01*
G01*
X188951371Y-176372815D02*
X201951367Y-176372815D01*
X210726394Y-176872807D02*
G75*
G02X210226373Y-177372812I-500013J8D01*
G01*
X180676360Y-177372803D02*
G75*
G02X180176373Y-176872812I2J499989D01*
G01*
X281320122Y-162872810D02*
X281320122Y-175872814D01*
X201951367Y-162372809D02*
X188951371Y-162372809D01*
X300370102Y-162872763D02*
G75*
G02X300870123Y-162372812I499986J-35D01*
G01*
X227051375Y-176372815D02*
X240051371Y-176372815D01*
X204476378Y-177372791D02*
G75*
G02X203976373Y-176872812I-13J499992D01*
G01*
X240551407Y-175872850D02*
G75*
G02X240051373Y-176372812I-499998J36D01*
G01*
X186926376Y-176872819D02*
G75*
G02X186426373Y-177372812I-499998J5D01*
G01*
X210226369Y-163372811D02*
X204476369Y-163372811D01*
X201951386Y-162372827D02*
G75*
G02X202451373Y-162872812I1J-499986D01*
G01*
X186426369Y-163372811D02*
X180676368Y-163372811D01*
X188451370Y-162872811D02*
G75*
G02X188951373Y-162372812I500001J-2D01*
G01*
X250363876Y-162872787D02*
G75*
G02X250863873Y-162372812I499986J-11D01*
G01*
X150851378Y-176372791D02*
G75*
G02X150351373Y-175872812I-13J499992D01*
G01*
X150851374Y-176372815D02*
X163851378Y-176372815D01*
X314370132Y-175872825D02*
G75*
G02X313870123Y-176372812I-499998J11D01*
G01*
X295320121Y-175872814D02*
X295320121Y-162872810D01*
X313870129Y-162372809D02*
X300870118Y-162372809D01*
X250363869Y-162872810D02*
X250363869Y-175872814D01*
X180676368Y-177372810D02*
X186426369Y-177372810D01*
X313870148Y-162372809D02*
G75*
G02X314370123Y-162872812I-14J-499989D01*
G01*
X240051371Y-162372809D02*
X227051375Y-162372809D01*
X226551366Y-162872810D02*
X226551366Y-175872814D01*
X281820098Y-176372791D02*
G75*
G02X281320123Y-175872812I2J499977D01*
G01*
X263863923Y-162372834D02*
G75*
G02X264363873Y-162872812I-14J-499964D01*
G01*
X180176376Y-163872787D02*
G75*
G02X180676373Y-163372812I499986J-11D01*
G01*
X226551376Y-162872787D02*
G75*
G02X227051373Y-162372812I499986J-11D01*
G01*
X210726378Y-176872809D02*
X210726378Y-163872812D01*
X300870118Y-176372815D02*
X313870129Y-176372815D01*
X314370123Y-175872814D02*
X314370123Y-162872810D01*
X281320114Y-162872775D02*
G75*
G02X281820123Y-162372812I499986J-23D01*
G01*
X250863877Y-176372815D02*
X263863874Y-176372815D01*
X264363867Y-175872814D02*
X264363867Y-162872810D01*
X263863874Y-162372809D02*
X250863877Y-162372809D01*
X295320145Y-175872838D02*
G75*
G02X294820123Y-176372812I-499998J24D01*
G01*
X264363907Y-175872850D02*
G75*
G02X263863873Y-176372812I-499998J36D01*
G01*
X294820127Y-162372809D02*
X281820116Y-162372809D01*
X294820161Y-162372822D02*
G75*
G02X295320123Y-162872812I-14J-499976D01*
G01*
X166232628Y-143322814D02*
X153232624Y-143322814D01*
X166732622Y-156822812D02*
X166732622Y-143822815D01*
X134182604Y-157322821D02*
G75*
G02X133682623Y-156822812I14J499995D01*
G01*
X115132620Y-157322813D02*
X128132624Y-157322813D01*
X134182622Y-157322813D02*
X147182626Y-157322813D01*
X147182626Y-143322814D02*
X134182622Y-143322814D01*
X171782625Y-143822815D02*
X171782625Y-156822812D01*
X204332617Y-143322814D02*
X191332621Y-143322814D01*
X166232624Y-143322839D02*
G75*
G02X166732623Y-143822812I13J-499986D01*
G01*
X147682620Y-156822837D02*
G75*
G02X147182623Y-157322812I-499986J11D01*
G01*
X147682620Y-156822812D02*
X147682620Y-143822815D01*
X204832626Y-156822812D02*
X204832626Y-143822815D01*
X96082598Y-157322815D02*
G75*
G02X95582623Y-156822812I14J499989D01*
G01*
X191332621Y-157322813D02*
X204332617Y-157322813D01*
X190832614Y-143822799D02*
G75*
G02X191332623Y-143322812I499998J-11D01*
G01*
X172282610Y-157322797D02*
G75*
G02X171782623Y-156822812I-1J499986D01*
G01*
X152732608Y-143822823D02*
G75*
G02X153232623Y-143322812I500013J-2D01*
G01*
X172282619Y-157322813D02*
X185282630Y-157322813D01*
X147182636Y-143322821D02*
G75*
G02X147682623Y-143822812I-2J-499989D01*
G01*
X190832627Y-143822815D02*
X190832627Y-156822812D01*
X185782624Y-156822812D02*
X185782624Y-143822815D01*
X152732623Y-143822815D02*
X152732623Y-156822812D01*
X185282630Y-143322814D02*
X172282619Y-143322814D01*
X133682621Y-143822815D02*
X133682621Y-156822812D01*
X115132616Y-157322803D02*
G75*
G02X114632623Y-156822812I-1J499992D01*
G01*
X209882629Y-143822815D02*
X209882629Y-156822812D01*
X185282612Y-143322827D02*
G75*
G02X185782623Y-143822812I13J-499998D01*
G01*
X128632632Y-156822819D02*
G75*
G02X128132623Y-157322812I-500001J8D01*
G01*
X204832614Y-156822831D02*
G75*
G02X204332623Y-157322812I-499986J5D01*
G01*
X166732638Y-156822825D02*
G75*
G02X166232623Y-157322812I-500001J14D01*
G01*
X133682620Y-143822805D02*
G75*
G02X134182623Y-143322812I499998J-5D01*
G01*
X171782596Y-143822811D02*
G75*
G02X172282623Y-143322812I500013J-14D01*
G01*
X128632625Y-156822812D02*
X128632625Y-143822815D01*
X128132618Y-143322833D02*
G75*
G02X128632623Y-143822812I13J-499992D01*
G01*
X114632602Y-143822817D02*
G75*
G02X115132623Y-143322812I500013J-8D01*
G01*
X96082625Y-157322813D02*
X109082622Y-157322813D01*
X109582614Y-156822831D02*
G75*
G02X109082623Y-157322812I-499986J5D01*
G01*
X109582623Y-156822812D02*
X109582623Y-143822815D01*
X109082630Y-143322815D02*
G75*
G02X109582623Y-143822812I-2J-499995D01*
G01*
X191332598Y-157322815D02*
G75*
G02X190832623Y-156822812I14J499989D01*
G01*
X185782626Y-156822813D02*
G75*
G02X185282623Y-157322812I-500001J2D01*
G01*
X153232624Y-157322813D02*
X166232628Y-157322813D01*
X114632626Y-143822815D02*
X114632626Y-156822812D01*
X128132624Y-143322814D02*
X115132620Y-143322814D01*
X204332630Y-143322815D02*
G75*
G02X204832623Y-143822812I-2J-499995D01*
G01*
X153232622Y-157322809D02*
G75*
G02X152732623Y-156822812I-1J499998D01*
G01*
X25603200Y-152247600D02*
X25603200Y-91744800D01*
X398576800Y-152247600D02*
X398576800Y-91744800D01*
X402095110Y-91751363D02*
X398576800Y-91744800D01*
X402095123Y-152242100D02*
X398576800Y-152247600D01*
X22145129Y-152244255D02*
X25603200Y-152247600D01*
X22145123Y-91753523D02*
X25603200Y-91744800D01*
X22145123Y-180897812D02*
X22145129Y-152244255D01*
X402095123Y-152242100D02*
X402095115Y-180897786D01*
D11*
G36*
X272502691Y-171077653D02*
G01*
X272523926Y-171080803D01*
X272544750Y-171086019D01*
X272564962Y-171093251D01*
X272584368Y-171102430D01*
X272602781Y-171113466D01*
X272620024Y-171126254D01*
X272635930Y-171140670D01*
X272650346Y-171156576D01*
X272663134Y-171173819D01*
X272674170Y-171192232D01*
X272683349Y-171211638D01*
X272690581Y-171231850D01*
X272695797Y-171252674D01*
X272698947Y-171273909D01*
X272700000Y-171295350D01*
X272700000Y-171807850D01*
X272698947Y-171829291D01*
X272695797Y-171850526D01*
X272690581Y-171871350D01*
X272683349Y-171891562D01*
X272674170Y-171910968D01*
X272663134Y-171929381D01*
X272650346Y-171946624D01*
X272635930Y-171962530D01*
X272620024Y-171976946D01*
X272602781Y-171989734D01*
X272584368Y-172000770D01*
X272564962Y-172009949D01*
X272544750Y-172017181D01*
X272523926Y-172022397D01*
X272502691Y-172025547D01*
X272481250Y-172026600D01*
X272043750Y-172026600D01*
X272022309Y-172025547D01*
X272001074Y-172022397D01*
X271980250Y-172017181D01*
X271960038Y-172009949D01*
X271940632Y-172000770D01*
X271922219Y-171989734D01*
X271904976Y-171976946D01*
X271889070Y-171962530D01*
X271874654Y-171946624D01*
X271861866Y-171929381D01*
X271850830Y-171910968D01*
X271841651Y-171891562D01*
X271834419Y-171871350D01*
X271829203Y-171850526D01*
X271826053Y-171829291D01*
X271825000Y-171807850D01*
X271825000Y-171295350D01*
X271826053Y-171273909D01*
X271829203Y-171252674D01*
X271834419Y-171231850D01*
X271841651Y-171211638D01*
X271850830Y-171192232D01*
X271861866Y-171173819D01*
X271874654Y-171156576D01*
X271889070Y-171140670D01*
X271904976Y-171126254D01*
X271922219Y-171113466D01*
X271940632Y-171102430D01*
X271960038Y-171093251D01*
X271980250Y-171086019D01*
X272001074Y-171080803D01*
X272022309Y-171077653D01*
X272043750Y-171076600D01*
X272481250Y-171076600D01*
X272502691Y-171077653D01*
X272502691Y-171077653D01*
G37*
D12*
X272262500Y-171551600D03*
D11*
G36*
X274077691Y-171077653D02*
G01*
X274098926Y-171080803D01*
X274119750Y-171086019D01*
X274139962Y-171093251D01*
X274159368Y-171102430D01*
X274177781Y-171113466D01*
X274195024Y-171126254D01*
X274210930Y-171140670D01*
X274225346Y-171156576D01*
X274238134Y-171173819D01*
X274249170Y-171192232D01*
X274258349Y-171211638D01*
X274265581Y-171231850D01*
X274270797Y-171252674D01*
X274273947Y-171273909D01*
X274275000Y-171295350D01*
X274275000Y-171807850D01*
X274273947Y-171829291D01*
X274270797Y-171850526D01*
X274265581Y-171871350D01*
X274258349Y-171891562D01*
X274249170Y-171910968D01*
X274238134Y-171929381D01*
X274225346Y-171946624D01*
X274210930Y-171962530D01*
X274195024Y-171976946D01*
X274177781Y-171989734D01*
X274159368Y-172000770D01*
X274139962Y-172009949D01*
X274119750Y-172017181D01*
X274098926Y-172022397D01*
X274077691Y-172025547D01*
X274056250Y-172026600D01*
X273618750Y-172026600D01*
X273597309Y-172025547D01*
X273576074Y-172022397D01*
X273555250Y-172017181D01*
X273535038Y-172009949D01*
X273515632Y-172000770D01*
X273497219Y-171989734D01*
X273479976Y-171976946D01*
X273464070Y-171962530D01*
X273449654Y-171946624D01*
X273436866Y-171929381D01*
X273425830Y-171910968D01*
X273416651Y-171891562D01*
X273409419Y-171871350D01*
X273404203Y-171850526D01*
X273401053Y-171829291D01*
X273400000Y-171807850D01*
X273400000Y-171295350D01*
X273401053Y-171273909D01*
X273404203Y-171252674D01*
X273409419Y-171231850D01*
X273416651Y-171211638D01*
X273425830Y-171192232D01*
X273436866Y-171173819D01*
X273449654Y-171156576D01*
X273464070Y-171140670D01*
X273479976Y-171126254D01*
X273497219Y-171113466D01*
X273515632Y-171102430D01*
X273535038Y-171093251D01*
X273555250Y-171086019D01*
X273576074Y-171080803D01*
X273597309Y-171077653D01*
X273618750Y-171076600D01*
X274056250Y-171076600D01*
X274077691Y-171077653D01*
X274077691Y-171077653D01*
G37*
D12*
X273837500Y-171551600D03*
M02*
