M48
; DRILL file {KiCad (5.1.4)-1} date 8/5/2020 11:24:18 PM
; FORMAT={-:-/ absolute / inch / decimal}
; #@! TF.CreationDate,2020-08-05T23:24:18-07:00
; #@! TF.GenerationSoftware,Kicad,Pcbnew,(5.1.4)-1
FMAT,2
INCH
T1C0.0157
T2C0.0236
T3C0.0394
T4C0.0579
T5C0.0256
T6C0.0689
T7C0.1200
T8C0.1570
%
G90
G05
T1
X4.535Y-6.225
X4.56Y-4.395
X4.57Y-6.34
X4.6Y-6.225
X4.615Y-5.825
X4.645Y-7.18
X5.16Y-4.245
X5.33Y-4.38
X5.33Y-4.4194
X5.405Y-4.245
X5.755Y-8.465
X6.49Y-8.4713
X6.695Y-8.4713
X8.005Y-8.445
X8.9841Y-8.4359
X9.9281Y-8.3731
X10.63Y-8.28
X11.3671Y-7.7364
X11.3957Y-7.765
X11.515Y-8.36
X11.565Y-8.3
X11.6562Y-8.25
X11.738Y-7.87
X11.74Y-8.74
X11.8748Y-7.9598
X11.8785Y-8.6855
X11.915Y-7.96
X11.975Y-8.145
X12.025Y-8.16
X12.085Y-8.58
X12.102Y-8.4835
X13.255Y-8.471
X14.195Y-8.47
X14.47Y-8.475
X15.225Y-8.475
X15.975Y-8.475
X16.725Y-8.475
X17.475Y-8.475
X17.755Y-8.56
T3
X4.477Y-6.5514
X4.477Y-6.7286
X4.733Y-6.5514
X4.733Y-6.7286
X4.477Y-6.8214
X4.477Y-6.9986
X4.733Y-6.8214
X4.733Y-6.9986
T4
X10.725Y-5.23
X10.975Y-5.13
X8.0062Y-8.23
X8.2562Y-8.13
X6.4125Y-7.48
X6.6625Y-7.38
X16.725Y-5.23
X16.975Y-5.13
X8.475Y-4.48
X8.725Y-4.38
X14.1937Y-7.48
X14.4437Y-7.38
X6.975Y-4.48
X7.225Y-4.38
X11.2875Y-6.73
X11.5375Y-6.63
X17.475Y-5.23
X17.725Y-5.13
X6.6937Y-8.23
X6.9437Y-8.13
X12.0375Y-6.73
X12.2875Y-6.63
X12.975Y-5.23
X13.225Y-5.13
X8.6625Y-7.48
X8.9125Y-7.38
X15.975Y-4.48
X16.225Y-4.38
X15.975Y-5.98
X16.225Y-5.88
X8.2875Y-6.73
X8.5375Y-6.63
X10.35Y-5.98
X10.6Y-5.88
X7.9125Y-7.48
X8.1625Y-7.38
X16.725Y-4.48
X16.975Y-4.38
X5.1937Y-7.48
X5.4437Y-7.38
X6.6Y-5.98
X6.85Y-5.88
X13.35Y-5.98
X13.6Y-5.88
X8.85Y-5.98
X9.1Y-5.88
X7.1625Y-7.48
X7.4125Y-7.38
X13.725Y-4.48
X13.975Y-4.38
X12.4125Y-7.48
X12.6625Y-7.38
X6.7875Y-6.73
X7.0375Y-6.63
X11.85Y-5.98
X12.1Y-5.88
X16.725Y-6.73
X16.975Y-6.63
X6.225Y-5.23
X6.475Y-5.13
X5.0062Y-6.73
X5.2562Y-6.63
X13.1625Y-7.48
X13.4125Y-7.38
X12.975Y-4.48
X13.225Y-4.38
X9.225Y-5.23
X9.475Y-5.13
X17.475Y-7.48
X17.725Y-7.38
X9.975Y-4.48
X10.225Y-4.38
X18.475Y-7.805
X18.575Y-8.055
X12.7875Y-6.73
X13.0375Y-6.63
X8.1Y-5.98
X8.35Y-5.88
X10.8187Y-8.23
X11.0687Y-8.13
X6.225Y-4.48
X6.475Y-4.38
X14.85Y-5.23
X15.1Y-5.13
X10.5375Y-6.73
X10.7875Y-6.63
X9.6Y-5.98
X9.85Y-5.88
X14.475Y-8.23
X14.725Y-8.13
X17.475Y-8.23
X17.725Y-8.13
X11.6625Y-7.48
X11.9125Y-7.38
X15.0375Y-5.98
X15.2875Y-5.88
X12.225Y-5.23
X12.475Y-5.13
X15.225Y-8.23
X15.475Y-8.13
X18.225Y-4.48
X18.475Y-4.38
X14.1Y-5.98
X14.35Y-5.88
X11.475Y-5.23
X11.725Y-5.13
X10.9125Y-7.48
X11.1625Y-7.38
X7.725Y-5.23
X7.975Y-5.13
X15.975Y-6.73
X16.225Y-6.63
X7.35Y-5.98
X7.6Y-5.88
X9.3187Y-8.23
X9.5687Y-8.13
X6.975Y-5.23
X7.225Y-5.13
X15.975Y-8.23
X16.225Y-8.13
X6.0375Y-6.73
X6.2875Y-6.63
X12.6Y-5.98
X12.85Y-5.88
X10.725Y-4.48
X10.975Y-4.38
X4.8187Y-8.23
X5.0687Y-8.13
X15.225Y-4.48
X15.475Y-4.38
X10.1625Y-7.48
X10.4125Y-7.38
X12.225Y-4.48
X12.475Y-4.38
X14.475Y-4.48
X14.725Y-4.38
X18.475Y-6.305
X18.575Y-6.555
X7.725Y-4.48
X7.975Y-4.38
X14.7562Y-6.73
X15.0062Y-6.63
X9.0375Y-6.73
X9.2875Y-6.63
X18.225Y-5.23
X18.475Y-5.13
X11.475Y-4.48
X11.725Y-4.38
X12.3187Y-8.23
X12.5687Y-8.13
X13.5375Y-6.73
X13.7875Y-6.63
X15.975Y-5.23
X16.225Y-5.13
X9.4125Y-7.48
X9.6625Y-7.38
X4.725Y-4.48
X4.975Y-4.38
X9.225Y-4.48
X9.475Y-4.38
X16.725Y-5.98
X16.975Y-5.88
X13.725Y-5.23
X13.975Y-5.13
X15.975Y-7.48
X16.225Y-7.38
X17.475Y-4.48
X17.725Y-4.38
X5.475Y-4.48
X5.725Y-4.38
X16.725Y-8.23
X16.975Y-8.13
X7.5375Y-6.73
X7.7875Y-6.63
X11.1Y-5.98
X11.35Y-5.88
X13.2562Y-8.23
X13.5062Y-8.13
X5.475Y-5.23
X5.725Y-5.13
X17.475Y-5.98
X17.725Y-5.88
X5.85Y-5.98
X6.1Y-5.88
X17.475Y-6.73
X17.725Y-6.63
X8.475Y-5.23
X8.725Y-5.13
X15.225Y-7.48
X15.475Y-7.38
X9.7875Y-6.73
X10.0375Y-6.63
X4.9125Y-5.98
X5.1625Y-5.88
X16.725Y-7.48
X16.975Y-7.38
X4.725Y-5.23
X4.975Y-5.13
X5.7562Y-8.23
X6.0062Y-8.13
X9.975Y-5.23
X10.225Y-5.13
T5
X5.1675Y-4.1261
X5.395Y-4.1261
T6
X14.8Y-5.33
X15.2Y-5.33
X10.4875Y-6.83
X10.8875Y-6.83
X9.55Y-6.08
X9.95Y-6.08
X14.425Y-8.33
X14.825Y-8.33
X17.425Y-8.33
X17.825Y-8.33
X11.6125Y-7.58
X12.0125Y-7.58
X14.9875Y-6.08
X15.3875Y-6.08
X12.175Y-5.33
X12.575Y-5.33
X15.175Y-8.33
X15.575Y-8.33
X18.175Y-4.58
X18.575Y-4.58
X14.05Y-6.08
X14.45Y-6.08
X11.425Y-5.33
X11.825Y-5.33
X10.8625Y-7.58
X11.2625Y-7.58
X7.675Y-5.33
X8.075Y-5.33
X15.925Y-6.83
X16.325Y-6.83
X7.3Y-6.08
X7.7Y-6.08
X9.2687Y-8.33
X9.6687Y-8.33
X6.925Y-5.33
X7.325Y-5.33
X15.925Y-8.33
X16.325Y-8.33
X5.9875Y-6.83
X6.3875Y-6.83
X12.55Y-6.08
X12.95Y-6.08
X10.675Y-4.58
X11.075Y-4.58
X4.7687Y-8.33
X5.1688Y-8.33
X15.175Y-4.58
X15.575Y-4.58
X10.1125Y-7.58
X10.5125Y-7.58
X12.175Y-4.58
X12.575Y-4.58
X14.425Y-4.58
X14.825Y-4.58
X18.375Y-6.255
X18.375Y-6.655
X7.675Y-4.58
X8.075Y-4.58
X14.7062Y-6.83
X15.1062Y-6.83
X8.9875Y-6.83
X9.3875Y-6.83
X18.175Y-5.33
X18.575Y-5.33
X11.425Y-4.58
X11.825Y-4.58
X12.2687Y-8.33
X12.6687Y-8.33
X13.4875Y-6.83
X13.8875Y-6.83
X15.925Y-5.33
X16.325Y-5.33
X9.3625Y-7.58
X9.7625Y-7.58
X4.675Y-4.58
X5.075Y-4.58
X9.175Y-4.58
X9.575Y-4.58
X16.675Y-6.08
X17.075Y-6.08
X13.675Y-5.33
X14.075Y-5.33
X15.925Y-7.58
X16.325Y-7.58
X17.425Y-4.58
X17.825Y-4.58
X5.425Y-4.58
X5.825Y-4.58
X16.675Y-8.33
X17.075Y-8.33
X7.4875Y-6.83
X7.8875Y-6.83
X11.05Y-6.08
X11.45Y-6.08
X13.2062Y-8.33
X13.6062Y-8.33
X5.425Y-5.33
X5.825Y-5.33
X17.425Y-6.08
X17.825Y-6.08
X5.8Y-6.08
X6.2Y-6.08
X17.425Y-6.83
X17.825Y-6.83
X8.425Y-5.33
X8.825Y-5.33
X15.175Y-7.58
X15.575Y-7.58
X9.7375Y-6.83
X10.1375Y-6.83
X4.8625Y-6.08
X5.2625Y-6.08
X16.675Y-7.58
X17.075Y-7.58
X4.675Y-5.33
X5.075Y-5.33
X5.7062Y-8.33
X6.1063Y-8.33
X9.925Y-5.33
X10.325Y-5.33
X10.675Y-5.33
X11.075Y-5.33
X7.9562Y-8.33
X8.3562Y-8.33
X6.3625Y-7.58
X6.7625Y-7.58
X16.675Y-5.33
X17.075Y-5.33
X8.425Y-4.58
X8.825Y-4.58
X14.1437Y-7.58
X14.5437Y-7.58
X6.925Y-4.58
X7.325Y-4.58
X11.2375Y-6.83
X11.6375Y-6.83
X17.425Y-5.33
X17.825Y-5.33
X6.6437Y-8.33
X7.0438Y-8.33
X11.9875Y-6.83
X12.3875Y-6.83
X12.925Y-5.33
X13.325Y-5.33
X8.6125Y-7.58
X9.0125Y-7.58
X15.925Y-4.58
X16.325Y-4.58
X15.925Y-6.08
X16.325Y-6.08
X8.2375Y-6.83
X8.6375Y-6.83
X10.3Y-6.08
X10.7Y-6.08
X7.8625Y-7.58
X8.2625Y-7.58
X16.675Y-4.58
X17.075Y-4.58
X5.1437Y-7.58
X5.5438Y-7.58
X6.55Y-6.08
X6.95Y-6.08
X13.3Y-6.08
X13.7Y-6.08
X8.8Y-6.08
X9.2Y-6.08
X7.1125Y-7.58
X7.5125Y-7.58
X13.675Y-4.58
X14.075Y-4.58
X12.3625Y-7.58
X12.7625Y-7.58
X6.7375Y-6.83
X7.1375Y-6.83
X11.8Y-6.08
X12.2Y-6.08
X16.675Y-6.83
X17.075Y-6.83
X6.175Y-5.33
X6.575Y-5.33
X4.9562Y-6.83
X5.3563Y-6.83
X13.1125Y-7.58
X13.5125Y-7.58
X12.925Y-4.58
X13.325Y-4.58
X9.175Y-5.33
X9.575Y-5.33
X17.425Y-7.58
X17.825Y-7.58
X9.925Y-4.58
X10.325Y-4.58
X18.375Y-7.755
X18.375Y-8.155
X12.7375Y-6.83
X13.1375Y-6.83
X8.05Y-6.08
X8.45Y-6.08
X10.7687Y-8.33
X11.1687Y-8.33
X6.175Y-4.58
X6.575Y-4.58
T7
X7.6875Y-8.055
X8.625Y-8.055
X4.875Y-7.305
X5.8125Y-7.305
X18.65Y-7.4863
X18.65Y-8.4238
X10.5Y-8.055
X11.4375Y-8.055
X14.5312Y-5.055
X15.4688Y-5.055
X18.65Y-5.9863
X18.65Y-6.9238
X14.4375Y-6.555
X15.375Y-6.555
T8
X11.0625Y-7.58
X7.875Y-5.33
X16.125Y-6.83
X7.5Y-6.08
X9.4688Y-8.33
X7.125Y-5.33
X16.125Y-8.33
X6.1875Y-6.83
X12.75Y-6.08
X10.875Y-4.58
X4.9688Y-8.33
X15.375Y-4.58
X10.3125Y-7.58
X12.375Y-4.58
X14.625Y-4.58
X18.05Y-5.9863
X18.05Y-6.9238
X18.375Y-6.455
X7.875Y-4.58
X14.4375Y-7.155
X14.9062Y-6.83
X15.375Y-7.155
X9.1875Y-6.83
X18.375Y-5.33
X11.625Y-4.58
X12.4688Y-8.33
X13.6875Y-6.83
X16.125Y-5.33
X9.5625Y-7.58
X4.875Y-4.58
X9.375Y-4.58
X16.875Y-6.08
X13.875Y-5.33
X16.125Y-7.58
X17.625Y-4.58
X5.625Y-4.58
X16.875Y-8.33
X7.6875Y-6.83
X11.25Y-6.08
X13.4062Y-8.33
X5.625Y-5.33
X17.625Y-6.08
X6.0Y-6.08
X17.625Y-6.83
X8.625Y-5.33
X15.375Y-7.58
X9.9375Y-6.83
X5.0625Y-6.08
X16.875Y-7.58
X4.875Y-5.33
X5.9062Y-8.33
X10.125Y-5.33
X10.875Y-5.33
X7.6875Y-8.655
X8.1562Y-8.33
X8.625Y-8.655
X6.5625Y-7.58
X16.875Y-5.33
X8.625Y-4.58
X14.3438Y-7.58
X7.125Y-4.58
X11.4375Y-6.83
X17.625Y-5.33
X6.8438Y-8.33
X12.1875Y-6.83
X13.125Y-5.33
X8.8125Y-7.58
X16.125Y-4.58
X16.125Y-6.08
X8.4375Y-6.83
X10.5Y-6.08
X8.0625Y-7.58
X16.875Y-4.58
X4.875Y-7.905
X5.3438Y-7.58
X5.8125Y-7.905
X6.75Y-6.08
X13.5Y-6.08
X9.0Y-6.08
X7.3125Y-7.58
X13.875Y-4.58
X12.5625Y-7.58
X6.9375Y-6.83
X12.0Y-6.08
X16.875Y-6.83
X6.375Y-5.33
X5.1562Y-6.83
X13.3125Y-7.58
X13.125Y-4.58
X9.375Y-5.33
X17.625Y-7.58
X10.125Y-4.58
X18.05Y-7.4863
X18.05Y-8.4238
X18.375Y-7.955
X12.9375Y-6.83
X8.25Y-6.08
X10.5Y-8.655
X10.9688Y-8.33
X11.4375Y-8.655
X6.375Y-4.58
X14.5312Y-5.655
X15.0Y-5.33
X15.4688Y-5.655
X10.6875Y-6.83
X9.75Y-6.08
X14.625Y-8.33
X17.625Y-8.33
X11.8125Y-7.58
X15.1875Y-6.08
X12.375Y-5.33
X15.375Y-8.33
X18.375Y-4.58
X14.25Y-6.08
X11.625Y-5.33
T2
G00X5.1112Y-3.9706
M15
G01X5.1112Y-3.9942
M16
G05
G00X5.1112Y-4.1253
M15
G01X5.1112Y-4.1686
M16
G05
G00X5.4513Y-3.9706
M15
G01X5.4513Y-3.9942
M16
G05
G00X5.4513Y-4.1253
M15
G01X5.4513Y-4.1686
M16
G05
T0
M30
