G04 #@! TF.GenerationSoftware,KiCad,Pcbnew,(5.1.4)-1*
G04 #@! TF.CreationDate,2020-08-16T19:21:30-07:00*
G04 #@! TF.ProjectId,v1PCB,76315043-422e-46b6-9963-61645f706362,rev?*
G04 #@! TF.SameCoordinates,Original*
G04 #@! TF.FileFunction,Legend,Top*
G04 #@! TF.FilePolarity,Positive*
%FSLAX46Y46*%
G04 Gerber Fmt 4.6, Leading zero omitted, Abs format (unit mm)*
G04 Created by KiCad (PCBNEW (5.1.4)-1) date 2020-08-16 19:21:30*
%MOMM*%
%LPD*%
G04 APERTURE LIST*
%ADD10C,0.500000*%
%ADD11C,0.150000*%
%ADD12C,3.987800*%
%ADD13C,1.750000*%
%ADD14C,3.048000*%
%ADD15C,0.650000*%
%ADD16O,1.000000X2.100000*%
%ADD17O,1.000000X1.600000*%
%ADD18C,1.800000*%
G04 APERTURE END LIST*
D10*
X118787202Y-162361607D02*
X117120535Y-162361607D01*
X117120535Y-164980654D02*
X117120535Y-159980654D01*
X119501488Y-159980654D01*
X121406250Y-159980654D02*
X121406250Y-164028273D01*
X121644345Y-164504464D01*
X121882440Y-164742559D01*
X122358630Y-164980654D01*
X123311011Y-164980654D01*
X123787202Y-164742559D01*
X124025297Y-164504464D01*
X124263392Y-164028273D01*
X124263392Y-159980654D01*
X126644345Y-164980654D02*
X126644345Y-159980654D01*
X129501488Y-164980654D01*
X129501488Y-159980654D01*
X134739583Y-164504464D02*
X134501488Y-164742559D01*
X133787202Y-164980654D01*
X133311011Y-164980654D01*
X132596726Y-164742559D01*
X132120535Y-164266369D01*
X131882440Y-163790178D01*
X131644345Y-162837797D01*
X131644345Y-162123511D01*
X131882440Y-161171130D01*
X132120535Y-160694940D01*
X132596726Y-160218750D01*
X133311011Y-159980654D01*
X133787202Y-159980654D01*
X134501488Y-160218750D01*
X134739583Y-160456845D01*
X136168154Y-159980654D02*
X139025297Y-159980654D01*
X137596726Y-164980654D02*
X137596726Y-159980654D01*
X140691964Y-164980654D02*
X140691964Y-159980654D01*
X144025297Y-159980654D02*
X144977678Y-159980654D01*
X145453869Y-160218750D01*
X145930059Y-160694940D01*
X146168154Y-161647321D01*
X146168154Y-163313988D01*
X145930059Y-164266369D01*
X145453869Y-164742559D01*
X144977678Y-164980654D01*
X144025297Y-164980654D01*
X143549107Y-164742559D01*
X143072916Y-164266369D01*
X142834821Y-163313988D01*
X142834821Y-161647321D01*
X143072916Y-160694940D01*
X143549107Y-160218750D01*
X144025297Y-159980654D01*
X148311011Y-164980654D02*
X148311011Y-159980654D01*
X151168154Y-164980654D01*
X151168154Y-159980654D01*
X153787202Y-164980654D02*
X154739583Y-164980654D01*
X155215773Y-164742559D01*
X155453869Y-164504464D01*
X155930059Y-163790178D01*
X156168154Y-162837797D01*
X156168154Y-160933035D01*
X155930059Y-160456845D01*
X155691964Y-160218750D01*
X155215773Y-159980654D01*
X154263392Y-159980654D01*
X153787202Y-160218750D01*
X153549107Y-160456845D01*
X153311011Y-160933035D01*
X153311011Y-162123511D01*
X153549107Y-162599702D01*
X153787202Y-162837797D01*
X154263392Y-163075892D01*
X155215773Y-163075892D01*
X155691964Y-162837797D01*
X155930059Y-162599702D01*
X156168154Y-162123511D01*
X160453869Y-159980654D02*
X159501488Y-159980654D01*
X159025297Y-160218750D01*
X158787202Y-160456845D01*
X158311011Y-161171130D01*
X158072916Y-162123511D01*
X158072916Y-164028273D01*
X158311011Y-164504464D01*
X158549107Y-164742559D01*
X159025297Y-164980654D01*
X159977678Y-164980654D01*
X160453869Y-164742559D01*
X160691964Y-164504464D01*
X160930059Y-164028273D01*
X160930059Y-162837797D01*
X160691964Y-162361607D01*
X160453869Y-162123511D01*
X159977678Y-161885416D01*
X159025297Y-161885416D01*
X158549107Y-162123511D01*
X158311011Y-162361607D01*
X158072916Y-162837797D01*
D11*
X355115904Y-207336380D02*
X355115904Y-206336380D01*
X355449238Y-207050666D01*
X355782571Y-206336380D01*
X355782571Y-207336380D01*
X356734952Y-207336380D02*
X356258761Y-207336380D01*
X356258761Y-206336380D01*
X355044476Y-207986380D02*
X355044476Y-208700666D01*
X354996857Y-208843523D01*
X354901619Y-208938761D01*
X354758761Y-208986380D01*
X354663523Y-208986380D01*
X355377809Y-207986380D02*
X355949238Y-207986380D01*
X355663523Y-208986380D02*
X355663523Y-207986380D01*
X356282571Y-208986380D02*
X356282571Y-207986380D01*
X356615904Y-208700666D01*
X356949238Y-207986380D01*
X356949238Y-208986380D01*
X354330190Y-209636380D02*
X354663523Y-210636380D01*
X354996857Y-209636380D01*
X355854000Y-210636380D02*
X355282571Y-210636380D01*
X355568285Y-210636380D02*
X355568285Y-209636380D01*
X355473047Y-209779238D01*
X355377809Y-209874476D01*
X355282571Y-209922095D01*
X356282571Y-210541142D02*
X356330190Y-210588761D01*
X356282571Y-210636380D01*
X356234952Y-210588761D01*
X356282571Y-210541142D01*
X356282571Y-210636380D01*
X357282571Y-210636380D02*
X356711142Y-210636380D01*
X356996857Y-210636380D02*
X356996857Y-209636380D01*
X356901619Y-209779238D01*
X356806380Y-209874476D01*
X356711142Y-209922095D01*
%LPC*%
D12*
X278606250Y-211582000D03*
D13*
X273526250Y-211582000D03*
X283686250Y-211582000D03*
D14*
X266700000Y-204597000D03*
X290512500Y-204597000D03*
D12*
X266700000Y-219837000D03*
X290512500Y-219837000D03*
X123825000Y-116332000D03*
D13*
X118745000Y-116332000D03*
X128905000Y-116332000D03*
D15*
X137033750Y-104802000D03*
X131253750Y-104802000D03*
D16*
X129823750Y-105332000D03*
X138463750Y-105332000D03*
D17*
X129823750Y-101152000D03*
X138463750Y-101152000D03*
D12*
X135731250Y-192532000D03*
D13*
X130651250Y-192532000D03*
X140811250Y-192532000D03*
D14*
X123825000Y-185547000D03*
X147637500Y-185547000D03*
D12*
X123825000Y-200787000D03*
X147637500Y-200787000D03*
X447675000Y-211582000D03*
D13*
X442595000Y-211582000D03*
X452755000Y-211582000D03*
D12*
X447675000Y-192532000D03*
D13*
X442595000Y-192532000D03*
X452755000Y-192532000D03*
D18*
X113717000Y-177764000D03*
X120217000Y-173264000D03*
X113717000Y-173264000D03*
X120217000Y-177764000D03*
D12*
X316706250Y-211582000D03*
D13*
X311626250Y-211582000D03*
X321786250Y-211582000D03*
D12*
X142875000Y-116332000D03*
D13*
X137795000Y-116332000D03*
X147955000Y-116332000D03*
D12*
X466725000Y-202057000D03*
D13*
X466725000Y-196977000D03*
X466725000Y-207137000D03*
D14*
X473710000Y-190150750D03*
X473710000Y-213963250D03*
D12*
X458470000Y-190150750D03*
X458470000Y-213963250D03*
X466725000Y-163957000D03*
D13*
X466725000Y-158877000D03*
X466725000Y-169037000D03*
D14*
X473710000Y-152050750D03*
X473710000Y-175863250D03*
D12*
X458470000Y-152050750D03*
X458470000Y-175863250D03*
X207168750Y-211582000D03*
D13*
X202088750Y-211582000D03*
X212248750Y-211582000D03*
D14*
X195262500Y-204597000D03*
X219075000Y-204597000D03*
D12*
X195262500Y-219837000D03*
X219075000Y-219837000D03*
X364331250Y-192532000D03*
D13*
X359251250Y-192532000D03*
X369411250Y-192532000D03*
D12*
X378618750Y-173482000D03*
D13*
X373538750Y-173482000D03*
X383698750Y-173482000D03*
D14*
X366712500Y-166497000D03*
X390525000Y-166497000D03*
D12*
X366712500Y-181737000D03*
X390525000Y-181737000D03*
X381000000Y-135382000D03*
D13*
X375920000Y-135382000D03*
X386080000Y-135382000D03*
D14*
X369093750Y-128397000D03*
X392906250Y-128397000D03*
D12*
X369093750Y-143637000D03*
X392906250Y-143637000D03*
X319087500Y-192532000D03*
D13*
X314007500Y-192532000D03*
X324167500Y-192532000D03*
D12*
X300037500Y-192532000D03*
D13*
X294957500Y-192532000D03*
X305117500Y-192532000D03*
D12*
X166687500Y-192532000D03*
D13*
X161607500Y-192532000D03*
X171767500Y-192532000D03*
D12*
X238125000Y-116332000D03*
D13*
X233045000Y-116332000D03*
X243205000Y-116332000D03*
D12*
X180975000Y-116332000D03*
D13*
X175895000Y-116332000D03*
X186055000Y-116332000D03*
D12*
X390525000Y-192532000D03*
D13*
X385445000Y-192532000D03*
X395605000Y-192532000D03*
D12*
X171450000Y-154432000D03*
D13*
X166370000Y-154432000D03*
X176530000Y-154432000D03*
D12*
X409575000Y-154432000D03*
D13*
X404495000Y-154432000D03*
X414655000Y-154432000D03*
D12*
X428625000Y-211582000D03*
D13*
X423545000Y-211582000D03*
X433705000Y-211582000D03*
D12*
X409575000Y-211582000D03*
D13*
X404495000Y-211582000D03*
X414655000Y-211582000D03*
D12*
X390525000Y-211582000D03*
D13*
X385445000Y-211582000D03*
X395605000Y-211582000D03*
D12*
X371475000Y-211582000D03*
D13*
X366395000Y-211582000D03*
X376555000Y-211582000D03*
D12*
X340518750Y-211582000D03*
D13*
X335438750Y-211582000D03*
X345598750Y-211582000D03*
D12*
X240506250Y-211582000D03*
D13*
X235426250Y-211582000D03*
X245586250Y-211582000D03*
D12*
X173831250Y-211582000D03*
D13*
X168751250Y-211582000D03*
X178911250Y-211582000D03*
D12*
X150018750Y-211582000D03*
D13*
X144938750Y-211582000D03*
X155098750Y-211582000D03*
D12*
X126206250Y-211582000D03*
D13*
X121126250Y-211582000D03*
X131286250Y-211582000D03*
D12*
X428625000Y-192532000D03*
D13*
X423545000Y-192532000D03*
X433705000Y-192532000D03*
D12*
X409575000Y-192532000D03*
D13*
X404495000Y-192532000D03*
X414655000Y-192532000D03*
D12*
X338137500Y-192532000D03*
D13*
X333057500Y-192532000D03*
X343217500Y-192532000D03*
D12*
X280987500Y-192532000D03*
D13*
X275907500Y-192532000D03*
X286067500Y-192532000D03*
D12*
X261937500Y-192532000D03*
D13*
X256857500Y-192532000D03*
X267017500Y-192532000D03*
D12*
X242887500Y-192532000D03*
D13*
X237807500Y-192532000D03*
X247967500Y-192532000D03*
D12*
X223837500Y-192532000D03*
D13*
X218757500Y-192532000D03*
X228917500Y-192532000D03*
D12*
X204787500Y-192532000D03*
D13*
X199707500Y-192532000D03*
X209867500Y-192532000D03*
D12*
X185737500Y-192532000D03*
D13*
X180657500Y-192532000D03*
X190817500Y-192532000D03*
D12*
X447675000Y-173482000D03*
D13*
X442595000Y-173482000D03*
X452755000Y-173482000D03*
D12*
X428625000Y-173482000D03*
D13*
X423545000Y-173482000D03*
X433705000Y-173482000D03*
D12*
X409575000Y-173482000D03*
D13*
X404495000Y-173482000D03*
X414655000Y-173482000D03*
D12*
X347662500Y-173482000D03*
D13*
X342582500Y-173482000D03*
X352742500Y-173482000D03*
D12*
X328612500Y-173482000D03*
D13*
X323532500Y-173482000D03*
X333692500Y-173482000D03*
D12*
X309562500Y-173482000D03*
D13*
X304482500Y-173482000D03*
X314642500Y-173482000D03*
D12*
X290512500Y-173482000D03*
D13*
X285432500Y-173482000D03*
X295592500Y-173482000D03*
D12*
X271462500Y-173482000D03*
D13*
X266382500Y-173482000D03*
X276542500Y-173482000D03*
D12*
X252412500Y-173482000D03*
D13*
X247332500Y-173482000D03*
X257492500Y-173482000D03*
D12*
X233362500Y-173482000D03*
D13*
X228282500Y-173482000D03*
X238442500Y-173482000D03*
D12*
X214312500Y-173482000D03*
D13*
X209232500Y-173482000D03*
X219392500Y-173482000D03*
D12*
X195262500Y-173482000D03*
D13*
X190182500Y-173482000D03*
X200342500Y-173482000D03*
D12*
X176212500Y-173482000D03*
D13*
X171132500Y-173482000D03*
X181292500Y-173482000D03*
D12*
X157162500Y-173482000D03*
D13*
X152082500Y-173482000D03*
X162242500Y-173482000D03*
D12*
X130968750Y-173482000D03*
D13*
X125888750Y-173482000D03*
X136048750Y-173482000D03*
D12*
X447675000Y-154432000D03*
D13*
X442595000Y-154432000D03*
X452755000Y-154432000D03*
D12*
X428625000Y-154432000D03*
D13*
X423545000Y-154432000D03*
X433705000Y-154432000D03*
D12*
X385762500Y-154432000D03*
D13*
X380682500Y-154432000D03*
X390842500Y-154432000D03*
D12*
X361950000Y-154432000D03*
D13*
X356870000Y-154432000D03*
X367030000Y-154432000D03*
D12*
X342900000Y-154432000D03*
D13*
X337820000Y-154432000D03*
X347980000Y-154432000D03*
D12*
X323850000Y-154432000D03*
D13*
X318770000Y-154432000D03*
X328930000Y-154432000D03*
D12*
X304800000Y-154432000D03*
D13*
X299720000Y-154432000D03*
X309880000Y-154432000D03*
D12*
X285750000Y-154432000D03*
D13*
X280670000Y-154432000D03*
X290830000Y-154432000D03*
D12*
X266700000Y-154432000D03*
D13*
X261620000Y-154432000D03*
X271780000Y-154432000D03*
D12*
X247650000Y-154432000D03*
D13*
X242570000Y-154432000D03*
X252730000Y-154432000D03*
D12*
X228600000Y-154432000D03*
D13*
X223520000Y-154432000D03*
X233680000Y-154432000D03*
D12*
X209550000Y-154432000D03*
D13*
X204470000Y-154432000D03*
X214630000Y-154432000D03*
D12*
X190500000Y-154432000D03*
D13*
X185420000Y-154432000D03*
X195580000Y-154432000D03*
D12*
X152400000Y-154432000D03*
D13*
X147320000Y-154432000D03*
X157480000Y-154432000D03*
D12*
X128587500Y-154432000D03*
D13*
X123507500Y-154432000D03*
X133667500Y-154432000D03*
D12*
X466725000Y-135382000D03*
D13*
X461645000Y-135382000D03*
X471805000Y-135382000D03*
D12*
X447675000Y-135382000D03*
D13*
X442595000Y-135382000D03*
X452755000Y-135382000D03*
D12*
X428625000Y-135382000D03*
D13*
X423545000Y-135382000D03*
X433705000Y-135382000D03*
D12*
X409575000Y-135382000D03*
D13*
X404495000Y-135382000D03*
X414655000Y-135382000D03*
D12*
X352425000Y-135382000D03*
D13*
X347345000Y-135382000D03*
X357505000Y-135382000D03*
D12*
X333375000Y-135382000D03*
D13*
X328295000Y-135382000D03*
X338455000Y-135382000D03*
D12*
X314325000Y-135382000D03*
D13*
X309245000Y-135382000D03*
X319405000Y-135382000D03*
D12*
X295275000Y-135382000D03*
D13*
X290195000Y-135382000D03*
X300355000Y-135382000D03*
D12*
X276225000Y-135382000D03*
D13*
X271145000Y-135382000D03*
X281305000Y-135382000D03*
D12*
X257175000Y-135382000D03*
D13*
X252095000Y-135382000D03*
X262255000Y-135382000D03*
D12*
X238125000Y-135382000D03*
D13*
X233045000Y-135382000D03*
X243205000Y-135382000D03*
D12*
X219075000Y-135382000D03*
D13*
X213995000Y-135382000D03*
X224155000Y-135382000D03*
D12*
X200025000Y-135382000D03*
D13*
X194945000Y-135382000D03*
X205105000Y-135382000D03*
D12*
X180975000Y-135382000D03*
D13*
X175895000Y-135382000D03*
X186055000Y-135382000D03*
D12*
X161925000Y-135382000D03*
D13*
X156845000Y-135382000D03*
X167005000Y-135382000D03*
D12*
X142875000Y-135382000D03*
D13*
X137795000Y-135382000D03*
X147955000Y-135382000D03*
D12*
X123825000Y-135382000D03*
D13*
X118745000Y-135382000D03*
X128905000Y-135382000D03*
D12*
X466725000Y-116332000D03*
D13*
X461645000Y-116332000D03*
X471805000Y-116332000D03*
D12*
X447675000Y-116332000D03*
D13*
X442595000Y-116332000D03*
X452755000Y-116332000D03*
D12*
X428625000Y-116332000D03*
D13*
X423545000Y-116332000D03*
X433705000Y-116332000D03*
D12*
X409575000Y-116332000D03*
D13*
X404495000Y-116332000D03*
X414655000Y-116332000D03*
D12*
X390525000Y-116332000D03*
D13*
X385445000Y-116332000D03*
X395605000Y-116332000D03*
D12*
X371475000Y-116332000D03*
D13*
X366395000Y-116332000D03*
X376555000Y-116332000D03*
D12*
X352425000Y-116332000D03*
D13*
X347345000Y-116332000D03*
X357505000Y-116332000D03*
D12*
X333375000Y-116332000D03*
D13*
X328295000Y-116332000D03*
X338455000Y-116332000D03*
D12*
X314325000Y-116332000D03*
D13*
X309245000Y-116332000D03*
X319405000Y-116332000D03*
D12*
X295275000Y-116332000D03*
D13*
X290195000Y-116332000D03*
X300355000Y-116332000D03*
D12*
X276225000Y-116332000D03*
D13*
X271145000Y-116332000D03*
X281305000Y-116332000D03*
D12*
X257175000Y-116332000D03*
D13*
X252095000Y-116332000D03*
X262255000Y-116332000D03*
D12*
X219075000Y-116332000D03*
D13*
X213995000Y-116332000D03*
X224155000Y-116332000D03*
D12*
X200025000Y-116332000D03*
D13*
X194945000Y-116332000D03*
X205105000Y-116332000D03*
D12*
X161925000Y-116332000D03*
D13*
X156845000Y-116332000D03*
X167005000Y-116332000D03*
D18*
X120217000Y-166406000D03*
X113717000Y-170906000D03*
X120217000Y-170906000D03*
X113717000Y-166406000D03*
M02*
