G04 #@! TF.GenerationSoftware,KiCad,Pcbnew,(5.1.6)-1*
G04 #@! TF.CreationDate,2020-08-12T13:21:16-07:00*
G04 #@! TF.ProjectId,v1PCB,76315043-422e-46b6-9963-61645f706362,rev?*
G04 #@! TF.SameCoordinates,Original*
G04 #@! TF.FileFunction,Copper,L2,Bot*
G04 #@! TF.FilePolarity,Positive*
%FSLAX46Y46*%
G04 Gerber Fmt 4.6, Leading zero omitted, Abs format (unit mm)*
G04 Created by KiCad (PCBNEW (5.1.6)-1) date 2020-08-12 13:21:16*
%MOMM*%
%LPD*%
G01*
G04 APERTURE LIST*
G04 #@! TA.AperFunction,ComponentPad*
%ADD10C,2.250000*%
G04 #@! TD*
G04 #@! TA.AperFunction,SMDPad,CuDef*
%ADD11R,0.600000X1.450000*%
G04 #@! TD*
G04 #@! TA.AperFunction,SMDPad,CuDef*
%ADD12R,0.300000X1.450000*%
G04 #@! TD*
G04 #@! TA.AperFunction,ComponentPad*
%ADD13O,1.000000X2.100000*%
G04 #@! TD*
G04 #@! TA.AperFunction,ComponentPad*
%ADD14O,1.000000X1.600000*%
G04 #@! TD*
G04 #@! TA.AperFunction,ComponentPad*
%ADD15C,1.800000*%
G04 #@! TD*
G04 #@! TA.AperFunction,SMDPad,CuDef*
%ADD16R,1.200000X0.900000*%
G04 #@! TD*
G04 #@! TA.AperFunction,SMDPad,CuDef*
%ADD17R,0.800000X0.900000*%
G04 #@! TD*
G04 #@! TA.AperFunction,ViaPad*
%ADD18C,0.800000*%
G04 #@! TD*
G04 #@! TA.AperFunction,Conductor*
%ADD19C,0.304800*%
G04 #@! TD*
G04 #@! TA.AperFunction,Conductor*
%ADD20C,0.254000*%
G04 #@! TD*
G04 #@! TA.AperFunction,Conductor*
%ADD21C,0.330200*%
G04 #@! TD*
G04 APERTURE END LIST*
D10*
X281146250Y-206502000D03*
X274796250Y-209042000D03*
G04 #@! TA.AperFunction,SMDPad,CuDef*
G36*
G01*
X299358800Y-221033050D02*
X299358800Y-220520550D01*
G75*
G02*
X299577550Y-220301800I218750J0D01*
G01*
X300015050Y-220301800D01*
G75*
G02*
X300233800Y-220520550I0J-218750D01*
G01*
X300233800Y-221033050D01*
G75*
G02*
X300015050Y-221251800I-218750J0D01*
G01*
X299577550Y-221251800D01*
G75*
G02*
X299358800Y-221033050I0J218750D01*
G01*
G37*
G04 #@! TD.AperFunction*
G04 #@! TA.AperFunction,SMDPad,CuDef*
G36*
G01*
X297783800Y-221033050D02*
X297783800Y-220520550D01*
G75*
G02*
X298002550Y-220301800I218750J0D01*
G01*
X298440050Y-220301800D01*
G75*
G02*
X298658800Y-220520550I0J-218750D01*
G01*
X298658800Y-221033050D01*
G75*
G02*
X298440050Y-221251800I-218750J0D01*
G01*
X298002550Y-221251800D01*
G75*
G02*
X297783800Y-221033050I0J218750D01*
G01*
G37*
G04 #@! TD.AperFunction*
G04 #@! TA.AperFunction,SMDPad,CuDef*
G36*
G01*
X303898800Y-209682300D02*
X303898800Y-210027300D01*
G75*
G02*
X303751300Y-210174800I-147500J0D01*
G01*
X303456300Y-210174800D01*
G75*
G02*
X303308800Y-210027300I0J147500D01*
G01*
X303308800Y-209682300D01*
G75*
G02*
X303456300Y-209534800I147500J0D01*
G01*
X303751300Y-209534800D01*
G75*
G02*
X303898800Y-209682300I0J-147500D01*
G01*
G37*
G04 #@! TD.AperFunction*
G04 #@! TA.AperFunction,SMDPad,CuDef*
G36*
G01*
X304868800Y-209682300D02*
X304868800Y-210027300D01*
G75*
G02*
X304721300Y-210174800I-147500J0D01*
G01*
X304426300Y-210174800D01*
G75*
G02*
X304278800Y-210027300I0J147500D01*
G01*
X304278800Y-209682300D01*
G75*
G02*
X304426300Y-209534800I147500J0D01*
G01*
X304721300Y-209534800D01*
G75*
G02*
X304868800Y-209682300I0J-147500D01*
G01*
G37*
G04 #@! TD.AperFunction*
G04 #@! TA.AperFunction,SMDPad,CuDef*
G36*
G01*
X305785300Y-217284800D02*
X305440300Y-217284800D01*
G75*
G02*
X305292800Y-217137300I0J147500D01*
G01*
X305292800Y-216842300D01*
G75*
G02*
X305440300Y-216694800I147500J0D01*
G01*
X305785300Y-216694800D01*
G75*
G02*
X305932800Y-216842300I0J-147500D01*
G01*
X305932800Y-217137300D01*
G75*
G02*
X305785300Y-217284800I-147500J0D01*
G01*
G37*
G04 #@! TD.AperFunction*
G04 #@! TA.AperFunction,SMDPad,CuDef*
G36*
G01*
X305785300Y-218254800D02*
X305440300Y-218254800D01*
G75*
G02*
X305292800Y-218107300I0J147500D01*
G01*
X305292800Y-217812300D01*
G75*
G02*
X305440300Y-217664800I147500J0D01*
G01*
X305785300Y-217664800D01*
G75*
G02*
X305932800Y-217812300I0J-147500D01*
G01*
X305932800Y-218107300D01*
G75*
G02*
X305785300Y-218254800I-147500J0D01*
G01*
G37*
G04 #@! TD.AperFunction*
G04 #@! TA.AperFunction,SMDPad,CuDef*
G36*
G01*
X304739000Y-217378000D02*
X303989000Y-217378000D01*
G75*
G02*
X303926500Y-217315500I0J62500D01*
G01*
X303926500Y-217190500D01*
G75*
G02*
X303989000Y-217128000I62500J0D01*
G01*
X304739000Y-217128000D01*
G75*
G02*
X304801500Y-217190500I0J-62500D01*
G01*
X304801500Y-217315500D01*
G75*
G02*
X304739000Y-217378000I-62500J0D01*
G01*
G37*
G04 #@! TD.AperFunction*
G04 #@! TA.AperFunction,SMDPad,CuDef*
G36*
G01*
X304739000Y-216878000D02*
X303989000Y-216878000D01*
G75*
G02*
X303926500Y-216815500I0J62500D01*
G01*
X303926500Y-216690500D01*
G75*
G02*
X303989000Y-216628000I62500J0D01*
G01*
X304739000Y-216628000D01*
G75*
G02*
X304801500Y-216690500I0J-62500D01*
G01*
X304801500Y-216815500D01*
G75*
G02*
X304739000Y-216878000I-62500J0D01*
G01*
G37*
G04 #@! TD.AperFunction*
G04 #@! TA.AperFunction,SMDPad,CuDef*
G36*
G01*
X304739000Y-216378000D02*
X303989000Y-216378000D01*
G75*
G02*
X303926500Y-216315500I0J62500D01*
G01*
X303926500Y-216190500D01*
G75*
G02*
X303989000Y-216128000I62500J0D01*
G01*
X304739000Y-216128000D01*
G75*
G02*
X304801500Y-216190500I0J-62500D01*
G01*
X304801500Y-216315500D01*
G75*
G02*
X304739000Y-216378000I-62500J0D01*
G01*
G37*
G04 #@! TD.AperFunction*
G04 #@! TA.AperFunction,SMDPad,CuDef*
G36*
G01*
X304739000Y-215878000D02*
X303989000Y-215878000D01*
G75*
G02*
X303926500Y-215815500I0J62500D01*
G01*
X303926500Y-215690500D01*
G75*
G02*
X303989000Y-215628000I62500J0D01*
G01*
X304739000Y-215628000D01*
G75*
G02*
X304801500Y-215690500I0J-62500D01*
G01*
X304801500Y-215815500D01*
G75*
G02*
X304739000Y-215878000I-62500J0D01*
G01*
G37*
G04 #@! TD.AperFunction*
G04 #@! TA.AperFunction,SMDPad,CuDef*
G36*
G01*
X304739000Y-215378000D02*
X303989000Y-215378000D01*
G75*
G02*
X303926500Y-215315500I0J62500D01*
G01*
X303926500Y-215190500D01*
G75*
G02*
X303989000Y-215128000I62500J0D01*
G01*
X304739000Y-215128000D01*
G75*
G02*
X304801500Y-215190500I0J-62500D01*
G01*
X304801500Y-215315500D01*
G75*
G02*
X304739000Y-215378000I-62500J0D01*
G01*
G37*
G04 #@! TD.AperFunction*
G04 #@! TA.AperFunction,SMDPad,CuDef*
G36*
G01*
X304739000Y-214878000D02*
X303989000Y-214878000D01*
G75*
G02*
X303926500Y-214815500I0J62500D01*
G01*
X303926500Y-214690500D01*
G75*
G02*
X303989000Y-214628000I62500J0D01*
G01*
X304739000Y-214628000D01*
G75*
G02*
X304801500Y-214690500I0J-62500D01*
G01*
X304801500Y-214815500D01*
G75*
G02*
X304739000Y-214878000I-62500J0D01*
G01*
G37*
G04 #@! TD.AperFunction*
G04 #@! TA.AperFunction,SMDPad,CuDef*
G36*
G01*
X304739000Y-214378000D02*
X303989000Y-214378000D01*
G75*
G02*
X303926500Y-214315500I0J62500D01*
G01*
X303926500Y-214190500D01*
G75*
G02*
X303989000Y-214128000I62500J0D01*
G01*
X304739000Y-214128000D01*
G75*
G02*
X304801500Y-214190500I0J-62500D01*
G01*
X304801500Y-214315500D01*
G75*
G02*
X304739000Y-214378000I-62500J0D01*
G01*
G37*
G04 #@! TD.AperFunction*
G04 #@! TA.AperFunction,SMDPad,CuDef*
G36*
G01*
X304739000Y-213878000D02*
X303989000Y-213878000D01*
G75*
G02*
X303926500Y-213815500I0J62500D01*
G01*
X303926500Y-213690500D01*
G75*
G02*
X303989000Y-213628000I62500J0D01*
G01*
X304739000Y-213628000D01*
G75*
G02*
X304801500Y-213690500I0J-62500D01*
G01*
X304801500Y-213815500D01*
G75*
G02*
X304739000Y-213878000I-62500J0D01*
G01*
G37*
G04 #@! TD.AperFunction*
G04 #@! TA.AperFunction,SMDPad,CuDef*
G36*
G01*
X304739000Y-213378000D02*
X303989000Y-213378000D01*
G75*
G02*
X303926500Y-213315500I0J62500D01*
G01*
X303926500Y-213190500D01*
G75*
G02*
X303989000Y-213128000I62500J0D01*
G01*
X304739000Y-213128000D01*
G75*
G02*
X304801500Y-213190500I0J-62500D01*
G01*
X304801500Y-213315500D01*
G75*
G02*
X304739000Y-213378000I-62500J0D01*
G01*
G37*
G04 #@! TD.AperFunction*
G04 #@! TA.AperFunction,SMDPad,CuDef*
G36*
G01*
X304739000Y-212878000D02*
X303989000Y-212878000D01*
G75*
G02*
X303926500Y-212815500I0J62500D01*
G01*
X303926500Y-212690500D01*
G75*
G02*
X303989000Y-212628000I62500J0D01*
G01*
X304739000Y-212628000D01*
G75*
G02*
X304801500Y-212690500I0J-62500D01*
G01*
X304801500Y-212815500D01*
G75*
G02*
X304739000Y-212878000I-62500J0D01*
G01*
G37*
G04 #@! TD.AperFunction*
G04 #@! TA.AperFunction,SMDPad,CuDef*
G36*
G01*
X304739000Y-212378000D02*
X303989000Y-212378000D01*
G75*
G02*
X303926500Y-212315500I0J62500D01*
G01*
X303926500Y-212190500D01*
G75*
G02*
X303989000Y-212128000I62500J0D01*
G01*
X304739000Y-212128000D01*
G75*
G02*
X304801500Y-212190500I0J-62500D01*
G01*
X304801500Y-212315500D01*
G75*
G02*
X304739000Y-212378000I-62500J0D01*
G01*
G37*
G04 #@! TD.AperFunction*
G04 #@! TA.AperFunction,SMDPad,CuDef*
G36*
G01*
X304739000Y-211878000D02*
X303989000Y-211878000D01*
G75*
G02*
X303926500Y-211815500I0J62500D01*
G01*
X303926500Y-211690500D01*
G75*
G02*
X303989000Y-211628000I62500J0D01*
G01*
X304739000Y-211628000D01*
G75*
G02*
X304801500Y-211690500I0J-62500D01*
G01*
X304801500Y-211815500D01*
G75*
G02*
X304739000Y-211878000I-62500J0D01*
G01*
G37*
G04 #@! TD.AperFunction*
G04 #@! TA.AperFunction,SMDPad,CuDef*
G36*
G01*
X303739000Y-211503000D02*
X303614000Y-211503000D01*
G75*
G02*
X303551500Y-211440500I0J62500D01*
G01*
X303551500Y-210690500D01*
G75*
G02*
X303614000Y-210628000I62500J0D01*
G01*
X303739000Y-210628000D01*
G75*
G02*
X303801500Y-210690500I0J-62500D01*
G01*
X303801500Y-211440500D01*
G75*
G02*
X303739000Y-211503000I-62500J0D01*
G01*
G37*
G04 #@! TD.AperFunction*
G04 #@! TA.AperFunction,SMDPad,CuDef*
G36*
G01*
X303239000Y-211503000D02*
X303114000Y-211503000D01*
G75*
G02*
X303051500Y-211440500I0J62500D01*
G01*
X303051500Y-210690500D01*
G75*
G02*
X303114000Y-210628000I62500J0D01*
G01*
X303239000Y-210628000D01*
G75*
G02*
X303301500Y-210690500I0J-62500D01*
G01*
X303301500Y-211440500D01*
G75*
G02*
X303239000Y-211503000I-62500J0D01*
G01*
G37*
G04 #@! TD.AperFunction*
G04 #@! TA.AperFunction,SMDPad,CuDef*
G36*
G01*
X302739000Y-211503000D02*
X302614000Y-211503000D01*
G75*
G02*
X302551500Y-211440500I0J62500D01*
G01*
X302551500Y-210690500D01*
G75*
G02*
X302614000Y-210628000I62500J0D01*
G01*
X302739000Y-210628000D01*
G75*
G02*
X302801500Y-210690500I0J-62500D01*
G01*
X302801500Y-211440500D01*
G75*
G02*
X302739000Y-211503000I-62500J0D01*
G01*
G37*
G04 #@! TD.AperFunction*
G04 #@! TA.AperFunction,SMDPad,CuDef*
G36*
G01*
X302239000Y-211503000D02*
X302114000Y-211503000D01*
G75*
G02*
X302051500Y-211440500I0J62500D01*
G01*
X302051500Y-210690500D01*
G75*
G02*
X302114000Y-210628000I62500J0D01*
G01*
X302239000Y-210628000D01*
G75*
G02*
X302301500Y-210690500I0J-62500D01*
G01*
X302301500Y-211440500D01*
G75*
G02*
X302239000Y-211503000I-62500J0D01*
G01*
G37*
G04 #@! TD.AperFunction*
G04 #@! TA.AperFunction,SMDPad,CuDef*
G36*
G01*
X301739000Y-211503000D02*
X301614000Y-211503000D01*
G75*
G02*
X301551500Y-211440500I0J62500D01*
G01*
X301551500Y-210690500D01*
G75*
G02*
X301614000Y-210628000I62500J0D01*
G01*
X301739000Y-210628000D01*
G75*
G02*
X301801500Y-210690500I0J-62500D01*
G01*
X301801500Y-211440500D01*
G75*
G02*
X301739000Y-211503000I-62500J0D01*
G01*
G37*
G04 #@! TD.AperFunction*
G04 #@! TA.AperFunction,SMDPad,CuDef*
G36*
G01*
X301239000Y-211503000D02*
X301114000Y-211503000D01*
G75*
G02*
X301051500Y-211440500I0J62500D01*
G01*
X301051500Y-210690500D01*
G75*
G02*
X301114000Y-210628000I62500J0D01*
G01*
X301239000Y-210628000D01*
G75*
G02*
X301301500Y-210690500I0J-62500D01*
G01*
X301301500Y-211440500D01*
G75*
G02*
X301239000Y-211503000I-62500J0D01*
G01*
G37*
G04 #@! TD.AperFunction*
G04 #@! TA.AperFunction,SMDPad,CuDef*
G36*
G01*
X300739000Y-211503000D02*
X300614000Y-211503000D01*
G75*
G02*
X300551500Y-211440500I0J62500D01*
G01*
X300551500Y-210690500D01*
G75*
G02*
X300614000Y-210628000I62500J0D01*
G01*
X300739000Y-210628000D01*
G75*
G02*
X300801500Y-210690500I0J-62500D01*
G01*
X300801500Y-211440500D01*
G75*
G02*
X300739000Y-211503000I-62500J0D01*
G01*
G37*
G04 #@! TD.AperFunction*
G04 #@! TA.AperFunction,SMDPad,CuDef*
G36*
G01*
X300239000Y-211503000D02*
X300114000Y-211503000D01*
G75*
G02*
X300051500Y-211440500I0J62500D01*
G01*
X300051500Y-210690500D01*
G75*
G02*
X300114000Y-210628000I62500J0D01*
G01*
X300239000Y-210628000D01*
G75*
G02*
X300301500Y-210690500I0J-62500D01*
G01*
X300301500Y-211440500D01*
G75*
G02*
X300239000Y-211503000I-62500J0D01*
G01*
G37*
G04 #@! TD.AperFunction*
G04 #@! TA.AperFunction,SMDPad,CuDef*
G36*
G01*
X299739000Y-211503000D02*
X299614000Y-211503000D01*
G75*
G02*
X299551500Y-211440500I0J62500D01*
G01*
X299551500Y-210690500D01*
G75*
G02*
X299614000Y-210628000I62500J0D01*
G01*
X299739000Y-210628000D01*
G75*
G02*
X299801500Y-210690500I0J-62500D01*
G01*
X299801500Y-211440500D01*
G75*
G02*
X299739000Y-211503000I-62500J0D01*
G01*
G37*
G04 #@! TD.AperFunction*
G04 #@! TA.AperFunction,SMDPad,CuDef*
G36*
G01*
X299239000Y-211503000D02*
X299114000Y-211503000D01*
G75*
G02*
X299051500Y-211440500I0J62500D01*
G01*
X299051500Y-210690500D01*
G75*
G02*
X299114000Y-210628000I62500J0D01*
G01*
X299239000Y-210628000D01*
G75*
G02*
X299301500Y-210690500I0J-62500D01*
G01*
X299301500Y-211440500D01*
G75*
G02*
X299239000Y-211503000I-62500J0D01*
G01*
G37*
G04 #@! TD.AperFunction*
G04 #@! TA.AperFunction,SMDPad,CuDef*
G36*
G01*
X298739000Y-211503000D02*
X298614000Y-211503000D01*
G75*
G02*
X298551500Y-211440500I0J62500D01*
G01*
X298551500Y-210690500D01*
G75*
G02*
X298614000Y-210628000I62500J0D01*
G01*
X298739000Y-210628000D01*
G75*
G02*
X298801500Y-210690500I0J-62500D01*
G01*
X298801500Y-211440500D01*
G75*
G02*
X298739000Y-211503000I-62500J0D01*
G01*
G37*
G04 #@! TD.AperFunction*
G04 #@! TA.AperFunction,SMDPad,CuDef*
G36*
G01*
X298239000Y-211503000D02*
X298114000Y-211503000D01*
G75*
G02*
X298051500Y-211440500I0J62500D01*
G01*
X298051500Y-210690500D01*
G75*
G02*
X298114000Y-210628000I62500J0D01*
G01*
X298239000Y-210628000D01*
G75*
G02*
X298301500Y-210690500I0J-62500D01*
G01*
X298301500Y-211440500D01*
G75*
G02*
X298239000Y-211503000I-62500J0D01*
G01*
G37*
G04 #@! TD.AperFunction*
G04 #@! TA.AperFunction,SMDPad,CuDef*
G36*
G01*
X297864000Y-211878000D02*
X297114000Y-211878000D01*
G75*
G02*
X297051500Y-211815500I0J62500D01*
G01*
X297051500Y-211690500D01*
G75*
G02*
X297114000Y-211628000I62500J0D01*
G01*
X297864000Y-211628000D01*
G75*
G02*
X297926500Y-211690500I0J-62500D01*
G01*
X297926500Y-211815500D01*
G75*
G02*
X297864000Y-211878000I-62500J0D01*
G01*
G37*
G04 #@! TD.AperFunction*
G04 #@! TA.AperFunction,SMDPad,CuDef*
G36*
G01*
X297864000Y-212378000D02*
X297114000Y-212378000D01*
G75*
G02*
X297051500Y-212315500I0J62500D01*
G01*
X297051500Y-212190500D01*
G75*
G02*
X297114000Y-212128000I62500J0D01*
G01*
X297864000Y-212128000D01*
G75*
G02*
X297926500Y-212190500I0J-62500D01*
G01*
X297926500Y-212315500D01*
G75*
G02*
X297864000Y-212378000I-62500J0D01*
G01*
G37*
G04 #@! TD.AperFunction*
G04 #@! TA.AperFunction,SMDPad,CuDef*
G36*
G01*
X297864000Y-212878000D02*
X297114000Y-212878000D01*
G75*
G02*
X297051500Y-212815500I0J62500D01*
G01*
X297051500Y-212690500D01*
G75*
G02*
X297114000Y-212628000I62500J0D01*
G01*
X297864000Y-212628000D01*
G75*
G02*
X297926500Y-212690500I0J-62500D01*
G01*
X297926500Y-212815500D01*
G75*
G02*
X297864000Y-212878000I-62500J0D01*
G01*
G37*
G04 #@! TD.AperFunction*
G04 #@! TA.AperFunction,SMDPad,CuDef*
G36*
G01*
X297864000Y-213378000D02*
X297114000Y-213378000D01*
G75*
G02*
X297051500Y-213315500I0J62500D01*
G01*
X297051500Y-213190500D01*
G75*
G02*
X297114000Y-213128000I62500J0D01*
G01*
X297864000Y-213128000D01*
G75*
G02*
X297926500Y-213190500I0J-62500D01*
G01*
X297926500Y-213315500D01*
G75*
G02*
X297864000Y-213378000I-62500J0D01*
G01*
G37*
G04 #@! TD.AperFunction*
G04 #@! TA.AperFunction,SMDPad,CuDef*
G36*
G01*
X297864000Y-213878000D02*
X297114000Y-213878000D01*
G75*
G02*
X297051500Y-213815500I0J62500D01*
G01*
X297051500Y-213690500D01*
G75*
G02*
X297114000Y-213628000I62500J0D01*
G01*
X297864000Y-213628000D01*
G75*
G02*
X297926500Y-213690500I0J-62500D01*
G01*
X297926500Y-213815500D01*
G75*
G02*
X297864000Y-213878000I-62500J0D01*
G01*
G37*
G04 #@! TD.AperFunction*
G04 #@! TA.AperFunction,SMDPad,CuDef*
G36*
G01*
X297864000Y-214378000D02*
X297114000Y-214378000D01*
G75*
G02*
X297051500Y-214315500I0J62500D01*
G01*
X297051500Y-214190500D01*
G75*
G02*
X297114000Y-214128000I62500J0D01*
G01*
X297864000Y-214128000D01*
G75*
G02*
X297926500Y-214190500I0J-62500D01*
G01*
X297926500Y-214315500D01*
G75*
G02*
X297864000Y-214378000I-62500J0D01*
G01*
G37*
G04 #@! TD.AperFunction*
G04 #@! TA.AperFunction,SMDPad,CuDef*
G36*
G01*
X297864000Y-214878000D02*
X297114000Y-214878000D01*
G75*
G02*
X297051500Y-214815500I0J62500D01*
G01*
X297051500Y-214690500D01*
G75*
G02*
X297114000Y-214628000I62500J0D01*
G01*
X297864000Y-214628000D01*
G75*
G02*
X297926500Y-214690500I0J-62500D01*
G01*
X297926500Y-214815500D01*
G75*
G02*
X297864000Y-214878000I-62500J0D01*
G01*
G37*
G04 #@! TD.AperFunction*
G04 #@! TA.AperFunction,SMDPad,CuDef*
G36*
G01*
X297864000Y-215378000D02*
X297114000Y-215378000D01*
G75*
G02*
X297051500Y-215315500I0J62500D01*
G01*
X297051500Y-215190500D01*
G75*
G02*
X297114000Y-215128000I62500J0D01*
G01*
X297864000Y-215128000D01*
G75*
G02*
X297926500Y-215190500I0J-62500D01*
G01*
X297926500Y-215315500D01*
G75*
G02*
X297864000Y-215378000I-62500J0D01*
G01*
G37*
G04 #@! TD.AperFunction*
G04 #@! TA.AperFunction,SMDPad,CuDef*
G36*
G01*
X297864000Y-215878000D02*
X297114000Y-215878000D01*
G75*
G02*
X297051500Y-215815500I0J62500D01*
G01*
X297051500Y-215690500D01*
G75*
G02*
X297114000Y-215628000I62500J0D01*
G01*
X297864000Y-215628000D01*
G75*
G02*
X297926500Y-215690500I0J-62500D01*
G01*
X297926500Y-215815500D01*
G75*
G02*
X297864000Y-215878000I-62500J0D01*
G01*
G37*
G04 #@! TD.AperFunction*
G04 #@! TA.AperFunction,SMDPad,CuDef*
G36*
G01*
X297864000Y-216378000D02*
X297114000Y-216378000D01*
G75*
G02*
X297051500Y-216315500I0J62500D01*
G01*
X297051500Y-216190500D01*
G75*
G02*
X297114000Y-216128000I62500J0D01*
G01*
X297864000Y-216128000D01*
G75*
G02*
X297926500Y-216190500I0J-62500D01*
G01*
X297926500Y-216315500D01*
G75*
G02*
X297864000Y-216378000I-62500J0D01*
G01*
G37*
G04 #@! TD.AperFunction*
G04 #@! TA.AperFunction,SMDPad,CuDef*
G36*
G01*
X297864000Y-216878000D02*
X297114000Y-216878000D01*
G75*
G02*
X297051500Y-216815500I0J62500D01*
G01*
X297051500Y-216690500D01*
G75*
G02*
X297114000Y-216628000I62500J0D01*
G01*
X297864000Y-216628000D01*
G75*
G02*
X297926500Y-216690500I0J-62500D01*
G01*
X297926500Y-216815500D01*
G75*
G02*
X297864000Y-216878000I-62500J0D01*
G01*
G37*
G04 #@! TD.AperFunction*
G04 #@! TA.AperFunction,SMDPad,CuDef*
G36*
G01*
X297864000Y-217378000D02*
X297114000Y-217378000D01*
G75*
G02*
X297051500Y-217315500I0J62500D01*
G01*
X297051500Y-217190500D01*
G75*
G02*
X297114000Y-217128000I62500J0D01*
G01*
X297864000Y-217128000D01*
G75*
G02*
X297926500Y-217190500I0J-62500D01*
G01*
X297926500Y-217315500D01*
G75*
G02*
X297864000Y-217378000I-62500J0D01*
G01*
G37*
G04 #@! TD.AperFunction*
G04 #@! TA.AperFunction,SMDPad,CuDef*
G36*
G01*
X298239000Y-218378000D02*
X298114000Y-218378000D01*
G75*
G02*
X298051500Y-218315500I0J62500D01*
G01*
X298051500Y-217565500D01*
G75*
G02*
X298114000Y-217503000I62500J0D01*
G01*
X298239000Y-217503000D01*
G75*
G02*
X298301500Y-217565500I0J-62500D01*
G01*
X298301500Y-218315500D01*
G75*
G02*
X298239000Y-218378000I-62500J0D01*
G01*
G37*
G04 #@! TD.AperFunction*
G04 #@! TA.AperFunction,SMDPad,CuDef*
G36*
G01*
X298739000Y-218378000D02*
X298614000Y-218378000D01*
G75*
G02*
X298551500Y-218315500I0J62500D01*
G01*
X298551500Y-217565500D01*
G75*
G02*
X298614000Y-217503000I62500J0D01*
G01*
X298739000Y-217503000D01*
G75*
G02*
X298801500Y-217565500I0J-62500D01*
G01*
X298801500Y-218315500D01*
G75*
G02*
X298739000Y-218378000I-62500J0D01*
G01*
G37*
G04 #@! TD.AperFunction*
G04 #@! TA.AperFunction,SMDPad,CuDef*
G36*
G01*
X299239000Y-218378000D02*
X299114000Y-218378000D01*
G75*
G02*
X299051500Y-218315500I0J62500D01*
G01*
X299051500Y-217565500D01*
G75*
G02*
X299114000Y-217503000I62500J0D01*
G01*
X299239000Y-217503000D01*
G75*
G02*
X299301500Y-217565500I0J-62500D01*
G01*
X299301500Y-218315500D01*
G75*
G02*
X299239000Y-218378000I-62500J0D01*
G01*
G37*
G04 #@! TD.AperFunction*
G04 #@! TA.AperFunction,SMDPad,CuDef*
G36*
G01*
X299739000Y-218378000D02*
X299614000Y-218378000D01*
G75*
G02*
X299551500Y-218315500I0J62500D01*
G01*
X299551500Y-217565500D01*
G75*
G02*
X299614000Y-217503000I62500J0D01*
G01*
X299739000Y-217503000D01*
G75*
G02*
X299801500Y-217565500I0J-62500D01*
G01*
X299801500Y-218315500D01*
G75*
G02*
X299739000Y-218378000I-62500J0D01*
G01*
G37*
G04 #@! TD.AperFunction*
G04 #@! TA.AperFunction,SMDPad,CuDef*
G36*
G01*
X300239000Y-218378000D02*
X300114000Y-218378000D01*
G75*
G02*
X300051500Y-218315500I0J62500D01*
G01*
X300051500Y-217565500D01*
G75*
G02*
X300114000Y-217503000I62500J0D01*
G01*
X300239000Y-217503000D01*
G75*
G02*
X300301500Y-217565500I0J-62500D01*
G01*
X300301500Y-218315500D01*
G75*
G02*
X300239000Y-218378000I-62500J0D01*
G01*
G37*
G04 #@! TD.AperFunction*
G04 #@! TA.AperFunction,SMDPad,CuDef*
G36*
G01*
X300739000Y-218378000D02*
X300614000Y-218378000D01*
G75*
G02*
X300551500Y-218315500I0J62500D01*
G01*
X300551500Y-217565500D01*
G75*
G02*
X300614000Y-217503000I62500J0D01*
G01*
X300739000Y-217503000D01*
G75*
G02*
X300801500Y-217565500I0J-62500D01*
G01*
X300801500Y-218315500D01*
G75*
G02*
X300739000Y-218378000I-62500J0D01*
G01*
G37*
G04 #@! TD.AperFunction*
G04 #@! TA.AperFunction,SMDPad,CuDef*
G36*
G01*
X301239000Y-218378000D02*
X301114000Y-218378000D01*
G75*
G02*
X301051500Y-218315500I0J62500D01*
G01*
X301051500Y-217565500D01*
G75*
G02*
X301114000Y-217503000I62500J0D01*
G01*
X301239000Y-217503000D01*
G75*
G02*
X301301500Y-217565500I0J-62500D01*
G01*
X301301500Y-218315500D01*
G75*
G02*
X301239000Y-218378000I-62500J0D01*
G01*
G37*
G04 #@! TD.AperFunction*
G04 #@! TA.AperFunction,SMDPad,CuDef*
G36*
G01*
X301739000Y-218378000D02*
X301614000Y-218378000D01*
G75*
G02*
X301551500Y-218315500I0J62500D01*
G01*
X301551500Y-217565500D01*
G75*
G02*
X301614000Y-217503000I62500J0D01*
G01*
X301739000Y-217503000D01*
G75*
G02*
X301801500Y-217565500I0J-62500D01*
G01*
X301801500Y-218315500D01*
G75*
G02*
X301739000Y-218378000I-62500J0D01*
G01*
G37*
G04 #@! TD.AperFunction*
G04 #@! TA.AperFunction,SMDPad,CuDef*
G36*
G01*
X302239000Y-218378000D02*
X302114000Y-218378000D01*
G75*
G02*
X302051500Y-218315500I0J62500D01*
G01*
X302051500Y-217565500D01*
G75*
G02*
X302114000Y-217503000I62500J0D01*
G01*
X302239000Y-217503000D01*
G75*
G02*
X302301500Y-217565500I0J-62500D01*
G01*
X302301500Y-218315500D01*
G75*
G02*
X302239000Y-218378000I-62500J0D01*
G01*
G37*
G04 #@! TD.AperFunction*
G04 #@! TA.AperFunction,SMDPad,CuDef*
G36*
G01*
X302739000Y-218378000D02*
X302614000Y-218378000D01*
G75*
G02*
X302551500Y-218315500I0J62500D01*
G01*
X302551500Y-217565500D01*
G75*
G02*
X302614000Y-217503000I62500J0D01*
G01*
X302739000Y-217503000D01*
G75*
G02*
X302801500Y-217565500I0J-62500D01*
G01*
X302801500Y-218315500D01*
G75*
G02*
X302739000Y-218378000I-62500J0D01*
G01*
G37*
G04 #@! TD.AperFunction*
G04 #@! TA.AperFunction,SMDPad,CuDef*
G36*
G01*
X303239000Y-218378000D02*
X303114000Y-218378000D01*
G75*
G02*
X303051500Y-218315500I0J62500D01*
G01*
X303051500Y-217565500D01*
G75*
G02*
X303114000Y-217503000I62500J0D01*
G01*
X303239000Y-217503000D01*
G75*
G02*
X303301500Y-217565500I0J-62500D01*
G01*
X303301500Y-218315500D01*
G75*
G02*
X303239000Y-218378000I-62500J0D01*
G01*
G37*
G04 #@! TD.AperFunction*
G04 #@! TA.AperFunction,SMDPad,CuDef*
G36*
G01*
X303739000Y-218378000D02*
X303614000Y-218378000D01*
G75*
G02*
X303551500Y-218315500I0J62500D01*
G01*
X303551500Y-217565500D01*
G75*
G02*
X303614000Y-217503000I62500J0D01*
G01*
X303739000Y-217503000D01*
G75*
G02*
X303801500Y-217565500I0J-62500D01*
G01*
X303801500Y-218315500D01*
G75*
G02*
X303739000Y-218378000I-62500J0D01*
G01*
G37*
G04 #@! TD.AperFunction*
G04 #@! TA.AperFunction,SMDPad,CuDef*
G36*
G01*
X303476500Y-217303000D02*
X298376500Y-217303000D01*
G75*
G02*
X298126500Y-217053000I0J250000D01*
G01*
X298126500Y-211953000D01*
G75*
G02*
X298376500Y-211703000I250000J0D01*
G01*
X303476500Y-211703000D01*
G75*
G02*
X303726500Y-211953000I0J-250000D01*
G01*
X303726500Y-217053000D01*
G75*
G02*
X303476500Y-217303000I-250000J0D01*
G01*
G37*
G04 #@! TD.AperFunction*
G04 #@! TA.AperFunction,SMDPad,CuDef*
G36*
G01*
X294790150Y-211881200D02*
X295302650Y-211881200D01*
G75*
G02*
X295521400Y-212099950I0J-218750D01*
G01*
X295521400Y-212537450D01*
G75*
G02*
X295302650Y-212756200I-218750J0D01*
G01*
X294790150Y-212756200D01*
G75*
G02*
X294571400Y-212537450I0J218750D01*
G01*
X294571400Y-212099950D01*
G75*
G02*
X294790150Y-211881200I218750J0D01*
G01*
G37*
G04 #@! TD.AperFunction*
G04 #@! TA.AperFunction,SMDPad,CuDef*
G36*
G01*
X294790150Y-210306200D02*
X295302650Y-210306200D01*
G75*
G02*
X295521400Y-210524950I0J-218750D01*
G01*
X295521400Y-210962450D01*
G75*
G02*
X295302650Y-211181200I-218750J0D01*
G01*
X294790150Y-211181200D01*
G75*
G02*
X294571400Y-210962450I0J218750D01*
G01*
X294571400Y-210524950D01*
G75*
G02*
X294790150Y-210306200I218750J0D01*
G01*
G37*
G04 #@! TD.AperFunction*
X126365000Y-111252000D03*
X120015000Y-113792000D03*
D11*
X137368750Y-106247000D03*
X130918750Y-106247000D03*
X136593750Y-106247000D03*
X131693750Y-106247000D03*
D12*
X132393750Y-106247000D03*
X135893750Y-106247000D03*
X132893750Y-106247000D03*
X135393750Y-106247000D03*
X133393750Y-106247000D03*
X134893750Y-106247000D03*
X134393750Y-106247000D03*
X133893750Y-106247000D03*
D13*
X129823750Y-105332000D03*
X138463750Y-105332000D03*
D14*
X129823750Y-101152000D03*
X138463750Y-101152000D03*
G04 #@! TA.AperFunction,SMDPad,CuDef*
G36*
G01*
X126142000Y-107566750D02*
X126142000Y-108079250D01*
G75*
G02*
X125923250Y-108298000I-218750J0D01*
G01*
X125485750Y-108298000D01*
G75*
G02*
X125267000Y-108079250I0J218750D01*
G01*
X125267000Y-107566750D01*
G75*
G02*
X125485750Y-107348000I218750J0D01*
G01*
X125923250Y-107348000D01*
G75*
G02*
X126142000Y-107566750I0J-218750D01*
G01*
G37*
G04 #@! TD.AperFunction*
G04 #@! TA.AperFunction,SMDPad,CuDef*
G36*
G01*
X127717000Y-107566750D02*
X127717000Y-108079250D01*
G75*
G02*
X127498250Y-108298000I-218750J0D01*
G01*
X127060750Y-108298000D01*
G75*
G02*
X126842000Y-108079250I0J218750D01*
G01*
X126842000Y-107566750D01*
G75*
G02*
X127060750Y-107348000I218750J0D01*
G01*
X127498250Y-107348000D01*
G75*
G02*
X127717000Y-107566750I0J-218750D01*
G01*
G37*
G04 #@! TD.AperFunction*
D10*
X138271250Y-187452000D03*
X131921250Y-189992000D03*
X450215000Y-206502000D03*
X443865000Y-209042000D03*
X450215000Y-187452000D03*
X443865000Y-189992000D03*
D15*
X113717000Y-177764000D03*
X120217000Y-173264000D03*
X113717000Y-173264000D03*
X120217000Y-177764000D03*
G04 #@! TA.AperFunction,SMDPad,CuDef*
G36*
G01*
X119050750Y-180058000D02*
X119963250Y-180058000D01*
G75*
G02*
X120207000Y-180301750I0J-243750D01*
G01*
X120207000Y-180789250D01*
G75*
G02*
X119963250Y-181033000I-243750J0D01*
G01*
X119050750Y-181033000D01*
G75*
G02*
X118807000Y-180789250I0J243750D01*
G01*
X118807000Y-180301750D01*
G75*
G02*
X119050750Y-180058000I243750J0D01*
G01*
G37*
G04 #@! TD.AperFunction*
G04 #@! TA.AperFunction,SMDPad,CuDef*
G36*
G01*
X119050750Y-181933000D02*
X119963250Y-181933000D01*
G75*
G02*
X120207000Y-182176750I0J-243750D01*
G01*
X120207000Y-182664250D01*
G75*
G02*
X119963250Y-182908000I-243750J0D01*
G01*
X119050750Y-182908000D01*
G75*
G02*
X118807000Y-182664250I0J243750D01*
G01*
X118807000Y-182176750D01*
G75*
G02*
X119050750Y-181933000I243750J0D01*
G01*
G37*
G04 #@! TD.AperFunction*
D16*
X272161000Y-201548000D03*
X272161000Y-198248000D03*
D10*
X319246250Y-206502000D03*
X312896250Y-209042000D03*
G04 #@! TA.AperFunction,SMDPad,CuDef*
G36*
G01*
X296093100Y-212026000D02*
X296438100Y-212026000D01*
G75*
G02*
X296585600Y-212173500I0J-147500D01*
G01*
X296585600Y-212468500D01*
G75*
G02*
X296438100Y-212616000I-147500J0D01*
G01*
X296093100Y-212616000D01*
G75*
G02*
X295945600Y-212468500I0J147500D01*
G01*
X295945600Y-212173500D01*
G75*
G02*
X296093100Y-212026000I147500J0D01*
G01*
G37*
G04 #@! TD.AperFunction*
G04 #@! TA.AperFunction,SMDPad,CuDef*
G36*
G01*
X296093100Y-211056000D02*
X296438100Y-211056000D01*
G75*
G02*
X296585600Y-211203500I0J-147500D01*
G01*
X296585600Y-211498500D01*
G75*
G02*
X296438100Y-211646000I-147500J0D01*
G01*
X296093100Y-211646000D01*
G75*
G02*
X295945600Y-211498500I0J147500D01*
G01*
X295945600Y-211203500D01*
G75*
G02*
X296093100Y-211056000I147500J0D01*
G01*
G37*
G04 #@! TD.AperFunction*
X145415000Y-111252000D03*
X139065000Y-113792000D03*
X471805000Y-204597000D03*
X469265000Y-198247000D03*
X471805000Y-166497000D03*
X469265000Y-160147000D03*
X209708750Y-206502000D03*
X203358750Y-209042000D03*
X366871250Y-187452000D03*
X360521250Y-189992000D03*
X381158750Y-168402000D03*
X374808750Y-170942000D03*
X383540000Y-130302000D03*
X377190000Y-132842000D03*
X321627500Y-187452000D03*
X315277500Y-189992000D03*
X302577500Y-187452000D03*
X296227500Y-189992000D03*
X169227500Y-187452000D03*
X162877500Y-189992000D03*
G04 #@! TA.AperFunction,SMDPad,CuDef*
G36*
G01*
X116204500Y-156573000D02*
X116204500Y-156228000D01*
G75*
G02*
X116352000Y-156080500I147500J0D01*
G01*
X116647000Y-156080500D01*
G75*
G02*
X116794500Y-156228000I0J-147500D01*
G01*
X116794500Y-156573000D01*
G75*
G02*
X116647000Y-156720500I-147500J0D01*
G01*
X116352000Y-156720500D01*
G75*
G02*
X116204500Y-156573000I0J147500D01*
G01*
G37*
G04 #@! TD.AperFunction*
G04 #@! TA.AperFunction,SMDPad,CuDef*
G36*
G01*
X115234500Y-156573000D02*
X115234500Y-156228000D01*
G75*
G02*
X115382000Y-156080500I147500J0D01*
G01*
X115677000Y-156080500D01*
G75*
G02*
X115824500Y-156228000I0J-147500D01*
G01*
X115824500Y-156573000D01*
G75*
G02*
X115677000Y-156720500I-147500J0D01*
G01*
X115382000Y-156720500D01*
G75*
G02*
X115234500Y-156573000I0J147500D01*
G01*
G37*
G04 #@! TD.AperFunction*
X240665000Y-111252000D03*
X234315000Y-113792000D03*
X183515000Y-111252000D03*
X177165000Y-113792000D03*
X393065000Y-187452000D03*
X386715000Y-189992000D03*
X173990000Y-149352000D03*
X167640000Y-151892000D03*
X412115000Y-149352000D03*
X405765000Y-151892000D03*
D16*
X132350000Y-115182000D03*
X132350000Y-118482000D03*
G04 #@! TA.AperFunction,SMDPad,CuDef*
G36*
G01*
X136450000Y-109993750D02*
X136450000Y-110906250D01*
G75*
G02*
X136206250Y-111150000I-243750J0D01*
G01*
X135718750Y-111150000D01*
G75*
G02*
X135475000Y-110906250I0J243750D01*
G01*
X135475000Y-109993750D01*
G75*
G02*
X135718750Y-109750000I243750J0D01*
G01*
X136206250Y-109750000D01*
G75*
G02*
X136450000Y-109993750I0J-243750D01*
G01*
G37*
G04 #@! TD.AperFunction*
G04 #@! TA.AperFunction,SMDPad,CuDef*
G36*
G01*
X138325000Y-109993750D02*
X138325000Y-110906250D01*
G75*
G02*
X138081250Y-111150000I-243750J0D01*
G01*
X137593750Y-111150000D01*
G75*
G02*
X137350000Y-110906250I0J243750D01*
G01*
X137350000Y-109993750D01*
G75*
G02*
X137593750Y-109750000I243750J0D01*
G01*
X138081250Y-109750000D01*
G75*
G02*
X138325000Y-109993750I0J-243750D01*
G01*
G37*
G04 #@! TD.AperFunction*
G04 #@! TA.AperFunction,SMDPad,CuDef*
G36*
G01*
X131750000Y-110856250D02*
X131750000Y-109943750D01*
G75*
G02*
X131993750Y-109700000I243750J0D01*
G01*
X132481250Y-109700000D01*
G75*
G02*
X132725000Y-109943750I0J-243750D01*
G01*
X132725000Y-110856250D01*
G75*
G02*
X132481250Y-111100000I-243750J0D01*
G01*
X131993750Y-111100000D01*
G75*
G02*
X131750000Y-110856250I0J243750D01*
G01*
G37*
G04 #@! TD.AperFunction*
G04 #@! TA.AperFunction,SMDPad,CuDef*
G36*
G01*
X129875000Y-110856250D02*
X129875000Y-109943750D01*
G75*
G02*
X130118750Y-109700000I243750J0D01*
G01*
X130606250Y-109700000D01*
G75*
G02*
X130850000Y-109943750I0J-243750D01*
G01*
X130850000Y-110856250D01*
G75*
G02*
X130606250Y-111100000I-243750J0D01*
G01*
X130118750Y-111100000D01*
G75*
G02*
X129875000Y-110856250I0J243750D01*
G01*
G37*
G04 #@! TD.AperFunction*
G04 #@! TA.AperFunction,SMDPad,CuDef*
G36*
G01*
X117226500Y-109676250D02*
X117226500Y-108763750D01*
G75*
G02*
X117470250Y-108520000I243750J0D01*
G01*
X117957750Y-108520000D01*
G75*
G02*
X118201500Y-108763750I0J-243750D01*
G01*
X118201500Y-109676250D01*
G75*
G02*
X117957750Y-109920000I-243750J0D01*
G01*
X117470250Y-109920000D01*
G75*
G02*
X117226500Y-109676250I0J243750D01*
G01*
G37*
G04 #@! TD.AperFunction*
G04 #@! TA.AperFunction,SMDPad,CuDef*
G36*
G01*
X115351500Y-109676250D02*
X115351500Y-108763750D01*
G75*
G02*
X115595250Y-108520000I243750J0D01*
G01*
X116082750Y-108520000D01*
G75*
G02*
X116326500Y-108763750I0J-243750D01*
G01*
X116326500Y-109676250D01*
G75*
G02*
X116082750Y-109920000I-243750J0D01*
G01*
X115595250Y-109920000D01*
G75*
G02*
X115351500Y-109676250I0J243750D01*
G01*
G37*
G04 #@! TD.AperFunction*
G04 #@! TA.AperFunction,SMDPad,CuDef*
G36*
G01*
X117126500Y-107698250D02*
X117126500Y-107185750D01*
G75*
G02*
X117345250Y-106967000I218750J0D01*
G01*
X117782750Y-106967000D01*
G75*
G02*
X118001500Y-107185750I0J-218750D01*
G01*
X118001500Y-107698250D01*
G75*
G02*
X117782750Y-107917000I-218750J0D01*
G01*
X117345250Y-107917000D01*
G75*
G02*
X117126500Y-107698250I0J218750D01*
G01*
G37*
G04 #@! TD.AperFunction*
G04 #@! TA.AperFunction,SMDPad,CuDef*
G36*
G01*
X115551500Y-107698250D02*
X115551500Y-107185750D01*
G75*
G02*
X115770250Y-106967000I218750J0D01*
G01*
X116207750Y-106967000D01*
G75*
G02*
X116426500Y-107185750I0J-218750D01*
G01*
X116426500Y-107698250D01*
G75*
G02*
X116207750Y-107917000I-218750J0D01*
G01*
X115770250Y-107917000D01*
G75*
G02*
X115551500Y-107698250I0J218750D01*
G01*
G37*
G04 #@! TD.AperFunction*
D10*
X431165000Y-206502000D03*
X424815000Y-209042000D03*
X412115000Y-206502000D03*
X405765000Y-209042000D03*
X393065000Y-206502000D03*
X386715000Y-209042000D03*
X374015000Y-206502000D03*
X367665000Y-209042000D03*
X343058750Y-206502000D03*
X336708750Y-209042000D03*
X243046250Y-206502000D03*
X236696250Y-209042000D03*
X176371250Y-206502000D03*
X170021250Y-209042000D03*
X152558750Y-206502000D03*
X146208750Y-209042000D03*
X128746250Y-206502000D03*
X122396250Y-209042000D03*
X431165000Y-187452000D03*
X424815000Y-189992000D03*
X412115000Y-187452000D03*
X405765000Y-189992000D03*
X340677500Y-187452000D03*
X334327500Y-189992000D03*
X283527500Y-187452000D03*
X277177500Y-189992000D03*
X264477500Y-187452000D03*
X258127500Y-189992000D03*
X245427500Y-187452000D03*
X239077500Y-189992000D03*
X226377500Y-187452000D03*
X220027500Y-189992000D03*
X207327500Y-187452000D03*
X200977500Y-189992000D03*
X188277500Y-187452000D03*
X181927500Y-189992000D03*
X450215000Y-168402000D03*
X443865000Y-170942000D03*
X431165000Y-168402000D03*
X424815000Y-170942000D03*
X412115000Y-168402000D03*
X405765000Y-170942000D03*
X350202500Y-168402000D03*
X343852500Y-170942000D03*
X331152500Y-168402000D03*
X324802500Y-170942000D03*
X312102500Y-168402000D03*
X305752500Y-170942000D03*
X293052500Y-168402000D03*
X286702500Y-170942000D03*
X274002500Y-168402000D03*
X267652500Y-170942000D03*
X254952500Y-168402000D03*
X248602500Y-170942000D03*
X235902500Y-168402000D03*
X229552500Y-170942000D03*
X216852500Y-168402000D03*
X210502500Y-170942000D03*
X197802500Y-168402000D03*
X191452500Y-170942000D03*
X178752500Y-168402000D03*
X172402500Y-170942000D03*
X159702500Y-168402000D03*
X153352500Y-170942000D03*
X133508750Y-168402000D03*
X127158750Y-170942000D03*
X450215000Y-149352000D03*
X443865000Y-151892000D03*
X431165000Y-149352000D03*
X424815000Y-151892000D03*
X388302500Y-149352000D03*
X381952500Y-151892000D03*
X364490000Y-149352000D03*
X358140000Y-151892000D03*
X345440000Y-149352000D03*
X339090000Y-151892000D03*
X326390000Y-149352000D03*
X320040000Y-151892000D03*
X307340000Y-149352000D03*
X300990000Y-151892000D03*
X288290000Y-149352000D03*
X281940000Y-151892000D03*
X269240000Y-149352000D03*
X262890000Y-151892000D03*
X250190000Y-149352000D03*
X243840000Y-151892000D03*
X231140000Y-149352000D03*
X224790000Y-151892000D03*
X212090000Y-149352000D03*
X205740000Y-151892000D03*
X193040000Y-149352000D03*
X186690000Y-151892000D03*
X154940000Y-149352000D03*
X148590000Y-151892000D03*
X131127500Y-149352000D03*
X124777500Y-151892000D03*
X469265000Y-130302000D03*
X462915000Y-132842000D03*
X450215000Y-130302000D03*
X443865000Y-132842000D03*
X431165000Y-130302000D03*
X424815000Y-132842000D03*
X412115000Y-130302000D03*
X405765000Y-132842000D03*
X354965000Y-130302000D03*
X348615000Y-132842000D03*
X335915000Y-130302000D03*
X329565000Y-132842000D03*
X316865000Y-130302000D03*
X310515000Y-132842000D03*
X297815000Y-130302000D03*
X291465000Y-132842000D03*
X278765000Y-130302000D03*
X272415000Y-132842000D03*
X259715000Y-130302000D03*
X253365000Y-132842000D03*
X240665000Y-130302000D03*
X234315000Y-132842000D03*
X221615000Y-130302000D03*
X215265000Y-132842000D03*
X202565000Y-130302000D03*
X196215000Y-132842000D03*
X183515000Y-130302000D03*
X177165000Y-132842000D03*
X164465000Y-130302000D03*
X158115000Y-132842000D03*
X145415000Y-130302000D03*
X139065000Y-132842000D03*
X126365000Y-130302000D03*
X120015000Y-132842000D03*
X469265000Y-111252000D03*
X462915000Y-113792000D03*
X450215000Y-111252000D03*
X443865000Y-113792000D03*
X431165000Y-111252000D03*
X424815000Y-113792000D03*
X412115000Y-111252000D03*
X405765000Y-113792000D03*
X393065000Y-111252000D03*
X386715000Y-113792000D03*
X374015000Y-111252000D03*
X367665000Y-113792000D03*
X354965000Y-111252000D03*
X348615000Y-113792000D03*
X335915000Y-111252000D03*
X329565000Y-113792000D03*
X316865000Y-111252000D03*
X310515000Y-113792000D03*
X297815000Y-111252000D03*
X291465000Y-113792000D03*
X278765000Y-111252000D03*
X272415000Y-113792000D03*
X259715000Y-111252000D03*
X253365000Y-113792000D03*
X221615000Y-111252000D03*
X215265000Y-113792000D03*
X202565000Y-111252000D03*
X196215000Y-113792000D03*
X164465000Y-111252000D03*
X158115000Y-113792000D03*
G04 #@! TA.AperFunction,SMDPad,CuDef*
G36*
G01*
X116649000Y-149905500D02*
X116649000Y-149560500D01*
G75*
G02*
X116796500Y-149413000I147500J0D01*
G01*
X117091500Y-149413000D01*
G75*
G02*
X117239000Y-149560500I0J-147500D01*
G01*
X117239000Y-149905500D01*
G75*
G02*
X117091500Y-150053000I-147500J0D01*
G01*
X116796500Y-150053000D01*
G75*
G02*
X116649000Y-149905500I0J147500D01*
G01*
G37*
G04 #@! TD.AperFunction*
G04 #@! TA.AperFunction,SMDPad,CuDef*
G36*
G01*
X115679000Y-149905500D02*
X115679000Y-149560500D01*
G75*
G02*
X115826500Y-149413000I147500J0D01*
G01*
X116121500Y-149413000D01*
G75*
G02*
X116269000Y-149560500I0J-147500D01*
G01*
X116269000Y-149905500D01*
G75*
G02*
X116121500Y-150053000I-147500J0D01*
G01*
X115826500Y-150053000D01*
G75*
G02*
X115679000Y-149905500I0J147500D01*
G01*
G37*
G04 #@! TD.AperFunction*
G04 #@! TA.AperFunction,SMDPad,CuDef*
G36*
G01*
X299706800Y-219628500D02*
X299706800Y-219283500D01*
G75*
G02*
X299854300Y-219136000I147500J0D01*
G01*
X300149300Y-219136000D01*
G75*
G02*
X300296800Y-219283500I0J-147500D01*
G01*
X300296800Y-219628500D01*
G75*
G02*
X300149300Y-219776000I-147500J0D01*
G01*
X299854300Y-219776000D01*
G75*
G02*
X299706800Y-219628500I0J147500D01*
G01*
G37*
G04 #@! TD.AperFunction*
G04 #@! TA.AperFunction,SMDPad,CuDef*
G36*
G01*
X298736800Y-219628500D02*
X298736800Y-219283500D01*
G75*
G02*
X298884300Y-219136000I147500J0D01*
G01*
X299179300Y-219136000D01*
G75*
G02*
X299326800Y-219283500I0J-147500D01*
G01*
X299326800Y-219628500D01*
G75*
G02*
X299179300Y-219776000I-147500J0D01*
G01*
X298884300Y-219776000D01*
G75*
G02*
X298736800Y-219628500I0J147500D01*
G01*
G37*
G04 #@! TD.AperFunction*
G04 #@! TA.AperFunction,SMDPad,CuDef*
G36*
G01*
X304297600Y-208328550D02*
X304297600Y-208841050D01*
G75*
G02*
X304078850Y-209059800I-218750J0D01*
G01*
X303641350Y-209059800D01*
G75*
G02*
X303422600Y-208841050I0J218750D01*
G01*
X303422600Y-208328550D01*
G75*
G02*
X303641350Y-208109800I218750J0D01*
G01*
X304078850Y-208109800D01*
G75*
G02*
X304297600Y-208328550I0J-218750D01*
G01*
G37*
G04 #@! TD.AperFunction*
G04 #@! TA.AperFunction,SMDPad,CuDef*
G36*
G01*
X305872600Y-208328550D02*
X305872600Y-208841050D01*
G75*
G02*
X305653850Y-209059800I-218750J0D01*
G01*
X305216350Y-209059800D01*
G75*
G02*
X304997600Y-208841050I0J218750D01*
G01*
X304997600Y-208328550D01*
G75*
G02*
X305216350Y-208109800I218750J0D01*
G01*
X305653850Y-208109800D01*
G75*
G02*
X305872600Y-208328550I0J-218750D01*
G01*
G37*
G04 #@! TD.AperFunction*
D17*
X116014500Y-151431750D03*
X115064500Y-153431750D03*
X116964500Y-153431750D03*
D15*
X120217000Y-166406000D03*
X113717000Y-170906000D03*
X120217000Y-170906000D03*
X113717000Y-166406000D03*
G04 #@! TA.AperFunction,SMDPad,CuDef*
G36*
G01*
X118542750Y-161389000D02*
X119455250Y-161389000D01*
G75*
G02*
X119699000Y-161632750I0J-243750D01*
G01*
X119699000Y-162120250D01*
G75*
G02*
X119455250Y-162364000I-243750J0D01*
G01*
X118542750Y-162364000D01*
G75*
G02*
X118299000Y-162120250I0J243750D01*
G01*
X118299000Y-161632750D01*
G75*
G02*
X118542750Y-161389000I243750J0D01*
G01*
G37*
G04 #@! TD.AperFunction*
G04 #@! TA.AperFunction,SMDPad,CuDef*
G36*
G01*
X118542750Y-163264000D02*
X119455250Y-163264000D01*
G75*
G02*
X119699000Y-163507750I0J-243750D01*
G01*
X119699000Y-163995250D01*
G75*
G02*
X119455250Y-164239000I-243750J0D01*
G01*
X118542750Y-164239000D01*
G75*
G02*
X118299000Y-163995250I0J243750D01*
G01*
X118299000Y-163507750D01*
G75*
G02*
X118542750Y-163264000I243750J0D01*
G01*
G37*
G04 #@! TD.AperFunction*
D16*
X151400000Y-115182000D03*
X151400000Y-118482000D03*
X170450000Y-115182000D03*
X170450000Y-118482000D03*
X189500000Y-115182000D03*
X189500000Y-118482000D03*
X208550000Y-115182000D03*
X208550000Y-118482000D03*
X227600000Y-115182000D03*
X227600000Y-118482000D03*
X246650000Y-115182000D03*
X246650000Y-118482000D03*
X265700000Y-115182000D03*
X265700000Y-118482000D03*
X284750000Y-115182000D03*
X284750000Y-118482000D03*
X303800000Y-115182000D03*
X303800000Y-118482000D03*
X322850000Y-115182000D03*
X322850000Y-118482000D03*
X341900000Y-115182000D03*
X341900000Y-118482000D03*
X360950000Y-115182000D03*
X360950000Y-118482000D03*
X380000000Y-115182000D03*
X380000000Y-118482000D03*
X399050000Y-115182000D03*
X399050000Y-118482000D03*
X418100000Y-115182000D03*
X418100000Y-118482000D03*
X437150000Y-115182000D03*
X437150000Y-118482000D03*
X456200000Y-115182000D03*
X456200000Y-118482000D03*
X475250000Y-115182000D03*
X475250000Y-118482000D03*
X132350000Y-134232000D03*
X132350000Y-137532000D03*
X151400000Y-134232000D03*
X151400000Y-137532000D03*
X170450000Y-134232000D03*
X170450000Y-137532000D03*
X189500000Y-134232000D03*
X189500000Y-137532000D03*
X208550000Y-134232000D03*
X208550000Y-137532000D03*
X227600000Y-134232000D03*
X227600000Y-137532000D03*
X246650000Y-134232000D03*
X246650000Y-137532000D03*
X265700000Y-134232000D03*
X265700000Y-137532000D03*
X284750000Y-134232000D03*
X284750000Y-137532000D03*
X303800000Y-134232000D03*
X303800000Y-137532000D03*
X322850000Y-134232000D03*
X322850000Y-137532000D03*
X341900000Y-134232000D03*
X341900000Y-137532000D03*
X360950000Y-134232000D03*
X360950000Y-137532000D03*
X399288000Y-134240000D03*
X399288000Y-137540000D03*
X418100000Y-134232000D03*
X418100000Y-137532000D03*
X437150000Y-134232000D03*
X437150000Y-137532000D03*
X456200000Y-134232000D03*
X456200000Y-137532000D03*
X475250000Y-134232000D03*
X475250000Y-137532000D03*
X141875000Y-153282000D03*
X141875000Y-156582000D03*
X160925000Y-153282000D03*
X160925000Y-156582000D03*
X179975000Y-153282000D03*
X179975000Y-156582000D03*
X199025000Y-153282000D03*
X199025000Y-156582000D03*
X218075000Y-153282000D03*
X218075000Y-156582000D03*
X237125000Y-153282000D03*
X237125000Y-156582000D03*
X256175000Y-153282000D03*
X256175000Y-156582000D03*
X275225000Y-153282000D03*
X275225000Y-156582000D03*
X294275000Y-153282000D03*
X294275000Y-156582000D03*
X313325000Y-153282000D03*
X313325000Y-156582000D03*
X332375000Y-153282000D03*
X332375000Y-156582000D03*
X351425000Y-153282000D03*
X351425000Y-156582000D03*
X370475000Y-153282000D03*
X370475000Y-156582000D03*
X394493750Y-153131250D03*
X394493750Y-156431250D03*
X418100000Y-153282000D03*
X418100000Y-156582000D03*
X437150000Y-153282000D03*
X437150000Y-156582000D03*
X456565000Y-158751000D03*
X456565000Y-162051000D03*
X139700000Y-172181250D03*
X139700000Y-175481250D03*
X165687500Y-172332000D03*
X165687500Y-175632000D03*
X184737500Y-172332000D03*
X184737500Y-175632000D03*
X203787500Y-172332000D03*
X203787500Y-175632000D03*
X222837500Y-172332000D03*
X222837500Y-175632000D03*
X241887500Y-172332000D03*
X241887500Y-175632000D03*
X260937500Y-172332000D03*
X260937500Y-175632000D03*
X279987500Y-172332000D03*
X279987500Y-175632000D03*
X299037500Y-172332000D03*
X299037500Y-175632000D03*
X318087500Y-172332000D03*
X318087500Y-175632000D03*
X337137500Y-172332000D03*
X337137500Y-175632000D03*
X356187500Y-172332000D03*
X356187500Y-175632000D03*
X398780000Y-172213000D03*
X398780000Y-175513000D03*
X418100000Y-172332000D03*
X418100000Y-175632000D03*
X437150000Y-172332000D03*
X437150000Y-175632000D03*
X456565000Y-165863000D03*
X456565000Y-169163000D03*
X474980000Y-160908000D03*
X474980000Y-157608000D03*
X155067000Y-190882000D03*
X155067000Y-194182000D03*
X175212500Y-191382000D03*
X175212500Y-194682000D03*
X194262500Y-191382000D03*
X194262500Y-194682000D03*
X213312500Y-191382000D03*
X213312500Y-194682000D03*
X232362500Y-191382000D03*
X232362500Y-194682000D03*
X251412500Y-191382000D03*
X251412500Y-194682000D03*
X270462500Y-191382000D03*
X270462500Y-194682000D03*
X289512500Y-191382000D03*
X289512500Y-194682000D03*
X308562500Y-191382000D03*
X308562500Y-194682000D03*
X327612500Y-191382000D03*
X327612500Y-194682000D03*
X346662500Y-191382000D03*
X346662500Y-194682000D03*
X373062500Y-191382000D03*
X373062500Y-194682000D03*
X399050000Y-191382000D03*
X399050000Y-194682000D03*
X418100000Y-191382000D03*
X418100000Y-194682000D03*
X437150000Y-191382000D03*
X437150000Y-194682000D03*
X456311000Y-196343000D03*
X456311000Y-199643000D03*
X134937500Y-210432000D03*
X134937500Y-213732000D03*
X158750000Y-210281250D03*
X158750000Y-213581250D03*
X182245000Y-210440000D03*
X182245000Y-213740000D03*
X226822000Y-209424000D03*
X226822000Y-212724000D03*
X249237500Y-210432000D03*
X249237500Y-213732000D03*
X327612500Y-210432000D03*
X327612500Y-213732000D03*
X349250000Y-210432000D03*
X349250000Y-213732000D03*
X380000000Y-210432000D03*
X380000000Y-213732000D03*
X399050000Y-210432000D03*
X399050000Y-213732000D03*
X418100000Y-210432000D03*
X418100000Y-213732000D03*
X437150000Y-210432000D03*
X437150000Y-213732000D03*
X456311000Y-204471000D03*
X456311000Y-207771000D03*
X474345000Y-201421000D03*
X474345000Y-198121000D03*
D18*
X116840000Y-158115000D03*
X117221000Y-147955000D03*
X115824000Y-111633000D03*
X117983000Y-182372000D03*
X292850000Y-212350000D03*
X130429000Y-108966000D03*
X137922000Y-108966000D03*
X146177000Y-215012250D03*
X164846000Y-215171000D03*
X170053000Y-215171000D03*
X203327000Y-214503000D03*
X228195933Y-214272067D03*
X252174317Y-212677317D03*
X270002000Y-210312000D03*
X298831000Y-205359000D03*
X304165000Y-206883000D03*
X336677000Y-215163000D03*
X360553000Y-215138000D03*
X367538000Y-215265000D03*
X386715000Y-215265000D03*
X405765000Y-215265000D03*
X424815000Y-215265000D03*
X443865000Y-215265000D03*
X450977000Y-217424000D03*
X115189000Y-158115000D03*
X116078000Y-161036000D03*
X305435000Y-207264000D03*
X293751000Y-210820000D03*
X296068750Y-209550000D03*
X306959000Y-217932000D03*
X296745308Y-220779692D03*
X301713849Y-220611751D03*
X288724990Y-196504000D03*
X289451990Y-197231000D03*
X307390800Y-215480001D03*
X134414399Y-112313604D03*
X302678863Y-201586771D03*
X134394850Y-113313415D03*
X301625000Y-201612500D03*
D19*
X116499500Y-156400500D02*
X116499500Y-157774500D01*
X116964500Y-153431750D02*
X116964500Y-155935500D01*
X116964500Y-155935500D02*
X116499500Y-156400500D01*
X116944000Y-149733000D02*
X116944000Y-153411250D01*
X116944000Y-153411250D02*
X116964500Y-153431750D01*
X117221000Y-147955000D02*
X117221000Y-149456000D01*
X117221000Y-149456000D02*
X116944000Y-149733000D01*
X116840000Y-158115000D02*
X116499500Y-157774500D01*
X115989000Y-109070000D02*
X115839000Y-109220000D01*
X115989000Y-107442000D02*
X115989000Y-109070000D01*
X115839000Y-109220000D02*
X115839000Y-111618000D01*
X115839000Y-111618000D02*
X115824000Y-111633000D01*
X119507000Y-182420500D02*
X118031500Y-182420500D01*
X118031500Y-182420500D02*
X117983000Y-182372000D01*
X296333600Y-212253000D02*
X297489000Y-212253000D01*
X296265600Y-212321000D02*
X296333600Y-212253000D01*
X298699090Y-212275590D02*
X300926500Y-214503000D01*
X297771990Y-212275590D02*
X298699090Y-212275590D01*
X297749400Y-212253000D02*
X297771990Y-212275590D01*
X297489000Y-212253000D02*
X297749400Y-212253000D01*
X300199090Y-215230410D02*
X300926500Y-214503000D01*
X300199090Y-217605310D02*
X300199090Y-215230410D01*
X300176500Y-217627900D02*
X300199090Y-217605310D01*
X300176500Y-217940500D02*
X300176500Y-217627900D01*
X305376000Y-216753000D02*
X304364000Y-216753000D01*
X305612800Y-216989800D02*
X305376000Y-216753000D01*
X303153910Y-216730410D02*
X300926500Y-214503000D01*
X304004810Y-216730410D02*
X303153910Y-216730410D01*
X304027400Y-216753000D02*
X304004810Y-216730410D01*
X304364000Y-216753000D02*
X304027400Y-216753000D01*
X303176500Y-212253000D02*
X300926500Y-214503000D01*
X303176500Y-211065500D02*
X303176500Y-212253000D01*
X303176500Y-210282100D02*
X303176500Y-211065500D01*
X303603800Y-209854800D02*
X303176500Y-210282100D01*
X303860100Y-209598500D02*
X303603800Y-209854800D01*
X303860100Y-208584800D02*
X303860100Y-209598500D01*
X296263300Y-212318700D02*
X296265600Y-212321000D01*
X295046400Y-212318700D02*
X296263300Y-212318700D01*
X294970300Y-212394800D02*
X295046400Y-212318700D01*
X300176500Y-219281300D02*
X300176500Y-217940500D01*
X300001800Y-219456000D02*
X300176500Y-219281300D01*
X299796300Y-219661500D02*
X300001800Y-219456000D01*
X299796300Y-220776800D02*
X299796300Y-219661500D01*
X295015100Y-212350000D02*
X295046400Y-212318700D01*
X292850000Y-212350000D02*
X295015100Y-212350000D01*
X130918750Y-106247000D02*
X130918750Y-108476250D01*
X130918750Y-108476250D02*
X130429000Y-108966000D01*
X137368750Y-106247000D02*
X137368750Y-108412750D01*
X137368750Y-108412750D02*
X137922000Y-108966000D01*
X137922000Y-110365500D02*
X137837500Y-110450000D01*
X137922000Y-108966000D02*
X137922000Y-110365500D01*
X130429000Y-110333500D02*
X130362500Y-110400000D01*
X130429000Y-108966000D02*
X130429000Y-110333500D01*
D20*
X122396250Y-210632990D02*
X122396250Y-209042000D01*
X122396250Y-211206934D02*
X122396250Y-210632990D01*
X128396326Y-217207010D02*
X122396250Y-211206934D01*
X297090010Y-217207010D02*
X128396326Y-217207010D01*
X297136000Y-217253000D02*
X297090010Y-217207010D01*
X297489000Y-217253000D02*
X297136000Y-217253000D01*
X296951500Y-216753000D02*
X297489000Y-216753000D01*
X148483435Y-216753000D02*
X296951500Y-216753000D01*
X146742685Y-215012250D02*
X148483435Y-216753000D01*
X146177000Y-215012250D02*
X146742685Y-215012250D01*
X165928000Y-216253000D02*
X164846000Y-215171000D01*
X297489000Y-216253000D02*
X165928000Y-216253000D01*
X280464268Y-215753000D02*
X280419238Y-215798030D01*
X297489000Y-215753000D02*
X280464268Y-215753000D01*
X170680030Y-215798030D02*
X170053000Y-215171000D01*
X280419238Y-215798030D02*
X170680030Y-215798030D01*
X280322201Y-215253000D02*
X280231181Y-215344020D01*
X297489000Y-215253000D02*
X280322201Y-215253000D01*
X204168020Y-215344020D02*
X203327000Y-214503000D01*
X280231181Y-215344020D02*
X204168020Y-215344020D01*
X228813876Y-214890010D02*
X228195933Y-214272067D01*
X280043124Y-214890010D02*
X228813876Y-214890010D01*
X280180134Y-214753000D02*
X280043124Y-214890010D01*
X297489000Y-214753000D02*
X280180134Y-214753000D01*
X295652000Y-214253000D02*
X297489000Y-214253000D01*
X280038067Y-214253000D02*
X295652000Y-214253000D01*
X279934156Y-214356911D02*
X280038067Y-214253000D01*
X253853911Y-214356911D02*
X279934156Y-214356911D01*
X252174317Y-212677317D02*
X253853911Y-214356911D01*
X273027216Y-213902901D02*
X279746099Y-213902901D01*
X270002000Y-210312000D02*
X270002000Y-210877685D01*
X270002000Y-210877685D02*
X273027216Y-213902901D01*
X279896000Y-213753000D02*
X297489000Y-213753000D01*
X279746099Y-213902901D02*
X279896000Y-213753000D01*
X296951500Y-213253000D02*
X297489000Y-213253000D01*
X292314038Y-213253000D02*
X296951500Y-213253000D01*
X288103038Y-209042000D02*
X292314038Y-213253000D01*
X274796250Y-209042000D02*
X288103038Y-209042000D01*
X298176500Y-206013500D02*
X298176500Y-211065500D01*
X298831000Y-205359000D02*
X298176500Y-206013500D01*
X302676500Y-208371500D02*
X302676500Y-211065500D01*
X304165000Y-206883000D02*
X302676500Y-208371500D01*
X336404009Y-215435991D02*
X336677000Y-215163000D01*
X312385991Y-215435991D02*
X336404009Y-215435991D01*
X304364000Y-211753000D02*
X308703000Y-211753000D01*
X308703000Y-211753000D02*
X312385991Y-215435991D01*
X312190001Y-215890001D02*
X359800999Y-215890001D01*
X359800999Y-215890001D02*
X360553000Y-215138000D01*
X308553000Y-212253000D02*
X312190001Y-215890001D01*
X304364000Y-212253000D02*
X308553000Y-212253000D01*
X365893304Y-216344011D02*
X366972315Y-215265000D01*
X366972315Y-215265000D02*
X367538000Y-215265000D01*
X308353000Y-212753000D02*
X311944011Y-216344011D01*
X311944011Y-216344011D02*
X365893304Y-216344011D01*
X304364000Y-212753000D02*
X308353000Y-212753000D01*
X386149315Y-215265000D02*
X386715000Y-215265000D01*
X311748021Y-216798021D02*
X384616294Y-216798021D01*
X308203000Y-213253000D02*
X311748021Y-216798021D01*
X384616294Y-216798021D02*
X386149315Y-215265000D01*
X304364000Y-213253000D02*
X308203000Y-213253000D01*
X405199315Y-215265000D02*
X405765000Y-215265000D01*
X403212284Y-217252031D02*
X405199315Y-215265000D01*
X311544097Y-217252031D02*
X403212284Y-217252031D01*
X308045066Y-213753000D02*
X311544097Y-217252031D01*
X304364000Y-213753000D02*
X308045066Y-213753000D01*
X421808274Y-217706041D02*
X424249315Y-215265000D01*
X311356041Y-217706041D02*
X421808274Y-217706041D01*
X424249315Y-215265000D02*
X424815000Y-215265000D01*
X307903000Y-214253000D02*
X311356041Y-217706041D01*
X304364000Y-214253000D02*
X307903000Y-214253000D01*
X307747000Y-214760239D02*
X311146812Y-218160051D01*
X307747000Y-214753000D02*
X307747000Y-214760239D01*
X440969949Y-218160051D02*
X443865000Y-215265000D01*
X311146812Y-218160051D02*
X440969949Y-218160051D01*
X304364000Y-214753000D02*
X307747000Y-214753000D01*
X449786939Y-218614061D02*
X450977000Y-217424000D01*
X309359089Y-218614061D02*
X449786939Y-218614061D01*
X306498028Y-215753000D02*
X309359089Y-218614061D01*
X304364000Y-215753000D02*
X306498028Y-215753000D01*
X133204000Y-119186000D02*
X150546000Y-119186000D01*
X132500000Y-118482000D02*
X133204000Y-119186000D01*
X150546000Y-119186000D02*
X151250000Y-118482000D01*
X151250000Y-118482000D02*
X151400000Y-118482000D01*
X132350000Y-118482000D02*
X132500000Y-118482000D01*
X170300000Y-118482000D02*
X170450000Y-118482000D01*
X169596000Y-119186000D02*
X170300000Y-118482000D01*
X152958000Y-119186000D02*
X169596000Y-119186000D01*
X151400000Y-118482000D02*
X152254000Y-118482000D01*
X152254000Y-118482000D02*
X152958000Y-119186000D01*
X171304000Y-119186000D02*
X188646000Y-119186000D01*
X170600000Y-118482000D02*
X171304000Y-119186000D01*
X189350000Y-118482000D02*
X189500000Y-118482000D01*
X188646000Y-119186000D02*
X189350000Y-118482000D01*
X170450000Y-118482000D02*
X170600000Y-118482000D01*
X208400000Y-118482000D02*
X208550000Y-118482000D01*
X207696000Y-119186000D02*
X208400000Y-118482000D01*
X189500000Y-118482000D02*
X189650000Y-118482000D01*
X190354000Y-119186000D02*
X207696000Y-119186000D01*
X189650000Y-118482000D02*
X190354000Y-119186000D01*
X226746000Y-119186000D02*
X227450000Y-118482000D01*
X210108000Y-119186000D02*
X226746000Y-119186000D01*
X209404000Y-118482000D02*
X210108000Y-119186000D01*
X227450000Y-118482000D02*
X227600000Y-118482000D01*
X208550000Y-118482000D02*
X209404000Y-118482000D01*
X456200000Y-118482000D02*
X456350000Y-118482000D01*
X456350000Y-118482000D02*
X457054000Y-119186000D01*
X457054000Y-119186000D02*
X474396000Y-119186000D01*
X474396000Y-119186000D02*
X475100000Y-118482000D01*
X475100000Y-118482000D02*
X475250000Y-118482000D01*
X437150000Y-118482000D02*
X437300000Y-118482000D01*
X437300000Y-118482000D02*
X438004000Y-119186000D01*
X438004000Y-119186000D02*
X455346000Y-119186000D01*
X455346000Y-119186000D02*
X456050000Y-118482000D01*
X456050000Y-118482000D02*
X456200000Y-118482000D01*
X418100000Y-118482000D02*
X418250000Y-118482000D01*
X418250000Y-118482000D02*
X418954000Y-119186000D01*
X418954000Y-119186000D02*
X436296000Y-119186000D01*
X436296000Y-119186000D02*
X437000000Y-118482000D01*
X437000000Y-118482000D02*
X437150000Y-118482000D01*
X399050000Y-118482000D02*
X399200000Y-118482000D01*
X399200000Y-118482000D02*
X399904000Y-119186000D01*
X399904000Y-119186000D02*
X417246000Y-119186000D01*
X417246000Y-119186000D02*
X417950000Y-118482000D01*
X417950000Y-118482000D02*
X418100000Y-118482000D01*
X380000000Y-118482000D02*
X380150000Y-118482000D01*
X380150000Y-118482000D02*
X380854000Y-119186000D01*
X380854000Y-119186000D02*
X398196000Y-119186000D01*
X398196000Y-119186000D02*
X398900000Y-118482000D01*
X398900000Y-118482000D02*
X399050000Y-118482000D01*
X360950000Y-118482000D02*
X361100000Y-118482000D01*
X361100000Y-118482000D02*
X361804000Y-119186000D01*
X361804000Y-119186000D02*
X379146000Y-119186000D01*
X379146000Y-119186000D02*
X379850000Y-118482000D01*
X379850000Y-118482000D02*
X380000000Y-118482000D01*
X341900000Y-118482000D02*
X342050000Y-118482000D01*
X342050000Y-118482000D02*
X342754000Y-119186000D01*
X342754000Y-119186000D02*
X360096000Y-119186000D01*
X360096000Y-119186000D02*
X360800000Y-118482000D01*
X360800000Y-118482000D02*
X360950000Y-118482000D01*
X322850000Y-118482000D02*
X323704000Y-118482000D01*
X323704000Y-118482000D02*
X324408000Y-119186000D01*
X324408000Y-119186000D02*
X341046000Y-119186000D01*
X341046000Y-119186000D02*
X341750000Y-118482000D01*
X341750000Y-118482000D02*
X341900000Y-118482000D01*
X303800000Y-118482000D02*
X303950000Y-118482000D01*
X303950000Y-118482000D02*
X304654000Y-119186000D01*
X304654000Y-119186000D02*
X321996000Y-119186000D01*
X321996000Y-119186000D02*
X322700000Y-118482000D01*
X322700000Y-118482000D02*
X322850000Y-118482000D01*
X284750000Y-118482000D02*
X284900000Y-118482000D01*
X284900000Y-118482000D02*
X285604000Y-119186000D01*
X285604000Y-119186000D02*
X302946000Y-119186000D01*
X302946000Y-119186000D02*
X303650000Y-118482000D01*
X303650000Y-118482000D02*
X303800000Y-118482000D01*
X265700000Y-118482000D02*
X265850000Y-118482000D01*
X265850000Y-118482000D02*
X266554000Y-119186000D01*
X266554000Y-119186000D02*
X283896000Y-119186000D01*
X283896000Y-119186000D02*
X284600000Y-118482000D01*
X284600000Y-118482000D02*
X284750000Y-118482000D01*
X246650000Y-118482000D02*
X247504000Y-118482000D01*
X247504000Y-118482000D02*
X248208000Y-119186000D01*
X248208000Y-119186000D02*
X264846000Y-119186000D01*
X264846000Y-119186000D02*
X265550000Y-118482000D01*
X265550000Y-118482000D02*
X265700000Y-118482000D01*
X227600000Y-118482000D02*
X227750000Y-118482000D01*
X227750000Y-118482000D02*
X228454000Y-119186000D01*
X228454000Y-119186000D02*
X245796000Y-119186000D01*
X245796000Y-119186000D02*
X246500000Y-118482000D01*
X246500000Y-118482000D02*
X246650000Y-118482000D01*
X475250000Y-119186000D02*
X477723041Y-121659041D01*
X475250000Y-118482000D02*
X475250000Y-119186000D01*
X477723041Y-121659041D02*
X477723041Y-205445293D01*
X477723041Y-205445293D02*
X461823284Y-221345050D01*
X461823284Y-221345050D02*
X303524431Y-221345050D01*
X301176500Y-218997118D02*
X301176500Y-217940500D01*
X303524431Y-221345050D02*
X301176500Y-218997118D01*
X456200000Y-137532000D02*
X456350000Y-137532000D01*
X456350000Y-137532000D02*
X457054000Y-138236000D01*
X457054000Y-138236000D02*
X474396000Y-138236000D01*
X474396000Y-138236000D02*
X475100000Y-137532000D01*
X475100000Y-137532000D02*
X475250000Y-137532000D01*
X437150000Y-137532000D02*
X437300000Y-137532000D01*
X437300000Y-137532000D02*
X438004000Y-138236000D01*
X438004000Y-138236000D02*
X455346000Y-138236000D01*
X455346000Y-138236000D02*
X456050000Y-137532000D01*
X456050000Y-137532000D02*
X456200000Y-137532000D01*
X418100000Y-137532000D02*
X418250000Y-137532000D01*
X418250000Y-137532000D02*
X418954000Y-138236000D01*
X418954000Y-138236000D02*
X436296000Y-138236000D01*
X436296000Y-138236000D02*
X437000000Y-137532000D01*
X437000000Y-137532000D02*
X437150000Y-137532000D01*
X417246000Y-138236000D02*
X417950000Y-137532000D01*
X417950000Y-137532000D02*
X418100000Y-137532000D01*
X360950000Y-137532000D02*
X361100000Y-137532000D01*
X361100000Y-137532000D02*
X361804000Y-138236000D01*
X341900000Y-137532000D02*
X342050000Y-137532000D01*
X342050000Y-137532000D02*
X342754000Y-138236000D01*
X342754000Y-138236000D02*
X360096000Y-138236000D01*
X360096000Y-138236000D02*
X360800000Y-137532000D01*
X360800000Y-137532000D02*
X360950000Y-137532000D01*
X322850000Y-137532000D02*
X323000000Y-137532000D01*
X323000000Y-137532000D02*
X323704000Y-138236000D01*
X323704000Y-138236000D02*
X341046000Y-138236000D01*
X341046000Y-138236000D02*
X341750000Y-137532000D01*
X341750000Y-137532000D02*
X341900000Y-137532000D01*
X303800000Y-137532000D02*
X303950000Y-137532000D01*
X303950000Y-137532000D02*
X304654000Y-138236000D01*
X304654000Y-138236000D02*
X321996000Y-138236000D01*
X321996000Y-138236000D02*
X322700000Y-137532000D01*
X322700000Y-137532000D02*
X322850000Y-137532000D01*
X284750000Y-137532000D02*
X284900000Y-137532000D01*
X284900000Y-137532000D02*
X285604000Y-138236000D01*
X285604000Y-138236000D02*
X302946000Y-138236000D01*
X302946000Y-138236000D02*
X303650000Y-137532000D01*
X303650000Y-137532000D02*
X303800000Y-137532000D01*
X265700000Y-137532000D02*
X265850000Y-137532000D01*
X265850000Y-137532000D02*
X266554000Y-138236000D01*
X266554000Y-138236000D02*
X283896000Y-138236000D01*
X283896000Y-138236000D02*
X284600000Y-137532000D01*
X284600000Y-137532000D02*
X284750000Y-137532000D01*
X246650000Y-137532000D02*
X246800000Y-137532000D01*
X246800000Y-137532000D02*
X247504000Y-138236000D01*
X247504000Y-138236000D02*
X264846000Y-138236000D01*
X264846000Y-138236000D02*
X265550000Y-137532000D01*
X265550000Y-137532000D02*
X265700000Y-137532000D01*
X227600000Y-137532000D02*
X227750000Y-137532000D01*
X227750000Y-137532000D02*
X228454000Y-138236000D01*
X228454000Y-138236000D02*
X245796000Y-138236000D01*
X245796000Y-138236000D02*
X246500000Y-137532000D01*
X246500000Y-137532000D02*
X246650000Y-137532000D01*
X208550000Y-137532000D02*
X208700000Y-137532000D01*
X208700000Y-137532000D02*
X209404000Y-138236000D01*
X209404000Y-138236000D02*
X226746000Y-138236000D01*
X226746000Y-138236000D02*
X227450000Y-137532000D01*
X227450000Y-137532000D02*
X227600000Y-137532000D01*
X189500000Y-137532000D02*
X189650000Y-137532000D01*
X189650000Y-137532000D02*
X190354000Y-138236000D01*
X190354000Y-138236000D02*
X207696000Y-138236000D01*
X207696000Y-138236000D02*
X208400000Y-137532000D01*
X208400000Y-137532000D02*
X208550000Y-137532000D01*
X170450000Y-137532000D02*
X170600000Y-137532000D01*
X170600000Y-137532000D02*
X171304000Y-138236000D01*
X171304000Y-138236000D02*
X188646000Y-138236000D01*
X188646000Y-138236000D02*
X189350000Y-137532000D01*
X189350000Y-137532000D02*
X189500000Y-137532000D01*
X151400000Y-137532000D02*
X151550000Y-137532000D01*
X151550000Y-137532000D02*
X152254000Y-138236000D01*
X152254000Y-138236000D02*
X169596000Y-138236000D01*
X169596000Y-138236000D02*
X170300000Y-137532000D01*
X170300000Y-137532000D02*
X170450000Y-137532000D01*
X132350000Y-137532000D02*
X132500000Y-137532000D01*
X132500000Y-137532000D02*
X133204000Y-138236000D01*
X133204000Y-138236000D02*
X150546000Y-138236000D01*
X150546000Y-138236000D02*
X151250000Y-137532000D01*
X151250000Y-137532000D02*
X151400000Y-137532000D01*
X387471000Y-137540000D02*
X399288000Y-137540000D01*
X386775000Y-138236000D02*
X387471000Y-137540000D01*
X361804000Y-138236000D02*
X386775000Y-138236000D01*
X401700000Y-137540000D02*
X402396000Y-138236000D01*
X399288000Y-137540000D02*
X401700000Y-137540000D01*
X402396000Y-138236000D02*
X417246000Y-138236000D01*
X475250000Y-138236000D02*
X475250000Y-137532000D01*
X301676500Y-218855052D02*
X303712488Y-220891040D01*
X301676500Y-217940500D02*
X301676500Y-218855052D01*
X303712488Y-220891040D02*
X461635227Y-220891040D01*
X461635227Y-220891040D02*
X477269031Y-205257236D01*
X477269031Y-205257236D02*
X477269031Y-140255031D01*
X477269031Y-140255031D02*
X475250000Y-138236000D01*
X418100000Y-156582000D02*
X418250000Y-156582000D01*
X418250000Y-156582000D02*
X418954000Y-157286000D01*
X418954000Y-157286000D02*
X436296000Y-157286000D01*
X436296000Y-157286000D02*
X437000000Y-156582000D01*
X437000000Y-156582000D02*
X437150000Y-156582000D01*
X394493750Y-156431250D02*
X394643750Y-156431250D01*
X394643750Y-156431250D02*
X395498500Y-157286000D01*
X395498500Y-157286000D02*
X417246000Y-157286000D01*
X417246000Y-157286000D02*
X417950000Y-156582000D01*
X417950000Y-156582000D02*
X418100000Y-156582000D01*
X370475000Y-156582000D02*
X370625000Y-156582000D01*
X370625000Y-156582000D02*
X371178250Y-157135250D01*
X371178250Y-157135250D02*
X393639750Y-157135250D01*
X393639750Y-157135250D02*
X394343750Y-156431250D01*
X394343750Y-156431250D02*
X394493750Y-156431250D01*
X351425000Y-156582000D02*
X351575000Y-156582000D01*
X351575000Y-156582000D02*
X352279000Y-157286000D01*
X352279000Y-157286000D02*
X369621000Y-157286000D01*
X369621000Y-157286000D02*
X370325000Y-156582000D01*
X370325000Y-156582000D02*
X370475000Y-156582000D01*
X332375000Y-156582000D02*
X332525000Y-156582000D01*
X332525000Y-156582000D02*
X333229000Y-157286000D01*
X333229000Y-157286000D02*
X350571000Y-157286000D01*
X350571000Y-157286000D02*
X351275000Y-156582000D01*
X351275000Y-156582000D02*
X351425000Y-156582000D01*
X313325000Y-156582000D02*
X313475000Y-156582000D01*
X313475000Y-156582000D02*
X314179000Y-157286000D01*
X314179000Y-157286000D02*
X331521000Y-157286000D01*
X331521000Y-157286000D02*
X332225000Y-156582000D01*
X332225000Y-156582000D02*
X332375000Y-156582000D01*
X294275000Y-156582000D02*
X294425000Y-156582000D01*
X294425000Y-156582000D02*
X295129000Y-157286000D01*
X295129000Y-157286000D02*
X312471000Y-157286000D01*
X312471000Y-157286000D02*
X313175000Y-156582000D01*
X313175000Y-156582000D02*
X313325000Y-156582000D01*
X275225000Y-156582000D02*
X275375000Y-156582000D01*
X275375000Y-156582000D02*
X276079000Y-157286000D01*
X276079000Y-157286000D02*
X293421000Y-157286000D01*
X293421000Y-157286000D02*
X294125000Y-156582000D01*
X294125000Y-156582000D02*
X294275000Y-156582000D01*
X256175000Y-156582000D02*
X256325000Y-156582000D01*
X256325000Y-156582000D02*
X257029000Y-157286000D01*
X257029000Y-157286000D02*
X274371000Y-157286000D01*
X274371000Y-157286000D02*
X275075000Y-156582000D01*
X275075000Y-156582000D02*
X275225000Y-156582000D01*
X237125000Y-156582000D02*
X237275000Y-156582000D01*
X237275000Y-156582000D02*
X237979000Y-157286000D01*
X237979000Y-157286000D02*
X255321000Y-157286000D01*
X255321000Y-157286000D02*
X256025000Y-156582000D01*
X256025000Y-156582000D02*
X256175000Y-156582000D01*
X218075000Y-156582000D02*
X218225000Y-156582000D01*
X218225000Y-156582000D02*
X218929000Y-157286000D01*
X218929000Y-157286000D02*
X236271000Y-157286000D01*
X236271000Y-157286000D02*
X236975000Y-156582000D01*
X236975000Y-156582000D02*
X237125000Y-156582000D01*
X199025000Y-156582000D02*
X199175000Y-156582000D01*
X199175000Y-156582000D02*
X199879000Y-157286000D01*
X199879000Y-157286000D02*
X217221000Y-157286000D01*
X217221000Y-157286000D02*
X217925000Y-156582000D01*
X217925000Y-156582000D02*
X218075000Y-156582000D01*
X179975000Y-156582000D02*
X180125000Y-156582000D01*
X180125000Y-156582000D02*
X180829000Y-157286000D01*
X180829000Y-157286000D02*
X198171000Y-157286000D01*
X198171000Y-157286000D02*
X198875000Y-156582000D01*
X198875000Y-156582000D02*
X199025000Y-156582000D01*
X160925000Y-156582000D02*
X161075000Y-156582000D01*
X161075000Y-156582000D02*
X161779000Y-157286000D01*
X161779000Y-157286000D02*
X179121000Y-157286000D01*
X179121000Y-157286000D02*
X179825000Y-156582000D01*
X179825000Y-156582000D02*
X179975000Y-156582000D01*
X141875000Y-156582000D02*
X142025000Y-156582000D01*
X142025000Y-156582000D02*
X142729000Y-157286000D01*
X142729000Y-157286000D02*
X160071000Y-157286000D01*
X160071000Y-157286000D02*
X160775000Y-156582000D01*
X160775000Y-156582000D02*
X160925000Y-156582000D01*
X455711000Y-162051000D02*
X456565000Y-162051000D01*
X443473000Y-162051000D02*
X455711000Y-162051000D01*
X438004000Y-156582000D02*
X443473000Y-162051000D01*
X437150000Y-156582000D02*
X438004000Y-156582000D01*
X474126000Y-157608000D02*
X474980000Y-157608000D01*
X461862000Y-157608000D02*
X474126000Y-157608000D01*
X457419000Y-162051000D02*
X461862000Y-157608000D01*
X456565000Y-162051000D02*
X457419000Y-162051000D01*
X302176500Y-218712985D02*
X303900545Y-220437030D01*
X302176500Y-217940500D02*
X302176500Y-218712985D01*
X303900545Y-220437030D02*
X461447171Y-220437030D01*
X474980000Y-158312000D02*
X474980000Y-157608000D01*
X461447171Y-220437030D02*
X476815021Y-205069179D01*
X476815021Y-205069179D02*
X476815021Y-160147021D01*
X476815021Y-160147021D02*
X474980000Y-158312000D01*
X437150000Y-175632000D02*
X437300000Y-175632000D01*
X437300000Y-175632000D02*
X437470901Y-175802901D01*
X418100000Y-175632000D02*
X418250000Y-175632000D01*
X418250000Y-175632000D02*
X418954000Y-176336000D01*
X418954000Y-176336000D02*
X436296000Y-176336000D01*
X436296000Y-176336000D02*
X437000000Y-175632000D01*
X437000000Y-175632000D02*
X437150000Y-175632000D01*
X417246000Y-176336000D02*
X417950000Y-175632000D01*
X417950000Y-175632000D02*
X418100000Y-175632000D01*
X356187500Y-175632000D02*
X356337500Y-175632000D01*
X356337500Y-175632000D02*
X356890750Y-176185250D01*
X337137500Y-175632000D02*
X337287500Y-175632000D01*
X337287500Y-175632000D02*
X337991500Y-176336000D01*
X337991500Y-176336000D02*
X355333500Y-176336000D01*
X355333500Y-176336000D02*
X356037500Y-175632000D01*
X356037500Y-175632000D02*
X356187500Y-175632000D01*
X318087500Y-175632000D02*
X318237500Y-175632000D01*
X318237500Y-175632000D02*
X318941500Y-176336000D01*
X318941500Y-176336000D02*
X336283500Y-176336000D01*
X336283500Y-176336000D02*
X336987500Y-175632000D01*
X336987500Y-175632000D02*
X337137500Y-175632000D01*
X299037500Y-175632000D02*
X299187500Y-175632000D01*
X299187500Y-175632000D02*
X299891500Y-176336000D01*
X299891500Y-176336000D02*
X317233500Y-176336000D01*
X317233500Y-176336000D02*
X317937500Y-175632000D01*
X317937500Y-175632000D02*
X318087500Y-175632000D01*
X279987500Y-175632000D02*
X280137500Y-175632000D01*
X280137500Y-175632000D02*
X280841500Y-176336000D01*
X280841500Y-176336000D02*
X298183500Y-176336000D01*
X298183500Y-176336000D02*
X298887500Y-175632000D01*
X298887500Y-175632000D02*
X299037500Y-175632000D01*
X260937500Y-175632000D02*
X261087500Y-175632000D01*
X261087500Y-175632000D02*
X261791500Y-176336000D01*
X261791500Y-176336000D02*
X279133500Y-176336000D01*
X279133500Y-176336000D02*
X279837500Y-175632000D01*
X279837500Y-175632000D02*
X279987500Y-175632000D01*
X241887500Y-175632000D02*
X242037500Y-175632000D01*
X242037500Y-175632000D02*
X242741500Y-176336000D01*
X242741500Y-176336000D02*
X260083500Y-176336000D01*
X260083500Y-176336000D02*
X260787500Y-175632000D01*
X260787500Y-175632000D02*
X260937500Y-175632000D01*
X222837500Y-175632000D02*
X222987500Y-175632000D01*
X222987500Y-175632000D02*
X223691500Y-176336000D01*
X223691500Y-176336000D02*
X241033500Y-176336000D01*
X241033500Y-176336000D02*
X241737500Y-175632000D01*
X241737500Y-175632000D02*
X241887500Y-175632000D01*
X203787500Y-175632000D02*
X203937500Y-175632000D01*
X203937500Y-175632000D02*
X204641500Y-176336000D01*
X204641500Y-176336000D02*
X221983500Y-176336000D01*
X221983500Y-176336000D02*
X222687500Y-175632000D01*
X222687500Y-175632000D02*
X222837500Y-175632000D01*
X184737500Y-175632000D02*
X184887500Y-175632000D01*
X184887500Y-175632000D02*
X185591500Y-176336000D01*
X185591500Y-176336000D02*
X202933500Y-176336000D01*
X202933500Y-176336000D02*
X203637500Y-175632000D01*
X203637500Y-175632000D02*
X203787500Y-175632000D01*
X165687500Y-175632000D02*
X165837500Y-175632000D01*
X165837500Y-175632000D02*
X166541500Y-176336000D01*
X166541500Y-176336000D02*
X183883500Y-176336000D01*
X183883500Y-176336000D02*
X184587500Y-175632000D01*
X184587500Y-175632000D02*
X184737500Y-175632000D01*
X139700000Y-175481250D02*
X139850000Y-175481250D01*
X139850000Y-175481250D02*
X140704750Y-176336000D01*
X140704750Y-176336000D02*
X164833500Y-176336000D01*
X164833500Y-176336000D02*
X165537500Y-175632000D01*
X165537500Y-175632000D02*
X165687500Y-175632000D01*
X385264500Y-175513000D02*
X398780000Y-175513000D01*
X384592250Y-176185250D02*
X385264500Y-175513000D01*
X356890750Y-176185250D02*
X384592250Y-176185250D01*
X400457000Y-176336000D02*
X400872000Y-176336000D01*
X399634000Y-175513000D02*
X400457000Y-176336000D01*
X398780000Y-175513000D02*
X399634000Y-175513000D01*
X400872000Y-176336000D02*
X417246000Y-176336000D01*
X456565000Y-169867000D02*
X456565000Y-169163000D01*
X456565000Y-171450962D02*
X456565000Y-169867000D01*
X452213061Y-175802901D02*
X456565000Y-171450962D01*
X446560967Y-175802901D02*
X452213061Y-175802901D01*
X446390066Y-175632000D02*
X446560967Y-175802901D01*
X437150000Y-175632000D02*
X446390066Y-175632000D01*
X460120000Y-169163000D02*
X476361011Y-185404011D01*
X456565000Y-169163000D02*
X460120000Y-169163000D01*
X476361011Y-185404011D02*
X476361011Y-204881122D01*
X476361011Y-204881122D02*
X461259114Y-219983020D01*
X302676500Y-218478000D02*
X302676500Y-217940500D01*
X302676500Y-218570918D02*
X302676500Y-218478000D01*
X304088602Y-219983020D02*
X302676500Y-218570918D01*
X461259114Y-219983020D02*
X304088602Y-219983020D01*
X418100000Y-194682000D02*
X418250000Y-194682000D01*
X418250000Y-194682000D02*
X418954000Y-195386000D01*
X418954000Y-195386000D02*
X436296000Y-195386000D01*
X436296000Y-195386000D02*
X437000000Y-194682000D01*
X437000000Y-194682000D02*
X437150000Y-194682000D01*
X399050000Y-194682000D02*
X399200000Y-194682000D01*
X399200000Y-194682000D02*
X399904000Y-195386000D01*
X399904000Y-195386000D02*
X417246000Y-195386000D01*
X417246000Y-195386000D02*
X417950000Y-194682000D01*
X417950000Y-194682000D02*
X418100000Y-194682000D01*
X373062500Y-194682000D02*
X373212500Y-194682000D01*
X373212500Y-194682000D02*
X373916500Y-195386000D01*
X373916500Y-195386000D02*
X398196000Y-195386000D01*
X398196000Y-195386000D02*
X398900000Y-194682000D01*
X398900000Y-194682000D02*
X399050000Y-194682000D01*
X346662500Y-194682000D02*
X346812500Y-194682000D01*
X346812500Y-194682000D02*
X347516500Y-195386000D01*
X347516500Y-195386000D02*
X372208500Y-195386000D01*
X372208500Y-195386000D02*
X372912500Y-194682000D01*
X372912500Y-194682000D02*
X373062500Y-194682000D01*
X327612500Y-194682000D02*
X327762500Y-194682000D01*
X327762500Y-194682000D02*
X328466500Y-195386000D01*
X328466500Y-195386000D02*
X345808500Y-195386000D01*
X345808500Y-195386000D02*
X346512500Y-194682000D01*
X346512500Y-194682000D02*
X346662500Y-194682000D01*
X308562500Y-194682000D02*
X308712500Y-194682000D01*
X308712500Y-194682000D02*
X309416500Y-195386000D01*
X309416500Y-195386000D02*
X326758500Y-195386000D01*
X326758500Y-195386000D02*
X327462500Y-194682000D01*
X327462500Y-194682000D02*
X327612500Y-194682000D01*
X289512500Y-194682000D02*
X289662500Y-194682000D01*
X289662500Y-194682000D02*
X290366500Y-195386000D01*
X290366500Y-195386000D02*
X307708500Y-195386000D01*
X307708500Y-195386000D02*
X308412500Y-194682000D01*
X308412500Y-194682000D02*
X308562500Y-194682000D01*
X270462500Y-194682000D02*
X270612500Y-194682000D01*
X270612500Y-194682000D02*
X271316500Y-195386000D01*
X271316500Y-195386000D02*
X288658500Y-195386000D01*
X288658500Y-195386000D02*
X289362500Y-194682000D01*
X289362500Y-194682000D02*
X289512500Y-194682000D01*
X251412500Y-194682000D02*
X251562500Y-194682000D01*
X251562500Y-194682000D02*
X252266500Y-195386000D01*
X252266500Y-195386000D02*
X269608500Y-195386000D01*
X269608500Y-195386000D02*
X270312500Y-194682000D01*
X270312500Y-194682000D02*
X270462500Y-194682000D01*
X232362500Y-194682000D02*
X232512500Y-194682000D01*
X232512500Y-194682000D02*
X233216500Y-195386000D01*
X233216500Y-195386000D02*
X250558500Y-195386000D01*
X250558500Y-195386000D02*
X251262500Y-194682000D01*
X251262500Y-194682000D02*
X251412500Y-194682000D01*
X213312500Y-194682000D02*
X213462500Y-194682000D01*
X213462500Y-194682000D02*
X214166500Y-195386000D01*
X214166500Y-195386000D02*
X231508500Y-195386000D01*
X231508500Y-195386000D02*
X232212500Y-194682000D01*
X232212500Y-194682000D02*
X232362500Y-194682000D01*
X194262500Y-194682000D02*
X194412500Y-194682000D01*
X194412500Y-194682000D02*
X195116500Y-195386000D01*
X195116500Y-195386000D02*
X212458500Y-195386000D01*
X212458500Y-195386000D02*
X213162500Y-194682000D01*
X213162500Y-194682000D02*
X213312500Y-194682000D01*
X175212500Y-194682000D02*
X176066500Y-194682000D01*
X176066500Y-194682000D02*
X176770500Y-195386000D01*
X176770500Y-195386000D02*
X193408500Y-195386000D01*
X193408500Y-195386000D02*
X194112500Y-194682000D01*
X194112500Y-194682000D02*
X194262500Y-194682000D01*
X174358500Y-195386000D02*
X175062500Y-194682000D01*
X175062500Y-194682000D02*
X175212500Y-194682000D01*
X157125000Y-195386000D02*
X158182000Y-195386000D01*
X155921000Y-194182000D02*
X157125000Y-195386000D01*
X155067000Y-194182000D02*
X155921000Y-194182000D01*
X158182000Y-195386000D02*
X174358500Y-195386000D01*
X455457000Y-199643000D02*
X456311000Y-199643000D01*
X442261000Y-199643000D02*
X455457000Y-199643000D01*
X437300000Y-194682000D02*
X442261000Y-199643000D01*
X437150000Y-194682000D02*
X437300000Y-194682000D01*
X457165000Y-199643000D02*
X461736000Y-195072000D01*
X456311000Y-199643000D02*
X457165000Y-199643000D01*
X473491000Y-198121000D02*
X474345000Y-198121000D01*
X470442000Y-195072000D02*
X473491000Y-198121000D01*
X461736000Y-195072000D02*
X470442000Y-195072000D01*
X475199000Y-198121000D02*
X474345000Y-198121000D01*
X475907001Y-198829001D02*
X475199000Y-198121000D01*
X475907001Y-204693065D02*
X475907001Y-198829001D01*
X303176500Y-217940500D02*
X303176500Y-218428852D01*
X303176500Y-218428852D02*
X304276658Y-219529010D01*
X304276658Y-219529010D02*
X321490990Y-219529010D01*
X321490990Y-219529010D02*
X321497919Y-219522081D01*
X321497919Y-219522081D02*
X461077986Y-219522081D01*
X461077986Y-219522081D02*
X475907001Y-204693065D01*
X437150000Y-213732000D02*
X437300000Y-213732000D01*
X437300000Y-213732000D02*
X437470901Y-213902901D01*
X437470901Y-213902901D02*
X452283349Y-213902901D01*
X312149644Y-203724356D02*
X322157288Y-213732000D01*
X311562788Y-203137500D02*
X312149644Y-203724356D01*
X418100000Y-213732000D02*
X418250000Y-213732000D01*
X418250000Y-213732000D02*
X418954000Y-214436000D01*
X418954000Y-214436000D02*
X436296000Y-214436000D01*
X436296000Y-214436000D02*
X437000000Y-213732000D01*
X437000000Y-213732000D02*
X437150000Y-213732000D01*
X399050000Y-213732000D02*
X399200000Y-213732000D01*
X399200000Y-213732000D02*
X399904000Y-214436000D01*
X399904000Y-214436000D02*
X417246000Y-214436000D01*
X417246000Y-214436000D02*
X417950000Y-213732000D01*
X417950000Y-213732000D02*
X418100000Y-213732000D01*
X380000000Y-213732000D02*
X380150000Y-213732000D01*
X380150000Y-213732000D02*
X380854000Y-214436000D01*
X380854000Y-214436000D02*
X398196000Y-214436000D01*
X398196000Y-214436000D02*
X398900000Y-213732000D01*
X398900000Y-213732000D02*
X399050000Y-213732000D01*
X349250000Y-213732000D02*
X370190066Y-213732000D01*
X370190066Y-213732000D02*
X370894066Y-214436000D01*
X370894066Y-214436000D02*
X379146000Y-214436000D01*
X379146000Y-214436000D02*
X379850000Y-213732000D01*
X379850000Y-213732000D02*
X380000000Y-213732000D01*
X327612500Y-213732000D02*
X328466500Y-213732000D01*
X328466500Y-213732000D02*
X329170500Y-214436000D01*
X329170500Y-214436000D02*
X348396000Y-214436000D01*
X348396000Y-214436000D02*
X349100000Y-213732000D01*
X349100000Y-213732000D02*
X349250000Y-213732000D01*
X322157288Y-213732000D02*
X326758500Y-213732000D01*
X326758500Y-213732000D02*
X327612500Y-213732000D01*
X248383500Y-214436000D02*
X249087500Y-213732000D01*
X249087500Y-213732000D02*
X249237500Y-213732000D01*
X158750000Y-213581250D02*
X158900000Y-213581250D01*
X158900000Y-213581250D02*
X159762750Y-214444000D01*
X159762750Y-214444000D02*
X181391000Y-214444000D01*
X181391000Y-214444000D02*
X182095000Y-213740000D01*
X182095000Y-213740000D02*
X182245000Y-213740000D01*
X134937500Y-213732000D02*
X135087500Y-213732000D01*
X135087500Y-213732000D02*
X135640750Y-214285250D01*
X135640750Y-214285250D02*
X157896000Y-214285250D01*
X157896000Y-214285250D02*
X158600000Y-213581250D01*
X158600000Y-213581250D02*
X158750000Y-213581250D01*
X229388000Y-214436000D02*
X231969000Y-214436000D01*
X227676000Y-212724000D02*
X229388000Y-214436000D01*
X226822000Y-212724000D02*
X227676000Y-212724000D01*
X231969000Y-214436000D02*
X248383500Y-214436000D01*
X456311000Y-209875250D02*
X456311000Y-207771000D01*
X452283349Y-213902901D02*
X456311000Y-209875250D01*
X271307000Y-198248000D02*
X272161000Y-198248000D01*
X265575500Y-198248000D02*
X271307000Y-198248000D01*
X250091500Y-213732000D02*
X265575500Y-198248000D01*
X249237500Y-213732000D02*
X250091500Y-213732000D01*
X306673288Y-198248000D02*
X308149144Y-199723856D01*
X272161000Y-198248000D02*
X306673288Y-198248000D01*
X308149144Y-199723856D02*
X312149644Y-203724356D01*
X225968000Y-212724000D02*
X226822000Y-212724000D01*
X223623999Y-210379999D02*
X225968000Y-212724000D01*
X211437787Y-210379999D02*
X223623999Y-210379999D01*
X183099000Y-213740000D02*
X189249001Y-207589999D01*
X208647787Y-207589999D02*
X211437787Y-210379999D01*
X189249001Y-207589999D02*
X208647787Y-207589999D01*
X182245000Y-213740000D02*
X183099000Y-213740000D01*
X457165000Y-207771000D02*
X456311000Y-207771000D01*
X457166000Y-207772000D02*
X457165000Y-207771000D01*
X321183000Y-219075000D02*
X321189929Y-219068071D01*
X321189929Y-219068071D02*
X460889929Y-219068071D01*
X309177962Y-219075000D02*
X321183000Y-219075000D01*
X464057000Y-215901000D02*
X464057000Y-209930000D01*
X460889929Y-219068071D02*
X464057000Y-215901000D01*
X464057000Y-209930000D02*
X461899000Y-207772000D01*
X461899000Y-207772000D02*
X457166000Y-207772000D01*
X306355962Y-216253000D02*
X309177962Y-219075000D01*
X304364000Y-216253000D02*
X306355962Y-216253000D01*
X126365000Y-113538000D02*
X127956999Y-115129999D01*
X127956999Y-115129999D02*
X131443999Y-115129999D01*
X131443999Y-115129999D02*
X131496000Y-115182000D01*
X131496000Y-115182000D02*
X132350000Y-115182000D01*
X126365000Y-111252000D02*
X126365000Y-113538000D01*
X145415000Y-111252000D02*
X148174000Y-111252000D01*
X148174000Y-111252000D02*
X151400000Y-114478000D01*
X151400000Y-114478000D02*
X151400000Y-115182000D01*
X164465000Y-111252000D02*
X167224000Y-111252000D01*
X167224000Y-111252000D02*
X170450000Y-114478000D01*
X170450000Y-114478000D02*
X170450000Y-115182000D01*
X183515000Y-111252000D02*
X186274000Y-111252000D01*
X186274000Y-111252000D02*
X189500000Y-114478000D01*
X189500000Y-114478000D02*
X189500000Y-115182000D01*
X202565000Y-111252000D02*
X205324000Y-111252000D01*
X205324000Y-111252000D02*
X208550000Y-114478000D01*
X208550000Y-114478000D02*
X208550000Y-115182000D01*
X221615000Y-111252000D02*
X224374000Y-111252000D01*
X224374000Y-111252000D02*
X227600000Y-114478000D01*
X227600000Y-114478000D02*
X227600000Y-115182000D01*
X240665000Y-111252000D02*
X243424000Y-111252000D01*
X243424000Y-111252000D02*
X246650000Y-114478000D01*
X246650000Y-114478000D02*
X246650000Y-115182000D01*
X259715000Y-111252000D02*
X262474000Y-111252000D01*
X262474000Y-111252000D02*
X265700000Y-114478000D01*
X265700000Y-114478000D02*
X265700000Y-115182000D01*
X278765000Y-111252000D02*
X281524000Y-111252000D01*
X281524000Y-111252000D02*
X284750000Y-114478000D01*
X284750000Y-114478000D02*
X284750000Y-115182000D01*
X297815000Y-111252000D02*
X300574000Y-111252000D01*
X300574000Y-111252000D02*
X303800000Y-114478000D01*
X303800000Y-114478000D02*
X303800000Y-115182000D01*
X316865000Y-111252000D02*
X319624000Y-111252000D01*
X319624000Y-111252000D02*
X322850000Y-114478000D01*
X322850000Y-114478000D02*
X322850000Y-115182000D01*
X335915000Y-111252000D02*
X338674000Y-111252000D01*
X338674000Y-111252000D02*
X341900000Y-114478000D01*
X341900000Y-114478000D02*
X341900000Y-115182000D01*
X354965000Y-111252000D02*
X357724000Y-111252000D01*
X357724000Y-111252000D02*
X360950000Y-114478000D01*
X360950000Y-114478000D02*
X360950000Y-115182000D01*
X374015000Y-111252000D02*
X376774000Y-111252000D01*
X376774000Y-111252000D02*
X380000000Y-114478000D01*
X380000000Y-114478000D02*
X380000000Y-115182000D01*
X393065000Y-111252000D02*
X395824000Y-111252000D01*
X395824000Y-111252000D02*
X399050000Y-114478000D01*
X399050000Y-114478000D02*
X399050000Y-115182000D01*
X412115000Y-111252000D02*
X414874000Y-111252000D01*
X414874000Y-111252000D02*
X418100000Y-114478000D01*
X418100000Y-114478000D02*
X418100000Y-115182000D01*
X431165000Y-111252000D02*
X433924000Y-111252000D01*
X433924000Y-111252000D02*
X437150000Y-114478000D01*
X437150000Y-114478000D02*
X437150000Y-115182000D01*
X450215000Y-111252000D02*
X452974000Y-111252000D01*
X452974000Y-111252000D02*
X456200000Y-114478000D01*
X456200000Y-114478000D02*
X456200000Y-115182000D01*
X469265000Y-111252000D02*
X472024000Y-111252000D01*
X472024000Y-111252000D02*
X475250000Y-114478000D01*
X475250000Y-114478000D02*
X475250000Y-115182000D01*
X126365000Y-130302000D02*
X129124000Y-130302000D01*
X129124000Y-130302000D02*
X132350000Y-133528000D01*
X132350000Y-133528000D02*
X132350000Y-134232000D01*
X145415000Y-130302000D02*
X148174000Y-130302000D01*
X148174000Y-130302000D02*
X151400000Y-133528000D01*
X151400000Y-133528000D02*
X151400000Y-134232000D01*
X164465000Y-130302000D02*
X167224000Y-130302000D01*
X167224000Y-130302000D02*
X170450000Y-133528000D01*
X170450000Y-133528000D02*
X170450000Y-134232000D01*
X183515000Y-130302000D02*
X186274000Y-130302000D01*
X186274000Y-130302000D02*
X189500000Y-133528000D01*
X189500000Y-133528000D02*
X189500000Y-134232000D01*
X202565000Y-130302000D02*
X205324000Y-130302000D01*
X205324000Y-130302000D02*
X208550000Y-133528000D01*
X208550000Y-133528000D02*
X208550000Y-134232000D01*
X221615000Y-130302000D02*
X224374000Y-130302000D01*
X224374000Y-130302000D02*
X227600000Y-133528000D01*
X227600000Y-133528000D02*
X227600000Y-134232000D01*
X240665000Y-130302000D02*
X243424000Y-130302000D01*
X243424000Y-130302000D02*
X246650000Y-133528000D01*
X246650000Y-133528000D02*
X246650000Y-134232000D01*
X259715000Y-130302000D02*
X262474000Y-130302000D01*
X262474000Y-130302000D02*
X265700000Y-133528000D01*
X265700000Y-133528000D02*
X265700000Y-134232000D01*
X278765000Y-130302000D02*
X281524000Y-130302000D01*
X281524000Y-130302000D02*
X284750000Y-133528000D01*
X284750000Y-133528000D02*
X284750000Y-134232000D01*
X297815000Y-130302000D02*
X300574000Y-130302000D01*
X300574000Y-130302000D02*
X303800000Y-133528000D01*
X303800000Y-133528000D02*
X303800000Y-134232000D01*
X316865000Y-130302000D02*
X319624000Y-130302000D01*
X319624000Y-130302000D02*
X322850000Y-133528000D01*
X322850000Y-133528000D02*
X322850000Y-134232000D01*
X335915000Y-130302000D02*
X338674000Y-130302000D01*
X338674000Y-130302000D02*
X341900000Y-133528000D01*
X341900000Y-133528000D02*
X341900000Y-134232000D01*
X354965000Y-130302000D02*
X357724000Y-130302000D01*
X357724000Y-130302000D02*
X360950000Y-133528000D01*
X360950000Y-133528000D02*
X360950000Y-134232000D01*
X383540000Y-130302000D02*
X388747000Y-130302000D01*
X392685000Y-134240000D02*
X399288000Y-134240000D01*
X388747000Y-130302000D02*
X392685000Y-134240000D01*
X412115000Y-130302000D02*
X414874000Y-130302000D01*
X414874000Y-130302000D02*
X418100000Y-133528000D01*
X418100000Y-133528000D02*
X418100000Y-134232000D01*
X431165000Y-130302000D02*
X433924000Y-130302000D01*
X433924000Y-130302000D02*
X437150000Y-133528000D01*
X437150000Y-133528000D02*
X437150000Y-134232000D01*
X450215000Y-130302000D02*
X452974000Y-130302000D01*
X452974000Y-130302000D02*
X456200000Y-133528000D01*
X456200000Y-133528000D02*
X456200000Y-134232000D01*
X469265000Y-130302000D02*
X472024000Y-130302000D01*
X472024000Y-130302000D02*
X475250000Y-133528000D01*
X475250000Y-133528000D02*
X475250000Y-134232000D01*
X131127500Y-149352000D02*
X138649000Y-149352000D01*
X138649000Y-149352000D02*
X141875000Y-152578000D01*
X141875000Y-152578000D02*
X141875000Y-153282000D01*
X154940000Y-149352000D02*
X157699000Y-149352000D01*
X157699000Y-149352000D02*
X160925000Y-152578000D01*
X160925000Y-152578000D02*
X160925000Y-153282000D01*
X173990000Y-149352000D02*
X176749000Y-149352000D01*
X176749000Y-149352000D02*
X179975000Y-152578000D01*
X179975000Y-152578000D02*
X179975000Y-153282000D01*
X193040000Y-149352000D02*
X195799000Y-149352000D01*
X195799000Y-149352000D02*
X199025000Y-152578000D01*
X199025000Y-152578000D02*
X199025000Y-153282000D01*
X212090000Y-149352000D02*
X214849000Y-149352000D01*
X214849000Y-149352000D02*
X218075000Y-152578000D01*
X218075000Y-152578000D02*
X218075000Y-153282000D01*
X231140000Y-149352000D02*
X233899000Y-149352000D01*
X233899000Y-149352000D02*
X237125000Y-152578000D01*
X237125000Y-152578000D02*
X237125000Y-153282000D01*
X250190000Y-149352000D02*
X252949000Y-149352000D01*
X252949000Y-149352000D02*
X256175000Y-152578000D01*
X256175000Y-152578000D02*
X256175000Y-153282000D01*
X269240000Y-149352000D02*
X271999000Y-149352000D01*
X271999000Y-149352000D02*
X275225000Y-152578000D01*
X275225000Y-152578000D02*
X275225000Y-153282000D01*
X288290000Y-149352000D02*
X291049000Y-149352000D01*
X291049000Y-149352000D02*
X294275000Y-152578000D01*
X294275000Y-152578000D02*
X294275000Y-153282000D01*
X307340000Y-149352000D02*
X310099000Y-149352000D01*
X310099000Y-149352000D02*
X313325000Y-152578000D01*
X313325000Y-152578000D02*
X313325000Y-153282000D01*
X326390000Y-149352000D02*
X329149000Y-149352000D01*
X329149000Y-149352000D02*
X332375000Y-152578000D01*
X332375000Y-152578000D02*
X332375000Y-153282000D01*
X345440000Y-149352000D02*
X348199000Y-149352000D01*
X348199000Y-149352000D02*
X351425000Y-152578000D01*
X351425000Y-152578000D02*
X351425000Y-153282000D01*
X364490000Y-149352000D02*
X367249000Y-149352000D01*
X367249000Y-149352000D02*
X370475000Y-152578000D01*
X370475000Y-152578000D02*
X370475000Y-153282000D01*
X388302500Y-149352000D02*
X391418500Y-149352000D01*
X391418500Y-149352000D02*
X394493750Y-152427250D01*
X394493750Y-152427250D02*
X394493750Y-153131250D01*
X412115000Y-149352000D02*
X414874000Y-149352000D01*
X414874000Y-149352000D02*
X418100000Y-152578000D01*
X418100000Y-152578000D02*
X418100000Y-153282000D01*
X431165000Y-149352000D02*
X433924000Y-149352000D01*
X433924000Y-149352000D02*
X437150000Y-152578000D01*
X437150000Y-152578000D02*
X437150000Y-153282000D01*
X456565000Y-155702000D02*
X456565000Y-158751000D01*
X450215000Y-149352000D02*
X456565000Y-155702000D01*
X133508750Y-168402000D02*
X136624750Y-168402000D01*
X136624750Y-168402000D02*
X139700000Y-171477250D01*
X139700000Y-171477250D02*
X139700000Y-172181250D01*
X159702500Y-168402000D02*
X162461500Y-168402000D01*
X162461500Y-168402000D02*
X165687500Y-171628000D01*
X165687500Y-171628000D02*
X165687500Y-172332000D01*
X178752500Y-168402000D02*
X181511500Y-168402000D01*
X181511500Y-168402000D02*
X184737500Y-171628000D01*
X184737500Y-171628000D02*
X184737500Y-172332000D01*
X197802500Y-168402000D02*
X200561500Y-168402000D01*
X200561500Y-168402000D02*
X203787500Y-171628000D01*
X203787500Y-171628000D02*
X203787500Y-172332000D01*
X216852500Y-168402000D02*
X219611500Y-168402000D01*
X219611500Y-168402000D02*
X222837500Y-171628000D01*
X222837500Y-171628000D02*
X222837500Y-172332000D01*
X235902500Y-168402000D02*
X238661500Y-168402000D01*
X238661500Y-168402000D02*
X241887500Y-171628000D01*
X241887500Y-171628000D02*
X241887500Y-172332000D01*
X254952500Y-168402000D02*
X257711500Y-168402000D01*
X257711500Y-168402000D02*
X260937500Y-171628000D01*
X260937500Y-171628000D02*
X260937500Y-172332000D01*
X274002500Y-168402000D02*
X276761500Y-168402000D01*
X276761500Y-168402000D02*
X279987500Y-171628000D01*
X279987500Y-171628000D02*
X279987500Y-172332000D01*
X293052500Y-168402000D02*
X295811500Y-168402000D01*
X295811500Y-168402000D02*
X299037500Y-171628000D01*
X299037500Y-171628000D02*
X299037500Y-172332000D01*
X312102500Y-168402000D02*
X314861500Y-168402000D01*
X314861500Y-168402000D02*
X318087500Y-171628000D01*
X318087500Y-171628000D02*
X318087500Y-172332000D01*
X331152500Y-168402000D02*
X333911500Y-168402000D01*
X333911500Y-168402000D02*
X337137500Y-171628000D01*
X337137500Y-171628000D02*
X337137500Y-172332000D01*
X350202500Y-168402000D02*
X352961500Y-168402000D01*
X352961500Y-168402000D02*
X356187500Y-171628000D01*
X356187500Y-171628000D02*
X356187500Y-172332000D01*
X381158750Y-168402000D02*
X385953000Y-168402000D01*
X389764000Y-172213000D02*
X398780000Y-172213000D01*
X385953000Y-168402000D02*
X389764000Y-172213000D01*
X412115000Y-168402000D02*
X414874000Y-168402000D01*
X414874000Y-168402000D02*
X418100000Y-171628000D01*
X418100000Y-171628000D02*
X418100000Y-172332000D01*
X431165000Y-168402000D02*
X433924000Y-168402000D01*
X433924000Y-168402000D02*
X437150000Y-171628000D01*
X437150000Y-171628000D02*
X437150000Y-172332000D01*
X452754000Y-165863000D02*
X456565000Y-165863000D01*
X450215000Y-168402000D02*
X452754000Y-165863000D01*
X474980000Y-160908000D02*
X474980000Y-163322000D01*
X474980000Y-163322000D02*
X471805000Y-166497000D01*
X141701250Y-190882000D02*
X155067000Y-190882000D01*
X138271250Y-187452000D02*
X141701250Y-190882000D01*
X169227500Y-187452000D02*
X171986500Y-187452000D01*
X171986500Y-187452000D02*
X175212500Y-190678000D01*
X175212500Y-190678000D02*
X175212500Y-191382000D01*
X188277500Y-187452000D02*
X191036500Y-187452000D01*
X191036500Y-187452000D02*
X194262500Y-190678000D01*
X194262500Y-190678000D02*
X194262500Y-191382000D01*
X207327500Y-187452000D02*
X210086500Y-187452000D01*
X210086500Y-187452000D02*
X213312500Y-190678000D01*
X213312500Y-190678000D02*
X213312500Y-191382000D01*
X226377500Y-187452000D02*
X229136500Y-187452000D01*
X229136500Y-187452000D02*
X232362500Y-190678000D01*
X232362500Y-190678000D02*
X232362500Y-191382000D01*
X245427500Y-187452000D02*
X248186500Y-187452000D01*
X248186500Y-187452000D02*
X251412500Y-190678000D01*
X251412500Y-190678000D02*
X251412500Y-191382000D01*
X264477500Y-187452000D02*
X267236500Y-187452000D01*
X267236500Y-187452000D02*
X270462500Y-190678000D01*
X270462500Y-190678000D02*
X270462500Y-191382000D01*
X283527500Y-187452000D02*
X286286500Y-187452000D01*
X286286500Y-187452000D02*
X289512500Y-190678000D01*
X289512500Y-190678000D02*
X289512500Y-191382000D01*
X302577500Y-187452000D02*
X305336500Y-187452000D01*
X305336500Y-187452000D02*
X308562500Y-190678000D01*
X308562500Y-190678000D02*
X308562500Y-191382000D01*
X321627500Y-187452000D02*
X324386500Y-187452000D01*
X324386500Y-187452000D02*
X327612500Y-190678000D01*
X327612500Y-190678000D02*
X327612500Y-191382000D01*
X340677500Y-187452000D02*
X343436500Y-187452000D01*
X343436500Y-187452000D02*
X346662500Y-190678000D01*
X346662500Y-190678000D02*
X346662500Y-191382000D01*
X366871250Y-187452000D02*
X369836500Y-187452000D01*
X369836500Y-187452000D02*
X373062500Y-190678000D01*
X373062500Y-190678000D02*
X373062500Y-191382000D01*
X393065000Y-187452000D02*
X395824000Y-187452000D01*
X395824000Y-187452000D02*
X399050000Y-190678000D01*
X399050000Y-190678000D02*
X399050000Y-191382000D01*
X412115000Y-187452000D02*
X414874000Y-187452000D01*
X414874000Y-187452000D02*
X418100000Y-190678000D01*
X418100000Y-190678000D02*
X418100000Y-191382000D01*
X431165000Y-187452000D02*
X433924000Y-187452000D01*
X433924000Y-187452000D02*
X437150000Y-190678000D01*
X437150000Y-190678000D02*
X437150000Y-191382000D01*
X456311000Y-193548000D02*
X456311000Y-196343000D01*
X450215000Y-187452000D02*
X456311000Y-193548000D01*
X128746250Y-206502000D02*
X131711500Y-206502000D01*
X131711500Y-206502000D02*
X134937500Y-209728000D01*
X134937500Y-209728000D02*
X134937500Y-210432000D01*
X152558750Y-206502000D02*
X155674750Y-206502000D01*
X155674750Y-206502000D02*
X158750000Y-209577250D01*
X158750000Y-209577250D02*
X158750000Y-210281250D01*
X176371250Y-206502000D02*
X179011000Y-206502000D01*
X179011000Y-206502000D02*
X182245000Y-209736000D01*
X182245000Y-209736000D02*
X182245000Y-210440000D01*
X209708750Y-206502000D02*
X213995000Y-206502000D01*
X216917000Y-209424000D02*
X226822000Y-209424000D01*
X213995000Y-206502000D02*
X216917000Y-209424000D01*
X243046250Y-206502000D02*
X246011500Y-206502000D01*
X246011500Y-206502000D02*
X249237500Y-209728000D01*
X249237500Y-209728000D02*
X249237500Y-210432000D01*
X276192250Y-201548000D02*
X281146250Y-206502000D01*
X272161000Y-201548000D02*
X276192250Y-201548000D01*
X319246250Y-206502000D02*
X324386500Y-206502000D01*
X324386500Y-206502000D02*
X327612500Y-209728000D01*
X327612500Y-209728000D02*
X327612500Y-210432000D01*
X343058750Y-206502000D02*
X346024000Y-206502000D01*
X346024000Y-206502000D02*
X349250000Y-209728000D01*
X349250000Y-209728000D02*
X349250000Y-210432000D01*
X374015000Y-206502000D02*
X376774000Y-206502000D01*
X376774000Y-206502000D02*
X380000000Y-209728000D01*
X380000000Y-209728000D02*
X380000000Y-210432000D01*
X393065000Y-206502000D02*
X395824000Y-206502000D01*
X395824000Y-206502000D02*
X399050000Y-209728000D01*
X399050000Y-209728000D02*
X399050000Y-210432000D01*
X412115000Y-206502000D02*
X414874000Y-206502000D01*
X414874000Y-206502000D02*
X418100000Y-209728000D01*
X418100000Y-209728000D02*
X418100000Y-210432000D01*
X431165000Y-206502000D02*
X433924000Y-206502000D01*
X433924000Y-206502000D02*
X437150000Y-209728000D01*
X437150000Y-209728000D02*
X437150000Y-210432000D01*
X456311000Y-205175000D02*
X456311000Y-204471000D01*
X454984000Y-206502000D02*
X456311000Y-205175000D01*
X450215000Y-206502000D02*
X454984000Y-206502000D01*
X471873000Y-204597000D02*
X471805000Y-204597000D01*
X474345000Y-202125000D02*
X471873000Y-204597000D01*
X474345000Y-201421000D02*
X474345000Y-202125000D01*
D21*
X115974000Y-149733000D02*
X115974000Y-151391250D01*
X115974000Y-151391250D02*
X116014500Y-151431750D01*
X115974000Y-113422000D02*
X115974000Y-116817000D01*
X115974000Y-149733000D02*
X115974000Y-116817000D01*
D19*
X115974000Y-112596554D02*
X115974000Y-113422000D01*
X125704500Y-107823000D02*
X120747554Y-107823000D01*
X120747554Y-107823000D02*
X115974000Y-112596554D01*
X115529500Y-157774500D02*
X115189000Y-158115000D01*
X115529500Y-156400500D02*
X115529500Y-157774500D01*
X115064500Y-153431750D02*
X115064500Y-155935500D01*
X115064500Y-155935500D02*
X115529500Y-156400500D01*
X118999000Y-161876500D02*
X116918500Y-161876500D01*
X116918500Y-161876500D02*
X116078000Y-161036000D01*
X295658300Y-210743700D02*
X296265600Y-211351000D01*
X295046400Y-210743700D02*
X295658300Y-210743700D01*
X297484190Y-211748190D02*
X297489000Y-211748190D01*
X297421168Y-211685168D02*
X297484190Y-211748190D01*
X296265600Y-211351000D02*
X296599768Y-211685168D01*
X296599768Y-211685168D02*
X297421168Y-211685168D01*
X305435100Y-208993500D02*
X304573800Y-209854800D01*
X305435100Y-208584800D02*
X305435100Y-208993500D01*
X303783100Y-211065500D02*
X303681310Y-211065500D01*
X304573800Y-209854800D02*
X304573800Y-210274800D01*
X304573800Y-210274800D02*
X303783100Y-211065500D01*
X299671690Y-218469582D02*
X299671690Y-217940500D01*
X299365968Y-218775304D02*
X299671690Y-218469582D01*
X299031800Y-219456000D02*
X299365968Y-219121832D01*
X299365968Y-219121832D02*
X299365968Y-218775304D01*
X299031800Y-219966300D02*
X298221300Y-220776800D01*
X299031800Y-219456000D02*
X299031800Y-219966300D01*
X304490810Y-217257810D02*
X304364000Y-217257810D01*
X305612800Y-217959800D02*
X305192800Y-217959800D01*
X305192800Y-217959800D02*
X304490810Y-217257810D01*
X305435100Y-208584800D02*
X305435100Y-207264100D01*
X305435100Y-207264100D02*
X305435000Y-207264000D01*
X295046400Y-210743700D02*
X293827300Y-210743700D01*
X293827300Y-210743700D02*
X293751000Y-210820000D01*
X295046400Y-210743700D02*
X295046400Y-210572350D01*
X295046400Y-210572350D02*
X296068750Y-209550000D01*
X306931200Y-217959800D02*
X306959000Y-217932000D01*
X305612800Y-217959800D02*
X306931200Y-217959800D01*
X305593500Y-217940500D02*
X305612800Y-217959800D01*
X303676500Y-217940500D02*
X305593500Y-217940500D01*
X298221300Y-220776800D02*
X296748200Y-220776800D01*
X296748200Y-220776800D02*
X296745308Y-220779692D01*
D20*
X113717000Y-166406000D02*
X116371500Y-163751500D01*
X117299500Y-163751500D02*
X118999000Y-163751500D01*
X116371500Y-163751500D02*
X117299500Y-163751500D01*
X300676500Y-217940500D02*
X300676500Y-219574402D01*
X300676500Y-219574402D02*
X301713849Y-220611751D01*
X121920000Y-179705000D02*
X121920000Y-165872500D01*
X120988020Y-180636980D02*
X121920000Y-179705000D01*
X120988020Y-190711020D02*
X120988020Y-180636980D01*
X119799000Y-163751500D02*
X118999000Y-163751500D01*
X121920000Y-165872500D02*
X119799000Y-163751500D01*
X288724990Y-196504000D02*
X288159305Y-196504000D01*
X288159305Y-196504000D02*
X287886315Y-196776990D01*
X287886315Y-196776990D02*
X127045056Y-196776990D01*
X127045056Y-196776990D02*
X121490500Y-191222434D01*
X121490500Y-191222434D02*
X121490500Y-191213500D01*
X121490500Y-191213500D02*
X120988020Y-190711020D01*
X119507000Y-178474000D02*
X120217000Y-177764000D01*
X119507000Y-180545500D02*
X119507000Y-178474000D01*
X120063237Y-181101737D02*
X119507000Y-180545500D01*
X120534010Y-181572510D02*
X120063237Y-181101737D01*
X120534010Y-190908010D02*
X120534010Y-181572510D01*
X289451990Y-197231000D02*
X126857000Y-197231000D01*
X126857000Y-197231000D02*
X120534010Y-190908010D01*
X304364000Y-215253000D02*
X307163799Y-215253000D01*
X307163799Y-215253000D02*
X307390800Y-215480001D01*
X133893750Y-107226000D02*
X134236750Y-107569000D01*
X133893750Y-106247000D02*
X133893750Y-107226000D01*
X134893750Y-107295250D02*
X134893750Y-106247000D01*
X134620000Y-107569000D02*
X134893750Y-107295250D01*
X134366000Y-107569000D02*
X134620000Y-107569000D01*
X134236750Y-107569000D02*
X134366000Y-107569000D01*
X134366000Y-107569000D02*
X134366000Y-112265205D01*
X134366000Y-112265205D02*
X134414399Y-112313604D01*
X302176500Y-202089134D02*
X302176500Y-211065500D01*
X302678863Y-201586771D02*
X302176500Y-202089134D01*
X133393750Y-105268000D02*
X133681875Y-104979875D01*
X133681875Y-104979875D02*
X134105625Y-104979875D01*
X134105625Y-104979875D02*
X134393750Y-105268000D01*
X134393750Y-106247000D02*
X134393750Y-105268000D01*
X133393750Y-106247000D02*
X133393750Y-105268000D01*
X133393750Y-106247000D02*
X133393750Y-112443750D01*
X133393750Y-112443750D02*
X134263415Y-113313415D01*
X134263415Y-113313415D02*
X134394850Y-113313415D01*
X301676500Y-201664000D02*
X301625000Y-201612500D01*
X301676500Y-211065500D02*
X301676500Y-201664000D01*
X119761000Y-107442000D02*
X117564000Y-107442000D01*
X119492000Y-107442000D02*
X117714000Y-109220000D01*
X119492000Y-107442000D02*
X119761000Y-107442000D01*
X119761000Y-107442000D02*
X120840500Y-106362500D01*
X120840500Y-106362500D02*
X126206250Y-106362500D01*
X129823750Y-102745000D02*
X129823750Y-101152000D01*
X126206250Y-106362500D02*
X129823750Y-102745000D01*
D21*
X136593750Y-106247000D02*
X136593750Y-105420942D01*
X136593750Y-105420942D02*
X135185808Y-104013000D01*
X135185808Y-104013000D02*
X134239000Y-104013000D01*
X131693750Y-106247000D02*
X131693750Y-105483398D01*
X131982149Y-105194999D02*
X131982149Y-104237851D01*
X131982149Y-104237851D02*
X132207000Y-104013000D01*
X131693750Y-105483398D02*
X131982149Y-105194999D01*
D19*
X128587710Y-104812551D02*
X130212761Y-103187500D01*
X127892000Y-107823000D02*
X128587710Y-107127290D01*
X133286500Y-103187500D02*
X134112000Y-104013000D01*
X130212761Y-103187500D02*
X133286500Y-103187500D01*
D21*
X132207000Y-104013000D02*
X134112000Y-104013000D01*
X134112000Y-104013000D02*
X134239000Y-104013000D01*
D19*
X127279500Y-107823000D02*
X127892000Y-107823000D01*
X128587710Y-107127290D02*
X128587710Y-104812551D01*
D20*
X132893750Y-107226000D02*
X132893750Y-106247000D01*
X132237500Y-107882250D02*
X132893750Y-107226000D01*
X132237500Y-110400000D02*
X132237500Y-107882250D01*
X135893750Y-110381250D02*
X135962500Y-110450000D01*
X135893750Y-106247000D02*
X135893750Y-110381250D01*
G36*
X137328750Y-100796249D02*
G01*
X137328750Y-101507752D01*
X137345173Y-101674499D01*
X137410074Y-101888447D01*
X137515467Y-102085623D01*
X137657302Y-102258449D01*
X137830128Y-102400284D01*
X138027304Y-102505676D01*
X138241252Y-102570577D01*
X138463750Y-102592491D01*
X138686249Y-102570577D01*
X138900197Y-102505676D01*
X139097373Y-102400284D01*
X139270199Y-102258449D01*
X139412034Y-102085623D01*
X139517426Y-101888446D01*
X139582327Y-101674498D01*
X139598750Y-101507751D01*
X139598750Y-100796248D01*
X139593949Y-100747500D01*
X139664053Y-100747500D01*
X139864901Y-100767193D01*
X140023518Y-100815083D01*
X140169816Y-100892871D01*
X140298216Y-100997591D01*
X140403834Y-101125261D01*
X140482639Y-101271009D01*
X140531635Y-101429289D01*
X140552500Y-101627810D01*
X140552501Y-104017355D01*
X140555632Y-104049149D01*
X140555564Y-104058947D01*
X140556565Y-104069160D01*
X140588950Y-104377288D01*
X140602353Y-104442582D01*
X140614829Y-104507982D01*
X140617794Y-104517806D01*
X140709412Y-104813776D01*
X140735250Y-104875243D01*
X140760183Y-104936954D01*
X140764996Y-104946006D01*
X140765000Y-104946015D01*
X140765005Y-104946022D01*
X140912361Y-105218553D01*
X140949620Y-105273791D01*
X140986089Y-105329522D01*
X140992575Y-105337475D01*
X141190065Y-105576200D01*
X141237357Y-105623163D01*
X141273658Y-105660233D01*
X141347836Y-114190667D01*
X141199174Y-114290000D01*
X141065795Y-114423379D01*
X140709778Y-114420256D01*
X140757364Y-114305373D01*
X140825000Y-113965345D01*
X140825000Y-113618655D01*
X140757364Y-113278627D01*
X140624692Y-112958327D01*
X140432081Y-112670065D01*
X140186935Y-112424919D01*
X139898673Y-112232308D01*
X139578373Y-112099636D01*
X139238345Y-112032000D01*
X138891655Y-112032000D01*
X138551627Y-112099636D01*
X138231327Y-112232308D01*
X137943065Y-112424919D01*
X137697919Y-112670065D01*
X137505308Y-112958327D01*
X137372636Y-113278627D01*
X137305000Y-113618655D01*
X137305000Y-113965345D01*
X137372636Y-114305373D01*
X137408226Y-114391295D01*
X133463455Y-114356692D01*
X133401185Y-114280815D01*
X133304494Y-114201463D01*
X133194180Y-114142498D01*
X133074482Y-114106188D01*
X132950000Y-114093928D01*
X131750000Y-114093928D01*
X131625518Y-114106188D01*
X131505820Y-114142498D01*
X131395506Y-114201463D01*
X131298815Y-114280815D01*
X131252461Y-114337297D01*
X128215285Y-114310655D01*
X127127000Y-113222370D01*
X127127000Y-112841380D01*
X127198673Y-112811692D01*
X127486935Y-112619081D01*
X127732081Y-112373935D01*
X127924692Y-112085673D01*
X128057364Y-111765373D01*
X128125000Y-111425345D01*
X128125000Y-111100000D01*
X129236928Y-111100000D01*
X129249188Y-111224482D01*
X129285498Y-111344180D01*
X129344463Y-111454494D01*
X129423815Y-111551185D01*
X129520506Y-111630537D01*
X129630820Y-111689502D01*
X129750518Y-111725812D01*
X129875000Y-111738072D01*
X130076750Y-111735000D01*
X130235500Y-111576250D01*
X130235500Y-110527000D01*
X129398750Y-110527000D01*
X129240000Y-110685750D01*
X129236928Y-111100000D01*
X128125000Y-111100000D01*
X128125000Y-111078655D01*
X128057364Y-110738627D01*
X127924692Y-110418327D01*
X127732081Y-110130065D01*
X127486935Y-109884919D01*
X127210185Y-109700000D01*
X129236928Y-109700000D01*
X129240000Y-110114250D01*
X129398750Y-110273000D01*
X130235500Y-110273000D01*
X130235500Y-109223750D01*
X130076750Y-109065000D01*
X129875000Y-109061928D01*
X129750518Y-109074188D01*
X129630820Y-109110498D01*
X129520506Y-109169463D01*
X129423815Y-109248815D01*
X129344463Y-109345506D01*
X129285498Y-109455820D01*
X129249188Y-109575518D01*
X129236928Y-109700000D01*
X127210185Y-109700000D01*
X127198673Y-109692308D01*
X127127000Y-109662620D01*
X127127000Y-108936072D01*
X127498250Y-108936072D01*
X127665408Y-108919608D01*
X127826142Y-108870850D01*
X127974275Y-108791671D01*
X128104115Y-108685115D01*
X128210671Y-108555275D01*
X128217994Y-108541576D01*
X128331572Y-108480866D01*
X128451469Y-108382469D01*
X128476127Y-108352423D01*
X129117144Y-107711408D01*
X129147179Y-107686759D01*
X129171829Y-107656723D01*
X129171832Y-107656720D01*
X129245576Y-107566862D01*
X129318692Y-107430073D01*
X129363716Y-107281647D01*
X129367930Y-107238858D01*
X129375110Y-107165963D01*
X129375110Y-107165955D01*
X129378918Y-107127290D01*
X129375110Y-107088625D01*
X129375110Y-106929158D01*
X129387304Y-106935676D01*
X129601252Y-107000577D01*
X129823750Y-107022491D01*
X129984095Y-107006699D01*
X129992938Y-107096482D01*
X130029248Y-107216180D01*
X130088213Y-107326494D01*
X130167565Y-107423185D01*
X130264256Y-107502537D01*
X130374570Y-107561502D01*
X130494268Y-107597812D01*
X130618750Y-107610072D01*
X130633000Y-107607000D01*
X130791750Y-107448250D01*
X130791750Y-107174980D01*
X130804248Y-107216180D01*
X130863213Y-107326494D01*
X130942565Y-107423185D01*
X131039256Y-107502537D01*
X131149570Y-107561502D01*
X131163109Y-107565609D01*
X131204500Y-107607000D01*
X131218750Y-107610072D01*
X131306250Y-107601454D01*
X131393750Y-107610072D01*
X131523778Y-107610072D01*
X131486527Y-107732872D01*
X131471814Y-107882250D01*
X131475501Y-107919683D01*
X131475500Y-109233796D01*
X131370208Y-109320208D01*
X131364992Y-109326564D01*
X131301185Y-109248815D01*
X131204494Y-109169463D01*
X131094180Y-109110498D01*
X130974482Y-109074188D01*
X130850000Y-109061928D01*
X130648250Y-109065000D01*
X130489500Y-109223750D01*
X130489500Y-110273000D01*
X130509500Y-110273000D01*
X130509500Y-110527000D01*
X130489500Y-110527000D01*
X130489500Y-111576250D01*
X130648250Y-111735000D01*
X130850000Y-111738072D01*
X130974482Y-111725812D01*
X131094180Y-111689502D01*
X131204494Y-111630537D01*
X131301185Y-111551185D01*
X131364992Y-111473436D01*
X131370208Y-111479792D01*
X131503836Y-111589458D01*
X131656291Y-111670947D01*
X131821715Y-111721128D01*
X131993750Y-111738072D01*
X132481250Y-111738072D01*
X132631751Y-111723249D01*
X132631751Y-112406317D01*
X132628064Y-112443750D01*
X132642777Y-112593128D01*
X132686349Y-112736765D01*
X132757105Y-112869142D01*
X132828471Y-112956101D01*
X132852329Y-112985172D01*
X132881399Y-113009029D01*
X133377759Y-113505390D01*
X133399624Y-113615313D01*
X133477645Y-113803671D01*
X133590913Y-113973189D01*
X133735076Y-114117352D01*
X133904594Y-114230620D01*
X134092952Y-114308641D01*
X134292911Y-114348415D01*
X134496789Y-114348415D01*
X134696748Y-114308641D01*
X134885106Y-114230620D01*
X135054624Y-114117352D01*
X135198787Y-113973189D01*
X135312055Y-113803671D01*
X135390076Y-113615313D01*
X135429850Y-113415354D01*
X135429850Y-113211476D01*
X135390076Y-113011517D01*
X135314601Y-112829306D01*
X135331604Y-112803860D01*
X135409625Y-112615502D01*
X135449399Y-112415543D01*
X135449399Y-112211665D01*
X135409625Y-112011706D01*
X135331604Y-111823348D01*
X135218336Y-111653830D01*
X135128000Y-111563494D01*
X135128000Y-111556704D01*
X135228836Y-111639458D01*
X135381291Y-111720947D01*
X135546715Y-111771128D01*
X135718750Y-111788072D01*
X136206250Y-111788072D01*
X136378285Y-111771128D01*
X136543709Y-111720947D01*
X136696164Y-111639458D01*
X136829792Y-111529792D01*
X136835008Y-111523436D01*
X136898815Y-111601185D01*
X136995506Y-111680537D01*
X137105820Y-111739502D01*
X137225518Y-111775812D01*
X137350000Y-111788072D01*
X137551750Y-111785000D01*
X137710500Y-111626250D01*
X137710500Y-110577000D01*
X137964500Y-110577000D01*
X137964500Y-111626250D01*
X138123250Y-111785000D01*
X138325000Y-111788072D01*
X138449482Y-111775812D01*
X138569180Y-111739502D01*
X138679494Y-111680537D01*
X138776185Y-111601185D01*
X138855537Y-111504494D01*
X138914502Y-111394180D01*
X138950812Y-111274482D01*
X138963072Y-111150000D01*
X138960000Y-110735750D01*
X138801250Y-110577000D01*
X137964500Y-110577000D01*
X137710500Y-110577000D01*
X137690500Y-110577000D01*
X137690500Y-110323000D01*
X137710500Y-110323000D01*
X137710500Y-109273750D01*
X137964500Y-109273750D01*
X137964500Y-110323000D01*
X138801250Y-110323000D01*
X138960000Y-110164250D01*
X138963072Y-109750000D01*
X138950812Y-109625518D01*
X138914502Y-109505820D01*
X138855537Y-109395506D01*
X138776185Y-109298815D01*
X138679494Y-109219463D01*
X138569180Y-109160498D01*
X138449482Y-109124188D01*
X138325000Y-109111928D01*
X138123250Y-109115000D01*
X137964500Y-109273750D01*
X137710500Y-109273750D01*
X137551750Y-109115000D01*
X137350000Y-109111928D01*
X137225518Y-109124188D01*
X137105820Y-109160498D01*
X136995506Y-109219463D01*
X136898815Y-109298815D01*
X136835008Y-109376564D01*
X136829792Y-109370208D01*
X136696164Y-109260542D01*
X136655750Y-109238940D01*
X136655750Y-107610072D01*
X136893750Y-107610072D01*
X136981250Y-107601454D01*
X137068750Y-107610072D01*
X137083000Y-107607000D01*
X137124391Y-107565609D01*
X137137930Y-107561502D01*
X137248244Y-107502537D01*
X137344935Y-107423185D01*
X137424287Y-107326494D01*
X137483252Y-107216180D01*
X137495750Y-107174980D01*
X137495750Y-107448250D01*
X137654500Y-107607000D01*
X137668750Y-107610072D01*
X137793232Y-107597812D01*
X137912930Y-107561502D01*
X138023244Y-107502537D01*
X138119935Y-107423185D01*
X138199287Y-107326494D01*
X138258252Y-107216180D01*
X138294562Y-107096482D01*
X138303405Y-107006698D01*
X138463750Y-107022491D01*
X138686249Y-107000577D01*
X138900197Y-106935676D01*
X139097373Y-106830284D01*
X139270199Y-106688449D01*
X139412034Y-106515623D01*
X139517426Y-106318447D01*
X139582327Y-106104499D01*
X139598750Y-105937752D01*
X139598750Y-104726248D01*
X139582327Y-104559501D01*
X139517426Y-104345553D01*
X139412034Y-104148377D01*
X139270199Y-103975551D01*
X139097373Y-103833716D01*
X138900196Y-103728324D01*
X138686248Y-103663423D01*
X138463750Y-103641509D01*
X138241251Y-103663423D01*
X138027303Y-103728324D01*
X137830127Y-103833716D01*
X137657301Y-103975551D01*
X137610388Y-104032715D01*
X137488481Y-103951259D01*
X137313772Y-103878892D01*
X137128302Y-103842000D01*
X136939198Y-103842000D01*
X136753728Y-103878892D01*
X136579019Y-103951259D01*
X136421786Y-104056319D01*
X136391212Y-104086893D01*
X135779357Y-103475038D01*
X135754301Y-103444507D01*
X135632470Y-103344523D01*
X135493474Y-103270228D01*
X135342655Y-103224477D01*
X135225111Y-103212900D01*
X135225101Y-103212900D01*
X135185808Y-103209030D01*
X135146515Y-103212900D01*
X134425451Y-103212900D01*
X133870627Y-102658077D01*
X133845969Y-102628031D01*
X133726072Y-102529634D01*
X133589283Y-102456518D01*
X133440857Y-102411494D01*
X133325173Y-102400100D01*
X133325163Y-102400100D01*
X133286500Y-102396292D01*
X133247837Y-102400100D01*
X130585750Y-102400100D01*
X130585750Y-102294927D01*
X130630199Y-102258449D01*
X130772034Y-102085623D01*
X130877426Y-101888446D01*
X130942327Y-101674498D01*
X130958750Y-101507751D01*
X130958750Y-100796248D01*
X130953949Y-100747500D01*
X137333551Y-100747500D01*
X137328750Y-100796249D01*
G37*
X137328750Y-100796249D02*
X137328750Y-101507752D01*
X137345173Y-101674499D01*
X137410074Y-101888447D01*
X137515467Y-102085623D01*
X137657302Y-102258449D01*
X137830128Y-102400284D01*
X138027304Y-102505676D01*
X138241252Y-102570577D01*
X138463750Y-102592491D01*
X138686249Y-102570577D01*
X138900197Y-102505676D01*
X139097373Y-102400284D01*
X139270199Y-102258449D01*
X139412034Y-102085623D01*
X139517426Y-101888446D01*
X139582327Y-101674498D01*
X139598750Y-101507751D01*
X139598750Y-100796248D01*
X139593949Y-100747500D01*
X139664053Y-100747500D01*
X139864901Y-100767193D01*
X140023518Y-100815083D01*
X140169816Y-100892871D01*
X140298216Y-100997591D01*
X140403834Y-101125261D01*
X140482639Y-101271009D01*
X140531635Y-101429289D01*
X140552500Y-101627810D01*
X140552501Y-104017355D01*
X140555632Y-104049149D01*
X140555564Y-104058947D01*
X140556565Y-104069160D01*
X140588950Y-104377288D01*
X140602353Y-104442582D01*
X140614829Y-104507982D01*
X140617794Y-104517806D01*
X140709412Y-104813776D01*
X140735250Y-104875243D01*
X140760183Y-104936954D01*
X140764996Y-104946006D01*
X140765000Y-104946015D01*
X140765005Y-104946022D01*
X140912361Y-105218553D01*
X140949620Y-105273791D01*
X140986089Y-105329522D01*
X140992575Y-105337475D01*
X141190065Y-105576200D01*
X141237357Y-105623163D01*
X141273658Y-105660233D01*
X141347836Y-114190667D01*
X141199174Y-114290000D01*
X141065795Y-114423379D01*
X140709778Y-114420256D01*
X140757364Y-114305373D01*
X140825000Y-113965345D01*
X140825000Y-113618655D01*
X140757364Y-113278627D01*
X140624692Y-112958327D01*
X140432081Y-112670065D01*
X140186935Y-112424919D01*
X139898673Y-112232308D01*
X139578373Y-112099636D01*
X139238345Y-112032000D01*
X138891655Y-112032000D01*
X138551627Y-112099636D01*
X138231327Y-112232308D01*
X137943065Y-112424919D01*
X137697919Y-112670065D01*
X137505308Y-112958327D01*
X137372636Y-113278627D01*
X137305000Y-113618655D01*
X137305000Y-113965345D01*
X137372636Y-114305373D01*
X137408226Y-114391295D01*
X133463455Y-114356692D01*
X133401185Y-114280815D01*
X133304494Y-114201463D01*
X133194180Y-114142498D01*
X133074482Y-114106188D01*
X132950000Y-114093928D01*
X131750000Y-114093928D01*
X131625518Y-114106188D01*
X131505820Y-114142498D01*
X131395506Y-114201463D01*
X131298815Y-114280815D01*
X131252461Y-114337297D01*
X128215285Y-114310655D01*
X127127000Y-113222370D01*
X127127000Y-112841380D01*
X127198673Y-112811692D01*
X127486935Y-112619081D01*
X127732081Y-112373935D01*
X127924692Y-112085673D01*
X128057364Y-111765373D01*
X128125000Y-111425345D01*
X128125000Y-111100000D01*
X129236928Y-111100000D01*
X129249188Y-111224482D01*
X129285498Y-111344180D01*
X129344463Y-111454494D01*
X129423815Y-111551185D01*
X129520506Y-111630537D01*
X129630820Y-111689502D01*
X129750518Y-111725812D01*
X129875000Y-111738072D01*
X130076750Y-111735000D01*
X130235500Y-111576250D01*
X130235500Y-110527000D01*
X129398750Y-110527000D01*
X129240000Y-110685750D01*
X129236928Y-111100000D01*
X128125000Y-111100000D01*
X128125000Y-111078655D01*
X128057364Y-110738627D01*
X127924692Y-110418327D01*
X127732081Y-110130065D01*
X127486935Y-109884919D01*
X127210185Y-109700000D01*
X129236928Y-109700000D01*
X129240000Y-110114250D01*
X129398750Y-110273000D01*
X130235500Y-110273000D01*
X130235500Y-109223750D01*
X130076750Y-109065000D01*
X129875000Y-109061928D01*
X129750518Y-109074188D01*
X129630820Y-109110498D01*
X129520506Y-109169463D01*
X129423815Y-109248815D01*
X129344463Y-109345506D01*
X129285498Y-109455820D01*
X129249188Y-109575518D01*
X129236928Y-109700000D01*
X127210185Y-109700000D01*
X127198673Y-109692308D01*
X127127000Y-109662620D01*
X127127000Y-108936072D01*
X127498250Y-108936072D01*
X127665408Y-108919608D01*
X127826142Y-108870850D01*
X127974275Y-108791671D01*
X128104115Y-108685115D01*
X128210671Y-108555275D01*
X128217994Y-108541576D01*
X128331572Y-108480866D01*
X128451469Y-108382469D01*
X128476127Y-108352423D01*
X129117144Y-107711408D01*
X129147179Y-107686759D01*
X129171829Y-107656723D01*
X129171832Y-107656720D01*
X129245576Y-107566862D01*
X129318692Y-107430073D01*
X129363716Y-107281647D01*
X129367930Y-107238858D01*
X129375110Y-107165963D01*
X129375110Y-107165955D01*
X129378918Y-107127290D01*
X129375110Y-107088625D01*
X129375110Y-106929158D01*
X129387304Y-106935676D01*
X129601252Y-107000577D01*
X129823750Y-107022491D01*
X129984095Y-107006699D01*
X129992938Y-107096482D01*
X130029248Y-107216180D01*
X130088213Y-107326494D01*
X130167565Y-107423185D01*
X130264256Y-107502537D01*
X130374570Y-107561502D01*
X130494268Y-107597812D01*
X130618750Y-107610072D01*
X130633000Y-107607000D01*
X130791750Y-107448250D01*
X130791750Y-107174980D01*
X130804248Y-107216180D01*
X130863213Y-107326494D01*
X130942565Y-107423185D01*
X131039256Y-107502537D01*
X131149570Y-107561502D01*
X131163109Y-107565609D01*
X131204500Y-107607000D01*
X131218750Y-107610072D01*
X131306250Y-107601454D01*
X131393750Y-107610072D01*
X131523778Y-107610072D01*
X131486527Y-107732872D01*
X131471814Y-107882250D01*
X131475501Y-107919683D01*
X131475500Y-109233796D01*
X131370208Y-109320208D01*
X131364992Y-109326564D01*
X131301185Y-109248815D01*
X131204494Y-109169463D01*
X131094180Y-109110498D01*
X130974482Y-109074188D01*
X130850000Y-109061928D01*
X130648250Y-109065000D01*
X130489500Y-109223750D01*
X130489500Y-110273000D01*
X130509500Y-110273000D01*
X130509500Y-110527000D01*
X130489500Y-110527000D01*
X130489500Y-111576250D01*
X130648250Y-111735000D01*
X130850000Y-111738072D01*
X130974482Y-111725812D01*
X131094180Y-111689502D01*
X131204494Y-111630537D01*
X131301185Y-111551185D01*
X131364992Y-111473436D01*
X131370208Y-111479792D01*
X131503836Y-111589458D01*
X131656291Y-111670947D01*
X131821715Y-111721128D01*
X131993750Y-111738072D01*
X132481250Y-111738072D01*
X132631751Y-111723249D01*
X132631751Y-112406317D01*
X132628064Y-112443750D01*
X132642777Y-112593128D01*
X132686349Y-112736765D01*
X132757105Y-112869142D01*
X132828471Y-112956101D01*
X132852329Y-112985172D01*
X132881399Y-113009029D01*
X133377759Y-113505390D01*
X133399624Y-113615313D01*
X133477645Y-113803671D01*
X133590913Y-113973189D01*
X133735076Y-114117352D01*
X133904594Y-114230620D01*
X134092952Y-114308641D01*
X134292911Y-114348415D01*
X134496789Y-114348415D01*
X134696748Y-114308641D01*
X134885106Y-114230620D01*
X135054624Y-114117352D01*
X135198787Y-113973189D01*
X135312055Y-113803671D01*
X135390076Y-113615313D01*
X135429850Y-113415354D01*
X135429850Y-113211476D01*
X135390076Y-113011517D01*
X135314601Y-112829306D01*
X135331604Y-112803860D01*
X135409625Y-112615502D01*
X135449399Y-112415543D01*
X135449399Y-112211665D01*
X135409625Y-112011706D01*
X135331604Y-111823348D01*
X135218336Y-111653830D01*
X135128000Y-111563494D01*
X135128000Y-111556704D01*
X135228836Y-111639458D01*
X135381291Y-111720947D01*
X135546715Y-111771128D01*
X135718750Y-111788072D01*
X136206250Y-111788072D01*
X136378285Y-111771128D01*
X136543709Y-111720947D01*
X136696164Y-111639458D01*
X136829792Y-111529792D01*
X136835008Y-111523436D01*
X136898815Y-111601185D01*
X136995506Y-111680537D01*
X137105820Y-111739502D01*
X137225518Y-111775812D01*
X137350000Y-111788072D01*
X137551750Y-111785000D01*
X137710500Y-111626250D01*
X137710500Y-110577000D01*
X137964500Y-110577000D01*
X137964500Y-111626250D01*
X138123250Y-111785000D01*
X138325000Y-111788072D01*
X138449482Y-111775812D01*
X138569180Y-111739502D01*
X138679494Y-111680537D01*
X138776185Y-111601185D01*
X138855537Y-111504494D01*
X138914502Y-111394180D01*
X138950812Y-111274482D01*
X138963072Y-111150000D01*
X138960000Y-110735750D01*
X138801250Y-110577000D01*
X137964500Y-110577000D01*
X137710500Y-110577000D01*
X137690500Y-110577000D01*
X137690500Y-110323000D01*
X137710500Y-110323000D01*
X137710500Y-109273750D01*
X137964500Y-109273750D01*
X137964500Y-110323000D01*
X138801250Y-110323000D01*
X138960000Y-110164250D01*
X138963072Y-109750000D01*
X138950812Y-109625518D01*
X138914502Y-109505820D01*
X138855537Y-109395506D01*
X138776185Y-109298815D01*
X138679494Y-109219463D01*
X138569180Y-109160498D01*
X138449482Y-109124188D01*
X138325000Y-109111928D01*
X138123250Y-109115000D01*
X137964500Y-109273750D01*
X137710500Y-109273750D01*
X137551750Y-109115000D01*
X137350000Y-109111928D01*
X137225518Y-109124188D01*
X137105820Y-109160498D01*
X136995506Y-109219463D01*
X136898815Y-109298815D01*
X136835008Y-109376564D01*
X136829792Y-109370208D01*
X136696164Y-109260542D01*
X136655750Y-109238940D01*
X136655750Y-107610072D01*
X136893750Y-107610072D01*
X136981250Y-107601454D01*
X137068750Y-107610072D01*
X137083000Y-107607000D01*
X137124391Y-107565609D01*
X137137930Y-107561502D01*
X137248244Y-107502537D01*
X137344935Y-107423185D01*
X137424287Y-107326494D01*
X137483252Y-107216180D01*
X137495750Y-107174980D01*
X137495750Y-107448250D01*
X137654500Y-107607000D01*
X137668750Y-107610072D01*
X137793232Y-107597812D01*
X137912930Y-107561502D01*
X138023244Y-107502537D01*
X138119935Y-107423185D01*
X138199287Y-107326494D01*
X138258252Y-107216180D01*
X138294562Y-107096482D01*
X138303405Y-107006698D01*
X138463750Y-107022491D01*
X138686249Y-107000577D01*
X138900197Y-106935676D01*
X139097373Y-106830284D01*
X139270199Y-106688449D01*
X139412034Y-106515623D01*
X139517426Y-106318447D01*
X139582327Y-106104499D01*
X139598750Y-105937752D01*
X139598750Y-104726248D01*
X139582327Y-104559501D01*
X139517426Y-104345553D01*
X139412034Y-104148377D01*
X139270199Y-103975551D01*
X139097373Y-103833716D01*
X138900196Y-103728324D01*
X138686248Y-103663423D01*
X138463750Y-103641509D01*
X138241251Y-103663423D01*
X138027303Y-103728324D01*
X137830127Y-103833716D01*
X137657301Y-103975551D01*
X137610388Y-104032715D01*
X137488481Y-103951259D01*
X137313772Y-103878892D01*
X137128302Y-103842000D01*
X136939198Y-103842000D01*
X136753728Y-103878892D01*
X136579019Y-103951259D01*
X136421786Y-104056319D01*
X136391212Y-104086893D01*
X135779357Y-103475038D01*
X135754301Y-103444507D01*
X135632470Y-103344523D01*
X135493474Y-103270228D01*
X135342655Y-103224477D01*
X135225111Y-103212900D01*
X135225101Y-103212900D01*
X135185808Y-103209030D01*
X135146515Y-103212900D01*
X134425451Y-103212900D01*
X133870627Y-102658077D01*
X133845969Y-102628031D01*
X133726072Y-102529634D01*
X133589283Y-102456518D01*
X133440857Y-102411494D01*
X133325173Y-102400100D01*
X133325163Y-102400100D01*
X133286500Y-102396292D01*
X133247837Y-102400100D01*
X130585750Y-102400100D01*
X130585750Y-102294927D01*
X130630199Y-102258449D01*
X130772034Y-102085623D01*
X130877426Y-101888446D01*
X130942327Y-101674498D01*
X130958750Y-101507751D01*
X130958750Y-100796248D01*
X130953949Y-100747500D01*
X137333551Y-100747500D01*
X137328750Y-100796249D01*
M02*
