G04 #@! TF.GenerationSoftware,KiCad,Pcbnew,(5.1.6)-1*
G04 #@! TF.CreationDate,2020-08-12T13:21:16-07:00*
G04 #@! TF.ProjectId,v1PCB,76315043-422e-46b6-9963-61645f706362,rev?*
G04 #@! TF.SameCoordinates,Original*
G04 #@! TF.FileFunction,Soldermask,Top*
G04 #@! TF.FilePolarity,Negative*
%FSLAX46Y46*%
G04 Gerber Fmt 4.6, Leading zero omitted, Abs format (unit mm)*
G04 Created by KiCad (PCBNEW (5.1.6)-1) date 2020-08-12 13:21:16*
%MOMM*%
%LPD*%
G01*
G04 APERTURE LIST*
%ADD10C,3.987800*%
%ADD11C,1.750000*%
%ADD12C,3.048000*%
%ADD13C,0.650000*%
%ADD14O,1.000000X2.100000*%
%ADD15O,1.000000X1.600000*%
%ADD16C,1.800000*%
G04 APERTURE END LIST*
D10*
X278606250Y-211582000D03*
D11*
X273526250Y-211582000D03*
X283686250Y-211582000D03*
D12*
X266700000Y-204597000D03*
X290512500Y-204597000D03*
D10*
X266700000Y-219837000D03*
X290512500Y-219837000D03*
X123825000Y-116332000D03*
D11*
X118745000Y-116332000D03*
X128905000Y-116332000D03*
D13*
X137033750Y-104802000D03*
X131253750Y-104802000D03*
D14*
X129823750Y-105332000D03*
X138463750Y-105332000D03*
D15*
X129823750Y-101152000D03*
X138463750Y-101152000D03*
D10*
X135731250Y-192532000D03*
D11*
X130651250Y-192532000D03*
X140811250Y-192532000D03*
D12*
X123825000Y-185547000D03*
X147637500Y-185547000D03*
D10*
X123825000Y-200787000D03*
X147637500Y-200787000D03*
X447675000Y-211582000D03*
D11*
X442595000Y-211582000D03*
X452755000Y-211582000D03*
D10*
X447675000Y-192532000D03*
D11*
X442595000Y-192532000D03*
X452755000Y-192532000D03*
D16*
X113717000Y-177764000D03*
X120217000Y-173264000D03*
X113717000Y-173264000D03*
X120217000Y-177764000D03*
D10*
X316706250Y-211582000D03*
D11*
X311626250Y-211582000D03*
X321786250Y-211582000D03*
D10*
X142875000Y-116332000D03*
D11*
X137795000Y-116332000D03*
X147955000Y-116332000D03*
D10*
X466725000Y-202057000D03*
D11*
X466725000Y-196977000D03*
X466725000Y-207137000D03*
D12*
X473710000Y-190150750D03*
X473710000Y-213963250D03*
D10*
X458470000Y-190150750D03*
X458470000Y-213963250D03*
X466725000Y-163957000D03*
D11*
X466725000Y-158877000D03*
X466725000Y-169037000D03*
D12*
X473710000Y-152050750D03*
X473710000Y-175863250D03*
D10*
X458470000Y-152050750D03*
X458470000Y-175863250D03*
X207168750Y-211582000D03*
D11*
X202088750Y-211582000D03*
X212248750Y-211582000D03*
D12*
X195262500Y-204597000D03*
X219075000Y-204597000D03*
D10*
X195262500Y-219837000D03*
X219075000Y-219837000D03*
X364331250Y-192532000D03*
D11*
X359251250Y-192532000D03*
X369411250Y-192532000D03*
D10*
X378618750Y-173482000D03*
D11*
X373538750Y-173482000D03*
X383698750Y-173482000D03*
D12*
X366712500Y-166497000D03*
X390525000Y-166497000D03*
D10*
X366712500Y-181737000D03*
X390525000Y-181737000D03*
X381000000Y-135382000D03*
D11*
X375920000Y-135382000D03*
X386080000Y-135382000D03*
D12*
X369093750Y-128397000D03*
X392906250Y-128397000D03*
D10*
X369093750Y-143637000D03*
X392906250Y-143637000D03*
X319087500Y-192532000D03*
D11*
X314007500Y-192532000D03*
X324167500Y-192532000D03*
D10*
X300037500Y-192532000D03*
D11*
X294957500Y-192532000D03*
X305117500Y-192532000D03*
D10*
X166687500Y-192532000D03*
D11*
X161607500Y-192532000D03*
X171767500Y-192532000D03*
D10*
X238125000Y-116332000D03*
D11*
X233045000Y-116332000D03*
X243205000Y-116332000D03*
D10*
X180975000Y-116332000D03*
D11*
X175895000Y-116332000D03*
X186055000Y-116332000D03*
D10*
X390525000Y-192532000D03*
D11*
X385445000Y-192532000D03*
X395605000Y-192532000D03*
D10*
X171450000Y-154432000D03*
D11*
X166370000Y-154432000D03*
X176530000Y-154432000D03*
D10*
X409575000Y-154432000D03*
D11*
X404495000Y-154432000D03*
X414655000Y-154432000D03*
D10*
X428625000Y-211582000D03*
D11*
X423545000Y-211582000D03*
X433705000Y-211582000D03*
D10*
X409575000Y-211582000D03*
D11*
X404495000Y-211582000D03*
X414655000Y-211582000D03*
D10*
X390525000Y-211582000D03*
D11*
X385445000Y-211582000D03*
X395605000Y-211582000D03*
D10*
X371475000Y-211582000D03*
D11*
X366395000Y-211582000D03*
X376555000Y-211582000D03*
D10*
X340518750Y-211582000D03*
D11*
X335438750Y-211582000D03*
X345598750Y-211582000D03*
D10*
X240506250Y-211582000D03*
D11*
X235426250Y-211582000D03*
X245586250Y-211582000D03*
D10*
X173831250Y-211582000D03*
D11*
X168751250Y-211582000D03*
X178911250Y-211582000D03*
D10*
X150018750Y-211582000D03*
D11*
X144938750Y-211582000D03*
X155098750Y-211582000D03*
D10*
X126206250Y-211582000D03*
D11*
X121126250Y-211582000D03*
X131286250Y-211582000D03*
D10*
X428625000Y-192532000D03*
D11*
X423545000Y-192532000D03*
X433705000Y-192532000D03*
D10*
X409575000Y-192532000D03*
D11*
X404495000Y-192532000D03*
X414655000Y-192532000D03*
D10*
X338137500Y-192532000D03*
D11*
X333057500Y-192532000D03*
X343217500Y-192532000D03*
D10*
X280987500Y-192532000D03*
D11*
X275907500Y-192532000D03*
X286067500Y-192532000D03*
D10*
X261937500Y-192532000D03*
D11*
X256857500Y-192532000D03*
X267017500Y-192532000D03*
D10*
X242887500Y-192532000D03*
D11*
X237807500Y-192532000D03*
X247967500Y-192532000D03*
D10*
X223837500Y-192532000D03*
D11*
X218757500Y-192532000D03*
X228917500Y-192532000D03*
D10*
X204787500Y-192532000D03*
D11*
X199707500Y-192532000D03*
X209867500Y-192532000D03*
D10*
X185737500Y-192532000D03*
D11*
X180657500Y-192532000D03*
X190817500Y-192532000D03*
D10*
X447675000Y-173482000D03*
D11*
X442595000Y-173482000D03*
X452755000Y-173482000D03*
D10*
X428625000Y-173482000D03*
D11*
X423545000Y-173482000D03*
X433705000Y-173482000D03*
D10*
X409575000Y-173482000D03*
D11*
X404495000Y-173482000D03*
X414655000Y-173482000D03*
D10*
X347662500Y-173482000D03*
D11*
X342582500Y-173482000D03*
X352742500Y-173482000D03*
D10*
X328612500Y-173482000D03*
D11*
X323532500Y-173482000D03*
X333692500Y-173482000D03*
D10*
X309562500Y-173482000D03*
D11*
X304482500Y-173482000D03*
X314642500Y-173482000D03*
D10*
X290512500Y-173482000D03*
D11*
X285432500Y-173482000D03*
X295592500Y-173482000D03*
D10*
X271462500Y-173482000D03*
D11*
X266382500Y-173482000D03*
X276542500Y-173482000D03*
D10*
X252412500Y-173482000D03*
D11*
X247332500Y-173482000D03*
X257492500Y-173482000D03*
D10*
X233362500Y-173482000D03*
D11*
X228282500Y-173482000D03*
X238442500Y-173482000D03*
D10*
X214312500Y-173482000D03*
D11*
X209232500Y-173482000D03*
X219392500Y-173482000D03*
D10*
X195262500Y-173482000D03*
D11*
X190182500Y-173482000D03*
X200342500Y-173482000D03*
D10*
X176212500Y-173482000D03*
D11*
X171132500Y-173482000D03*
X181292500Y-173482000D03*
D10*
X157162500Y-173482000D03*
D11*
X152082500Y-173482000D03*
X162242500Y-173482000D03*
D10*
X130968750Y-173482000D03*
D11*
X125888750Y-173482000D03*
X136048750Y-173482000D03*
D10*
X447675000Y-154432000D03*
D11*
X442595000Y-154432000D03*
X452755000Y-154432000D03*
D10*
X428625000Y-154432000D03*
D11*
X423545000Y-154432000D03*
X433705000Y-154432000D03*
D10*
X385762500Y-154432000D03*
D11*
X380682500Y-154432000D03*
X390842500Y-154432000D03*
D10*
X361950000Y-154432000D03*
D11*
X356870000Y-154432000D03*
X367030000Y-154432000D03*
D10*
X342900000Y-154432000D03*
D11*
X337820000Y-154432000D03*
X347980000Y-154432000D03*
D10*
X323850000Y-154432000D03*
D11*
X318770000Y-154432000D03*
X328930000Y-154432000D03*
D10*
X304800000Y-154432000D03*
D11*
X299720000Y-154432000D03*
X309880000Y-154432000D03*
D10*
X285750000Y-154432000D03*
D11*
X280670000Y-154432000D03*
X290830000Y-154432000D03*
D10*
X266700000Y-154432000D03*
D11*
X261620000Y-154432000D03*
X271780000Y-154432000D03*
D10*
X247650000Y-154432000D03*
D11*
X242570000Y-154432000D03*
X252730000Y-154432000D03*
D10*
X228600000Y-154432000D03*
D11*
X223520000Y-154432000D03*
X233680000Y-154432000D03*
D10*
X209550000Y-154432000D03*
D11*
X204470000Y-154432000D03*
X214630000Y-154432000D03*
D10*
X190500000Y-154432000D03*
D11*
X185420000Y-154432000D03*
X195580000Y-154432000D03*
D10*
X152400000Y-154432000D03*
D11*
X147320000Y-154432000D03*
X157480000Y-154432000D03*
D10*
X128587500Y-154432000D03*
D11*
X123507500Y-154432000D03*
X133667500Y-154432000D03*
D10*
X466725000Y-135382000D03*
D11*
X461645000Y-135382000D03*
X471805000Y-135382000D03*
D10*
X447675000Y-135382000D03*
D11*
X442595000Y-135382000D03*
X452755000Y-135382000D03*
D10*
X428625000Y-135382000D03*
D11*
X423545000Y-135382000D03*
X433705000Y-135382000D03*
D10*
X409575000Y-135382000D03*
D11*
X404495000Y-135382000D03*
X414655000Y-135382000D03*
D10*
X352425000Y-135382000D03*
D11*
X347345000Y-135382000D03*
X357505000Y-135382000D03*
D10*
X333375000Y-135382000D03*
D11*
X328295000Y-135382000D03*
X338455000Y-135382000D03*
D10*
X314325000Y-135382000D03*
D11*
X309245000Y-135382000D03*
X319405000Y-135382000D03*
D10*
X295275000Y-135382000D03*
D11*
X290195000Y-135382000D03*
X300355000Y-135382000D03*
D10*
X276225000Y-135382000D03*
D11*
X271145000Y-135382000D03*
X281305000Y-135382000D03*
D10*
X257175000Y-135382000D03*
D11*
X252095000Y-135382000D03*
X262255000Y-135382000D03*
D10*
X238125000Y-135382000D03*
D11*
X233045000Y-135382000D03*
X243205000Y-135382000D03*
D10*
X219075000Y-135382000D03*
D11*
X213995000Y-135382000D03*
X224155000Y-135382000D03*
D10*
X200025000Y-135382000D03*
D11*
X194945000Y-135382000D03*
X205105000Y-135382000D03*
D10*
X180975000Y-135382000D03*
D11*
X175895000Y-135382000D03*
X186055000Y-135382000D03*
D10*
X161925000Y-135382000D03*
D11*
X156845000Y-135382000D03*
X167005000Y-135382000D03*
D10*
X142875000Y-135382000D03*
D11*
X137795000Y-135382000D03*
X147955000Y-135382000D03*
D10*
X123825000Y-135382000D03*
D11*
X118745000Y-135382000D03*
X128905000Y-135382000D03*
D10*
X466725000Y-116332000D03*
D11*
X461645000Y-116332000D03*
X471805000Y-116332000D03*
D10*
X447675000Y-116332000D03*
D11*
X442595000Y-116332000D03*
X452755000Y-116332000D03*
D10*
X428625000Y-116332000D03*
D11*
X423545000Y-116332000D03*
X433705000Y-116332000D03*
D10*
X409575000Y-116332000D03*
D11*
X404495000Y-116332000D03*
X414655000Y-116332000D03*
D10*
X390525000Y-116332000D03*
D11*
X385445000Y-116332000D03*
X395605000Y-116332000D03*
D10*
X371475000Y-116332000D03*
D11*
X366395000Y-116332000D03*
X376555000Y-116332000D03*
D10*
X352425000Y-116332000D03*
D11*
X347345000Y-116332000D03*
X357505000Y-116332000D03*
D10*
X333375000Y-116332000D03*
D11*
X328295000Y-116332000D03*
X338455000Y-116332000D03*
D10*
X314325000Y-116332000D03*
D11*
X309245000Y-116332000D03*
X319405000Y-116332000D03*
D10*
X295275000Y-116332000D03*
D11*
X290195000Y-116332000D03*
X300355000Y-116332000D03*
D10*
X276225000Y-116332000D03*
D11*
X271145000Y-116332000D03*
X281305000Y-116332000D03*
D10*
X257175000Y-116332000D03*
D11*
X252095000Y-116332000D03*
X262255000Y-116332000D03*
D10*
X219075000Y-116332000D03*
D11*
X213995000Y-116332000D03*
X224155000Y-116332000D03*
D10*
X200025000Y-116332000D03*
D11*
X194945000Y-116332000D03*
X205105000Y-116332000D03*
D10*
X161925000Y-116332000D03*
D11*
X156845000Y-116332000D03*
X167005000Y-116332000D03*
D16*
X120217000Y-166406000D03*
X113717000Y-170906000D03*
X120217000Y-170906000D03*
X113717000Y-166406000D03*
M02*
