G04 #@! TF.GenerationSoftware,KiCad,Pcbnew,(5.1.4)-1*
G04 #@! TF.CreationDate,2020-08-05T23:23:59-07:00*
G04 #@! TF.ProjectId,v1PCB,76315043-422e-46b6-9963-61645f706362,rev?*
G04 #@! TF.SameCoordinates,Original*
G04 #@! TF.FileFunction,Copper,L1,Top*
G04 #@! TF.FilePolarity,Positive*
%FSLAX46Y46*%
G04 Gerber Fmt 4.6, Leading zero omitted, Abs format (unit mm)*
G04 Created by KiCad (PCBNEW (5.1.4)-1) date 2020-08-05 23:23:59*
%MOMM*%
%LPD*%
G04 APERTURE LIST*
%ADD10C,2.250000*%
%ADD11O,1.000000X2.100000*%
%ADD12O,1.000000X1.600000*%
%ADD13C,1.800000*%
%ADD14C,0.800000*%
%ADD15C,0.304800*%
%ADD16C,0.254000*%
G04 APERTURE END LIST*
D10*
X281146250Y-206502000D03*
X274796250Y-209042000D03*
X126365000Y-111252000D03*
X120015000Y-113792000D03*
D11*
X129823750Y-105332000D03*
X138463750Y-105332000D03*
D12*
X129823750Y-101152000D03*
X138463750Y-101152000D03*
D10*
X138271250Y-187452000D03*
X131921250Y-189992000D03*
X450215000Y-206502000D03*
X443865000Y-209042000D03*
X450215000Y-187452000D03*
X443865000Y-189992000D03*
D13*
X113717000Y-177764000D03*
X120217000Y-173264000D03*
X113717000Y-173264000D03*
X120217000Y-177764000D03*
D10*
X319246250Y-206502000D03*
X312896250Y-209042000D03*
X145415000Y-111252000D03*
X139065000Y-113792000D03*
X471805000Y-204597000D03*
X469265000Y-198247000D03*
X471805000Y-166497000D03*
X469265000Y-160147000D03*
X209708750Y-206502000D03*
X203358750Y-209042000D03*
X366871250Y-187452000D03*
X360521250Y-189992000D03*
X381158750Y-168402000D03*
X374808750Y-170942000D03*
X383540000Y-130302000D03*
X377190000Y-132842000D03*
X321627500Y-187452000D03*
X315277500Y-189992000D03*
X302577500Y-187452000D03*
X296227500Y-189992000D03*
X169227500Y-187452000D03*
X162877500Y-189992000D03*
X240665000Y-111252000D03*
X234315000Y-113792000D03*
X183515000Y-111252000D03*
X177165000Y-113792000D03*
X393065000Y-187452000D03*
X386715000Y-189992000D03*
X173990000Y-149352000D03*
X167640000Y-151892000D03*
X412115000Y-149352000D03*
X405765000Y-151892000D03*
X431165000Y-206502000D03*
X424815000Y-209042000D03*
X412115000Y-206502000D03*
X405765000Y-209042000D03*
X393065000Y-206502000D03*
X386715000Y-209042000D03*
X374015000Y-206502000D03*
X367665000Y-209042000D03*
X343058750Y-206502000D03*
X336708750Y-209042000D03*
X243046250Y-206502000D03*
X236696250Y-209042000D03*
X176371250Y-206502000D03*
X170021250Y-209042000D03*
X152558750Y-206502000D03*
X146208750Y-209042000D03*
X128746250Y-206502000D03*
X122396250Y-209042000D03*
X431165000Y-187452000D03*
X424815000Y-189992000D03*
X412115000Y-187452000D03*
X405765000Y-189992000D03*
X340677500Y-187452000D03*
X334327500Y-189992000D03*
X283527500Y-187452000D03*
X277177500Y-189992000D03*
X264477500Y-187452000D03*
X258127500Y-189992000D03*
X245427500Y-187452000D03*
X239077500Y-189992000D03*
X226377500Y-187452000D03*
X220027500Y-189992000D03*
X207327500Y-187452000D03*
X200977500Y-189992000D03*
X188277500Y-187452000D03*
X181927500Y-189992000D03*
X450215000Y-168402000D03*
X443865000Y-170942000D03*
X431165000Y-168402000D03*
X424815000Y-170942000D03*
X412115000Y-168402000D03*
X405765000Y-170942000D03*
X350202500Y-168402000D03*
X343852500Y-170942000D03*
X331152500Y-168402000D03*
X324802500Y-170942000D03*
X312102500Y-168402000D03*
X305752500Y-170942000D03*
X293052500Y-168402000D03*
X286702500Y-170942000D03*
X274002500Y-168402000D03*
X267652500Y-170942000D03*
X254952500Y-168402000D03*
X248602500Y-170942000D03*
X235902500Y-168402000D03*
X229552500Y-170942000D03*
X216852500Y-168402000D03*
X210502500Y-170942000D03*
X197802500Y-168402000D03*
X191452500Y-170942000D03*
X178752500Y-168402000D03*
X172402500Y-170942000D03*
X159702500Y-168402000D03*
X153352500Y-170942000D03*
X133508750Y-168402000D03*
X127158750Y-170942000D03*
X450215000Y-149352000D03*
X443865000Y-151892000D03*
X431165000Y-149352000D03*
X424815000Y-151892000D03*
X388302500Y-149352000D03*
X381952500Y-151892000D03*
X364490000Y-149352000D03*
X358140000Y-151892000D03*
X345440000Y-149352000D03*
X339090000Y-151892000D03*
X326390000Y-149352000D03*
X320040000Y-151892000D03*
X307340000Y-149352000D03*
X300990000Y-151892000D03*
X288290000Y-149352000D03*
X281940000Y-151892000D03*
X269240000Y-149352000D03*
X262890000Y-151892000D03*
X250190000Y-149352000D03*
X243840000Y-151892000D03*
X231140000Y-149352000D03*
X224790000Y-151892000D03*
X212090000Y-149352000D03*
X205740000Y-151892000D03*
X193040000Y-149352000D03*
X186690000Y-151892000D03*
X154940000Y-149352000D03*
X148590000Y-151892000D03*
X131127500Y-149352000D03*
X124777500Y-151892000D03*
X469265000Y-130302000D03*
X462915000Y-132842000D03*
X450215000Y-130302000D03*
X443865000Y-132842000D03*
X431165000Y-130302000D03*
X424815000Y-132842000D03*
X412115000Y-130302000D03*
X405765000Y-132842000D03*
X354965000Y-130302000D03*
X348615000Y-132842000D03*
X335915000Y-130302000D03*
X329565000Y-132842000D03*
X316865000Y-130302000D03*
X310515000Y-132842000D03*
X297815000Y-130302000D03*
X291465000Y-132842000D03*
X278765000Y-130302000D03*
X272415000Y-132842000D03*
X259715000Y-130302000D03*
X253365000Y-132842000D03*
X240665000Y-130302000D03*
X234315000Y-132842000D03*
X221615000Y-130302000D03*
X215265000Y-132842000D03*
X202565000Y-130302000D03*
X196215000Y-132842000D03*
X183515000Y-130302000D03*
X177165000Y-132842000D03*
X164465000Y-130302000D03*
X158115000Y-132842000D03*
X145415000Y-130302000D03*
X139065000Y-132842000D03*
X126365000Y-130302000D03*
X120015000Y-132842000D03*
X469265000Y-111252000D03*
X462915000Y-113792000D03*
X450215000Y-111252000D03*
X443865000Y-113792000D03*
X431165000Y-111252000D03*
X424815000Y-113792000D03*
X412115000Y-111252000D03*
X405765000Y-113792000D03*
X393065000Y-111252000D03*
X386715000Y-113792000D03*
X374015000Y-111252000D03*
X367665000Y-113792000D03*
X354965000Y-111252000D03*
X348615000Y-113792000D03*
X335915000Y-111252000D03*
X329565000Y-113792000D03*
X316865000Y-111252000D03*
X310515000Y-113792000D03*
X297815000Y-111252000D03*
X291465000Y-113792000D03*
X278765000Y-111252000D03*
X272415000Y-113792000D03*
X259715000Y-111252000D03*
X253365000Y-113792000D03*
X221615000Y-111252000D03*
X215265000Y-113792000D03*
X202565000Y-111252000D03*
X196215000Y-113792000D03*
X164465000Y-111252000D03*
X158115000Y-113792000D03*
D13*
X120217000Y-166406000D03*
X113717000Y-170906000D03*
X120217000Y-170906000D03*
X113717000Y-166406000D03*
D14*
X116840000Y-158115000D03*
X117221000Y-147955000D03*
X115824000Y-111633000D03*
X117983000Y-182372000D03*
X292481000Y-212344000D03*
X137287000Y-107823000D03*
X131064000Y-107823000D03*
X146177000Y-215012250D03*
X164846000Y-215171000D03*
X170053000Y-215171000D03*
X203327000Y-214503000D03*
X228195933Y-214272067D03*
X252174317Y-212677317D03*
X270002000Y-210312000D03*
X298145200Y-199898000D03*
X304165000Y-206883000D03*
X336677000Y-215163000D03*
X360553000Y-215138000D03*
X367538000Y-215265000D03*
X386715000Y-215265000D03*
X405765000Y-215265000D03*
X424815000Y-215265000D03*
X443865000Y-215265000D03*
X450977000Y-217424000D03*
X115189000Y-158115000D03*
X116078000Y-161036000D03*
X306959000Y-217932000D03*
X298196000Y-221996000D03*
X305435000Y-207264000D03*
X293751000Y-210820000D03*
X296068750Y-209550000D03*
X301713849Y-220611751D03*
X288724990Y-196504000D03*
X289451990Y-197231000D03*
X307390800Y-215480001D03*
X135382000Y-111252000D03*
X302641000Y-202184000D03*
X135382000Y-112252003D03*
X301620448Y-202180166D03*
D15*
X116840000Y-179705000D02*
X116840000Y-178816000D01*
X116840000Y-178816000D02*
X116840000Y-158115000D01*
X117221000Y-117348000D02*
X117221000Y-147955000D01*
X116223999Y-112032999D02*
X117221000Y-113030000D01*
X115824000Y-111633000D02*
X116223999Y-112032999D01*
X117221000Y-109982000D02*
X117221000Y-113030000D01*
X117221000Y-113030000D02*
X117221000Y-117348000D01*
X118908208Y-170942000D02*
X116840000Y-170942000D01*
X118944208Y-170906000D02*
X118908208Y-170942000D01*
X120217000Y-170906000D02*
X118944208Y-170906000D01*
X116840000Y-158115000D02*
X116840000Y-170942000D01*
X116840000Y-170942000D02*
X116840000Y-178516000D01*
X116840000Y-181229000D02*
X116840000Y-180594000D01*
X117983000Y-182372000D02*
X116840000Y-181229000D01*
X116840000Y-179705000D02*
X116840000Y-180594000D01*
X221361000Y-216408000D02*
X225171000Y-220218000D01*
X217043000Y-216408000D02*
X221361000Y-216408000D01*
X213360000Y-220091000D02*
X217043000Y-216408000D01*
X201930000Y-220091000D02*
X213360000Y-220091000D01*
X197739000Y-215900000D02*
X201930000Y-220091000D01*
X116840000Y-214122000D02*
X122682000Y-219964000D01*
X225171000Y-220218000D02*
X259715000Y-220218000D01*
X116840000Y-180594000D02*
X116840000Y-214122000D01*
X259715000Y-220218000D02*
X264414000Y-215519000D01*
X122682000Y-219964000D02*
X188468000Y-219964000D01*
X188468000Y-219964000D02*
X192659000Y-215773000D01*
X192659000Y-215773000D02*
X192786000Y-215900000D01*
X192786000Y-215900000D02*
X197739000Y-215900000D01*
X289306000Y-215519000D02*
X264414000Y-215519000D01*
X292481000Y-212344000D02*
X289306000Y-215519000D01*
X137287000Y-107823000D02*
X131064000Y-107823000D01*
X119380000Y-107823000D02*
X117983000Y-109220000D01*
X131064000Y-107823000D02*
X119380000Y-107823000D01*
X117983000Y-109220000D02*
X117221000Y-109982000D01*
D16*
X120015000Y-132842000D02*
X120015000Y-131251010D01*
X120015000Y-131251010D02*
X120015000Y-113792000D01*
X131921250Y-189992000D02*
X131921250Y-199517000D01*
X131921250Y-199517000D02*
X122396250Y-209042000D01*
X127158750Y-170942000D02*
X127158750Y-185229500D01*
X127158750Y-185229500D02*
X131921250Y-189992000D01*
X124777500Y-151892000D02*
X124777500Y-168560750D01*
X124777500Y-168560750D02*
X127158750Y-170942000D01*
X120015000Y-132842000D02*
X120015000Y-147129500D01*
X120015000Y-147129500D02*
X124777500Y-151892000D01*
X150536788Y-206375000D02*
X148875750Y-206375000D01*
X148875750Y-206375000D02*
X146208750Y-209042000D01*
X162877500Y-189992000D02*
X162877500Y-194034288D01*
X162877500Y-194034288D02*
X150536788Y-206375000D01*
X153352500Y-170942000D02*
X153352500Y-180467000D01*
X153352500Y-180467000D02*
X162877500Y-189992000D01*
X148590000Y-151892000D02*
X148590000Y-166179500D01*
X148590000Y-166179500D02*
X153352500Y-170942000D01*
X139065000Y-132842000D02*
X139065000Y-142367000D01*
X139065000Y-142367000D02*
X148590000Y-151892000D01*
X139065000Y-113792000D02*
X139065000Y-132842000D01*
X146208750Y-209042000D02*
X146208750Y-214980500D01*
X146208750Y-214980500D02*
X146177000Y-215012250D01*
X172402500Y-170942000D02*
X172402500Y-180467000D01*
X172402500Y-180467000D02*
X181927500Y-189992000D01*
X167640000Y-151892000D02*
X167640000Y-166179500D01*
X167640000Y-166179500D02*
X172402500Y-170942000D01*
X158115000Y-132842000D02*
X158115000Y-142367000D01*
X158115000Y-142367000D02*
X167640000Y-151892000D01*
X158115000Y-113792000D02*
X158115000Y-115382990D01*
X158115000Y-115382990D02*
X158115000Y-132842000D01*
X164846000Y-212068288D02*
X164846000Y-215171000D01*
X181927500Y-189992000D02*
X181927500Y-194986788D01*
X181927500Y-194986788D02*
X164846000Y-212068288D01*
X200977500Y-189992000D02*
X200977500Y-193040962D01*
X200977500Y-193040962D02*
X184976462Y-209042000D01*
X184976462Y-209042000D02*
X171612240Y-209042000D01*
X171612240Y-209042000D02*
X170021250Y-209042000D01*
X191452500Y-170942000D02*
X191452500Y-180467000D01*
X191452500Y-180467000D02*
X200977500Y-189992000D01*
X186690000Y-151892000D02*
X186690000Y-166179500D01*
X186690000Y-166179500D02*
X191452500Y-170942000D01*
X177165000Y-132842000D02*
X177165000Y-142367000D01*
X177165000Y-142367000D02*
X186690000Y-151892000D01*
X177165000Y-113792000D02*
X177165000Y-132842000D01*
X170021250Y-209042000D02*
X170021250Y-215139250D01*
X170021250Y-215139250D02*
X170053000Y-215171000D01*
X220027500Y-189992000D02*
X220027500Y-193040962D01*
X220027500Y-193040962D02*
X205151461Y-207917001D01*
X205151461Y-207917001D02*
X204483749Y-207917001D01*
X204483749Y-207917001D02*
X203358750Y-209042000D01*
X210502500Y-170942000D02*
X210502500Y-180467000D01*
X210502500Y-180467000D02*
X220027500Y-189992000D01*
X205740000Y-151892000D02*
X205740000Y-166179500D01*
X205740000Y-166179500D02*
X210502500Y-170942000D01*
X196215000Y-132842000D02*
X196215000Y-142367000D01*
X196215000Y-142367000D02*
X205740000Y-151892000D01*
X196215000Y-113792000D02*
X196215000Y-132842000D01*
X203358750Y-214471250D02*
X203327000Y-214503000D01*
X203358750Y-209042000D02*
X203358750Y-214471250D01*
X229552500Y-170942000D02*
X229552500Y-180467000D01*
X229552500Y-180467000D02*
X239077500Y-189992000D01*
X224790000Y-151892000D02*
X224790000Y-166179500D01*
X224790000Y-166179500D02*
X229552500Y-170942000D01*
X215265000Y-132842000D02*
X215265000Y-142367000D01*
X215265000Y-142367000D02*
X224790000Y-151892000D01*
X215265000Y-113792000D02*
X215265000Y-132842000D01*
X239077500Y-203390500D02*
X228195933Y-214272067D01*
X239077500Y-189992000D02*
X239077500Y-203390500D01*
X258127500Y-189992000D02*
X257002501Y-191116999D01*
X257002501Y-191116999D02*
X254621251Y-191116999D01*
X254621251Y-191116999D02*
X237821249Y-207917001D01*
X237821249Y-207917001D02*
X236696250Y-209042000D01*
X248602500Y-170942000D02*
X248602500Y-180467000D01*
X248602500Y-180467000D02*
X258127500Y-189992000D01*
X243840000Y-151892000D02*
X243840000Y-166179500D01*
X243840000Y-166179500D02*
X248602500Y-170942000D01*
X234315000Y-132842000D02*
X234315000Y-142367000D01*
X234315000Y-142367000D02*
X243840000Y-151892000D01*
X234315000Y-113792000D02*
X234315000Y-115382990D01*
X234315000Y-115382990D02*
X234315000Y-132842000D01*
X236696250Y-211206934D02*
X239392217Y-213902901D01*
X239392217Y-213902901D02*
X250948733Y-213902901D01*
X236696250Y-209042000D02*
X236696250Y-211206934D01*
X250948733Y-213902901D02*
X252174317Y-212677317D01*
X267652500Y-170942000D02*
X267652500Y-180467000D01*
X267652500Y-180467000D02*
X277177500Y-189992000D01*
X262890000Y-151892000D02*
X262890000Y-166179500D01*
X262890000Y-166179500D02*
X267652500Y-170942000D01*
X253365000Y-132842000D02*
X253365000Y-142367000D01*
X253365000Y-142367000D02*
X262890000Y-151892000D01*
X253365000Y-113792000D02*
X253365000Y-132842000D01*
X277177500Y-196858982D02*
X270002000Y-204034482D01*
X277177500Y-189992000D02*
X277177500Y-196858982D01*
X270002000Y-204034482D02*
X270002000Y-210312000D01*
X296227500Y-189992000D02*
X295102501Y-191116999D01*
X295102501Y-191116999D02*
X292721251Y-191116999D01*
X292721251Y-191116999D02*
X275921249Y-207917001D01*
X275921249Y-207917001D02*
X274796250Y-209042000D01*
X286702500Y-170942000D02*
X286702500Y-180467000D01*
X286702500Y-180467000D02*
X296227500Y-189992000D01*
X281940000Y-151892000D02*
X281940000Y-166179500D01*
X281940000Y-166179500D02*
X286702500Y-170942000D01*
X272415000Y-132842000D02*
X272415000Y-142367000D01*
X272415000Y-142367000D02*
X281940000Y-151892000D01*
X272415000Y-113792000D02*
X272415000Y-115956934D01*
X272415000Y-115956934D02*
X272415000Y-132842000D01*
X305752500Y-170942000D02*
X305752500Y-180467000D01*
X305752500Y-180467000D02*
X315277500Y-189992000D01*
X300990000Y-151892000D02*
X300990000Y-166179500D01*
X300990000Y-166179500D02*
X305752500Y-170942000D01*
X291465000Y-132842000D02*
X291465000Y-142367000D01*
X291465000Y-142367000D02*
X300990000Y-151892000D01*
X291465000Y-113792000D02*
X291465000Y-132842000D01*
X309436462Y-189992000D02*
X315277500Y-189992000D01*
X299930461Y-199498001D02*
X309436462Y-189992000D01*
X298545199Y-199498001D02*
X299930461Y-199498001D01*
X298145200Y-199898000D02*
X298545199Y-199498001D01*
X324802500Y-170942000D02*
X324802500Y-180467000D01*
X324802500Y-180467000D02*
X334327500Y-189992000D01*
X320040000Y-151892000D02*
X320040000Y-166179500D01*
X320040000Y-166179500D02*
X324802500Y-170942000D01*
X310515000Y-132842000D02*
X310515000Y-142367000D01*
X310515000Y-142367000D02*
X320040000Y-151892000D01*
X310515000Y-113792000D02*
X310515000Y-132842000D01*
X319300240Y-202638010D02*
X312896250Y-209042000D01*
X324730452Y-202638010D02*
X319300240Y-202638010D01*
X334327500Y-189992000D02*
X334327500Y-193040962D01*
X334327500Y-193040962D02*
X324730452Y-202638010D01*
X304511001Y-206536999D02*
X304165000Y-206883000D01*
X312896250Y-209042000D02*
X310391249Y-206536999D01*
X310391249Y-206536999D02*
X304511001Y-206536999D01*
X343852500Y-170942000D02*
X344977499Y-172066999D01*
X344977499Y-172066999D02*
X344977499Y-200773251D01*
X344977499Y-200773251D02*
X337833749Y-207917001D01*
X337833749Y-207917001D02*
X336708750Y-209042000D01*
X339090000Y-151892000D02*
X339090000Y-166179500D01*
X339090000Y-166179500D02*
X343852500Y-170942000D01*
X329565000Y-132842000D02*
X329565000Y-142367000D01*
X329565000Y-142367000D02*
X339090000Y-151892000D01*
X329565000Y-113792000D02*
X329565000Y-116840962D01*
X329565000Y-116840962D02*
X329565000Y-132842000D01*
X336708750Y-209042000D02*
X336708750Y-215131250D01*
X336708750Y-215131250D02*
X336677000Y-215163000D01*
X358140000Y-151892000D02*
X358140000Y-187610750D01*
X358140000Y-187610750D02*
X360521250Y-189992000D01*
X348615000Y-132842000D02*
X348615000Y-142367000D01*
X348615000Y-142367000D02*
X358140000Y-151892000D01*
X348615000Y-113792000D02*
X348615000Y-115382990D01*
X348615000Y-115382990D02*
X348615000Y-132842000D01*
X360521250Y-189992000D02*
X360521250Y-215106250D01*
X360521250Y-215106250D02*
X360553000Y-215138000D01*
X374808750Y-170942000D02*
X374808750Y-201898250D01*
X374808750Y-201898250D02*
X367665000Y-209042000D01*
X377190000Y-132842000D02*
X377190000Y-168560750D01*
X377190000Y-168560750D02*
X374808750Y-170942000D01*
X367665000Y-113792000D02*
X367665000Y-123317000D01*
X367665000Y-123317000D02*
X377190000Y-132842000D01*
X367665000Y-209042000D02*
X367665000Y-215138000D01*
X367665000Y-215138000D02*
X367538000Y-215265000D01*
X386715000Y-189992000D02*
X386715000Y-209042000D01*
X381952500Y-151892000D02*
X383077499Y-153016999D01*
X383077499Y-153016999D02*
X383077499Y-171081787D01*
X383077499Y-171081787D02*
X386715000Y-174719288D01*
X386715000Y-174719288D02*
X386715000Y-188401010D01*
X386715000Y-188401010D02*
X386715000Y-189992000D01*
X386715000Y-113792000D02*
X386715000Y-115382990D01*
X386715000Y-115382990D02*
X387282001Y-115949991D01*
X387282001Y-115949991D02*
X387282001Y-146562499D01*
X387282001Y-146562499D02*
X383077499Y-150767001D01*
X383077499Y-150767001D02*
X381952500Y-151892000D01*
X386715000Y-209042000D02*
X386715000Y-215265000D01*
X405765000Y-113792000D02*
X405765000Y-209042000D01*
X405765000Y-209042000D02*
X405765000Y-215265000D01*
X424815000Y-113792000D02*
X424815000Y-209042000D01*
X424815000Y-209042000D02*
X424815000Y-215265000D01*
X443865000Y-113792000D02*
X443865000Y-173990962D01*
X443865000Y-173990962D02*
X443865000Y-209042000D01*
X443865000Y-209042000D02*
X443865000Y-215265000D01*
X469265000Y-160147000D02*
X469265000Y-198247000D01*
X462915000Y-132842000D02*
X462915000Y-148590000D01*
X469265000Y-160147000D02*
X469265000Y-158556010D01*
X469265000Y-158556010D02*
X462915000Y-152206010D01*
X462915000Y-152206010D02*
X462915000Y-148590000D01*
X462915000Y-113792000D02*
X462915000Y-132842000D01*
X469265000Y-198247000D02*
X469265000Y-212217000D01*
X469265000Y-212217000D02*
X469265000Y-213106000D01*
X469265000Y-213106000D02*
X462788000Y-219583000D01*
X462788000Y-219583000D02*
X453136000Y-219583000D01*
X453136000Y-219583000D02*
X450977000Y-217424000D01*
D15*
X115189000Y-158115000D02*
X115189000Y-158680685D01*
X115189000Y-160147000D02*
X115189000Y-159639000D01*
X116078000Y-161036000D02*
X115189000Y-160147000D01*
X115189000Y-158680685D02*
X115189000Y-159639000D01*
X115189000Y-159639000D02*
X115189000Y-169037000D01*
X115189000Y-171792000D02*
X115189000Y-170561000D01*
X113717000Y-173264000D02*
X115189000Y-171792000D01*
X115189000Y-169037000D02*
X115189000Y-170561000D01*
X115189000Y-187533000D02*
X115189000Y-170561000D01*
X115212000Y-187556000D02*
X115189000Y-187533000D01*
X115212000Y-213207908D02*
X115212000Y-187556000D01*
X122472901Y-220468810D02*
X115212000Y-213207908D01*
X192741098Y-216404810D02*
X188677099Y-220468810D01*
X197529902Y-216404810D02*
X192741098Y-216404810D01*
X201720901Y-220595810D02*
X197529902Y-216404810D01*
X221151902Y-216912810D02*
X217252098Y-216912810D01*
X264623098Y-216023810D02*
X259924099Y-220722810D01*
X259924099Y-220722810D02*
X224961901Y-220722810D01*
X217252098Y-216912810D02*
X213569099Y-220595810D01*
X224961901Y-220722810D02*
X221151902Y-216912810D01*
X188677099Y-220468810D02*
X122472901Y-220468810D01*
X213569099Y-220595810D02*
X201720901Y-220595810D01*
X293751000Y-217551000D02*
X298196000Y-221996000D01*
X293751000Y-211385685D02*
X293751000Y-210820000D01*
X293751000Y-212187554D02*
X293751000Y-211385685D01*
X289914744Y-216023810D02*
X293751000Y-212187554D01*
X264623098Y-216023810D02*
X289914744Y-216023810D01*
X292223810Y-216023810D02*
X298196000Y-221996000D01*
X289914744Y-216023810D02*
X292223810Y-216023810D01*
X304450750Y-217932000D02*
X306959000Y-217932000D01*
X296068750Y-209550000D02*
X304450750Y-217932000D01*
X302895000Y-221996000D02*
X298196000Y-221996000D01*
X305435000Y-207264000D02*
X308143201Y-209972201D01*
X308143201Y-209972201D02*
X308143201Y-216747799D01*
X308143201Y-216747799D02*
X308165411Y-216770009D01*
X308165411Y-216770009D02*
X308165410Y-218479540D01*
X308165410Y-218479540D02*
X304648950Y-221996000D01*
X304648950Y-221996000D02*
X302895000Y-221996000D01*
D16*
X301713849Y-220611751D02*
X297605501Y-220611751D01*
X297605501Y-220611751D02*
X294481250Y-217487500D01*
X294481250Y-217487500D02*
X294481250Y-204057250D01*
X294481250Y-204057250D02*
X288724990Y-198300990D01*
X288724990Y-198300990D02*
X288724990Y-196504000D01*
X307390800Y-216045686D02*
X307390800Y-215480001D01*
X307390800Y-216673386D02*
X307390800Y-216045686D01*
X307686001Y-216968587D02*
X307390800Y-216673386D01*
X289451990Y-197231000D02*
X289451990Y-198385924D01*
X289451990Y-198385924D02*
X294935260Y-203869193D01*
X294935260Y-203869193D02*
X294935260Y-217211260D01*
X294935260Y-217211260D02*
X297592750Y-219868750D01*
X297592750Y-219868750D02*
X306098212Y-219868750D01*
X307686001Y-218280961D02*
X307686001Y-216968587D01*
X306098212Y-219868750D02*
X307686001Y-218280961D01*
X329565000Y-192722500D02*
X329565000Y-195897500D01*
X329565000Y-192722500D02*
X329565000Y-193548000D01*
X329565000Y-195897500D02*
X325437500Y-200025000D01*
X304800000Y-200025000D02*
X302641000Y-202184000D01*
X325437500Y-200025000D02*
X304800000Y-200025000D01*
X329565000Y-189230000D02*
X329565000Y-192722500D01*
X320675000Y-180340000D02*
X329565000Y-189230000D01*
X320675000Y-169799000D02*
X320675000Y-180340000D01*
X315976000Y-152019000D02*
X315976000Y-165100000D01*
X305689000Y-141732000D02*
X315976000Y-152019000D01*
X305689000Y-113919000D02*
X305689000Y-141732000D01*
X135382000Y-111252000D02*
X138616962Y-111252000D01*
X315976000Y-165100000D02*
X320675000Y-169799000D01*
X138616962Y-111252000D02*
X141603230Y-108265730D01*
X141603230Y-108265730D02*
X141603233Y-108265730D01*
X141603233Y-108265730D02*
X142372973Y-107495990D01*
X142372973Y-107495990D02*
X299265991Y-107495990D01*
X299265991Y-107495990D02*
X305689000Y-113919000D01*
X301620448Y-202128590D02*
X301620448Y-202180166D01*
X301620448Y-201614481D02*
X301620448Y-202180166D01*
X299077934Y-107950000D02*
X305234990Y-114107056D01*
X305234990Y-141920057D02*
X315521990Y-152207057D01*
X142561030Y-107950000D02*
X299077934Y-107950000D01*
X138805019Y-111706010D02*
X142561030Y-107950000D01*
X320220990Y-169987057D02*
X320220990Y-180528057D01*
X136003952Y-111706010D02*
X138805019Y-111706010D01*
X135382000Y-112252003D02*
X135457959Y-112252003D01*
X135457959Y-112252003D02*
X136003952Y-111706010D01*
X305234990Y-114107056D02*
X305234990Y-141920057D01*
X315521990Y-152207057D02*
X315521990Y-165288057D01*
X325437500Y-199231250D02*
X304003679Y-199231250D01*
X315521990Y-165288057D02*
X320220990Y-169987057D01*
X320220990Y-180528057D02*
X329110990Y-189418057D01*
X329110990Y-189418057D02*
X329110990Y-195557760D01*
X329110990Y-195557760D02*
X325437500Y-199231250D01*
X304003679Y-199231250D02*
X301620448Y-201614481D01*
X129823750Y-102206000D02*
X129823750Y-103221250D01*
X129823750Y-103221250D02*
X129823750Y-105332000D01*
X138463750Y-102206000D02*
X138463750Y-103157750D01*
X138463750Y-103157750D02*
X138463750Y-105332000D01*
X129823750Y-103221250D02*
X138400250Y-103221250D01*
X138400250Y-103221250D02*
X138463750Y-103157750D01*
X129823750Y-101152000D02*
X129823750Y-102206000D01*
X138463750Y-101152000D02*
X138463750Y-102206000D01*
M02*
