G04 #@! TF.GenerationSoftware,KiCad,Pcbnew,(5.1.4)-1*
G04 #@! TF.CreationDate,2020-08-05T23:23:59-07:00*
G04 #@! TF.ProjectId,v1PCB,76315043-422e-46b6-9963-61645f706362,rev?*
G04 #@! TF.SameCoordinates,Original*
G04 #@! TF.FileFunction,Profile,NP*
%FSLAX46Y46*%
G04 Gerber Fmt 4.6, Leading zero omitted, Abs format (unit mm)*
G04 Created by KiCad (PCBNEW (5.1.4)-1) date 2020-08-05 23:23:59*
%MOMM*%
%LPD*%
G04 APERTURE LIST*
%ADD10C,0.200000*%
G04 APERTURE END LIST*
D10*
X111918750Y-220662500D02*
X111918750Y-108743750D01*
X479425000Y-220662500D02*
X479425000Y-108743750D01*
X161231528Y-224518766D02*
X115887500Y-224631250D01*
X197447150Y-224504743D02*
X167385999Y-224536001D01*
X290703000Y-224536001D02*
X207390999Y-224536001D01*
X382397001Y-224536001D02*
X293496999Y-224536001D01*
X421603387Y-224561563D02*
X392302999Y-224536001D01*
X427735999Y-224663001D02*
X475456250Y-224631250D01*
X421603387Y-224561563D02*
G75*
G02X427735999Y-224663001I3052863J-863437D01*
G01*
X382397001Y-224536001D02*
G75*
G02X392302999Y-224536001I4952999J-4063999D01*
G01*
X290703000Y-224536001D02*
G75*
G02X293496999Y-224536001I1397000J-2476499D01*
G01*
X197447150Y-224504743D02*
G75*
G02X207390999Y-224536001I4959100J-4095257D01*
G01*
X161231529Y-224518766D02*
G75*
G02X167385999Y-224536001I3074721J-906234D01*
G01*
X479425000Y-220662500D02*
G75*
G02X475456250Y-224631250I-3968750J0D01*
G01*
X115887500Y-224631250D02*
G75*
G02X111918750Y-220662500I0J3968750D01*
G01*
X125412500Y-105568750D02*
X115093750Y-105568750D01*
X111918750Y-108743750D02*
G75*
G02X115093750Y-105568750I3175000J0D01*
G01*
X476250000Y-105568750D02*
G75*
G02X479425000Y-108743750I0J-3175000D01*
G01*
X476250000Y-105568750D02*
X142875000Y-105568750D01*
X141287500Y-101600000D02*
X141287500Y-103981250D01*
X128587500Y-100012500D02*
X139700000Y-100012500D01*
X127000000Y-101600000D02*
X127000000Y-103981250D01*
X127000000Y-101600000D02*
G75*
G02X128587500Y-100012500I1587500J0D01*
G01*
X139700000Y-100012500D02*
G75*
G02X141287500Y-101600000I0J-1587500D01*
G01*
X142875000Y-105568750D02*
G75*
G02X141287500Y-103981250I0J1587500D01*
G01*
X127000000Y-103981250D02*
G75*
G02X125412500Y-105568750I-1587500J0D01*
G01*
M02*
