G04 #@! TF.GenerationSoftware,KiCad,Pcbnew,(5.1.4)-1*
G04 #@! TF.CreationDate,2020-07-23T17:22:27-07:00*
G04 #@! TF.ProjectId,v1PCB,76315043-422e-46b6-9963-61645f706362,rev?*
G04 #@! TF.SameCoordinates,Original*
G04 #@! TF.FileFunction,Soldermask,Bot*
G04 #@! TF.FilePolarity,Negative*
%FSLAX46Y46*%
G04 Gerber Fmt 4.6, Leading zero omitted, Abs format (unit mm)*
G04 Created by KiCad (PCBNEW (5.1.4)-1) date 2020-07-23 17:22:27*
%MOMM*%
%LPD*%
G04 APERTURE LIST*
%ADD10C,2.250000*%
%ADD11C,3.987800*%
%ADD12C,1.750000*%
%ADD13C,3.048000*%
%ADD14R,0.600000X1.450000*%
%ADD15R,0.300000X1.450000*%
%ADD16C,0.650000*%
%ADD17O,1.000000X2.100000*%
%ADD18O,1.000000X1.600000*%
%ADD19C,0.020000*%
%ADD20C,0.590000*%
%ADD21R,1.200000X0.900000*%
%ADD22C,0.975000*%
%ADD23C,1.800000*%
%ADD24C,1.250000*%
%ADD25C,0.875000*%
%ADD26R,0.800000X0.900000*%
%ADD27C,0.250000*%
%ADD28C,5.600000*%
G04 APERTURE END LIST*
D10*
X145415000Y-111252000D03*
D11*
X142875000Y-116332000D03*
D10*
X139065000Y-113792000D03*
D12*
X137795000Y-116332000D03*
X147955000Y-116332000D03*
D10*
X138271250Y-187452000D03*
D11*
X135731250Y-192532000D03*
D10*
X131921250Y-189992000D03*
D12*
X130651250Y-192532000D03*
X140811250Y-192532000D03*
D13*
X123825000Y-185547000D03*
X147637500Y-185547000D03*
D11*
X123825000Y-200787000D03*
X147637500Y-200787000D03*
D10*
X281146250Y-206502000D03*
X274796250Y-209042000D03*
D11*
X278606250Y-211582000D03*
D12*
X273526250Y-211582000D03*
X283686250Y-211582000D03*
D13*
X259556250Y-204597000D03*
X297656250Y-204597000D03*
D11*
X259556250Y-219837000D03*
X297656250Y-219837000D03*
D10*
X471805000Y-204597000D03*
D11*
X466725000Y-202057000D03*
D10*
X469265000Y-198247000D03*
D12*
X466725000Y-196977000D03*
X466725000Y-207137000D03*
D13*
X473710000Y-190150750D03*
X473710000Y-213963250D03*
D11*
X458470000Y-190150750D03*
X458470000Y-213963250D03*
D10*
X471805000Y-166497000D03*
D11*
X466725000Y-163957000D03*
D10*
X469265000Y-160147000D03*
D12*
X466725000Y-158877000D03*
X466725000Y-169037000D03*
D13*
X473710000Y-152050750D03*
X473710000Y-175863250D03*
D11*
X458470000Y-152050750D03*
X458470000Y-175863250D03*
D10*
X209708750Y-206502000D03*
D11*
X207168750Y-211582000D03*
D10*
X203358750Y-209042000D03*
D12*
X202088750Y-211582000D03*
X212248750Y-211582000D03*
D13*
X195262500Y-204597000D03*
X219075000Y-204597000D03*
D11*
X195262500Y-219837000D03*
X219075000Y-219837000D03*
D10*
X366871250Y-187452000D03*
D11*
X364331250Y-192532000D03*
D10*
X360521250Y-189992000D03*
D12*
X359251250Y-192532000D03*
X369411250Y-192532000D03*
D10*
X381158750Y-168402000D03*
D11*
X378618750Y-173482000D03*
D10*
X374808750Y-170942000D03*
D12*
X373538750Y-173482000D03*
X383698750Y-173482000D03*
D13*
X366712500Y-166497000D03*
X390525000Y-166497000D03*
D11*
X366712500Y-181737000D03*
X390525000Y-181737000D03*
D10*
X383540000Y-130302000D03*
D11*
X381000000Y-135382000D03*
D10*
X377190000Y-132842000D03*
D12*
X375920000Y-135382000D03*
X386080000Y-135382000D03*
D13*
X369093750Y-128397000D03*
X392906250Y-128397000D03*
D11*
X369093750Y-143637000D03*
X392906250Y-143637000D03*
D10*
X321627500Y-187452000D03*
D11*
X319087500Y-192532000D03*
D10*
X315277500Y-189992000D03*
D12*
X314007500Y-192532000D03*
X324167500Y-192532000D03*
D14*
X137368750Y-106247000D03*
X130918750Y-106247000D03*
X136593750Y-106247000D03*
X131693750Y-106247000D03*
D15*
X132393750Y-106247000D03*
X135893750Y-106247000D03*
X132893750Y-106247000D03*
X135393750Y-106247000D03*
X133393750Y-106247000D03*
X134893750Y-106247000D03*
X134393750Y-106247000D03*
X133893750Y-106247000D03*
D16*
X137033750Y-104802000D03*
X131253750Y-104802000D03*
D17*
X129823750Y-105332000D03*
X138463750Y-105332000D03*
D18*
X129823750Y-101152000D03*
X138463750Y-101152000D03*
D10*
X126365000Y-111252000D03*
D11*
X123825000Y-116332000D03*
D10*
X120015000Y-113792000D03*
D12*
X118745000Y-116332000D03*
X128905000Y-116332000D03*
D10*
X302577500Y-187452000D03*
D11*
X300037500Y-192532000D03*
D10*
X296227500Y-189992000D03*
D12*
X294957500Y-192532000D03*
X305117500Y-192532000D03*
D10*
X169227500Y-187452000D03*
D11*
X166687500Y-192532000D03*
D10*
X162877500Y-189992000D03*
D12*
X161607500Y-192532000D03*
X171767500Y-192532000D03*
D19*
G36*
X116661458Y-156081210D02*
G01*
X116675776Y-156083334D01*
X116689817Y-156086851D01*
X116703446Y-156091728D01*
X116716531Y-156097917D01*
X116728947Y-156105358D01*
X116740573Y-156113981D01*
X116751298Y-156123702D01*
X116761019Y-156134427D01*
X116769642Y-156146053D01*
X116777083Y-156158469D01*
X116783272Y-156171554D01*
X116788149Y-156185183D01*
X116791666Y-156199224D01*
X116793790Y-156213542D01*
X116794500Y-156228000D01*
X116794500Y-156573000D01*
X116793790Y-156587458D01*
X116791666Y-156601776D01*
X116788149Y-156615817D01*
X116783272Y-156629446D01*
X116777083Y-156642531D01*
X116769642Y-156654947D01*
X116761019Y-156666573D01*
X116751298Y-156677298D01*
X116740573Y-156687019D01*
X116728947Y-156695642D01*
X116716531Y-156703083D01*
X116703446Y-156709272D01*
X116689817Y-156714149D01*
X116675776Y-156717666D01*
X116661458Y-156719790D01*
X116647000Y-156720500D01*
X116352000Y-156720500D01*
X116337542Y-156719790D01*
X116323224Y-156717666D01*
X116309183Y-156714149D01*
X116295554Y-156709272D01*
X116282469Y-156703083D01*
X116270053Y-156695642D01*
X116258427Y-156687019D01*
X116247702Y-156677298D01*
X116237981Y-156666573D01*
X116229358Y-156654947D01*
X116221917Y-156642531D01*
X116215728Y-156629446D01*
X116210851Y-156615817D01*
X116207334Y-156601776D01*
X116205210Y-156587458D01*
X116204500Y-156573000D01*
X116204500Y-156228000D01*
X116205210Y-156213542D01*
X116207334Y-156199224D01*
X116210851Y-156185183D01*
X116215728Y-156171554D01*
X116221917Y-156158469D01*
X116229358Y-156146053D01*
X116237981Y-156134427D01*
X116247702Y-156123702D01*
X116258427Y-156113981D01*
X116270053Y-156105358D01*
X116282469Y-156097917D01*
X116295554Y-156091728D01*
X116309183Y-156086851D01*
X116323224Y-156083334D01*
X116337542Y-156081210D01*
X116352000Y-156080500D01*
X116647000Y-156080500D01*
X116661458Y-156081210D01*
X116661458Y-156081210D01*
G37*
D20*
X116499500Y-156400500D03*
D19*
G36*
X115691458Y-156081210D02*
G01*
X115705776Y-156083334D01*
X115719817Y-156086851D01*
X115733446Y-156091728D01*
X115746531Y-156097917D01*
X115758947Y-156105358D01*
X115770573Y-156113981D01*
X115781298Y-156123702D01*
X115791019Y-156134427D01*
X115799642Y-156146053D01*
X115807083Y-156158469D01*
X115813272Y-156171554D01*
X115818149Y-156185183D01*
X115821666Y-156199224D01*
X115823790Y-156213542D01*
X115824500Y-156228000D01*
X115824500Y-156573000D01*
X115823790Y-156587458D01*
X115821666Y-156601776D01*
X115818149Y-156615817D01*
X115813272Y-156629446D01*
X115807083Y-156642531D01*
X115799642Y-156654947D01*
X115791019Y-156666573D01*
X115781298Y-156677298D01*
X115770573Y-156687019D01*
X115758947Y-156695642D01*
X115746531Y-156703083D01*
X115733446Y-156709272D01*
X115719817Y-156714149D01*
X115705776Y-156717666D01*
X115691458Y-156719790D01*
X115677000Y-156720500D01*
X115382000Y-156720500D01*
X115367542Y-156719790D01*
X115353224Y-156717666D01*
X115339183Y-156714149D01*
X115325554Y-156709272D01*
X115312469Y-156703083D01*
X115300053Y-156695642D01*
X115288427Y-156687019D01*
X115277702Y-156677298D01*
X115267981Y-156666573D01*
X115259358Y-156654947D01*
X115251917Y-156642531D01*
X115245728Y-156629446D01*
X115240851Y-156615817D01*
X115237334Y-156601776D01*
X115235210Y-156587458D01*
X115234500Y-156573000D01*
X115234500Y-156228000D01*
X115235210Y-156213542D01*
X115237334Y-156199224D01*
X115240851Y-156185183D01*
X115245728Y-156171554D01*
X115251917Y-156158469D01*
X115259358Y-156146053D01*
X115267981Y-156134427D01*
X115277702Y-156123702D01*
X115288427Y-156113981D01*
X115300053Y-156105358D01*
X115312469Y-156097917D01*
X115325554Y-156091728D01*
X115339183Y-156086851D01*
X115353224Y-156083334D01*
X115367542Y-156081210D01*
X115382000Y-156080500D01*
X115677000Y-156080500D01*
X115691458Y-156081210D01*
X115691458Y-156081210D01*
G37*
D20*
X115529500Y-156400500D03*
D10*
X240665000Y-111252000D03*
D11*
X238125000Y-116332000D03*
D10*
X234315000Y-113792000D03*
D12*
X233045000Y-116332000D03*
X243205000Y-116332000D03*
D10*
X183515000Y-111252000D03*
D11*
X180975000Y-116332000D03*
D10*
X177165000Y-113792000D03*
D12*
X175895000Y-116332000D03*
X186055000Y-116332000D03*
D10*
X393065000Y-187452000D03*
D11*
X390525000Y-192532000D03*
D10*
X386715000Y-189992000D03*
D12*
X385445000Y-192532000D03*
X395605000Y-192532000D03*
D10*
X173990000Y-149352000D03*
D11*
X171450000Y-154432000D03*
D10*
X167640000Y-151892000D03*
D12*
X166370000Y-154432000D03*
X176530000Y-154432000D03*
D10*
X412115000Y-149352000D03*
D11*
X409575000Y-154432000D03*
D10*
X405765000Y-151892000D03*
D12*
X404495000Y-154432000D03*
X414655000Y-154432000D03*
D21*
X132350000Y-115182000D03*
X132350000Y-118482000D03*
D19*
G36*
X136363142Y-108140174D02*
G01*
X136386803Y-108143684D01*
X136410007Y-108149496D01*
X136432529Y-108157554D01*
X136454153Y-108167782D01*
X136474670Y-108180079D01*
X136493883Y-108194329D01*
X136511607Y-108210393D01*
X136527671Y-108228117D01*
X136541921Y-108247330D01*
X136554218Y-108267847D01*
X136564446Y-108289471D01*
X136572504Y-108311993D01*
X136578316Y-108335197D01*
X136581826Y-108358858D01*
X136583000Y-108382750D01*
X136583000Y-109295250D01*
X136581826Y-109319142D01*
X136578316Y-109342803D01*
X136572504Y-109366007D01*
X136564446Y-109388529D01*
X136554218Y-109410153D01*
X136541921Y-109430670D01*
X136527671Y-109449883D01*
X136511607Y-109467607D01*
X136493883Y-109483671D01*
X136474670Y-109497921D01*
X136454153Y-109510218D01*
X136432529Y-109520446D01*
X136410007Y-109528504D01*
X136386803Y-109534316D01*
X136363142Y-109537826D01*
X136339250Y-109539000D01*
X135851750Y-109539000D01*
X135827858Y-109537826D01*
X135804197Y-109534316D01*
X135780993Y-109528504D01*
X135758471Y-109520446D01*
X135736847Y-109510218D01*
X135716330Y-109497921D01*
X135697117Y-109483671D01*
X135679393Y-109467607D01*
X135663329Y-109449883D01*
X135649079Y-109430670D01*
X135636782Y-109410153D01*
X135626554Y-109388529D01*
X135618496Y-109366007D01*
X135612684Y-109342803D01*
X135609174Y-109319142D01*
X135608000Y-109295250D01*
X135608000Y-108382750D01*
X135609174Y-108358858D01*
X135612684Y-108335197D01*
X135618496Y-108311993D01*
X135626554Y-108289471D01*
X135636782Y-108267847D01*
X135649079Y-108247330D01*
X135663329Y-108228117D01*
X135679393Y-108210393D01*
X135697117Y-108194329D01*
X135716330Y-108180079D01*
X135736847Y-108167782D01*
X135758471Y-108157554D01*
X135780993Y-108149496D01*
X135804197Y-108143684D01*
X135827858Y-108140174D01*
X135851750Y-108139000D01*
X136339250Y-108139000D01*
X136363142Y-108140174D01*
X136363142Y-108140174D01*
G37*
D22*
X136095500Y-108839000D03*
D19*
G36*
X138238142Y-108140174D02*
G01*
X138261803Y-108143684D01*
X138285007Y-108149496D01*
X138307529Y-108157554D01*
X138329153Y-108167782D01*
X138349670Y-108180079D01*
X138368883Y-108194329D01*
X138386607Y-108210393D01*
X138402671Y-108228117D01*
X138416921Y-108247330D01*
X138429218Y-108267847D01*
X138439446Y-108289471D01*
X138447504Y-108311993D01*
X138453316Y-108335197D01*
X138456826Y-108358858D01*
X138458000Y-108382750D01*
X138458000Y-109295250D01*
X138456826Y-109319142D01*
X138453316Y-109342803D01*
X138447504Y-109366007D01*
X138439446Y-109388529D01*
X138429218Y-109410153D01*
X138416921Y-109430670D01*
X138402671Y-109449883D01*
X138386607Y-109467607D01*
X138368883Y-109483671D01*
X138349670Y-109497921D01*
X138329153Y-109510218D01*
X138307529Y-109520446D01*
X138285007Y-109528504D01*
X138261803Y-109534316D01*
X138238142Y-109537826D01*
X138214250Y-109539000D01*
X137726750Y-109539000D01*
X137702858Y-109537826D01*
X137679197Y-109534316D01*
X137655993Y-109528504D01*
X137633471Y-109520446D01*
X137611847Y-109510218D01*
X137591330Y-109497921D01*
X137572117Y-109483671D01*
X137554393Y-109467607D01*
X137538329Y-109449883D01*
X137524079Y-109430670D01*
X137511782Y-109410153D01*
X137501554Y-109388529D01*
X137493496Y-109366007D01*
X137487684Y-109342803D01*
X137484174Y-109319142D01*
X137483000Y-109295250D01*
X137483000Y-108382750D01*
X137484174Y-108358858D01*
X137487684Y-108335197D01*
X137493496Y-108311993D01*
X137501554Y-108289471D01*
X137511782Y-108267847D01*
X137524079Y-108247330D01*
X137538329Y-108228117D01*
X137554393Y-108210393D01*
X137572117Y-108194329D01*
X137591330Y-108180079D01*
X137611847Y-108167782D01*
X137633471Y-108157554D01*
X137655993Y-108149496D01*
X137679197Y-108143684D01*
X137702858Y-108140174D01*
X137726750Y-108139000D01*
X138214250Y-108139000D01*
X138238142Y-108140174D01*
X138238142Y-108140174D01*
G37*
D22*
X137970500Y-108839000D03*
D19*
G36*
X131380142Y-110426174D02*
G01*
X131403803Y-110429684D01*
X131427007Y-110435496D01*
X131449529Y-110443554D01*
X131471153Y-110453782D01*
X131491670Y-110466079D01*
X131510883Y-110480329D01*
X131528607Y-110496393D01*
X131544671Y-110514117D01*
X131558921Y-110533330D01*
X131571218Y-110553847D01*
X131581446Y-110575471D01*
X131589504Y-110597993D01*
X131595316Y-110621197D01*
X131598826Y-110644858D01*
X131600000Y-110668750D01*
X131600000Y-111581250D01*
X131598826Y-111605142D01*
X131595316Y-111628803D01*
X131589504Y-111652007D01*
X131581446Y-111674529D01*
X131571218Y-111696153D01*
X131558921Y-111716670D01*
X131544671Y-111735883D01*
X131528607Y-111753607D01*
X131510883Y-111769671D01*
X131491670Y-111783921D01*
X131471153Y-111796218D01*
X131449529Y-111806446D01*
X131427007Y-111814504D01*
X131403803Y-111820316D01*
X131380142Y-111823826D01*
X131356250Y-111825000D01*
X130868750Y-111825000D01*
X130844858Y-111823826D01*
X130821197Y-111820316D01*
X130797993Y-111814504D01*
X130775471Y-111806446D01*
X130753847Y-111796218D01*
X130733330Y-111783921D01*
X130714117Y-111769671D01*
X130696393Y-111753607D01*
X130680329Y-111735883D01*
X130666079Y-111716670D01*
X130653782Y-111696153D01*
X130643554Y-111674529D01*
X130635496Y-111652007D01*
X130629684Y-111628803D01*
X130626174Y-111605142D01*
X130625000Y-111581250D01*
X130625000Y-110668750D01*
X130626174Y-110644858D01*
X130629684Y-110621197D01*
X130635496Y-110597993D01*
X130643554Y-110575471D01*
X130653782Y-110553847D01*
X130666079Y-110533330D01*
X130680329Y-110514117D01*
X130696393Y-110496393D01*
X130714117Y-110480329D01*
X130733330Y-110466079D01*
X130753847Y-110453782D01*
X130775471Y-110443554D01*
X130797993Y-110435496D01*
X130821197Y-110429684D01*
X130844858Y-110426174D01*
X130868750Y-110425000D01*
X131356250Y-110425000D01*
X131380142Y-110426174D01*
X131380142Y-110426174D01*
G37*
D22*
X131112500Y-111125000D03*
D19*
G36*
X129505142Y-110426174D02*
G01*
X129528803Y-110429684D01*
X129552007Y-110435496D01*
X129574529Y-110443554D01*
X129596153Y-110453782D01*
X129616670Y-110466079D01*
X129635883Y-110480329D01*
X129653607Y-110496393D01*
X129669671Y-110514117D01*
X129683921Y-110533330D01*
X129696218Y-110553847D01*
X129706446Y-110575471D01*
X129714504Y-110597993D01*
X129720316Y-110621197D01*
X129723826Y-110644858D01*
X129725000Y-110668750D01*
X129725000Y-111581250D01*
X129723826Y-111605142D01*
X129720316Y-111628803D01*
X129714504Y-111652007D01*
X129706446Y-111674529D01*
X129696218Y-111696153D01*
X129683921Y-111716670D01*
X129669671Y-111735883D01*
X129653607Y-111753607D01*
X129635883Y-111769671D01*
X129616670Y-111783921D01*
X129596153Y-111796218D01*
X129574529Y-111806446D01*
X129552007Y-111814504D01*
X129528803Y-111820316D01*
X129505142Y-111823826D01*
X129481250Y-111825000D01*
X128993750Y-111825000D01*
X128969858Y-111823826D01*
X128946197Y-111820316D01*
X128922993Y-111814504D01*
X128900471Y-111806446D01*
X128878847Y-111796218D01*
X128858330Y-111783921D01*
X128839117Y-111769671D01*
X128821393Y-111753607D01*
X128805329Y-111735883D01*
X128791079Y-111716670D01*
X128778782Y-111696153D01*
X128768554Y-111674529D01*
X128760496Y-111652007D01*
X128754684Y-111628803D01*
X128751174Y-111605142D01*
X128750000Y-111581250D01*
X128750000Y-110668750D01*
X128751174Y-110644858D01*
X128754684Y-110621197D01*
X128760496Y-110597993D01*
X128768554Y-110575471D01*
X128778782Y-110553847D01*
X128791079Y-110533330D01*
X128805329Y-110514117D01*
X128821393Y-110496393D01*
X128839117Y-110480329D01*
X128858330Y-110466079D01*
X128878847Y-110453782D01*
X128900471Y-110443554D01*
X128922993Y-110435496D01*
X128946197Y-110429684D01*
X128969858Y-110426174D01*
X128993750Y-110425000D01*
X129481250Y-110425000D01*
X129505142Y-110426174D01*
X129505142Y-110426174D01*
G37*
D22*
X129237500Y-111125000D03*
D23*
X112701000Y-189575000D03*
X119201000Y-185075000D03*
X112701000Y-185075000D03*
X119201000Y-189575000D03*
D19*
G36*
X122617142Y-103187174D02*
G01*
X122640803Y-103190684D01*
X122664007Y-103196496D01*
X122686529Y-103204554D01*
X122708153Y-103214782D01*
X122728670Y-103227079D01*
X122747883Y-103241329D01*
X122765607Y-103257393D01*
X122781671Y-103275117D01*
X122795921Y-103294330D01*
X122808218Y-103314847D01*
X122818446Y-103336471D01*
X122826504Y-103358993D01*
X122832316Y-103382197D01*
X122835826Y-103405858D01*
X122837000Y-103429750D01*
X122837000Y-104342250D01*
X122835826Y-104366142D01*
X122832316Y-104389803D01*
X122826504Y-104413007D01*
X122818446Y-104435529D01*
X122808218Y-104457153D01*
X122795921Y-104477670D01*
X122781671Y-104496883D01*
X122765607Y-104514607D01*
X122747883Y-104530671D01*
X122728670Y-104544921D01*
X122708153Y-104557218D01*
X122686529Y-104567446D01*
X122664007Y-104575504D01*
X122640803Y-104581316D01*
X122617142Y-104584826D01*
X122593250Y-104586000D01*
X122105750Y-104586000D01*
X122081858Y-104584826D01*
X122058197Y-104581316D01*
X122034993Y-104575504D01*
X122012471Y-104567446D01*
X121990847Y-104557218D01*
X121970330Y-104544921D01*
X121951117Y-104530671D01*
X121933393Y-104514607D01*
X121917329Y-104496883D01*
X121903079Y-104477670D01*
X121890782Y-104457153D01*
X121880554Y-104435529D01*
X121872496Y-104413007D01*
X121866684Y-104389803D01*
X121863174Y-104366142D01*
X121862000Y-104342250D01*
X121862000Y-103429750D01*
X121863174Y-103405858D01*
X121866684Y-103382197D01*
X121872496Y-103358993D01*
X121880554Y-103336471D01*
X121890782Y-103314847D01*
X121903079Y-103294330D01*
X121917329Y-103275117D01*
X121933393Y-103257393D01*
X121951117Y-103241329D01*
X121970330Y-103227079D01*
X121990847Y-103214782D01*
X122012471Y-103204554D01*
X122034993Y-103196496D01*
X122058197Y-103190684D01*
X122081858Y-103187174D01*
X122105750Y-103186000D01*
X122593250Y-103186000D01*
X122617142Y-103187174D01*
X122617142Y-103187174D01*
G37*
D22*
X122349500Y-103886000D03*
D19*
G36*
X120742142Y-103187174D02*
G01*
X120765803Y-103190684D01*
X120789007Y-103196496D01*
X120811529Y-103204554D01*
X120833153Y-103214782D01*
X120853670Y-103227079D01*
X120872883Y-103241329D01*
X120890607Y-103257393D01*
X120906671Y-103275117D01*
X120920921Y-103294330D01*
X120933218Y-103314847D01*
X120943446Y-103336471D01*
X120951504Y-103358993D01*
X120957316Y-103382197D01*
X120960826Y-103405858D01*
X120962000Y-103429750D01*
X120962000Y-104342250D01*
X120960826Y-104366142D01*
X120957316Y-104389803D01*
X120951504Y-104413007D01*
X120943446Y-104435529D01*
X120933218Y-104457153D01*
X120920921Y-104477670D01*
X120906671Y-104496883D01*
X120890607Y-104514607D01*
X120872883Y-104530671D01*
X120853670Y-104544921D01*
X120833153Y-104557218D01*
X120811529Y-104567446D01*
X120789007Y-104575504D01*
X120765803Y-104581316D01*
X120742142Y-104584826D01*
X120718250Y-104586000D01*
X120230750Y-104586000D01*
X120206858Y-104584826D01*
X120183197Y-104581316D01*
X120159993Y-104575504D01*
X120137471Y-104567446D01*
X120115847Y-104557218D01*
X120095330Y-104544921D01*
X120076117Y-104530671D01*
X120058393Y-104514607D01*
X120042329Y-104496883D01*
X120028079Y-104477670D01*
X120015782Y-104457153D01*
X120005554Y-104435529D01*
X119997496Y-104413007D01*
X119991684Y-104389803D01*
X119988174Y-104366142D01*
X119987000Y-104342250D01*
X119987000Y-103429750D01*
X119988174Y-103405858D01*
X119991684Y-103382197D01*
X119997496Y-103358993D01*
X120005554Y-103336471D01*
X120015782Y-103314847D01*
X120028079Y-103294330D01*
X120042329Y-103275117D01*
X120058393Y-103257393D01*
X120076117Y-103241329D01*
X120095330Y-103227079D01*
X120115847Y-103214782D01*
X120137471Y-103204554D01*
X120159993Y-103196496D01*
X120183197Y-103190684D01*
X120206858Y-103187174D01*
X120230750Y-103186000D01*
X120718250Y-103186000D01*
X120742142Y-103187174D01*
X120742142Y-103187174D01*
G37*
D22*
X120474500Y-103886000D03*
D19*
G36*
X122030754Y-105488704D02*
G01*
X122055023Y-105492304D01*
X122078821Y-105498265D01*
X122101921Y-105506530D01*
X122124099Y-105517020D01*
X122145143Y-105529633D01*
X122164848Y-105544247D01*
X122183027Y-105560723D01*
X122199503Y-105578902D01*
X122214117Y-105598607D01*
X122226730Y-105619651D01*
X122237220Y-105641829D01*
X122245485Y-105664929D01*
X122251446Y-105688727D01*
X122255046Y-105712996D01*
X122256250Y-105737500D01*
X122256250Y-106987500D01*
X122255046Y-107012004D01*
X122251446Y-107036273D01*
X122245485Y-107060071D01*
X122237220Y-107083171D01*
X122226730Y-107105349D01*
X122214117Y-107126393D01*
X122199503Y-107146098D01*
X122183027Y-107164277D01*
X122164848Y-107180753D01*
X122145143Y-107195367D01*
X122124099Y-107207980D01*
X122101921Y-107218470D01*
X122078821Y-107226735D01*
X122055023Y-107232696D01*
X122030754Y-107236296D01*
X122006250Y-107237500D01*
X121256250Y-107237500D01*
X121231746Y-107236296D01*
X121207477Y-107232696D01*
X121183679Y-107226735D01*
X121160579Y-107218470D01*
X121138401Y-107207980D01*
X121117357Y-107195367D01*
X121097652Y-107180753D01*
X121079473Y-107164277D01*
X121062997Y-107146098D01*
X121048383Y-107126393D01*
X121035770Y-107105349D01*
X121025280Y-107083171D01*
X121017015Y-107060071D01*
X121011054Y-107036273D01*
X121007454Y-107012004D01*
X121006250Y-106987500D01*
X121006250Y-105737500D01*
X121007454Y-105712996D01*
X121011054Y-105688727D01*
X121017015Y-105664929D01*
X121025280Y-105641829D01*
X121035770Y-105619651D01*
X121048383Y-105598607D01*
X121062997Y-105578902D01*
X121079473Y-105560723D01*
X121097652Y-105544247D01*
X121117357Y-105529633D01*
X121138401Y-105517020D01*
X121160579Y-105506530D01*
X121183679Y-105498265D01*
X121207477Y-105492304D01*
X121231746Y-105488704D01*
X121256250Y-105487500D01*
X122006250Y-105487500D01*
X122030754Y-105488704D01*
X122030754Y-105488704D01*
G37*
D24*
X121631250Y-106362500D03*
D19*
G36*
X124830754Y-105488704D02*
G01*
X124855023Y-105492304D01*
X124878821Y-105498265D01*
X124901921Y-105506530D01*
X124924099Y-105517020D01*
X124945143Y-105529633D01*
X124964848Y-105544247D01*
X124983027Y-105560723D01*
X124999503Y-105578902D01*
X125014117Y-105598607D01*
X125026730Y-105619651D01*
X125037220Y-105641829D01*
X125045485Y-105664929D01*
X125051446Y-105688727D01*
X125055046Y-105712996D01*
X125056250Y-105737500D01*
X125056250Y-106987500D01*
X125055046Y-107012004D01*
X125051446Y-107036273D01*
X125045485Y-107060071D01*
X125037220Y-107083171D01*
X125026730Y-107105349D01*
X125014117Y-107126393D01*
X124999503Y-107146098D01*
X124983027Y-107164277D01*
X124964848Y-107180753D01*
X124945143Y-107195367D01*
X124924099Y-107207980D01*
X124901921Y-107218470D01*
X124878821Y-107226735D01*
X124855023Y-107232696D01*
X124830754Y-107236296D01*
X124806250Y-107237500D01*
X124056250Y-107237500D01*
X124031746Y-107236296D01*
X124007477Y-107232696D01*
X123983679Y-107226735D01*
X123960579Y-107218470D01*
X123938401Y-107207980D01*
X123917357Y-107195367D01*
X123897652Y-107180753D01*
X123879473Y-107164277D01*
X123862997Y-107146098D01*
X123848383Y-107126393D01*
X123835770Y-107105349D01*
X123825280Y-107083171D01*
X123817015Y-107060071D01*
X123811054Y-107036273D01*
X123807454Y-107012004D01*
X123806250Y-106987500D01*
X123806250Y-105737500D01*
X123807454Y-105712996D01*
X123811054Y-105688727D01*
X123817015Y-105664929D01*
X123825280Y-105641829D01*
X123835770Y-105619651D01*
X123848383Y-105598607D01*
X123862997Y-105578902D01*
X123879473Y-105560723D01*
X123897652Y-105544247D01*
X123917357Y-105529633D01*
X123938401Y-105517020D01*
X123960579Y-105506530D01*
X123983679Y-105498265D01*
X124007477Y-105492304D01*
X124031746Y-105488704D01*
X124056250Y-105487500D01*
X124806250Y-105487500D01*
X124830754Y-105488704D01*
X124830754Y-105488704D01*
G37*
D24*
X124431250Y-106362500D03*
D19*
G36*
X292460941Y-218791553D02*
G01*
X292482176Y-218794703D01*
X292503000Y-218799919D01*
X292523212Y-218807151D01*
X292542618Y-218816330D01*
X292561031Y-218827366D01*
X292578274Y-218840154D01*
X292594180Y-218854570D01*
X292608596Y-218870476D01*
X292621384Y-218887719D01*
X292632420Y-218906132D01*
X292641599Y-218925538D01*
X292648831Y-218945750D01*
X292654047Y-218966574D01*
X292657197Y-218987809D01*
X292658250Y-219009250D01*
X292658250Y-219521750D01*
X292657197Y-219543191D01*
X292654047Y-219564426D01*
X292648831Y-219585250D01*
X292641599Y-219605462D01*
X292632420Y-219624868D01*
X292621384Y-219643281D01*
X292608596Y-219660524D01*
X292594180Y-219676430D01*
X292578274Y-219690846D01*
X292561031Y-219703634D01*
X292542618Y-219714670D01*
X292523212Y-219723849D01*
X292503000Y-219731081D01*
X292482176Y-219736297D01*
X292460941Y-219739447D01*
X292439500Y-219740500D01*
X292002000Y-219740500D01*
X291980559Y-219739447D01*
X291959324Y-219736297D01*
X291938500Y-219731081D01*
X291918288Y-219723849D01*
X291898882Y-219714670D01*
X291880469Y-219703634D01*
X291863226Y-219690846D01*
X291847320Y-219676430D01*
X291832904Y-219660524D01*
X291820116Y-219643281D01*
X291809080Y-219624868D01*
X291799901Y-219605462D01*
X291792669Y-219585250D01*
X291787453Y-219564426D01*
X291784303Y-219543191D01*
X291783250Y-219521750D01*
X291783250Y-219009250D01*
X291784303Y-218987809D01*
X291787453Y-218966574D01*
X291792669Y-218945750D01*
X291799901Y-218925538D01*
X291809080Y-218906132D01*
X291820116Y-218887719D01*
X291832904Y-218870476D01*
X291847320Y-218854570D01*
X291863226Y-218840154D01*
X291880469Y-218827366D01*
X291898882Y-218816330D01*
X291918288Y-218807151D01*
X291938500Y-218799919D01*
X291959324Y-218794703D01*
X291980559Y-218791553D01*
X292002000Y-218790500D01*
X292439500Y-218790500D01*
X292460941Y-218791553D01*
X292460941Y-218791553D01*
G37*
D25*
X292220750Y-219265500D03*
D19*
G36*
X290885941Y-218791553D02*
G01*
X290907176Y-218794703D01*
X290928000Y-218799919D01*
X290948212Y-218807151D01*
X290967618Y-218816330D01*
X290986031Y-218827366D01*
X291003274Y-218840154D01*
X291019180Y-218854570D01*
X291033596Y-218870476D01*
X291046384Y-218887719D01*
X291057420Y-218906132D01*
X291066599Y-218925538D01*
X291073831Y-218945750D01*
X291079047Y-218966574D01*
X291082197Y-218987809D01*
X291083250Y-219009250D01*
X291083250Y-219521750D01*
X291082197Y-219543191D01*
X291079047Y-219564426D01*
X291073831Y-219585250D01*
X291066599Y-219605462D01*
X291057420Y-219624868D01*
X291046384Y-219643281D01*
X291033596Y-219660524D01*
X291019180Y-219676430D01*
X291003274Y-219690846D01*
X290986031Y-219703634D01*
X290967618Y-219714670D01*
X290948212Y-219723849D01*
X290928000Y-219731081D01*
X290907176Y-219736297D01*
X290885941Y-219739447D01*
X290864500Y-219740500D01*
X290427000Y-219740500D01*
X290405559Y-219739447D01*
X290384324Y-219736297D01*
X290363500Y-219731081D01*
X290343288Y-219723849D01*
X290323882Y-219714670D01*
X290305469Y-219703634D01*
X290288226Y-219690846D01*
X290272320Y-219676430D01*
X290257904Y-219660524D01*
X290245116Y-219643281D01*
X290234080Y-219624868D01*
X290224901Y-219605462D01*
X290217669Y-219585250D01*
X290212453Y-219564426D01*
X290209303Y-219543191D01*
X290208250Y-219521750D01*
X290208250Y-219009250D01*
X290209303Y-218987809D01*
X290212453Y-218966574D01*
X290217669Y-218945750D01*
X290224901Y-218925538D01*
X290234080Y-218906132D01*
X290245116Y-218887719D01*
X290257904Y-218870476D01*
X290272320Y-218854570D01*
X290288226Y-218840154D01*
X290305469Y-218827366D01*
X290323882Y-218816330D01*
X290343288Y-218807151D01*
X290363500Y-218799919D01*
X290384324Y-218794703D01*
X290405559Y-218791553D01*
X290427000Y-218790500D01*
X290864500Y-218790500D01*
X290885941Y-218791553D01*
X290885941Y-218791553D01*
G37*
D25*
X290645750Y-219265500D03*
D19*
G36*
X122439691Y-101634053D02*
G01*
X122460926Y-101637203D01*
X122481750Y-101642419D01*
X122501962Y-101649651D01*
X122521368Y-101658830D01*
X122539781Y-101669866D01*
X122557024Y-101682654D01*
X122572930Y-101697070D01*
X122587346Y-101712976D01*
X122600134Y-101730219D01*
X122611170Y-101748632D01*
X122620349Y-101768038D01*
X122627581Y-101788250D01*
X122632797Y-101809074D01*
X122635947Y-101830309D01*
X122637000Y-101851750D01*
X122637000Y-102364250D01*
X122635947Y-102385691D01*
X122632797Y-102406926D01*
X122627581Y-102427750D01*
X122620349Y-102447962D01*
X122611170Y-102467368D01*
X122600134Y-102485781D01*
X122587346Y-102503024D01*
X122572930Y-102518930D01*
X122557024Y-102533346D01*
X122539781Y-102546134D01*
X122521368Y-102557170D01*
X122501962Y-102566349D01*
X122481750Y-102573581D01*
X122460926Y-102578797D01*
X122439691Y-102581947D01*
X122418250Y-102583000D01*
X121980750Y-102583000D01*
X121959309Y-102581947D01*
X121938074Y-102578797D01*
X121917250Y-102573581D01*
X121897038Y-102566349D01*
X121877632Y-102557170D01*
X121859219Y-102546134D01*
X121841976Y-102533346D01*
X121826070Y-102518930D01*
X121811654Y-102503024D01*
X121798866Y-102485781D01*
X121787830Y-102467368D01*
X121778651Y-102447962D01*
X121771419Y-102427750D01*
X121766203Y-102406926D01*
X121763053Y-102385691D01*
X121762000Y-102364250D01*
X121762000Y-101851750D01*
X121763053Y-101830309D01*
X121766203Y-101809074D01*
X121771419Y-101788250D01*
X121778651Y-101768038D01*
X121787830Y-101748632D01*
X121798866Y-101730219D01*
X121811654Y-101712976D01*
X121826070Y-101697070D01*
X121841976Y-101682654D01*
X121859219Y-101669866D01*
X121877632Y-101658830D01*
X121897038Y-101649651D01*
X121917250Y-101642419D01*
X121938074Y-101637203D01*
X121959309Y-101634053D01*
X121980750Y-101633000D01*
X122418250Y-101633000D01*
X122439691Y-101634053D01*
X122439691Y-101634053D01*
G37*
D25*
X122199500Y-102108000D03*
D19*
G36*
X120864691Y-101634053D02*
G01*
X120885926Y-101637203D01*
X120906750Y-101642419D01*
X120926962Y-101649651D01*
X120946368Y-101658830D01*
X120964781Y-101669866D01*
X120982024Y-101682654D01*
X120997930Y-101697070D01*
X121012346Y-101712976D01*
X121025134Y-101730219D01*
X121036170Y-101748632D01*
X121045349Y-101768038D01*
X121052581Y-101788250D01*
X121057797Y-101809074D01*
X121060947Y-101830309D01*
X121062000Y-101851750D01*
X121062000Y-102364250D01*
X121060947Y-102385691D01*
X121057797Y-102406926D01*
X121052581Y-102427750D01*
X121045349Y-102447962D01*
X121036170Y-102467368D01*
X121025134Y-102485781D01*
X121012346Y-102503024D01*
X120997930Y-102518930D01*
X120982024Y-102533346D01*
X120964781Y-102546134D01*
X120946368Y-102557170D01*
X120926962Y-102566349D01*
X120906750Y-102573581D01*
X120885926Y-102578797D01*
X120864691Y-102581947D01*
X120843250Y-102583000D01*
X120405750Y-102583000D01*
X120384309Y-102581947D01*
X120363074Y-102578797D01*
X120342250Y-102573581D01*
X120322038Y-102566349D01*
X120302632Y-102557170D01*
X120284219Y-102546134D01*
X120266976Y-102533346D01*
X120251070Y-102518930D01*
X120236654Y-102503024D01*
X120223866Y-102485781D01*
X120212830Y-102467368D01*
X120203651Y-102447962D01*
X120196419Y-102427750D01*
X120191203Y-102406926D01*
X120188053Y-102385691D01*
X120187000Y-102364250D01*
X120187000Y-101851750D01*
X120188053Y-101830309D01*
X120191203Y-101809074D01*
X120196419Y-101788250D01*
X120203651Y-101768038D01*
X120212830Y-101748632D01*
X120223866Y-101730219D01*
X120236654Y-101712976D01*
X120251070Y-101697070D01*
X120266976Y-101682654D01*
X120284219Y-101669866D01*
X120302632Y-101658830D01*
X120322038Y-101649651D01*
X120342250Y-101642419D01*
X120363074Y-101637203D01*
X120384309Y-101634053D01*
X120405750Y-101633000D01*
X120843250Y-101633000D01*
X120864691Y-101634053D01*
X120864691Y-101634053D01*
G37*
D25*
X120624500Y-102108000D03*
D10*
X450215000Y-206502000D03*
D11*
X447675000Y-211582000D03*
D10*
X443865000Y-209042000D03*
D12*
X442595000Y-211582000D03*
X452755000Y-211582000D03*
D10*
X431165000Y-206502000D03*
D11*
X428625000Y-211582000D03*
D10*
X424815000Y-209042000D03*
D12*
X423545000Y-211582000D03*
X433705000Y-211582000D03*
D10*
X412115000Y-206502000D03*
D11*
X409575000Y-211582000D03*
D10*
X405765000Y-209042000D03*
D12*
X404495000Y-211582000D03*
X414655000Y-211582000D03*
D10*
X393065000Y-206502000D03*
D11*
X390525000Y-211582000D03*
D10*
X386715000Y-209042000D03*
D12*
X385445000Y-211582000D03*
X395605000Y-211582000D03*
D10*
X374015000Y-206502000D03*
D11*
X371475000Y-211582000D03*
D10*
X367665000Y-209042000D03*
D12*
X366395000Y-211582000D03*
X376555000Y-211582000D03*
D10*
X343058750Y-206502000D03*
D11*
X340518750Y-211582000D03*
D10*
X336708750Y-209042000D03*
D12*
X335438750Y-211582000D03*
X345598750Y-211582000D03*
D10*
X319246250Y-206502000D03*
D11*
X316706250Y-211582000D03*
D10*
X312896250Y-209042000D03*
D12*
X311626250Y-211582000D03*
X321786250Y-211582000D03*
D10*
X243046250Y-206502000D03*
D11*
X240506250Y-211582000D03*
D10*
X236696250Y-209042000D03*
D12*
X235426250Y-211582000D03*
X245586250Y-211582000D03*
D10*
X176371250Y-206502000D03*
D11*
X173831250Y-211582000D03*
D10*
X170021250Y-209042000D03*
D12*
X168751250Y-211582000D03*
X178911250Y-211582000D03*
D10*
X152558750Y-206502000D03*
D11*
X150018750Y-211582000D03*
D10*
X146208750Y-209042000D03*
D12*
X144938750Y-211582000D03*
X155098750Y-211582000D03*
D10*
X128746250Y-206502000D03*
D11*
X126206250Y-211582000D03*
D10*
X122396250Y-209042000D03*
D12*
X121126250Y-211582000D03*
X131286250Y-211582000D03*
D10*
X450215000Y-187452000D03*
D11*
X447675000Y-192532000D03*
D10*
X443865000Y-189992000D03*
D12*
X442595000Y-192532000D03*
X452755000Y-192532000D03*
D10*
X431165000Y-187452000D03*
D11*
X428625000Y-192532000D03*
D10*
X424815000Y-189992000D03*
D12*
X423545000Y-192532000D03*
X433705000Y-192532000D03*
D10*
X412115000Y-187452000D03*
D11*
X409575000Y-192532000D03*
D10*
X405765000Y-189992000D03*
D12*
X404495000Y-192532000D03*
X414655000Y-192532000D03*
D10*
X340677500Y-187452000D03*
D11*
X338137500Y-192532000D03*
D10*
X334327500Y-189992000D03*
D12*
X333057500Y-192532000D03*
X343217500Y-192532000D03*
D10*
X283527500Y-187452000D03*
D11*
X280987500Y-192532000D03*
D10*
X277177500Y-189992000D03*
D12*
X275907500Y-192532000D03*
X286067500Y-192532000D03*
D10*
X264477500Y-187452000D03*
D11*
X261937500Y-192532000D03*
D10*
X258127500Y-189992000D03*
D12*
X256857500Y-192532000D03*
X267017500Y-192532000D03*
D10*
X245427500Y-187452000D03*
D11*
X242887500Y-192532000D03*
D10*
X239077500Y-189992000D03*
D12*
X237807500Y-192532000D03*
X247967500Y-192532000D03*
D10*
X226377500Y-187452000D03*
D11*
X223837500Y-192532000D03*
D10*
X220027500Y-189992000D03*
D12*
X218757500Y-192532000D03*
X228917500Y-192532000D03*
D10*
X207327500Y-187452000D03*
D11*
X204787500Y-192532000D03*
D10*
X200977500Y-189992000D03*
D12*
X199707500Y-192532000D03*
X209867500Y-192532000D03*
D10*
X188277500Y-187452000D03*
D11*
X185737500Y-192532000D03*
D10*
X181927500Y-189992000D03*
D12*
X180657500Y-192532000D03*
X190817500Y-192532000D03*
D10*
X450215000Y-168402000D03*
D11*
X447675000Y-173482000D03*
D10*
X443865000Y-170942000D03*
D12*
X442595000Y-173482000D03*
X452755000Y-173482000D03*
D10*
X431165000Y-168402000D03*
D11*
X428625000Y-173482000D03*
D10*
X424815000Y-170942000D03*
D12*
X423545000Y-173482000D03*
X433705000Y-173482000D03*
D10*
X412115000Y-168402000D03*
D11*
X409575000Y-173482000D03*
D10*
X405765000Y-170942000D03*
D12*
X404495000Y-173482000D03*
X414655000Y-173482000D03*
D10*
X350202500Y-168402000D03*
D11*
X347662500Y-173482000D03*
D10*
X343852500Y-170942000D03*
D12*
X342582500Y-173482000D03*
X352742500Y-173482000D03*
D10*
X331152500Y-168402000D03*
D11*
X328612500Y-173482000D03*
D10*
X324802500Y-170942000D03*
D12*
X323532500Y-173482000D03*
X333692500Y-173482000D03*
D10*
X312102500Y-168402000D03*
D11*
X309562500Y-173482000D03*
D10*
X305752500Y-170942000D03*
D12*
X304482500Y-173482000D03*
X314642500Y-173482000D03*
D10*
X293052500Y-168402000D03*
D11*
X290512500Y-173482000D03*
D10*
X286702500Y-170942000D03*
D12*
X285432500Y-173482000D03*
X295592500Y-173482000D03*
D10*
X274002500Y-168402000D03*
D11*
X271462500Y-173482000D03*
D10*
X267652500Y-170942000D03*
D12*
X266382500Y-173482000D03*
X276542500Y-173482000D03*
D10*
X254952500Y-168402000D03*
D11*
X252412500Y-173482000D03*
D10*
X248602500Y-170942000D03*
D12*
X247332500Y-173482000D03*
X257492500Y-173482000D03*
D10*
X235902500Y-168402000D03*
D11*
X233362500Y-173482000D03*
D10*
X229552500Y-170942000D03*
D12*
X228282500Y-173482000D03*
X238442500Y-173482000D03*
D10*
X216852500Y-168402000D03*
D11*
X214312500Y-173482000D03*
D10*
X210502500Y-170942000D03*
D12*
X209232500Y-173482000D03*
X219392500Y-173482000D03*
D10*
X197802500Y-168402000D03*
D11*
X195262500Y-173482000D03*
D10*
X191452500Y-170942000D03*
D12*
X190182500Y-173482000D03*
X200342500Y-173482000D03*
D10*
X178752500Y-168402000D03*
D11*
X176212500Y-173482000D03*
D10*
X172402500Y-170942000D03*
D12*
X171132500Y-173482000D03*
X181292500Y-173482000D03*
D10*
X159702500Y-168402000D03*
D11*
X157162500Y-173482000D03*
D10*
X153352500Y-170942000D03*
D12*
X152082500Y-173482000D03*
X162242500Y-173482000D03*
D10*
X133508750Y-168402000D03*
D11*
X130968750Y-173482000D03*
D10*
X127158750Y-170942000D03*
D12*
X125888750Y-173482000D03*
X136048750Y-173482000D03*
D10*
X450215000Y-149352000D03*
D11*
X447675000Y-154432000D03*
D10*
X443865000Y-151892000D03*
D12*
X442595000Y-154432000D03*
X452755000Y-154432000D03*
D10*
X431165000Y-149352000D03*
D11*
X428625000Y-154432000D03*
D10*
X424815000Y-151892000D03*
D12*
X423545000Y-154432000D03*
X433705000Y-154432000D03*
D10*
X388302500Y-149352000D03*
D11*
X385762500Y-154432000D03*
D10*
X381952500Y-151892000D03*
D12*
X380682500Y-154432000D03*
X390842500Y-154432000D03*
D10*
X364490000Y-149352000D03*
D11*
X361950000Y-154432000D03*
D10*
X358140000Y-151892000D03*
D12*
X356870000Y-154432000D03*
X367030000Y-154432000D03*
D10*
X345440000Y-149352000D03*
D11*
X342900000Y-154432000D03*
D10*
X339090000Y-151892000D03*
D12*
X337820000Y-154432000D03*
X347980000Y-154432000D03*
D10*
X326390000Y-149352000D03*
D11*
X323850000Y-154432000D03*
D10*
X320040000Y-151892000D03*
D12*
X318770000Y-154432000D03*
X328930000Y-154432000D03*
D10*
X307340000Y-149352000D03*
D11*
X304800000Y-154432000D03*
D10*
X300990000Y-151892000D03*
D12*
X299720000Y-154432000D03*
X309880000Y-154432000D03*
D10*
X288290000Y-149352000D03*
D11*
X285750000Y-154432000D03*
D10*
X281940000Y-151892000D03*
D12*
X280670000Y-154432000D03*
X290830000Y-154432000D03*
D10*
X269240000Y-149352000D03*
D11*
X266700000Y-154432000D03*
D10*
X262890000Y-151892000D03*
D12*
X261620000Y-154432000D03*
X271780000Y-154432000D03*
D10*
X250190000Y-149352000D03*
D11*
X247650000Y-154432000D03*
D10*
X243840000Y-151892000D03*
D12*
X242570000Y-154432000D03*
X252730000Y-154432000D03*
D10*
X231140000Y-149352000D03*
D11*
X228600000Y-154432000D03*
D10*
X224790000Y-151892000D03*
D12*
X223520000Y-154432000D03*
X233680000Y-154432000D03*
D10*
X212090000Y-149352000D03*
D11*
X209550000Y-154432000D03*
D10*
X205740000Y-151892000D03*
D12*
X204470000Y-154432000D03*
X214630000Y-154432000D03*
D10*
X193040000Y-149352000D03*
D11*
X190500000Y-154432000D03*
D10*
X186690000Y-151892000D03*
D12*
X185420000Y-154432000D03*
X195580000Y-154432000D03*
D10*
X154940000Y-149352000D03*
D11*
X152400000Y-154432000D03*
D10*
X148590000Y-151892000D03*
D12*
X147320000Y-154432000D03*
X157480000Y-154432000D03*
D10*
X131127500Y-149352000D03*
D11*
X128587500Y-154432000D03*
D10*
X124777500Y-151892000D03*
D12*
X123507500Y-154432000D03*
X133667500Y-154432000D03*
D10*
X469265000Y-130302000D03*
D11*
X466725000Y-135382000D03*
D10*
X462915000Y-132842000D03*
D12*
X461645000Y-135382000D03*
X471805000Y-135382000D03*
D10*
X450215000Y-130302000D03*
D11*
X447675000Y-135382000D03*
D10*
X443865000Y-132842000D03*
D12*
X442595000Y-135382000D03*
X452755000Y-135382000D03*
D10*
X431165000Y-130302000D03*
D11*
X428625000Y-135382000D03*
D10*
X424815000Y-132842000D03*
D12*
X423545000Y-135382000D03*
X433705000Y-135382000D03*
D10*
X412115000Y-130302000D03*
D11*
X409575000Y-135382000D03*
D10*
X405765000Y-132842000D03*
D12*
X404495000Y-135382000D03*
X414655000Y-135382000D03*
D10*
X354965000Y-130302000D03*
D11*
X352425000Y-135382000D03*
D10*
X348615000Y-132842000D03*
D12*
X347345000Y-135382000D03*
X357505000Y-135382000D03*
D10*
X335915000Y-130302000D03*
D11*
X333375000Y-135382000D03*
D10*
X329565000Y-132842000D03*
D12*
X328295000Y-135382000D03*
X338455000Y-135382000D03*
D10*
X316865000Y-130302000D03*
D11*
X314325000Y-135382000D03*
D10*
X310515000Y-132842000D03*
D12*
X309245000Y-135382000D03*
X319405000Y-135382000D03*
D10*
X297815000Y-130302000D03*
D11*
X295275000Y-135382000D03*
D10*
X291465000Y-132842000D03*
D12*
X290195000Y-135382000D03*
X300355000Y-135382000D03*
D10*
X278765000Y-130302000D03*
D11*
X276225000Y-135382000D03*
D10*
X272415000Y-132842000D03*
D12*
X271145000Y-135382000D03*
X281305000Y-135382000D03*
D10*
X259715000Y-130302000D03*
D11*
X257175000Y-135382000D03*
D10*
X253365000Y-132842000D03*
D12*
X252095000Y-135382000D03*
X262255000Y-135382000D03*
D10*
X240665000Y-130302000D03*
D11*
X238125000Y-135382000D03*
D10*
X234315000Y-132842000D03*
D12*
X233045000Y-135382000D03*
X243205000Y-135382000D03*
D10*
X221615000Y-130302000D03*
D11*
X219075000Y-135382000D03*
D10*
X215265000Y-132842000D03*
D12*
X213995000Y-135382000D03*
X224155000Y-135382000D03*
D10*
X202565000Y-130302000D03*
D11*
X200025000Y-135382000D03*
D10*
X196215000Y-132842000D03*
D12*
X194945000Y-135382000D03*
X205105000Y-135382000D03*
D10*
X183515000Y-130302000D03*
D11*
X180975000Y-135382000D03*
D10*
X177165000Y-132842000D03*
D12*
X175895000Y-135382000D03*
X186055000Y-135382000D03*
D10*
X164465000Y-130302000D03*
D11*
X161925000Y-135382000D03*
D10*
X158115000Y-132842000D03*
D12*
X156845000Y-135382000D03*
X167005000Y-135382000D03*
D10*
X145415000Y-130302000D03*
D11*
X142875000Y-135382000D03*
D10*
X139065000Y-132842000D03*
D12*
X137795000Y-135382000D03*
X147955000Y-135382000D03*
D10*
X126365000Y-130302000D03*
D11*
X123825000Y-135382000D03*
D10*
X120015000Y-132842000D03*
D12*
X118745000Y-135382000D03*
X128905000Y-135382000D03*
D10*
X469265000Y-111252000D03*
D11*
X466725000Y-116332000D03*
D10*
X462915000Y-113792000D03*
D12*
X461645000Y-116332000D03*
X471805000Y-116332000D03*
D10*
X450215000Y-111252000D03*
D11*
X447675000Y-116332000D03*
D10*
X443865000Y-113792000D03*
D12*
X442595000Y-116332000D03*
X452755000Y-116332000D03*
D10*
X431165000Y-111252000D03*
D11*
X428625000Y-116332000D03*
D10*
X424815000Y-113792000D03*
D12*
X423545000Y-116332000D03*
X433705000Y-116332000D03*
D10*
X412115000Y-111252000D03*
D11*
X409575000Y-116332000D03*
D10*
X405765000Y-113792000D03*
D12*
X404495000Y-116332000D03*
X414655000Y-116332000D03*
D10*
X393065000Y-111252000D03*
D11*
X390525000Y-116332000D03*
D10*
X386715000Y-113792000D03*
D12*
X385445000Y-116332000D03*
X395605000Y-116332000D03*
D10*
X374015000Y-111252000D03*
D11*
X371475000Y-116332000D03*
D10*
X367665000Y-113792000D03*
D12*
X366395000Y-116332000D03*
X376555000Y-116332000D03*
D10*
X354965000Y-111252000D03*
D11*
X352425000Y-116332000D03*
D10*
X348615000Y-113792000D03*
D12*
X347345000Y-116332000D03*
X357505000Y-116332000D03*
D10*
X335915000Y-111252000D03*
D11*
X333375000Y-116332000D03*
D10*
X329565000Y-113792000D03*
D12*
X328295000Y-116332000D03*
X338455000Y-116332000D03*
D10*
X316865000Y-111252000D03*
D11*
X314325000Y-116332000D03*
D10*
X310515000Y-113792000D03*
D12*
X309245000Y-116332000D03*
X319405000Y-116332000D03*
D10*
X297815000Y-111252000D03*
D11*
X295275000Y-116332000D03*
D10*
X291465000Y-113792000D03*
D12*
X290195000Y-116332000D03*
X300355000Y-116332000D03*
D10*
X278765000Y-111252000D03*
D11*
X276225000Y-116332000D03*
D10*
X272415000Y-113792000D03*
D12*
X271145000Y-116332000D03*
X281305000Y-116332000D03*
D10*
X259715000Y-111252000D03*
D11*
X257175000Y-116332000D03*
D10*
X253365000Y-113792000D03*
D12*
X252095000Y-116332000D03*
X262255000Y-116332000D03*
D10*
X221615000Y-111252000D03*
D11*
X219075000Y-116332000D03*
D10*
X215265000Y-113792000D03*
D12*
X213995000Y-116332000D03*
X224155000Y-116332000D03*
D10*
X202565000Y-111252000D03*
D11*
X200025000Y-116332000D03*
D10*
X196215000Y-113792000D03*
D12*
X194945000Y-116332000D03*
X205105000Y-116332000D03*
D10*
X164465000Y-111252000D03*
D11*
X161925000Y-116332000D03*
D10*
X158115000Y-113792000D03*
D12*
X156845000Y-116332000D03*
X167005000Y-116332000D03*
D19*
G36*
X117105958Y-149413710D02*
G01*
X117120276Y-149415834D01*
X117134317Y-149419351D01*
X117147946Y-149424228D01*
X117161031Y-149430417D01*
X117173447Y-149437858D01*
X117185073Y-149446481D01*
X117195798Y-149456202D01*
X117205519Y-149466927D01*
X117214142Y-149478553D01*
X117221583Y-149490969D01*
X117227772Y-149504054D01*
X117232649Y-149517683D01*
X117236166Y-149531724D01*
X117238290Y-149546042D01*
X117239000Y-149560500D01*
X117239000Y-149905500D01*
X117238290Y-149919958D01*
X117236166Y-149934276D01*
X117232649Y-149948317D01*
X117227772Y-149961946D01*
X117221583Y-149975031D01*
X117214142Y-149987447D01*
X117205519Y-149999073D01*
X117195798Y-150009798D01*
X117185073Y-150019519D01*
X117173447Y-150028142D01*
X117161031Y-150035583D01*
X117147946Y-150041772D01*
X117134317Y-150046649D01*
X117120276Y-150050166D01*
X117105958Y-150052290D01*
X117091500Y-150053000D01*
X116796500Y-150053000D01*
X116782042Y-150052290D01*
X116767724Y-150050166D01*
X116753683Y-150046649D01*
X116740054Y-150041772D01*
X116726969Y-150035583D01*
X116714553Y-150028142D01*
X116702927Y-150019519D01*
X116692202Y-150009798D01*
X116682481Y-149999073D01*
X116673858Y-149987447D01*
X116666417Y-149975031D01*
X116660228Y-149961946D01*
X116655351Y-149948317D01*
X116651834Y-149934276D01*
X116649710Y-149919958D01*
X116649000Y-149905500D01*
X116649000Y-149560500D01*
X116649710Y-149546042D01*
X116651834Y-149531724D01*
X116655351Y-149517683D01*
X116660228Y-149504054D01*
X116666417Y-149490969D01*
X116673858Y-149478553D01*
X116682481Y-149466927D01*
X116692202Y-149456202D01*
X116702927Y-149446481D01*
X116714553Y-149437858D01*
X116726969Y-149430417D01*
X116740054Y-149424228D01*
X116753683Y-149419351D01*
X116767724Y-149415834D01*
X116782042Y-149413710D01*
X116796500Y-149413000D01*
X117091500Y-149413000D01*
X117105958Y-149413710D01*
X117105958Y-149413710D01*
G37*
D20*
X116944000Y-149733000D03*
D19*
G36*
X116135958Y-149413710D02*
G01*
X116150276Y-149415834D01*
X116164317Y-149419351D01*
X116177946Y-149424228D01*
X116191031Y-149430417D01*
X116203447Y-149437858D01*
X116215073Y-149446481D01*
X116225798Y-149456202D01*
X116235519Y-149466927D01*
X116244142Y-149478553D01*
X116251583Y-149490969D01*
X116257772Y-149504054D01*
X116262649Y-149517683D01*
X116266166Y-149531724D01*
X116268290Y-149546042D01*
X116269000Y-149560500D01*
X116269000Y-149905500D01*
X116268290Y-149919958D01*
X116266166Y-149934276D01*
X116262649Y-149948317D01*
X116257772Y-149961946D01*
X116251583Y-149975031D01*
X116244142Y-149987447D01*
X116235519Y-149999073D01*
X116225798Y-150009798D01*
X116215073Y-150019519D01*
X116203447Y-150028142D01*
X116191031Y-150035583D01*
X116177946Y-150041772D01*
X116164317Y-150046649D01*
X116150276Y-150050166D01*
X116135958Y-150052290D01*
X116121500Y-150053000D01*
X115826500Y-150053000D01*
X115812042Y-150052290D01*
X115797724Y-150050166D01*
X115783683Y-150046649D01*
X115770054Y-150041772D01*
X115756969Y-150035583D01*
X115744553Y-150028142D01*
X115732927Y-150019519D01*
X115722202Y-150009798D01*
X115712481Y-149999073D01*
X115703858Y-149987447D01*
X115696417Y-149975031D01*
X115690228Y-149961946D01*
X115685351Y-149948317D01*
X115681834Y-149934276D01*
X115679710Y-149919958D01*
X115679000Y-149905500D01*
X115679000Y-149560500D01*
X115679710Y-149546042D01*
X115681834Y-149531724D01*
X115685351Y-149517683D01*
X115690228Y-149504054D01*
X115696417Y-149490969D01*
X115703858Y-149478553D01*
X115712481Y-149466927D01*
X115722202Y-149456202D01*
X115732927Y-149446481D01*
X115744553Y-149437858D01*
X115756969Y-149430417D01*
X115770054Y-149424228D01*
X115783683Y-149419351D01*
X115797724Y-149415834D01*
X115812042Y-149413710D01*
X115826500Y-149413000D01*
X116121500Y-149413000D01*
X116135958Y-149413710D01*
X116135958Y-149413710D01*
G37*
D20*
X115974000Y-149733000D03*
D19*
G36*
X292080208Y-217358710D02*
G01*
X292094526Y-217360834D01*
X292108567Y-217364351D01*
X292122196Y-217369228D01*
X292135281Y-217375417D01*
X292147697Y-217382858D01*
X292159323Y-217391481D01*
X292170048Y-217401202D01*
X292179769Y-217411927D01*
X292188392Y-217423553D01*
X292195833Y-217435969D01*
X292202022Y-217449054D01*
X292206899Y-217462683D01*
X292210416Y-217476724D01*
X292212540Y-217491042D01*
X292213250Y-217505500D01*
X292213250Y-217850500D01*
X292212540Y-217864958D01*
X292210416Y-217879276D01*
X292206899Y-217893317D01*
X292202022Y-217906946D01*
X292195833Y-217920031D01*
X292188392Y-217932447D01*
X292179769Y-217944073D01*
X292170048Y-217954798D01*
X292159323Y-217964519D01*
X292147697Y-217973142D01*
X292135281Y-217980583D01*
X292122196Y-217986772D01*
X292108567Y-217991649D01*
X292094526Y-217995166D01*
X292080208Y-217997290D01*
X292065750Y-217998000D01*
X291770750Y-217998000D01*
X291756292Y-217997290D01*
X291741974Y-217995166D01*
X291727933Y-217991649D01*
X291714304Y-217986772D01*
X291701219Y-217980583D01*
X291688803Y-217973142D01*
X291677177Y-217964519D01*
X291666452Y-217954798D01*
X291656731Y-217944073D01*
X291648108Y-217932447D01*
X291640667Y-217920031D01*
X291634478Y-217906946D01*
X291629601Y-217893317D01*
X291626084Y-217879276D01*
X291623960Y-217864958D01*
X291623250Y-217850500D01*
X291623250Y-217505500D01*
X291623960Y-217491042D01*
X291626084Y-217476724D01*
X291629601Y-217462683D01*
X291634478Y-217449054D01*
X291640667Y-217435969D01*
X291648108Y-217423553D01*
X291656731Y-217411927D01*
X291666452Y-217401202D01*
X291677177Y-217391481D01*
X291688803Y-217382858D01*
X291701219Y-217375417D01*
X291714304Y-217369228D01*
X291727933Y-217364351D01*
X291741974Y-217360834D01*
X291756292Y-217358710D01*
X291770750Y-217358000D01*
X292065750Y-217358000D01*
X292080208Y-217358710D01*
X292080208Y-217358710D01*
G37*
D20*
X291918250Y-217678000D03*
D19*
G36*
X291110208Y-217358710D02*
G01*
X291124526Y-217360834D01*
X291138567Y-217364351D01*
X291152196Y-217369228D01*
X291165281Y-217375417D01*
X291177697Y-217382858D01*
X291189323Y-217391481D01*
X291200048Y-217401202D01*
X291209769Y-217411927D01*
X291218392Y-217423553D01*
X291225833Y-217435969D01*
X291232022Y-217449054D01*
X291236899Y-217462683D01*
X291240416Y-217476724D01*
X291242540Y-217491042D01*
X291243250Y-217505500D01*
X291243250Y-217850500D01*
X291242540Y-217864958D01*
X291240416Y-217879276D01*
X291236899Y-217893317D01*
X291232022Y-217906946D01*
X291225833Y-217920031D01*
X291218392Y-217932447D01*
X291209769Y-217944073D01*
X291200048Y-217954798D01*
X291189323Y-217964519D01*
X291177697Y-217973142D01*
X291165281Y-217980583D01*
X291152196Y-217986772D01*
X291138567Y-217991649D01*
X291124526Y-217995166D01*
X291110208Y-217997290D01*
X291095750Y-217998000D01*
X290800750Y-217998000D01*
X290786292Y-217997290D01*
X290771974Y-217995166D01*
X290757933Y-217991649D01*
X290744304Y-217986772D01*
X290731219Y-217980583D01*
X290718803Y-217973142D01*
X290707177Y-217964519D01*
X290696452Y-217954798D01*
X290686731Y-217944073D01*
X290678108Y-217932447D01*
X290670667Y-217920031D01*
X290664478Y-217906946D01*
X290659601Y-217893317D01*
X290656084Y-217879276D01*
X290653960Y-217864958D01*
X290653250Y-217850500D01*
X290653250Y-217505500D01*
X290653960Y-217491042D01*
X290656084Y-217476724D01*
X290659601Y-217462683D01*
X290664478Y-217449054D01*
X290670667Y-217435969D01*
X290678108Y-217423553D01*
X290686731Y-217411927D01*
X290696452Y-217401202D01*
X290707177Y-217391481D01*
X290718803Y-217382858D01*
X290731219Y-217375417D01*
X290744304Y-217369228D01*
X290757933Y-217364351D01*
X290771974Y-217360834D01*
X290786292Y-217358710D01*
X290800750Y-217358000D01*
X291095750Y-217358000D01*
X291110208Y-217358710D01*
X291110208Y-217358710D01*
G37*
D20*
X290948250Y-217678000D03*
D19*
G36*
X302410691Y-206071803D02*
G01*
X302431926Y-206074953D01*
X302452750Y-206080169D01*
X302472962Y-206087401D01*
X302492368Y-206096580D01*
X302510781Y-206107616D01*
X302528024Y-206120404D01*
X302543930Y-206134820D01*
X302558346Y-206150726D01*
X302571134Y-206167969D01*
X302582170Y-206186382D01*
X302591349Y-206205788D01*
X302598581Y-206226000D01*
X302603797Y-206246824D01*
X302606947Y-206268059D01*
X302608000Y-206289500D01*
X302608000Y-206727000D01*
X302606947Y-206748441D01*
X302603797Y-206769676D01*
X302598581Y-206790500D01*
X302591349Y-206810712D01*
X302582170Y-206830118D01*
X302571134Y-206848531D01*
X302558346Y-206865774D01*
X302543930Y-206881680D01*
X302528024Y-206896096D01*
X302510781Y-206908884D01*
X302492368Y-206919920D01*
X302472962Y-206929099D01*
X302452750Y-206936331D01*
X302431926Y-206941547D01*
X302410691Y-206944697D01*
X302389250Y-206945750D01*
X301876750Y-206945750D01*
X301855309Y-206944697D01*
X301834074Y-206941547D01*
X301813250Y-206936331D01*
X301793038Y-206929099D01*
X301773632Y-206919920D01*
X301755219Y-206908884D01*
X301737976Y-206896096D01*
X301722070Y-206881680D01*
X301707654Y-206865774D01*
X301694866Y-206848531D01*
X301683830Y-206830118D01*
X301674651Y-206810712D01*
X301667419Y-206790500D01*
X301662203Y-206769676D01*
X301659053Y-206748441D01*
X301658000Y-206727000D01*
X301658000Y-206289500D01*
X301659053Y-206268059D01*
X301662203Y-206246824D01*
X301667419Y-206226000D01*
X301674651Y-206205788D01*
X301683830Y-206186382D01*
X301694866Y-206167969D01*
X301707654Y-206150726D01*
X301722070Y-206134820D01*
X301737976Y-206120404D01*
X301755219Y-206107616D01*
X301773632Y-206096580D01*
X301793038Y-206087401D01*
X301813250Y-206080169D01*
X301834074Y-206074953D01*
X301855309Y-206071803D01*
X301876750Y-206070750D01*
X302389250Y-206070750D01*
X302410691Y-206071803D01*
X302410691Y-206071803D01*
G37*
D25*
X302133000Y-206508250D03*
D19*
G36*
X302410691Y-207646803D02*
G01*
X302431926Y-207649953D01*
X302452750Y-207655169D01*
X302472962Y-207662401D01*
X302492368Y-207671580D01*
X302510781Y-207682616D01*
X302528024Y-207695404D01*
X302543930Y-207709820D01*
X302558346Y-207725726D01*
X302571134Y-207742969D01*
X302582170Y-207761382D01*
X302591349Y-207780788D01*
X302598581Y-207801000D01*
X302603797Y-207821824D01*
X302606947Y-207843059D01*
X302608000Y-207864500D01*
X302608000Y-208302000D01*
X302606947Y-208323441D01*
X302603797Y-208344676D01*
X302598581Y-208365500D01*
X302591349Y-208385712D01*
X302582170Y-208405118D01*
X302571134Y-208423531D01*
X302558346Y-208440774D01*
X302543930Y-208456680D01*
X302528024Y-208471096D01*
X302510781Y-208483884D01*
X302492368Y-208494920D01*
X302472962Y-208504099D01*
X302452750Y-208511331D01*
X302431926Y-208516547D01*
X302410691Y-208519697D01*
X302389250Y-208520750D01*
X301876750Y-208520750D01*
X301855309Y-208519697D01*
X301834074Y-208516547D01*
X301813250Y-208511331D01*
X301793038Y-208504099D01*
X301773632Y-208494920D01*
X301755219Y-208483884D01*
X301737976Y-208471096D01*
X301722070Y-208456680D01*
X301707654Y-208440774D01*
X301694866Y-208423531D01*
X301683830Y-208405118D01*
X301674651Y-208385712D01*
X301667419Y-208365500D01*
X301662203Y-208344676D01*
X301659053Y-208323441D01*
X301658000Y-208302000D01*
X301658000Y-207864500D01*
X301659053Y-207843059D01*
X301662203Y-207821824D01*
X301667419Y-207801000D01*
X301674651Y-207780788D01*
X301683830Y-207761382D01*
X301694866Y-207742969D01*
X301707654Y-207725726D01*
X301722070Y-207709820D01*
X301737976Y-207695404D01*
X301755219Y-207682616D01*
X301773632Y-207671580D01*
X301793038Y-207662401D01*
X301813250Y-207655169D01*
X301834074Y-207649953D01*
X301855309Y-207646803D01*
X301876750Y-207645750D01*
X302389250Y-207645750D01*
X302410691Y-207646803D01*
X302410691Y-207646803D01*
G37*
D25*
X302133000Y-208083250D03*
D19*
G36*
X299017958Y-214358710D02*
G01*
X299032276Y-214360834D01*
X299046317Y-214364351D01*
X299059946Y-214369228D01*
X299073031Y-214375417D01*
X299085447Y-214382858D01*
X299097073Y-214391481D01*
X299107798Y-214401202D01*
X299117519Y-214411927D01*
X299126142Y-214423553D01*
X299133583Y-214435969D01*
X299139772Y-214449054D01*
X299144649Y-214462683D01*
X299148166Y-214476724D01*
X299150290Y-214491042D01*
X299151000Y-214505500D01*
X299151000Y-214800500D01*
X299150290Y-214814958D01*
X299148166Y-214829276D01*
X299144649Y-214843317D01*
X299139772Y-214856946D01*
X299133583Y-214870031D01*
X299126142Y-214882447D01*
X299117519Y-214894073D01*
X299107798Y-214904798D01*
X299097073Y-214914519D01*
X299085447Y-214923142D01*
X299073031Y-214930583D01*
X299059946Y-214936772D01*
X299046317Y-214941649D01*
X299032276Y-214945166D01*
X299017958Y-214947290D01*
X299003500Y-214948000D01*
X298658500Y-214948000D01*
X298644042Y-214947290D01*
X298629724Y-214945166D01*
X298615683Y-214941649D01*
X298602054Y-214936772D01*
X298588969Y-214930583D01*
X298576553Y-214923142D01*
X298564927Y-214914519D01*
X298554202Y-214904798D01*
X298544481Y-214894073D01*
X298535858Y-214882447D01*
X298528417Y-214870031D01*
X298522228Y-214856946D01*
X298517351Y-214843317D01*
X298513834Y-214829276D01*
X298511710Y-214814958D01*
X298511000Y-214800500D01*
X298511000Y-214505500D01*
X298511710Y-214491042D01*
X298513834Y-214476724D01*
X298517351Y-214462683D01*
X298522228Y-214449054D01*
X298528417Y-214435969D01*
X298535858Y-214423553D01*
X298544481Y-214411927D01*
X298554202Y-214401202D01*
X298564927Y-214391481D01*
X298576553Y-214382858D01*
X298588969Y-214375417D01*
X298602054Y-214369228D01*
X298615683Y-214364351D01*
X298629724Y-214360834D01*
X298644042Y-214358710D01*
X298658500Y-214358000D01*
X299003500Y-214358000D01*
X299017958Y-214358710D01*
X299017958Y-214358710D01*
G37*
D20*
X298831000Y-214653000D03*
D19*
G36*
X299017958Y-215328710D02*
G01*
X299032276Y-215330834D01*
X299046317Y-215334351D01*
X299059946Y-215339228D01*
X299073031Y-215345417D01*
X299085447Y-215352858D01*
X299097073Y-215361481D01*
X299107798Y-215371202D01*
X299117519Y-215381927D01*
X299126142Y-215393553D01*
X299133583Y-215405969D01*
X299139772Y-215419054D01*
X299144649Y-215432683D01*
X299148166Y-215446724D01*
X299150290Y-215461042D01*
X299151000Y-215475500D01*
X299151000Y-215770500D01*
X299150290Y-215784958D01*
X299148166Y-215799276D01*
X299144649Y-215813317D01*
X299139772Y-215826946D01*
X299133583Y-215840031D01*
X299126142Y-215852447D01*
X299117519Y-215864073D01*
X299107798Y-215874798D01*
X299097073Y-215884519D01*
X299085447Y-215893142D01*
X299073031Y-215900583D01*
X299059946Y-215906772D01*
X299046317Y-215911649D01*
X299032276Y-215915166D01*
X299017958Y-215917290D01*
X299003500Y-215918000D01*
X298658500Y-215918000D01*
X298644042Y-215917290D01*
X298629724Y-215915166D01*
X298615683Y-215911649D01*
X298602054Y-215906772D01*
X298588969Y-215900583D01*
X298576553Y-215893142D01*
X298564927Y-215884519D01*
X298554202Y-215874798D01*
X298544481Y-215864073D01*
X298535858Y-215852447D01*
X298528417Y-215840031D01*
X298522228Y-215826946D01*
X298517351Y-215813317D01*
X298513834Y-215799276D01*
X298511710Y-215784958D01*
X298511000Y-215770500D01*
X298511000Y-215475500D01*
X298511710Y-215461042D01*
X298513834Y-215446724D01*
X298517351Y-215432683D01*
X298522228Y-215419054D01*
X298528417Y-215405969D01*
X298535858Y-215393553D01*
X298544481Y-215381927D01*
X298554202Y-215371202D01*
X298564927Y-215361481D01*
X298576553Y-215352858D01*
X298588969Y-215345417D01*
X298602054Y-215339228D01*
X298615683Y-215334351D01*
X298629724Y-215330834D01*
X298644042Y-215328710D01*
X298658500Y-215328000D01*
X299003500Y-215328000D01*
X299017958Y-215328710D01*
X299017958Y-215328710D01*
G37*
D20*
X298831000Y-215623000D03*
D19*
G36*
X300732458Y-206516460D02*
G01*
X300746776Y-206518584D01*
X300760817Y-206522101D01*
X300774446Y-206526978D01*
X300787531Y-206533167D01*
X300799947Y-206540608D01*
X300811573Y-206549231D01*
X300822298Y-206558952D01*
X300832019Y-206569677D01*
X300840642Y-206581303D01*
X300848083Y-206593719D01*
X300854272Y-206606804D01*
X300859149Y-206620433D01*
X300862666Y-206634474D01*
X300864790Y-206648792D01*
X300865500Y-206663250D01*
X300865500Y-206958250D01*
X300864790Y-206972708D01*
X300862666Y-206987026D01*
X300859149Y-207001067D01*
X300854272Y-207014696D01*
X300848083Y-207027781D01*
X300840642Y-207040197D01*
X300832019Y-207051823D01*
X300822298Y-207062548D01*
X300811573Y-207072269D01*
X300799947Y-207080892D01*
X300787531Y-207088333D01*
X300774446Y-207094522D01*
X300760817Y-207099399D01*
X300746776Y-207102916D01*
X300732458Y-207105040D01*
X300718000Y-207105750D01*
X300373000Y-207105750D01*
X300358542Y-207105040D01*
X300344224Y-207102916D01*
X300330183Y-207099399D01*
X300316554Y-207094522D01*
X300303469Y-207088333D01*
X300291053Y-207080892D01*
X300279427Y-207072269D01*
X300268702Y-207062548D01*
X300258981Y-207051823D01*
X300250358Y-207040197D01*
X300242917Y-207027781D01*
X300236728Y-207014696D01*
X300231851Y-207001067D01*
X300228334Y-206987026D01*
X300226210Y-206972708D01*
X300225500Y-206958250D01*
X300225500Y-206663250D01*
X300226210Y-206648792D01*
X300228334Y-206634474D01*
X300231851Y-206620433D01*
X300236728Y-206606804D01*
X300242917Y-206593719D01*
X300250358Y-206581303D01*
X300258981Y-206569677D01*
X300268702Y-206558952D01*
X300279427Y-206549231D01*
X300291053Y-206540608D01*
X300303469Y-206533167D01*
X300316554Y-206526978D01*
X300330183Y-206522101D01*
X300344224Y-206518584D01*
X300358542Y-206516460D01*
X300373000Y-206515750D01*
X300718000Y-206515750D01*
X300732458Y-206516460D01*
X300732458Y-206516460D01*
G37*
D20*
X300545500Y-206810750D03*
D19*
G36*
X300732458Y-207486460D02*
G01*
X300746776Y-207488584D01*
X300760817Y-207492101D01*
X300774446Y-207496978D01*
X300787531Y-207503167D01*
X300799947Y-207510608D01*
X300811573Y-207519231D01*
X300822298Y-207528952D01*
X300832019Y-207539677D01*
X300840642Y-207551303D01*
X300848083Y-207563719D01*
X300854272Y-207576804D01*
X300859149Y-207590433D01*
X300862666Y-207604474D01*
X300864790Y-207618792D01*
X300865500Y-207633250D01*
X300865500Y-207928250D01*
X300864790Y-207942708D01*
X300862666Y-207957026D01*
X300859149Y-207971067D01*
X300854272Y-207984696D01*
X300848083Y-207997781D01*
X300840642Y-208010197D01*
X300832019Y-208021823D01*
X300822298Y-208032548D01*
X300811573Y-208042269D01*
X300799947Y-208050892D01*
X300787531Y-208058333D01*
X300774446Y-208064522D01*
X300760817Y-208069399D01*
X300746776Y-208072916D01*
X300732458Y-208075040D01*
X300718000Y-208075750D01*
X300373000Y-208075750D01*
X300358542Y-208075040D01*
X300344224Y-208072916D01*
X300330183Y-208069399D01*
X300316554Y-208064522D01*
X300303469Y-208058333D01*
X300291053Y-208050892D01*
X300279427Y-208042269D01*
X300268702Y-208032548D01*
X300258981Y-208021823D01*
X300250358Y-208010197D01*
X300242917Y-207997781D01*
X300236728Y-207984696D01*
X300231851Y-207971067D01*
X300228334Y-207957026D01*
X300226210Y-207942708D01*
X300225500Y-207928250D01*
X300225500Y-207633250D01*
X300226210Y-207618792D01*
X300228334Y-207604474D01*
X300231851Y-207590433D01*
X300236728Y-207576804D01*
X300242917Y-207563719D01*
X300250358Y-207551303D01*
X300258981Y-207539677D01*
X300268702Y-207528952D01*
X300279427Y-207519231D01*
X300291053Y-207510608D01*
X300303469Y-207503167D01*
X300316554Y-207496978D01*
X300330183Y-207492101D01*
X300344224Y-207488584D01*
X300358542Y-207486460D01*
X300373000Y-207485750D01*
X300718000Y-207485750D01*
X300732458Y-207486460D01*
X300732458Y-207486460D01*
G37*
D20*
X300545500Y-207780750D03*
D19*
G36*
X286027691Y-209361303D02*
G01*
X286048926Y-209364453D01*
X286069750Y-209369669D01*
X286089962Y-209376901D01*
X286109368Y-209386080D01*
X286127781Y-209397116D01*
X286145024Y-209409904D01*
X286160930Y-209424320D01*
X286175346Y-209440226D01*
X286188134Y-209457469D01*
X286199170Y-209475882D01*
X286208349Y-209495288D01*
X286215581Y-209515500D01*
X286220797Y-209536324D01*
X286223947Y-209557559D01*
X286225000Y-209579000D01*
X286225000Y-210016500D01*
X286223947Y-210037941D01*
X286220797Y-210059176D01*
X286215581Y-210080000D01*
X286208349Y-210100212D01*
X286199170Y-210119618D01*
X286188134Y-210138031D01*
X286175346Y-210155274D01*
X286160930Y-210171180D01*
X286145024Y-210185596D01*
X286127781Y-210198384D01*
X286109368Y-210209420D01*
X286089962Y-210218599D01*
X286069750Y-210225831D01*
X286048926Y-210231047D01*
X286027691Y-210234197D01*
X286006250Y-210235250D01*
X285493750Y-210235250D01*
X285472309Y-210234197D01*
X285451074Y-210231047D01*
X285430250Y-210225831D01*
X285410038Y-210218599D01*
X285390632Y-210209420D01*
X285372219Y-210198384D01*
X285354976Y-210185596D01*
X285339070Y-210171180D01*
X285324654Y-210155274D01*
X285311866Y-210138031D01*
X285300830Y-210119618D01*
X285291651Y-210100212D01*
X285284419Y-210080000D01*
X285279203Y-210059176D01*
X285276053Y-210037941D01*
X285275000Y-210016500D01*
X285275000Y-209579000D01*
X285276053Y-209557559D01*
X285279203Y-209536324D01*
X285284419Y-209515500D01*
X285291651Y-209495288D01*
X285300830Y-209475882D01*
X285311866Y-209457469D01*
X285324654Y-209440226D01*
X285339070Y-209424320D01*
X285354976Y-209409904D01*
X285372219Y-209397116D01*
X285390632Y-209386080D01*
X285410038Y-209376901D01*
X285430250Y-209369669D01*
X285451074Y-209364453D01*
X285472309Y-209361303D01*
X285493750Y-209360250D01*
X286006250Y-209360250D01*
X286027691Y-209361303D01*
X286027691Y-209361303D01*
G37*
D25*
X285750000Y-209797750D03*
D19*
G36*
X286027691Y-207786303D02*
G01*
X286048926Y-207789453D01*
X286069750Y-207794669D01*
X286089962Y-207801901D01*
X286109368Y-207811080D01*
X286127781Y-207822116D01*
X286145024Y-207834904D01*
X286160930Y-207849320D01*
X286175346Y-207865226D01*
X286188134Y-207882469D01*
X286199170Y-207900882D01*
X286208349Y-207920288D01*
X286215581Y-207940500D01*
X286220797Y-207961324D01*
X286223947Y-207982559D01*
X286225000Y-208004000D01*
X286225000Y-208441500D01*
X286223947Y-208462941D01*
X286220797Y-208484176D01*
X286215581Y-208505000D01*
X286208349Y-208525212D01*
X286199170Y-208544618D01*
X286188134Y-208563031D01*
X286175346Y-208580274D01*
X286160930Y-208596180D01*
X286145024Y-208610596D01*
X286127781Y-208623384D01*
X286109368Y-208634420D01*
X286089962Y-208643599D01*
X286069750Y-208650831D01*
X286048926Y-208656047D01*
X286027691Y-208659197D01*
X286006250Y-208660250D01*
X285493750Y-208660250D01*
X285472309Y-208659197D01*
X285451074Y-208656047D01*
X285430250Y-208650831D01*
X285410038Y-208643599D01*
X285390632Y-208634420D01*
X285372219Y-208623384D01*
X285354976Y-208610596D01*
X285339070Y-208596180D01*
X285324654Y-208580274D01*
X285311866Y-208563031D01*
X285300830Y-208544618D01*
X285291651Y-208525212D01*
X285284419Y-208505000D01*
X285279203Y-208484176D01*
X285276053Y-208462941D01*
X285275000Y-208441500D01*
X285275000Y-208004000D01*
X285276053Y-207982559D01*
X285279203Y-207961324D01*
X285284419Y-207940500D01*
X285291651Y-207920288D01*
X285300830Y-207900882D01*
X285311866Y-207882469D01*
X285324654Y-207865226D01*
X285339070Y-207849320D01*
X285354976Y-207834904D01*
X285372219Y-207822116D01*
X285390632Y-207811080D01*
X285410038Y-207801901D01*
X285430250Y-207794669D01*
X285451074Y-207789453D01*
X285472309Y-207786303D01*
X285493750Y-207785250D01*
X286006250Y-207785250D01*
X286027691Y-207786303D01*
X286027691Y-207786303D01*
G37*
D25*
X285750000Y-208222750D03*
D19*
G36*
X287524458Y-209200960D02*
G01*
X287538776Y-209203084D01*
X287552817Y-209206601D01*
X287566446Y-209211478D01*
X287579531Y-209217667D01*
X287591947Y-209225108D01*
X287603573Y-209233731D01*
X287614298Y-209243452D01*
X287624019Y-209254177D01*
X287632642Y-209265803D01*
X287640083Y-209278219D01*
X287646272Y-209291304D01*
X287651149Y-209304933D01*
X287654666Y-209318974D01*
X287656790Y-209333292D01*
X287657500Y-209347750D01*
X287657500Y-209642750D01*
X287656790Y-209657208D01*
X287654666Y-209671526D01*
X287651149Y-209685567D01*
X287646272Y-209699196D01*
X287640083Y-209712281D01*
X287632642Y-209724697D01*
X287624019Y-209736323D01*
X287614298Y-209747048D01*
X287603573Y-209756769D01*
X287591947Y-209765392D01*
X287579531Y-209772833D01*
X287566446Y-209779022D01*
X287552817Y-209783899D01*
X287538776Y-209787416D01*
X287524458Y-209789540D01*
X287510000Y-209790250D01*
X287165000Y-209790250D01*
X287150542Y-209789540D01*
X287136224Y-209787416D01*
X287122183Y-209783899D01*
X287108554Y-209779022D01*
X287095469Y-209772833D01*
X287083053Y-209765392D01*
X287071427Y-209756769D01*
X287060702Y-209747048D01*
X287050981Y-209736323D01*
X287042358Y-209724697D01*
X287034917Y-209712281D01*
X287028728Y-209699196D01*
X287023851Y-209685567D01*
X287020334Y-209671526D01*
X287018210Y-209657208D01*
X287017500Y-209642750D01*
X287017500Y-209347750D01*
X287018210Y-209333292D01*
X287020334Y-209318974D01*
X287023851Y-209304933D01*
X287028728Y-209291304D01*
X287034917Y-209278219D01*
X287042358Y-209265803D01*
X287050981Y-209254177D01*
X287060702Y-209243452D01*
X287071427Y-209233731D01*
X287083053Y-209225108D01*
X287095469Y-209217667D01*
X287108554Y-209211478D01*
X287122183Y-209206601D01*
X287136224Y-209203084D01*
X287150542Y-209200960D01*
X287165000Y-209200250D01*
X287510000Y-209200250D01*
X287524458Y-209200960D01*
X287524458Y-209200960D01*
G37*
D20*
X287337500Y-209495250D03*
D19*
G36*
X287524458Y-208230960D02*
G01*
X287538776Y-208233084D01*
X287552817Y-208236601D01*
X287566446Y-208241478D01*
X287579531Y-208247667D01*
X287591947Y-208255108D01*
X287603573Y-208263731D01*
X287614298Y-208273452D01*
X287624019Y-208284177D01*
X287632642Y-208295803D01*
X287640083Y-208308219D01*
X287646272Y-208321304D01*
X287651149Y-208334933D01*
X287654666Y-208348974D01*
X287656790Y-208363292D01*
X287657500Y-208377750D01*
X287657500Y-208672750D01*
X287656790Y-208687208D01*
X287654666Y-208701526D01*
X287651149Y-208715567D01*
X287646272Y-208729196D01*
X287640083Y-208742281D01*
X287632642Y-208754697D01*
X287624019Y-208766323D01*
X287614298Y-208777048D01*
X287603573Y-208786769D01*
X287591947Y-208795392D01*
X287579531Y-208802833D01*
X287566446Y-208809022D01*
X287552817Y-208813899D01*
X287538776Y-208817416D01*
X287524458Y-208819540D01*
X287510000Y-208820250D01*
X287165000Y-208820250D01*
X287150542Y-208819540D01*
X287136224Y-208817416D01*
X287122183Y-208813899D01*
X287108554Y-208809022D01*
X287095469Y-208802833D01*
X287083053Y-208795392D01*
X287071427Y-208786769D01*
X287060702Y-208777048D01*
X287050981Y-208766323D01*
X287042358Y-208754697D01*
X287034917Y-208742281D01*
X287028728Y-208729196D01*
X287023851Y-208715567D01*
X287020334Y-208701526D01*
X287018210Y-208687208D01*
X287017500Y-208672750D01*
X287017500Y-208377750D01*
X287018210Y-208363292D01*
X287020334Y-208348974D01*
X287023851Y-208334933D01*
X287028728Y-208321304D01*
X287034917Y-208308219D01*
X287042358Y-208295803D01*
X287050981Y-208284177D01*
X287060702Y-208273452D01*
X287071427Y-208263731D01*
X287083053Y-208255108D01*
X287095469Y-208247667D01*
X287108554Y-208241478D01*
X287122183Y-208236601D01*
X287136224Y-208233084D01*
X287150542Y-208230960D01*
X287165000Y-208230250D01*
X287510000Y-208230250D01*
X287524458Y-208230960D01*
X287524458Y-208230960D01*
G37*
D20*
X287337500Y-208525250D03*
D26*
X116014500Y-151431750D03*
X115064500Y-153431750D03*
X116964500Y-153431750D03*
D19*
G36*
X296236126Y-214715301D02*
G01*
X296242193Y-214716201D01*
X296248143Y-214717691D01*
X296253918Y-214719758D01*
X296259462Y-214722380D01*
X296264723Y-214725533D01*
X296269650Y-214729187D01*
X296274194Y-214733306D01*
X296278313Y-214737850D01*
X296281967Y-214742777D01*
X296285120Y-214748038D01*
X296287742Y-214753582D01*
X296289809Y-214759357D01*
X296291299Y-214765307D01*
X296292199Y-214771374D01*
X296292500Y-214777500D01*
X296292500Y-214902500D01*
X296292199Y-214908626D01*
X296291299Y-214914693D01*
X296289809Y-214920643D01*
X296287742Y-214926418D01*
X296285120Y-214931962D01*
X296281967Y-214937223D01*
X296278313Y-214942150D01*
X296274194Y-214946694D01*
X296269650Y-214950813D01*
X296264723Y-214954467D01*
X296259462Y-214957620D01*
X296253918Y-214960242D01*
X296248143Y-214962309D01*
X296242193Y-214963799D01*
X296236126Y-214964699D01*
X296230000Y-214965000D01*
X295480000Y-214965000D01*
X295473874Y-214964699D01*
X295467807Y-214963799D01*
X295461857Y-214962309D01*
X295456082Y-214960242D01*
X295450538Y-214957620D01*
X295445277Y-214954467D01*
X295440350Y-214950813D01*
X295435806Y-214946694D01*
X295431687Y-214942150D01*
X295428033Y-214937223D01*
X295424880Y-214931962D01*
X295422258Y-214926418D01*
X295420191Y-214920643D01*
X295418701Y-214914693D01*
X295417801Y-214908626D01*
X295417500Y-214902500D01*
X295417500Y-214777500D01*
X295417801Y-214771374D01*
X295418701Y-214765307D01*
X295420191Y-214759357D01*
X295422258Y-214753582D01*
X295424880Y-214748038D01*
X295428033Y-214742777D01*
X295431687Y-214737850D01*
X295435806Y-214733306D01*
X295440350Y-214729187D01*
X295445277Y-214725533D01*
X295450538Y-214722380D01*
X295456082Y-214719758D01*
X295461857Y-214717691D01*
X295467807Y-214716201D01*
X295473874Y-214715301D01*
X295480000Y-214715000D01*
X296230000Y-214715000D01*
X296236126Y-214715301D01*
X296236126Y-214715301D01*
G37*
D27*
X295855000Y-214840000D03*
D19*
G36*
X296236126Y-214215301D02*
G01*
X296242193Y-214216201D01*
X296248143Y-214217691D01*
X296253918Y-214219758D01*
X296259462Y-214222380D01*
X296264723Y-214225533D01*
X296269650Y-214229187D01*
X296274194Y-214233306D01*
X296278313Y-214237850D01*
X296281967Y-214242777D01*
X296285120Y-214248038D01*
X296287742Y-214253582D01*
X296289809Y-214259357D01*
X296291299Y-214265307D01*
X296292199Y-214271374D01*
X296292500Y-214277500D01*
X296292500Y-214402500D01*
X296292199Y-214408626D01*
X296291299Y-214414693D01*
X296289809Y-214420643D01*
X296287742Y-214426418D01*
X296285120Y-214431962D01*
X296281967Y-214437223D01*
X296278313Y-214442150D01*
X296274194Y-214446694D01*
X296269650Y-214450813D01*
X296264723Y-214454467D01*
X296259462Y-214457620D01*
X296253918Y-214460242D01*
X296248143Y-214462309D01*
X296242193Y-214463799D01*
X296236126Y-214464699D01*
X296230000Y-214465000D01*
X295480000Y-214465000D01*
X295473874Y-214464699D01*
X295467807Y-214463799D01*
X295461857Y-214462309D01*
X295456082Y-214460242D01*
X295450538Y-214457620D01*
X295445277Y-214454467D01*
X295440350Y-214450813D01*
X295435806Y-214446694D01*
X295431687Y-214442150D01*
X295428033Y-214437223D01*
X295424880Y-214431962D01*
X295422258Y-214426418D01*
X295420191Y-214420643D01*
X295418701Y-214414693D01*
X295417801Y-214408626D01*
X295417500Y-214402500D01*
X295417500Y-214277500D01*
X295417801Y-214271374D01*
X295418701Y-214265307D01*
X295420191Y-214259357D01*
X295422258Y-214253582D01*
X295424880Y-214248038D01*
X295428033Y-214242777D01*
X295431687Y-214237850D01*
X295435806Y-214233306D01*
X295440350Y-214229187D01*
X295445277Y-214225533D01*
X295450538Y-214222380D01*
X295456082Y-214219758D01*
X295461857Y-214217691D01*
X295467807Y-214216201D01*
X295473874Y-214215301D01*
X295480000Y-214215000D01*
X296230000Y-214215000D01*
X296236126Y-214215301D01*
X296236126Y-214215301D01*
G37*
D27*
X295855000Y-214340000D03*
D19*
G36*
X296236126Y-213715301D02*
G01*
X296242193Y-213716201D01*
X296248143Y-213717691D01*
X296253918Y-213719758D01*
X296259462Y-213722380D01*
X296264723Y-213725533D01*
X296269650Y-213729187D01*
X296274194Y-213733306D01*
X296278313Y-213737850D01*
X296281967Y-213742777D01*
X296285120Y-213748038D01*
X296287742Y-213753582D01*
X296289809Y-213759357D01*
X296291299Y-213765307D01*
X296292199Y-213771374D01*
X296292500Y-213777500D01*
X296292500Y-213902500D01*
X296292199Y-213908626D01*
X296291299Y-213914693D01*
X296289809Y-213920643D01*
X296287742Y-213926418D01*
X296285120Y-213931962D01*
X296281967Y-213937223D01*
X296278313Y-213942150D01*
X296274194Y-213946694D01*
X296269650Y-213950813D01*
X296264723Y-213954467D01*
X296259462Y-213957620D01*
X296253918Y-213960242D01*
X296248143Y-213962309D01*
X296242193Y-213963799D01*
X296236126Y-213964699D01*
X296230000Y-213965000D01*
X295480000Y-213965000D01*
X295473874Y-213964699D01*
X295467807Y-213963799D01*
X295461857Y-213962309D01*
X295456082Y-213960242D01*
X295450538Y-213957620D01*
X295445277Y-213954467D01*
X295440350Y-213950813D01*
X295435806Y-213946694D01*
X295431687Y-213942150D01*
X295428033Y-213937223D01*
X295424880Y-213931962D01*
X295422258Y-213926418D01*
X295420191Y-213920643D01*
X295418701Y-213914693D01*
X295417801Y-213908626D01*
X295417500Y-213902500D01*
X295417500Y-213777500D01*
X295417801Y-213771374D01*
X295418701Y-213765307D01*
X295420191Y-213759357D01*
X295422258Y-213753582D01*
X295424880Y-213748038D01*
X295428033Y-213742777D01*
X295431687Y-213737850D01*
X295435806Y-213733306D01*
X295440350Y-213729187D01*
X295445277Y-213725533D01*
X295450538Y-213722380D01*
X295456082Y-213719758D01*
X295461857Y-213717691D01*
X295467807Y-213716201D01*
X295473874Y-213715301D01*
X295480000Y-213715000D01*
X296230000Y-213715000D01*
X296236126Y-213715301D01*
X296236126Y-213715301D01*
G37*
D27*
X295855000Y-213840000D03*
D19*
G36*
X296236126Y-213215301D02*
G01*
X296242193Y-213216201D01*
X296248143Y-213217691D01*
X296253918Y-213219758D01*
X296259462Y-213222380D01*
X296264723Y-213225533D01*
X296269650Y-213229187D01*
X296274194Y-213233306D01*
X296278313Y-213237850D01*
X296281967Y-213242777D01*
X296285120Y-213248038D01*
X296287742Y-213253582D01*
X296289809Y-213259357D01*
X296291299Y-213265307D01*
X296292199Y-213271374D01*
X296292500Y-213277500D01*
X296292500Y-213402500D01*
X296292199Y-213408626D01*
X296291299Y-213414693D01*
X296289809Y-213420643D01*
X296287742Y-213426418D01*
X296285120Y-213431962D01*
X296281967Y-213437223D01*
X296278313Y-213442150D01*
X296274194Y-213446694D01*
X296269650Y-213450813D01*
X296264723Y-213454467D01*
X296259462Y-213457620D01*
X296253918Y-213460242D01*
X296248143Y-213462309D01*
X296242193Y-213463799D01*
X296236126Y-213464699D01*
X296230000Y-213465000D01*
X295480000Y-213465000D01*
X295473874Y-213464699D01*
X295467807Y-213463799D01*
X295461857Y-213462309D01*
X295456082Y-213460242D01*
X295450538Y-213457620D01*
X295445277Y-213454467D01*
X295440350Y-213450813D01*
X295435806Y-213446694D01*
X295431687Y-213442150D01*
X295428033Y-213437223D01*
X295424880Y-213431962D01*
X295422258Y-213426418D01*
X295420191Y-213420643D01*
X295418701Y-213414693D01*
X295417801Y-213408626D01*
X295417500Y-213402500D01*
X295417500Y-213277500D01*
X295417801Y-213271374D01*
X295418701Y-213265307D01*
X295420191Y-213259357D01*
X295422258Y-213253582D01*
X295424880Y-213248038D01*
X295428033Y-213242777D01*
X295431687Y-213237850D01*
X295435806Y-213233306D01*
X295440350Y-213229187D01*
X295445277Y-213225533D01*
X295450538Y-213222380D01*
X295456082Y-213219758D01*
X295461857Y-213217691D01*
X295467807Y-213216201D01*
X295473874Y-213215301D01*
X295480000Y-213215000D01*
X296230000Y-213215000D01*
X296236126Y-213215301D01*
X296236126Y-213215301D01*
G37*
D27*
X295855000Y-213340000D03*
D19*
G36*
X296236126Y-212715301D02*
G01*
X296242193Y-212716201D01*
X296248143Y-212717691D01*
X296253918Y-212719758D01*
X296259462Y-212722380D01*
X296264723Y-212725533D01*
X296269650Y-212729187D01*
X296274194Y-212733306D01*
X296278313Y-212737850D01*
X296281967Y-212742777D01*
X296285120Y-212748038D01*
X296287742Y-212753582D01*
X296289809Y-212759357D01*
X296291299Y-212765307D01*
X296292199Y-212771374D01*
X296292500Y-212777500D01*
X296292500Y-212902500D01*
X296292199Y-212908626D01*
X296291299Y-212914693D01*
X296289809Y-212920643D01*
X296287742Y-212926418D01*
X296285120Y-212931962D01*
X296281967Y-212937223D01*
X296278313Y-212942150D01*
X296274194Y-212946694D01*
X296269650Y-212950813D01*
X296264723Y-212954467D01*
X296259462Y-212957620D01*
X296253918Y-212960242D01*
X296248143Y-212962309D01*
X296242193Y-212963799D01*
X296236126Y-212964699D01*
X296230000Y-212965000D01*
X295480000Y-212965000D01*
X295473874Y-212964699D01*
X295467807Y-212963799D01*
X295461857Y-212962309D01*
X295456082Y-212960242D01*
X295450538Y-212957620D01*
X295445277Y-212954467D01*
X295440350Y-212950813D01*
X295435806Y-212946694D01*
X295431687Y-212942150D01*
X295428033Y-212937223D01*
X295424880Y-212931962D01*
X295422258Y-212926418D01*
X295420191Y-212920643D01*
X295418701Y-212914693D01*
X295417801Y-212908626D01*
X295417500Y-212902500D01*
X295417500Y-212777500D01*
X295417801Y-212771374D01*
X295418701Y-212765307D01*
X295420191Y-212759357D01*
X295422258Y-212753582D01*
X295424880Y-212748038D01*
X295428033Y-212742777D01*
X295431687Y-212737850D01*
X295435806Y-212733306D01*
X295440350Y-212729187D01*
X295445277Y-212725533D01*
X295450538Y-212722380D01*
X295456082Y-212719758D01*
X295461857Y-212717691D01*
X295467807Y-212716201D01*
X295473874Y-212715301D01*
X295480000Y-212715000D01*
X296230000Y-212715000D01*
X296236126Y-212715301D01*
X296236126Y-212715301D01*
G37*
D27*
X295855000Y-212840000D03*
D19*
G36*
X296236126Y-212215301D02*
G01*
X296242193Y-212216201D01*
X296248143Y-212217691D01*
X296253918Y-212219758D01*
X296259462Y-212222380D01*
X296264723Y-212225533D01*
X296269650Y-212229187D01*
X296274194Y-212233306D01*
X296278313Y-212237850D01*
X296281967Y-212242777D01*
X296285120Y-212248038D01*
X296287742Y-212253582D01*
X296289809Y-212259357D01*
X296291299Y-212265307D01*
X296292199Y-212271374D01*
X296292500Y-212277500D01*
X296292500Y-212402500D01*
X296292199Y-212408626D01*
X296291299Y-212414693D01*
X296289809Y-212420643D01*
X296287742Y-212426418D01*
X296285120Y-212431962D01*
X296281967Y-212437223D01*
X296278313Y-212442150D01*
X296274194Y-212446694D01*
X296269650Y-212450813D01*
X296264723Y-212454467D01*
X296259462Y-212457620D01*
X296253918Y-212460242D01*
X296248143Y-212462309D01*
X296242193Y-212463799D01*
X296236126Y-212464699D01*
X296230000Y-212465000D01*
X295480000Y-212465000D01*
X295473874Y-212464699D01*
X295467807Y-212463799D01*
X295461857Y-212462309D01*
X295456082Y-212460242D01*
X295450538Y-212457620D01*
X295445277Y-212454467D01*
X295440350Y-212450813D01*
X295435806Y-212446694D01*
X295431687Y-212442150D01*
X295428033Y-212437223D01*
X295424880Y-212431962D01*
X295422258Y-212426418D01*
X295420191Y-212420643D01*
X295418701Y-212414693D01*
X295417801Y-212408626D01*
X295417500Y-212402500D01*
X295417500Y-212277500D01*
X295417801Y-212271374D01*
X295418701Y-212265307D01*
X295420191Y-212259357D01*
X295422258Y-212253582D01*
X295424880Y-212248038D01*
X295428033Y-212242777D01*
X295431687Y-212237850D01*
X295435806Y-212233306D01*
X295440350Y-212229187D01*
X295445277Y-212225533D01*
X295450538Y-212222380D01*
X295456082Y-212219758D01*
X295461857Y-212217691D01*
X295467807Y-212216201D01*
X295473874Y-212215301D01*
X295480000Y-212215000D01*
X296230000Y-212215000D01*
X296236126Y-212215301D01*
X296236126Y-212215301D01*
G37*
D27*
X295855000Y-212340000D03*
D19*
G36*
X296236126Y-211715301D02*
G01*
X296242193Y-211716201D01*
X296248143Y-211717691D01*
X296253918Y-211719758D01*
X296259462Y-211722380D01*
X296264723Y-211725533D01*
X296269650Y-211729187D01*
X296274194Y-211733306D01*
X296278313Y-211737850D01*
X296281967Y-211742777D01*
X296285120Y-211748038D01*
X296287742Y-211753582D01*
X296289809Y-211759357D01*
X296291299Y-211765307D01*
X296292199Y-211771374D01*
X296292500Y-211777500D01*
X296292500Y-211902500D01*
X296292199Y-211908626D01*
X296291299Y-211914693D01*
X296289809Y-211920643D01*
X296287742Y-211926418D01*
X296285120Y-211931962D01*
X296281967Y-211937223D01*
X296278313Y-211942150D01*
X296274194Y-211946694D01*
X296269650Y-211950813D01*
X296264723Y-211954467D01*
X296259462Y-211957620D01*
X296253918Y-211960242D01*
X296248143Y-211962309D01*
X296242193Y-211963799D01*
X296236126Y-211964699D01*
X296230000Y-211965000D01*
X295480000Y-211965000D01*
X295473874Y-211964699D01*
X295467807Y-211963799D01*
X295461857Y-211962309D01*
X295456082Y-211960242D01*
X295450538Y-211957620D01*
X295445277Y-211954467D01*
X295440350Y-211950813D01*
X295435806Y-211946694D01*
X295431687Y-211942150D01*
X295428033Y-211937223D01*
X295424880Y-211931962D01*
X295422258Y-211926418D01*
X295420191Y-211920643D01*
X295418701Y-211914693D01*
X295417801Y-211908626D01*
X295417500Y-211902500D01*
X295417500Y-211777500D01*
X295417801Y-211771374D01*
X295418701Y-211765307D01*
X295420191Y-211759357D01*
X295422258Y-211753582D01*
X295424880Y-211748038D01*
X295428033Y-211742777D01*
X295431687Y-211737850D01*
X295435806Y-211733306D01*
X295440350Y-211729187D01*
X295445277Y-211725533D01*
X295450538Y-211722380D01*
X295456082Y-211719758D01*
X295461857Y-211717691D01*
X295467807Y-211716201D01*
X295473874Y-211715301D01*
X295480000Y-211715000D01*
X296230000Y-211715000D01*
X296236126Y-211715301D01*
X296236126Y-211715301D01*
G37*
D27*
X295855000Y-211840000D03*
D19*
G36*
X296236126Y-211215301D02*
G01*
X296242193Y-211216201D01*
X296248143Y-211217691D01*
X296253918Y-211219758D01*
X296259462Y-211222380D01*
X296264723Y-211225533D01*
X296269650Y-211229187D01*
X296274194Y-211233306D01*
X296278313Y-211237850D01*
X296281967Y-211242777D01*
X296285120Y-211248038D01*
X296287742Y-211253582D01*
X296289809Y-211259357D01*
X296291299Y-211265307D01*
X296292199Y-211271374D01*
X296292500Y-211277500D01*
X296292500Y-211402500D01*
X296292199Y-211408626D01*
X296291299Y-211414693D01*
X296289809Y-211420643D01*
X296287742Y-211426418D01*
X296285120Y-211431962D01*
X296281967Y-211437223D01*
X296278313Y-211442150D01*
X296274194Y-211446694D01*
X296269650Y-211450813D01*
X296264723Y-211454467D01*
X296259462Y-211457620D01*
X296253918Y-211460242D01*
X296248143Y-211462309D01*
X296242193Y-211463799D01*
X296236126Y-211464699D01*
X296230000Y-211465000D01*
X295480000Y-211465000D01*
X295473874Y-211464699D01*
X295467807Y-211463799D01*
X295461857Y-211462309D01*
X295456082Y-211460242D01*
X295450538Y-211457620D01*
X295445277Y-211454467D01*
X295440350Y-211450813D01*
X295435806Y-211446694D01*
X295431687Y-211442150D01*
X295428033Y-211437223D01*
X295424880Y-211431962D01*
X295422258Y-211426418D01*
X295420191Y-211420643D01*
X295418701Y-211414693D01*
X295417801Y-211408626D01*
X295417500Y-211402500D01*
X295417500Y-211277500D01*
X295417801Y-211271374D01*
X295418701Y-211265307D01*
X295420191Y-211259357D01*
X295422258Y-211253582D01*
X295424880Y-211248038D01*
X295428033Y-211242777D01*
X295431687Y-211237850D01*
X295435806Y-211233306D01*
X295440350Y-211229187D01*
X295445277Y-211225533D01*
X295450538Y-211222380D01*
X295456082Y-211219758D01*
X295461857Y-211217691D01*
X295467807Y-211216201D01*
X295473874Y-211215301D01*
X295480000Y-211215000D01*
X296230000Y-211215000D01*
X296236126Y-211215301D01*
X296236126Y-211215301D01*
G37*
D27*
X295855000Y-211340000D03*
D19*
G36*
X296236126Y-210715301D02*
G01*
X296242193Y-210716201D01*
X296248143Y-210717691D01*
X296253918Y-210719758D01*
X296259462Y-210722380D01*
X296264723Y-210725533D01*
X296269650Y-210729187D01*
X296274194Y-210733306D01*
X296278313Y-210737850D01*
X296281967Y-210742777D01*
X296285120Y-210748038D01*
X296287742Y-210753582D01*
X296289809Y-210759357D01*
X296291299Y-210765307D01*
X296292199Y-210771374D01*
X296292500Y-210777500D01*
X296292500Y-210902500D01*
X296292199Y-210908626D01*
X296291299Y-210914693D01*
X296289809Y-210920643D01*
X296287742Y-210926418D01*
X296285120Y-210931962D01*
X296281967Y-210937223D01*
X296278313Y-210942150D01*
X296274194Y-210946694D01*
X296269650Y-210950813D01*
X296264723Y-210954467D01*
X296259462Y-210957620D01*
X296253918Y-210960242D01*
X296248143Y-210962309D01*
X296242193Y-210963799D01*
X296236126Y-210964699D01*
X296230000Y-210965000D01*
X295480000Y-210965000D01*
X295473874Y-210964699D01*
X295467807Y-210963799D01*
X295461857Y-210962309D01*
X295456082Y-210960242D01*
X295450538Y-210957620D01*
X295445277Y-210954467D01*
X295440350Y-210950813D01*
X295435806Y-210946694D01*
X295431687Y-210942150D01*
X295428033Y-210937223D01*
X295424880Y-210931962D01*
X295422258Y-210926418D01*
X295420191Y-210920643D01*
X295418701Y-210914693D01*
X295417801Y-210908626D01*
X295417500Y-210902500D01*
X295417500Y-210777500D01*
X295417801Y-210771374D01*
X295418701Y-210765307D01*
X295420191Y-210759357D01*
X295422258Y-210753582D01*
X295424880Y-210748038D01*
X295428033Y-210742777D01*
X295431687Y-210737850D01*
X295435806Y-210733306D01*
X295440350Y-210729187D01*
X295445277Y-210725533D01*
X295450538Y-210722380D01*
X295456082Y-210719758D01*
X295461857Y-210717691D01*
X295467807Y-210716201D01*
X295473874Y-210715301D01*
X295480000Y-210715000D01*
X296230000Y-210715000D01*
X296236126Y-210715301D01*
X296236126Y-210715301D01*
G37*
D27*
X295855000Y-210840000D03*
D19*
G36*
X296236126Y-210215301D02*
G01*
X296242193Y-210216201D01*
X296248143Y-210217691D01*
X296253918Y-210219758D01*
X296259462Y-210222380D01*
X296264723Y-210225533D01*
X296269650Y-210229187D01*
X296274194Y-210233306D01*
X296278313Y-210237850D01*
X296281967Y-210242777D01*
X296285120Y-210248038D01*
X296287742Y-210253582D01*
X296289809Y-210259357D01*
X296291299Y-210265307D01*
X296292199Y-210271374D01*
X296292500Y-210277500D01*
X296292500Y-210402500D01*
X296292199Y-210408626D01*
X296291299Y-210414693D01*
X296289809Y-210420643D01*
X296287742Y-210426418D01*
X296285120Y-210431962D01*
X296281967Y-210437223D01*
X296278313Y-210442150D01*
X296274194Y-210446694D01*
X296269650Y-210450813D01*
X296264723Y-210454467D01*
X296259462Y-210457620D01*
X296253918Y-210460242D01*
X296248143Y-210462309D01*
X296242193Y-210463799D01*
X296236126Y-210464699D01*
X296230000Y-210465000D01*
X295480000Y-210465000D01*
X295473874Y-210464699D01*
X295467807Y-210463799D01*
X295461857Y-210462309D01*
X295456082Y-210460242D01*
X295450538Y-210457620D01*
X295445277Y-210454467D01*
X295440350Y-210450813D01*
X295435806Y-210446694D01*
X295431687Y-210442150D01*
X295428033Y-210437223D01*
X295424880Y-210431962D01*
X295422258Y-210426418D01*
X295420191Y-210420643D01*
X295418701Y-210414693D01*
X295417801Y-210408626D01*
X295417500Y-210402500D01*
X295417500Y-210277500D01*
X295417801Y-210271374D01*
X295418701Y-210265307D01*
X295420191Y-210259357D01*
X295422258Y-210253582D01*
X295424880Y-210248038D01*
X295428033Y-210242777D01*
X295431687Y-210237850D01*
X295435806Y-210233306D01*
X295440350Y-210229187D01*
X295445277Y-210225533D01*
X295450538Y-210222380D01*
X295456082Y-210219758D01*
X295461857Y-210217691D01*
X295467807Y-210216201D01*
X295473874Y-210215301D01*
X295480000Y-210215000D01*
X296230000Y-210215000D01*
X296236126Y-210215301D01*
X296236126Y-210215301D01*
G37*
D27*
X295855000Y-210340000D03*
D19*
G36*
X296236126Y-209715301D02*
G01*
X296242193Y-209716201D01*
X296248143Y-209717691D01*
X296253918Y-209719758D01*
X296259462Y-209722380D01*
X296264723Y-209725533D01*
X296269650Y-209729187D01*
X296274194Y-209733306D01*
X296278313Y-209737850D01*
X296281967Y-209742777D01*
X296285120Y-209748038D01*
X296287742Y-209753582D01*
X296289809Y-209759357D01*
X296291299Y-209765307D01*
X296292199Y-209771374D01*
X296292500Y-209777500D01*
X296292500Y-209902500D01*
X296292199Y-209908626D01*
X296291299Y-209914693D01*
X296289809Y-209920643D01*
X296287742Y-209926418D01*
X296285120Y-209931962D01*
X296281967Y-209937223D01*
X296278313Y-209942150D01*
X296274194Y-209946694D01*
X296269650Y-209950813D01*
X296264723Y-209954467D01*
X296259462Y-209957620D01*
X296253918Y-209960242D01*
X296248143Y-209962309D01*
X296242193Y-209963799D01*
X296236126Y-209964699D01*
X296230000Y-209965000D01*
X295480000Y-209965000D01*
X295473874Y-209964699D01*
X295467807Y-209963799D01*
X295461857Y-209962309D01*
X295456082Y-209960242D01*
X295450538Y-209957620D01*
X295445277Y-209954467D01*
X295440350Y-209950813D01*
X295435806Y-209946694D01*
X295431687Y-209942150D01*
X295428033Y-209937223D01*
X295424880Y-209931962D01*
X295422258Y-209926418D01*
X295420191Y-209920643D01*
X295418701Y-209914693D01*
X295417801Y-209908626D01*
X295417500Y-209902500D01*
X295417500Y-209777500D01*
X295417801Y-209771374D01*
X295418701Y-209765307D01*
X295420191Y-209759357D01*
X295422258Y-209753582D01*
X295424880Y-209748038D01*
X295428033Y-209742777D01*
X295431687Y-209737850D01*
X295435806Y-209733306D01*
X295440350Y-209729187D01*
X295445277Y-209725533D01*
X295450538Y-209722380D01*
X295456082Y-209719758D01*
X295461857Y-209717691D01*
X295467807Y-209716201D01*
X295473874Y-209715301D01*
X295480000Y-209715000D01*
X296230000Y-209715000D01*
X296236126Y-209715301D01*
X296236126Y-209715301D01*
G37*
D27*
X295855000Y-209840000D03*
D19*
G36*
X296236126Y-209215301D02*
G01*
X296242193Y-209216201D01*
X296248143Y-209217691D01*
X296253918Y-209219758D01*
X296259462Y-209222380D01*
X296264723Y-209225533D01*
X296269650Y-209229187D01*
X296274194Y-209233306D01*
X296278313Y-209237850D01*
X296281967Y-209242777D01*
X296285120Y-209248038D01*
X296287742Y-209253582D01*
X296289809Y-209259357D01*
X296291299Y-209265307D01*
X296292199Y-209271374D01*
X296292500Y-209277500D01*
X296292500Y-209402500D01*
X296292199Y-209408626D01*
X296291299Y-209414693D01*
X296289809Y-209420643D01*
X296287742Y-209426418D01*
X296285120Y-209431962D01*
X296281967Y-209437223D01*
X296278313Y-209442150D01*
X296274194Y-209446694D01*
X296269650Y-209450813D01*
X296264723Y-209454467D01*
X296259462Y-209457620D01*
X296253918Y-209460242D01*
X296248143Y-209462309D01*
X296242193Y-209463799D01*
X296236126Y-209464699D01*
X296230000Y-209465000D01*
X295480000Y-209465000D01*
X295473874Y-209464699D01*
X295467807Y-209463799D01*
X295461857Y-209462309D01*
X295456082Y-209460242D01*
X295450538Y-209457620D01*
X295445277Y-209454467D01*
X295440350Y-209450813D01*
X295435806Y-209446694D01*
X295431687Y-209442150D01*
X295428033Y-209437223D01*
X295424880Y-209431962D01*
X295422258Y-209426418D01*
X295420191Y-209420643D01*
X295418701Y-209414693D01*
X295417801Y-209408626D01*
X295417500Y-209402500D01*
X295417500Y-209277500D01*
X295417801Y-209271374D01*
X295418701Y-209265307D01*
X295420191Y-209259357D01*
X295422258Y-209253582D01*
X295424880Y-209248038D01*
X295428033Y-209242777D01*
X295431687Y-209237850D01*
X295435806Y-209233306D01*
X295440350Y-209229187D01*
X295445277Y-209225533D01*
X295450538Y-209222380D01*
X295456082Y-209219758D01*
X295461857Y-209217691D01*
X295467807Y-209216201D01*
X295473874Y-209215301D01*
X295480000Y-209215000D01*
X296230000Y-209215000D01*
X296236126Y-209215301D01*
X296236126Y-209215301D01*
G37*
D27*
X295855000Y-209340000D03*
D19*
G36*
X295236126Y-208215301D02*
G01*
X295242193Y-208216201D01*
X295248143Y-208217691D01*
X295253918Y-208219758D01*
X295259462Y-208222380D01*
X295264723Y-208225533D01*
X295269650Y-208229187D01*
X295274194Y-208233306D01*
X295278313Y-208237850D01*
X295281967Y-208242777D01*
X295285120Y-208248038D01*
X295287742Y-208253582D01*
X295289809Y-208259357D01*
X295291299Y-208265307D01*
X295292199Y-208271374D01*
X295292500Y-208277500D01*
X295292500Y-209027500D01*
X295292199Y-209033626D01*
X295291299Y-209039693D01*
X295289809Y-209045643D01*
X295287742Y-209051418D01*
X295285120Y-209056962D01*
X295281967Y-209062223D01*
X295278313Y-209067150D01*
X295274194Y-209071694D01*
X295269650Y-209075813D01*
X295264723Y-209079467D01*
X295259462Y-209082620D01*
X295253918Y-209085242D01*
X295248143Y-209087309D01*
X295242193Y-209088799D01*
X295236126Y-209089699D01*
X295230000Y-209090000D01*
X295105000Y-209090000D01*
X295098874Y-209089699D01*
X295092807Y-209088799D01*
X295086857Y-209087309D01*
X295081082Y-209085242D01*
X295075538Y-209082620D01*
X295070277Y-209079467D01*
X295065350Y-209075813D01*
X295060806Y-209071694D01*
X295056687Y-209067150D01*
X295053033Y-209062223D01*
X295049880Y-209056962D01*
X295047258Y-209051418D01*
X295045191Y-209045643D01*
X295043701Y-209039693D01*
X295042801Y-209033626D01*
X295042500Y-209027500D01*
X295042500Y-208277500D01*
X295042801Y-208271374D01*
X295043701Y-208265307D01*
X295045191Y-208259357D01*
X295047258Y-208253582D01*
X295049880Y-208248038D01*
X295053033Y-208242777D01*
X295056687Y-208237850D01*
X295060806Y-208233306D01*
X295065350Y-208229187D01*
X295070277Y-208225533D01*
X295075538Y-208222380D01*
X295081082Y-208219758D01*
X295086857Y-208217691D01*
X295092807Y-208216201D01*
X295098874Y-208215301D01*
X295105000Y-208215000D01*
X295230000Y-208215000D01*
X295236126Y-208215301D01*
X295236126Y-208215301D01*
G37*
D27*
X295167500Y-208652500D03*
D19*
G36*
X294736126Y-208215301D02*
G01*
X294742193Y-208216201D01*
X294748143Y-208217691D01*
X294753918Y-208219758D01*
X294759462Y-208222380D01*
X294764723Y-208225533D01*
X294769650Y-208229187D01*
X294774194Y-208233306D01*
X294778313Y-208237850D01*
X294781967Y-208242777D01*
X294785120Y-208248038D01*
X294787742Y-208253582D01*
X294789809Y-208259357D01*
X294791299Y-208265307D01*
X294792199Y-208271374D01*
X294792500Y-208277500D01*
X294792500Y-209027500D01*
X294792199Y-209033626D01*
X294791299Y-209039693D01*
X294789809Y-209045643D01*
X294787742Y-209051418D01*
X294785120Y-209056962D01*
X294781967Y-209062223D01*
X294778313Y-209067150D01*
X294774194Y-209071694D01*
X294769650Y-209075813D01*
X294764723Y-209079467D01*
X294759462Y-209082620D01*
X294753918Y-209085242D01*
X294748143Y-209087309D01*
X294742193Y-209088799D01*
X294736126Y-209089699D01*
X294730000Y-209090000D01*
X294605000Y-209090000D01*
X294598874Y-209089699D01*
X294592807Y-209088799D01*
X294586857Y-209087309D01*
X294581082Y-209085242D01*
X294575538Y-209082620D01*
X294570277Y-209079467D01*
X294565350Y-209075813D01*
X294560806Y-209071694D01*
X294556687Y-209067150D01*
X294553033Y-209062223D01*
X294549880Y-209056962D01*
X294547258Y-209051418D01*
X294545191Y-209045643D01*
X294543701Y-209039693D01*
X294542801Y-209033626D01*
X294542500Y-209027500D01*
X294542500Y-208277500D01*
X294542801Y-208271374D01*
X294543701Y-208265307D01*
X294545191Y-208259357D01*
X294547258Y-208253582D01*
X294549880Y-208248038D01*
X294553033Y-208242777D01*
X294556687Y-208237850D01*
X294560806Y-208233306D01*
X294565350Y-208229187D01*
X294570277Y-208225533D01*
X294575538Y-208222380D01*
X294581082Y-208219758D01*
X294586857Y-208217691D01*
X294592807Y-208216201D01*
X294598874Y-208215301D01*
X294605000Y-208215000D01*
X294730000Y-208215000D01*
X294736126Y-208215301D01*
X294736126Y-208215301D01*
G37*
D27*
X294667500Y-208652500D03*
D19*
G36*
X294236126Y-208215301D02*
G01*
X294242193Y-208216201D01*
X294248143Y-208217691D01*
X294253918Y-208219758D01*
X294259462Y-208222380D01*
X294264723Y-208225533D01*
X294269650Y-208229187D01*
X294274194Y-208233306D01*
X294278313Y-208237850D01*
X294281967Y-208242777D01*
X294285120Y-208248038D01*
X294287742Y-208253582D01*
X294289809Y-208259357D01*
X294291299Y-208265307D01*
X294292199Y-208271374D01*
X294292500Y-208277500D01*
X294292500Y-209027500D01*
X294292199Y-209033626D01*
X294291299Y-209039693D01*
X294289809Y-209045643D01*
X294287742Y-209051418D01*
X294285120Y-209056962D01*
X294281967Y-209062223D01*
X294278313Y-209067150D01*
X294274194Y-209071694D01*
X294269650Y-209075813D01*
X294264723Y-209079467D01*
X294259462Y-209082620D01*
X294253918Y-209085242D01*
X294248143Y-209087309D01*
X294242193Y-209088799D01*
X294236126Y-209089699D01*
X294230000Y-209090000D01*
X294105000Y-209090000D01*
X294098874Y-209089699D01*
X294092807Y-209088799D01*
X294086857Y-209087309D01*
X294081082Y-209085242D01*
X294075538Y-209082620D01*
X294070277Y-209079467D01*
X294065350Y-209075813D01*
X294060806Y-209071694D01*
X294056687Y-209067150D01*
X294053033Y-209062223D01*
X294049880Y-209056962D01*
X294047258Y-209051418D01*
X294045191Y-209045643D01*
X294043701Y-209039693D01*
X294042801Y-209033626D01*
X294042500Y-209027500D01*
X294042500Y-208277500D01*
X294042801Y-208271374D01*
X294043701Y-208265307D01*
X294045191Y-208259357D01*
X294047258Y-208253582D01*
X294049880Y-208248038D01*
X294053033Y-208242777D01*
X294056687Y-208237850D01*
X294060806Y-208233306D01*
X294065350Y-208229187D01*
X294070277Y-208225533D01*
X294075538Y-208222380D01*
X294081082Y-208219758D01*
X294086857Y-208217691D01*
X294092807Y-208216201D01*
X294098874Y-208215301D01*
X294105000Y-208215000D01*
X294230000Y-208215000D01*
X294236126Y-208215301D01*
X294236126Y-208215301D01*
G37*
D27*
X294167500Y-208652500D03*
D19*
G36*
X293736126Y-208215301D02*
G01*
X293742193Y-208216201D01*
X293748143Y-208217691D01*
X293753918Y-208219758D01*
X293759462Y-208222380D01*
X293764723Y-208225533D01*
X293769650Y-208229187D01*
X293774194Y-208233306D01*
X293778313Y-208237850D01*
X293781967Y-208242777D01*
X293785120Y-208248038D01*
X293787742Y-208253582D01*
X293789809Y-208259357D01*
X293791299Y-208265307D01*
X293792199Y-208271374D01*
X293792500Y-208277500D01*
X293792500Y-209027500D01*
X293792199Y-209033626D01*
X293791299Y-209039693D01*
X293789809Y-209045643D01*
X293787742Y-209051418D01*
X293785120Y-209056962D01*
X293781967Y-209062223D01*
X293778313Y-209067150D01*
X293774194Y-209071694D01*
X293769650Y-209075813D01*
X293764723Y-209079467D01*
X293759462Y-209082620D01*
X293753918Y-209085242D01*
X293748143Y-209087309D01*
X293742193Y-209088799D01*
X293736126Y-209089699D01*
X293730000Y-209090000D01*
X293605000Y-209090000D01*
X293598874Y-209089699D01*
X293592807Y-209088799D01*
X293586857Y-209087309D01*
X293581082Y-209085242D01*
X293575538Y-209082620D01*
X293570277Y-209079467D01*
X293565350Y-209075813D01*
X293560806Y-209071694D01*
X293556687Y-209067150D01*
X293553033Y-209062223D01*
X293549880Y-209056962D01*
X293547258Y-209051418D01*
X293545191Y-209045643D01*
X293543701Y-209039693D01*
X293542801Y-209033626D01*
X293542500Y-209027500D01*
X293542500Y-208277500D01*
X293542801Y-208271374D01*
X293543701Y-208265307D01*
X293545191Y-208259357D01*
X293547258Y-208253582D01*
X293549880Y-208248038D01*
X293553033Y-208242777D01*
X293556687Y-208237850D01*
X293560806Y-208233306D01*
X293565350Y-208229187D01*
X293570277Y-208225533D01*
X293575538Y-208222380D01*
X293581082Y-208219758D01*
X293586857Y-208217691D01*
X293592807Y-208216201D01*
X293598874Y-208215301D01*
X293605000Y-208215000D01*
X293730000Y-208215000D01*
X293736126Y-208215301D01*
X293736126Y-208215301D01*
G37*
D27*
X293667500Y-208652500D03*
D19*
G36*
X293236126Y-208215301D02*
G01*
X293242193Y-208216201D01*
X293248143Y-208217691D01*
X293253918Y-208219758D01*
X293259462Y-208222380D01*
X293264723Y-208225533D01*
X293269650Y-208229187D01*
X293274194Y-208233306D01*
X293278313Y-208237850D01*
X293281967Y-208242777D01*
X293285120Y-208248038D01*
X293287742Y-208253582D01*
X293289809Y-208259357D01*
X293291299Y-208265307D01*
X293292199Y-208271374D01*
X293292500Y-208277500D01*
X293292500Y-209027500D01*
X293292199Y-209033626D01*
X293291299Y-209039693D01*
X293289809Y-209045643D01*
X293287742Y-209051418D01*
X293285120Y-209056962D01*
X293281967Y-209062223D01*
X293278313Y-209067150D01*
X293274194Y-209071694D01*
X293269650Y-209075813D01*
X293264723Y-209079467D01*
X293259462Y-209082620D01*
X293253918Y-209085242D01*
X293248143Y-209087309D01*
X293242193Y-209088799D01*
X293236126Y-209089699D01*
X293230000Y-209090000D01*
X293105000Y-209090000D01*
X293098874Y-209089699D01*
X293092807Y-209088799D01*
X293086857Y-209087309D01*
X293081082Y-209085242D01*
X293075538Y-209082620D01*
X293070277Y-209079467D01*
X293065350Y-209075813D01*
X293060806Y-209071694D01*
X293056687Y-209067150D01*
X293053033Y-209062223D01*
X293049880Y-209056962D01*
X293047258Y-209051418D01*
X293045191Y-209045643D01*
X293043701Y-209039693D01*
X293042801Y-209033626D01*
X293042500Y-209027500D01*
X293042500Y-208277500D01*
X293042801Y-208271374D01*
X293043701Y-208265307D01*
X293045191Y-208259357D01*
X293047258Y-208253582D01*
X293049880Y-208248038D01*
X293053033Y-208242777D01*
X293056687Y-208237850D01*
X293060806Y-208233306D01*
X293065350Y-208229187D01*
X293070277Y-208225533D01*
X293075538Y-208222380D01*
X293081082Y-208219758D01*
X293086857Y-208217691D01*
X293092807Y-208216201D01*
X293098874Y-208215301D01*
X293105000Y-208215000D01*
X293230000Y-208215000D01*
X293236126Y-208215301D01*
X293236126Y-208215301D01*
G37*
D27*
X293167500Y-208652500D03*
D19*
G36*
X292736126Y-208215301D02*
G01*
X292742193Y-208216201D01*
X292748143Y-208217691D01*
X292753918Y-208219758D01*
X292759462Y-208222380D01*
X292764723Y-208225533D01*
X292769650Y-208229187D01*
X292774194Y-208233306D01*
X292778313Y-208237850D01*
X292781967Y-208242777D01*
X292785120Y-208248038D01*
X292787742Y-208253582D01*
X292789809Y-208259357D01*
X292791299Y-208265307D01*
X292792199Y-208271374D01*
X292792500Y-208277500D01*
X292792500Y-209027500D01*
X292792199Y-209033626D01*
X292791299Y-209039693D01*
X292789809Y-209045643D01*
X292787742Y-209051418D01*
X292785120Y-209056962D01*
X292781967Y-209062223D01*
X292778313Y-209067150D01*
X292774194Y-209071694D01*
X292769650Y-209075813D01*
X292764723Y-209079467D01*
X292759462Y-209082620D01*
X292753918Y-209085242D01*
X292748143Y-209087309D01*
X292742193Y-209088799D01*
X292736126Y-209089699D01*
X292730000Y-209090000D01*
X292605000Y-209090000D01*
X292598874Y-209089699D01*
X292592807Y-209088799D01*
X292586857Y-209087309D01*
X292581082Y-209085242D01*
X292575538Y-209082620D01*
X292570277Y-209079467D01*
X292565350Y-209075813D01*
X292560806Y-209071694D01*
X292556687Y-209067150D01*
X292553033Y-209062223D01*
X292549880Y-209056962D01*
X292547258Y-209051418D01*
X292545191Y-209045643D01*
X292543701Y-209039693D01*
X292542801Y-209033626D01*
X292542500Y-209027500D01*
X292542500Y-208277500D01*
X292542801Y-208271374D01*
X292543701Y-208265307D01*
X292545191Y-208259357D01*
X292547258Y-208253582D01*
X292549880Y-208248038D01*
X292553033Y-208242777D01*
X292556687Y-208237850D01*
X292560806Y-208233306D01*
X292565350Y-208229187D01*
X292570277Y-208225533D01*
X292575538Y-208222380D01*
X292581082Y-208219758D01*
X292586857Y-208217691D01*
X292592807Y-208216201D01*
X292598874Y-208215301D01*
X292605000Y-208215000D01*
X292730000Y-208215000D01*
X292736126Y-208215301D01*
X292736126Y-208215301D01*
G37*
D27*
X292667500Y-208652500D03*
D19*
G36*
X292236126Y-208215301D02*
G01*
X292242193Y-208216201D01*
X292248143Y-208217691D01*
X292253918Y-208219758D01*
X292259462Y-208222380D01*
X292264723Y-208225533D01*
X292269650Y-208229187D01*
X292274194Y-208233306D01*
X292278313Y-208237850D01*
X292281967Y-208242777D01*
X292285120Y-208248038D01*
X292287742Y-208253582D01*
X292289809Y-208259357D01*
X292291299Y-208265307D01*
X292292199Y-208271374D01*
X292292500Y-208277500D01*
X292292500Y-209027500D01*
X292292199Y-209033626D01*
X292291299Y-209039693D01*
X292289809Y-209045643D01*
X292287742Y-209051418D01*
X292285120Y-209056962D01*
X292281967Y-209062223D01*
X292278313Y-209067150D01*
X292274194Y-209071694D01*
X292269650Y-209075813D01*
X292264723Y-209079467D01*
X292259462Y-209082620D01*
X292253918Y-209085242D01*
X292248143Y-209087309D01*
X292242193Y-209088799D01*
X292236126Y-209089699D01*
X292230000Y-209090000D01*
X292105000Y-209090000D01*
X292098874Y-209089699D01*
X292092807Y-209088799D01*
X292086857Y-209087309D01*
X292081082Y-209085242D01*
X292075538Y-209082620D01*
X292070277Y-209079467D01*
X292065350Y-209075813D01*
X292060806Y-209071694D01*
X292056687Y-209067150D01*
X292053033Y-209062223D01*
X292049880Y-209056962D01*
X292047258Y-209051418D01*
X292045191Y-209045643D01*
X292043701Y-209039693D01*
X292042801Y-209033626D01*
X292042500Y-209027500D01*
X292042500Y-208277500D01*
X292042801Y-208271374D01*
X292043701Y-208265307D01*
X292045191Y-208259357D01*
X292047258Y-208253582D01*
X292049880Y-208248038D01*
X292053033Y-208242777D01*
X292056687Y-208237850D01*
X292060806Y-208233306D01*
X292065350Y-208229187D01*
X292070277Y-208225533D01*
X292075538Y-208222380D01*
X292081082Y-208219758D01*
X292086857Y-208217691D01*
X292092807Y-208216201D01*
X292098874Y-208215301D01*
X292105000Y-208215000D01*
X292230000Y-208215000D01*
X292236126Y-208215301D01*
X292236126Y-208215301D01*
G37*
D27*
X292167500Y-208652500D03*
D19*
G36*
X291736126Y-208215301D02*
G01*
X291742193Y-208216201D01*
X291748143Y-208217691D01*
X291753918Y-208219758D01*
X291759462Y-208222380D01*
X291764723Y-208225533D01*
X291769650Y-208229187D01*
X291774194Y-208233306D01*
X291778313Y-208237850D01*
X291781967Y-208242777D01*
X291785120Y-208248038D01*
X291787742Y-208253582D01*
X291789809Y-208259357D01*
X291791299Y-208265307D01*
X291792199Y-208271374D01*
X291792500Y-208277500D01*
X291792500Y-209027500D01*
X291792199Y-209033626D01*
X291791299Y-209039693D01*
X291789809Y-209045643D01*
X291787742Y-209051418D01*
X291785120Y-209056962D01*
X291781967Y-209062223D01*
X291778313Y-209067150D01*
X291774194Y-209071694D01*
X291769650Y-209075813D01*
X291764723Y-209079467D01*
X291759462Y-209082620D01*
X291753918Y-209085242D01*
X291748143Y-209087309D01*
X291742193Y-209088799D01*
X291736126Y-209089699D01*
X291730000Y-209090000D01*
X291605000Y-209090000D01*
X291598874Y-209089699D01*
X291592807Y-209088799D01*
X291586857Y-209087309D01*
X291581082Y-209085242D01*
X291575538Y-209082620D01*
X291570277Y-209079467D01*
X291565350Y-209075813D01*
X291560806Y-209071694D01*
X291556687Y-209067150D01*
X291553033Y-209062223D01*
X291549880Y-209056962D01*
X291547258Y-209051418D01*
X291545191Y-209045643D01*
X291543701Y-209039693D01*
X291542801Y-209033626D01*
X291542500Y-209027500D01*
X291542500Y-208277500D01*
X291542801Y-208271374D01*
X291543701Y-208265307D01*
X291545191Y-208259357D01*
X291547258Y-208253582D01*
X291549880Y-208248038D01*
X291553033Y-208242777D01*
X291556687Y-208237850D01*
X291560806Y-208233306D01*
X291565350Y-208229187D01*
X291570277Y-208225533D01*
X291575538Y-208222380D01*
X291581082Y-208219758D01*
X291586857Y-208217691D01*
X291592807Y-208216201D01*
X291598874Y-208215301D01*
X291605000Y-208215000D01*
X291730000Y-208215000D01*
X291736126Y-208215301D01*
X291736126Y-208215301D01*
G37*
D27*
X291667500Y-208652500D03*
D19*
G36*
X291236126Y-208215301D02*
G01*
X291242193Y-208216201D01*
X291248143Y-208217691D01*
X291253918Y-208219758D01*
X291259462Y-208222380D01*
X291264723Y-208225533D01*
X291269650Y-208229187D01*
X291274194Y-208233306D01*
X291278313Y-208237850D01*
X291281967Y-208242777D01*
X291285120Y-208248038D01*
X291287742Y-208253582D01*
X291289809Y-208259357D01*
X291291299Y-208265307D01*
X291292199Y-208271374D01*
X291292500Y-208277500D01*
X291292500Y-209027500D01*
X291292199Y-209033626D01*
X291291299Y-209039693D01*
X291289809Y-209045643D01*
X291287742Y-209051418D01*
X291285120Y-209056962D01*
X291281967Y-209062223D01*
X291278313Y-209067150D01*
X291274194Y-209071694D01*
X291269650Y-209075813D01*
X291264723Y-209079467D01*
X291259462Y-209082620D01*
X291253918Y-209085242D01*
X291248143Y-209087309D01*
X291242193Y-209088799D01*
X291236126Y-209089699D01*
X291230000Y-209090000D01*
X291105000Y-209090000D01*
X291098874Y-209089699D01*
X291092807Y-209088799D01*
X291086857Y-209087309D01*
X291081082Y-209085242D01*
X291075538Y-209082620D01*
X291070277Y-209079467D01*
X291065350Y-209075813D01*
X291060806Y-209071694D01*
X291056687Y-209067150D01*
X291053033Y-209062223D01*
X291049880Y-209056962D01*
X291047258Y-209051418D01*
X291045191Y-209045643D01*
X291043701Y-209039693D01*
X291042801Y-209033626D01*
X291042500Y-209027500D01*
X291042500Y-208277500D01*
X291042801Y-208271374D01*
X291043701Y-208265307D01*
X291045191Y-208259357D01*
X291047258Y-208253582D01*
X291049880Y-208248038D01*
X291053033Y-208242777D01*
X291056687Y-208237850D01*
X291060806Y-208233306D01*
X291065350Y-208229187D01*
X291070277Y-208225533D01*
X291075538Y-208222380D01*
X291081082Y-208219758D01*
X291086857Y-208217691D01*
X291092807Y-208216201D01*
X291098874Y-208215301D01*
X291105000Y-208215000D01*
X291230000Y-208215000D01*
X291236126Y-208215301D01*
X291236126Y-208215301D01*
G37*
D27*
X291167500Y-208652500D03*
D19*
G36*
X290736126Y-208215301D02*
G01*
X290742193Y-208216201D01*
X290748143Y-208217691D01*
X290753918Y-208219758D01*
X290759462Y-208222380D01*
X290764723Y-208225533D01*
X290769650Y-208229187D01*
X290774194Y-208233306D01*
X290778313Y-208237850D01*
X290781967Y-208242777D01*
X290785120Y-208248038D01*
X290787742Y-208253582D01*
X290789809Y-208259357D01*
X290791299Y-208265307D01*
X290792199Y-208271374D01*
X290792500Y-208277500D01*
X290792500Y-209027500D01*
X290792199Y-209033626D01*
X290791299Y-209039693D01*
X290789809Y-209045643D01*
X290787742Y-209051418D01*
X290785120Y-209056962D01*
X290781967Y-209062223D01*
X290778313Y-209067150D01*
X290774194Y-209071694D01*
X290769650Y-209075813D01*
X290764723Y-209079467D01*
X290759462Y-209082620D01*
X290753918Y-209085242D01*
X290748143Y-209087309D01*
X290742193Y-209088799D01*
X290736126Y-209089699D01*
X290730000Y-209090000D01*
X290605000Y-209090000D01*
X290598874Y-209089699D01*
X290592807Y-209088799D01*
X290586857Y-209087309D01*
X290581082Y-209085242D01*
X290575538Y-209082620D01*
X290570277Y-209079467D01*
X290565350Y-209075813D01*
X290560806Y-209071694D01*
X290556687Y-209067150D01*
X290553033Y-209062223D01*
X290549880Y-209056962D01*
X290547258Y-209051418D01*
X290545191Y-209045643D01*
X290543701Y-209039693D01*
X290542801Y-209033626D01*
X290542500Y-209027500D01*
X290542500Y-208277500D01*
X290542801Y-208271374D01*
X290543701Y-208265307D01*
X290545191Y-208259357D01*
X290547258Y-208253582D01*
X290549880Y-208248038D01*
X290553033Y-208242777D01*
X290556687Y-208237850D01*
X290560806Y-208233306D01*
X290565350Y-208229187D01*
X290570277Y-208225533D01*
X290575538Y-208222380D01*
X290581082Y-208219758D01*
X290586857Y-208217691D01*
X290592807Y-208216201D01*
X290598874Y-208215301D01*
X290605000Y-208215000D01*
X290730000Y-208215000D01*
X290736126Y-208215301D01*
X290736126Y-208215301D01*
G37*
D27*
X290667500Y-208652500D03*
D19*
G36*
X290236126Y-208215301D02*
G01*
X290242193Y-208216201D01*
X290248143Y-208217691D01*
X290253918Y-208219758D01*
X290259462Y-208222380D01*
X290264723Y-208225533D01*
X290269650Y-208229187D01*
X290274194Y-208233306D01*
X290278313Y-208237850D01*
X290281967Y-208242777D01*
X290285120Y-208248038D01*
X290287742Y-208253582D01*
X290289809Y-208259357D01*
X290291299Y-208265307D01*
X290292199Y-208271374D01*
X290292500Y-208277500D01*
X290292500Y-209027500D01*
X290292199Y-209033626D01*
X290291299Y-209039693D01*
X290289809Y-209045643D01*
X290287742Y-209051418D01*
X290285120Y-209056962D01*
X290281967Y-209062223D01*
X290278313Y-209067150D01*
X290274194Y-209071694D01*
X290269650Y-209075813D01*
X290264723Y-209079467D01*
X290259462Y-209082620D01*
X290253918Y-209085242D01*
X290248143Y-209087309D01*
X290242193Y-209088799D01*
X290236126Y-209089699D01*
X290230000Y-209090000D01*
X290105000Y-209090000D01*
X290098874Y-209089699D01*
X290092807Y-209088799D01*
X290086857Y-209087309D01*
X290081082Y-209085242D01*
X290075538Y-209082620D01*
X290070277Y-209079467D01*
X290065350Y-209075813D01*
X290060806Y-209071694D01*
X290056687Y-209067150D01*
X290053033Y-209062223D01*
X290049880Y-209056962D01*
X290047258Y-209051418D01*
X290045191Y-209045643D01*
X290043701Y-209039693D01*
X290042801Y-209033626D01*
X290042500Y-209027500D01*
X290042500Y-208277500D01*
X290042801Y-208271374D01*
X290043701Y-208265307D01*
X290045191Y-208259357D01*
X290047258Y-208253582D01*
X290049880Y-208248038D01*
X290053033Y-208242777D01*
X290056687Y-208237850D01*
X290060806Y-208233306D01*
X290065350Y-208229187D01*
X290070277Y-208225533D01*
X290075538Y-208222380D01*
X290081082Y-208219758D01*
X290086857Y-208217691D01*
X290092807Y-208216201D01*
X290098874Y-208215301D01*
X290105000Y-208215000D01*
X290230000Y-208215000D01*
X290236126Y-208215301D01*
X290236126Y-208215301D01*
G37*
D27*
X290167500Y-208652500D03*
D19*
G36*
X289736126Y-208215301D02*
G01*
X289742193Y-208216201D01*
X289748143Y-208217691D01*
X289753918Y-208219758D01*
X289759462Y-208222380D01*
X289764723Y-208225533D01*
X289769650Y-208229187D01*
X289774194Y-208233306D01*
X289778313Y-208237850D01*
X289781967Y-208242777D01*
X289785120Y-208248038D01*
X289787742Y-208253582D01*
X289789809Y-208259357D01*
X289791299Y-208265307D01*
X289792199Y-208271374D01*
X289792500Y-208277500D01*
X289792500Y-209027500D01*
X289792199Y-209033626D01*
X289791299Y-209039693D01*
X289789809Y-209045643D01*
X289787742Y-209051418D01*
X289785120Y-209056962D01*
X289781967Y-209062223D01*
X289778313Y-209067150D01*
X289774194Y-209071694D01*
X289769650Y-209075813D01*
X289764723Y-209079467D01*
X289759462Y-209082620D01*
X289753918Y-209085242D01*
X289748143Y-209087309D01*
X289742193Y-209088799D01*
X289736126Y-209089699D01*
X289730000Y-209090000D01*
X289605000Y-209090000D01*
X289598874Y-209089699D01*
X289592807Y-209088799D01*
X289586857Y-209087309D01*
X289581082Y-209085242D01*
X289575538Y-209082620D01*
X289570277Y-209079467D01*
X289565350Y-209075813D01*
X289560806Y-209071694D01*
X289556687Y-209067150D01*
X289553033Y-209062223D01*
X289549880Y-209056962D01*
X289547258Y-209051418D01*
X289545191Y-209045643D01*
X289543701Y-209039693D01*
X289542801Y-209033626D01*
X289542500Y-209027500D01*
X289542500Y-208277500D01*
X289542801Y-208271374D01*
X289543701Y-208265307D01*
X289545191Y-208259357D01*
X289547258Y-208253582D01*
X289549880Y-208248038D01*
X289553033Y-208242777D01*
X289556687Y-208237850D01*
X289560806Y-208233306D01*
X289565350Y-208229187D01*
X289570277Y-208225533D01*
X289575538Y-208222380D01*
X289581082Y-208219758D01*
X289586857Y-208217691D01*
X289592807Y-208216201D01*
X289598874Y-208215301D01*
X289605000Y-208215000D01*
X289730000Y-208215000D01*
X289736126Y-208215301D01*
X289736126Y-208215301D01*
G37*
D27*
X289667500Y-208652500D03*
D19*
G36*
X289361126Y-209215301D02*
G01*
X289367193Y-209216201D01*
X289373143Y-209217691D01*
X289378918Y-209219758D01*
X289384462Y-209222380D01*
X289389723Y-209225533D01*
X289394650Y-209229187D01*
X289399194Y-209233306D01*
X289403313Y-209237850D01*
X289406967Y-209242777D01*
X289410120Y-209248038D01*
X289412742Y-209253582D01*
X289414809Y-209259357D01*
X289416299Y-209265307D01*
X289417199Y-209271374D01*
X289417500Y-209277500D01*
X289417500Y-209402500D01*
X289417199Y-209408626D01*
X289416299Y-209414693D01*
X289414809Y-209420643D01*
X289412742Y-209426418D01*
X289410120Y-209431962D01*
X289406967Y-209437223D01*
X289403313Y-209442150D01*
X289399194Y-209446694D01*
X289394650Y-209450813D01*
X289389723Y-209454467D01*
X289384462Y-209457620D01*
X289378918Y-209460242D01*
X289373143Y-209462309D01*
X289367193Y-209463799D01*
X289361126Y-209464699D01*
X289355000Y-209465000D01*
X288605000Y-209465000D01*
X288598874Y-209464699D01*
X288592807Y-209463799D01*
X288586857Y-209462309D01*
X288581082Y-209460242D01*
X288575538Y-209457620D01*
X288570277Y-209454467D01*
X288565350Y-209450813D01*
X288560806Y-209446694D01*
X288556687Y-209442150D01*
X288553033Y-209437223D01*
X288549880Y-209431962D01*
X288547258Y-209426418D01*
X288545191Y-209420643D01*
X288543701Y-209414693D01*
X288542801Y-209408626D01*
X288542500Y-209402500D01*
X288542500Y-209277500D01*
X288542801Y-209271374D01*
X288543701Y-209265307D01*
X288545191Y-209259357D01*
X288547258Y-209253582D01*
X288549880Y-209248038D01*
X288553033Y-209242777D01*
X288556687Y-209237850D01*
X288560806Y-209233306D01*
X288565350Y-209229187D01*
X288570277Y-209225533D01*
X288575538Y-209222380D01*
X288581082Y-209219758D01*
X288586857Y-209217691D01*
X288592807Y-209216201D01*
X288598874Y-209215301D01*
X288605000Y-209215000D01*
X289355000Y-209215000D01*
X289361126Y-209215301D01*
X289361126Y-209215301D01*
G37*
D27*
X288980000Y-209340000D03*
D19*
G36*
X289361126Y-209715301D02*
G01*
X289367193Y-209716201D01*
X289373143Y-209717691D01*
X289378918Y-209719758D01*
X289384462Y-209722380D01*
X289389723Y-209725533D01*
X289394650Y-209729187D01*
X289399194Y-209733306D01*
X289403313Y-209737850D01*
X289406967Y-209742777D01*
X289410120Y-209748038D01*
X289412742Y-209753582D01*
X289414809Y-209759357D01*
X289416299Y-209765307D01*
X289417199Y-209771374D01*
X289417500Y-209777500D01*
X289417500Y-209902500D01*
X289417199Y-209908626D01*
X289416299Y-209914693D01*
X289414809Y-209920643D01*
X289412742Y-209926418D01*
X289410120Y-209931962D01*
X289406967Y-209937223D01*
X289403313Y-209942150D01*
X289399194Y-209946694D01*
X289394650Y-209950813D01*
X289389723Y-209954467D01*
X289384462Y-209957620D01*
X289378918Y-209960242D01*
X289373143Y-209962309D01*
X289367193Y-209963799D01*
X289361126Y-209964699D01*
X289355000Y-209965000D01*
X288605000Y-209965000D01*
X288598874Y-209964699D01*
X288592807Y-209963799D01*
X288586857Y-209962309D01*
X288581082Y-209960242D01*
X288575538Y-209957620D01*
X288570277Y-209954467D01*
X288565350Y-209950813D01*
X288560806Y-209946694D01*
X288556687Y-209942150D01*
X288553033Y-209937223D01*
X288549880Y-209931962D01*
X288547258Y-209926418D01*
X288545191Y-209920643D01*
X288543701Y-209914693D01*
X288542801Y-209908626D01*
X288542500Y-209902500D01*
X288542500Y-209777500D01*
X288542801Y-209771374D01*
X288543701Y-209765307D01*
X288545191Y-209759357D01*
X288547258Y-209753582D01*
X288549880Y-209748038D01*
X288553033Y-209742777D01*
X288556687Y-209737850D01*
X288560806Y-209733306D01*
X288565350Y-209729187D01*
X288570277Y-209725533D01*
X288575538Y-209722380D01*
X288581082Y-209719758D01*
X288586857Y-209717691D01*
X288592807Y-209716201D01*
X288598874Y-209715301D01*
X288605000Y-209715000D01*
X289355000Y-209715000D01*
X289361126Y-209715301D01*
X289361126Y-209715301D01*
G37*
D27*
X288980000Y-209840000D03*
D19*
G36*
X289361126Y-210215301D02*
G01*
X289367193Y-210216201D01*
X289373143Y-210217691D01*
X289378918Y-210219758D01*
X289384462Y-210222380D01*
X289389723Y-210225533D01*
X289394650Y-210229187D01*
X289399194Y-210233306D01*
X289403313Y-210237850D01*
X289406967Y-210242777D01*
X289410120Y-210248038D01*
X289412742Y-210253582D01*
X289414809Y-210259357D01*
X289416299Y-210265307D01*
X289417199Y-210271374D01*
X289417500Y-210277500D01*
X289417500Y-210402500D01*
X289417199Y-210408626D01*
X289416299Y-210414693D01*
X289414809Y-210420643D01*
X289412742Y-210426418D01*
X289410120Y-210431962D01*
X289406967Y-210437223D01*
X289403313Y-210442150D01*
X289399194Y-210446694D01*
X289394650Y-210450813D01*
X289389723Y-210454467D01*
X289384462Y-210457620D01*
X289378918Y-210460242D01*
X289373143Y-210462309D01*
X289367193Y-210463799D01*
X289361126Y-210464699D01*
X289355000Y-210465000D01*
X288605000Y-210465000D01*
X288598874Y-210464699D01*
X288592807Y-210463799D01*
X288586857Y-210462309D01*
X288581082Y-210460242D01*
X288575538Y-210457620D01*
X288570277Y-210454467D01*
X288565350Y-210450813D01*
X288560806Y-210446694D01*
X288556687Y-210442150D01*
X288553033Y-210437223D01*
X288549880Y-210431962D01*
X288547258Y-210426418D01*
X288545191Y-210420643D01*
X288543701Y-210414693D01*
X288542801Y-210408626D01*
X288542500Y-210402500D01*
X288542500Y-210277500D01*
X288542801Y-210271374D01*
X288543701Y-210265307D01*
X288545191Y-210259357D01*
X288547258Y-210253582D01*
X288549880Y-210248038D01*
X288553033Y-210242777D01*
X288556687Y-210237850D01*
X288560806Y-210233306D01*
X288565350Y-210229187D01*
X288570277Y-210225533D01*
X288575538Y-210222380D01*
X288581082Y-210219758D01*
X288586857Y-210217691D01*
X288592807Y-210216201D01*
X288598874Y-210215301D01*
X288605000Y-210215000D01*
X289355000Y-210215000D01*
X289361126Y-210215301D01*
X289361126Y-210215301D01*
G37*
D27*
X288980000Y-210340000D03*
D19*
G36*
X289361126Y-210715301D02*
G01*
X289367193Y-210716201D01*
X289373143Y-210717691D01*
X289378918Y-210719758D01*
X289384462Y-210722380D01*
X289389723Y-210725533D01*
X289394650Y-210729187D01*
X289399194Y-210733306D01*
X289403313Y-210737850D01*
X289406967Y-210742777D01*
X289410120Y-210748038D01*
X289412742Y-210753582D01*
X289414809Y-210759357D01*
X289416299Y-210765307D01*
X289417199Y-210771374D01*
X289417500Y-210777500D01*
X289417500Y-210902500D01*
X289417199Y-210908626D01*
X289416299Y-210914693D01*
X289414809Y-210920643D01*
X289412742Y-210926418D01*
X289410120Y-210931962D01*
X289406967Y-210937223D01*
X289403313Y-210942150D01*
X289399194Y-210946694D01*
X289394650Y-210950813D01*
X289389723Y-210954467D01*
X289384462Y-210957620D01*
X289378918Y-210960242D01*
X289373143Y-210962309D01*
X289367193Y-210963799D01*
X289361126Y-210964699D01*
X289355000Y-210965000D01*
X288605000Y-210965000D01*
X288598874Y-210964699D01*
X288592807Y-210963799D01*
X288586857Y-210962309D01*
X288581082Y-210960242D01*
X288575538Y-210957620D01*
X288570277Y-210954467D01*
X288565350Y-210950813D01*
X288560806Y-210946694D01*
X288556687Y-210942150D01*
X288553033Y-210937223D01*
X288549880Y-210931962D01*
X288547258Y-210926418D01*
X288545191Y-210920643D01*
X288543701Y-210914693D01*
X288542801Y-210908626D01*
X288542500Y-210902500D01*
X288542500Y-210777500D01*
X288542801Y-210771374D01*
X288543701Y-210765307D01*
X288545191Y-210759357D01*
X288547258Y-210753582D01*
X288549880Y-210748038D01*
X288553033Y-210742777D01*
X288556687Y-210737850D01*
X288560806Y-210733306D01*
X288565350Y-210729187D01*
X288570277Y-210725533D01*
X288575538Y-210722380D01*
X288581082Y-210719758D01*
X288586857Y-210717691D01*
X288592807Y-210716201D01*
X288598874Y-210715301D01*
X288605000Y-210715000D01*
X289355000Y-210715000D01*
X289361126Y-210715301D01*
X289361126Y-210715301D01*
G37*
D27*
X288980000Y-210840000D03*
D19*
G36*
X289361126Y-211215301D02*
G01*
X289367193Y-211216201D01*
X289373143Y-211217691D01*
X289378918Y-211219758D01*
X289384462Y-211222380D01*
X289389723Y-211225533D01*
X289394650Y-211229187D01*
X289399194Y-211233306D01*
X289403313Y-211237850D01*
X289406967Y-211242777D01*
X289410120Y-211248038D01*
X289412742Y-211253582D01*
X289414809Y-211259357D01*
X289416299Y-211265307D01*
X289417199Y-211271374D01*
X289417500Y-211277500D01*
X289417500Y-211402500D01*
X289417199Y-211408626D01*
X289416299Y-211414693D01*
X289414809Y-211420643D01*
X289412742Y-211426418D01*
X289410120Y-211431962D01*
X289406967Y-211437223D01*
X289403313Y-211442150D01*
X289399194Y-211446694D01*
X289394650Y-211450813D01*
X289389723Y-211454467D01*
X289384462Y-211457620D01*
X289378918Y-211460242D01*
X289373143Y-211462309D01*
X289367193Y-211463799D01*
X289361126Y-211464699D01*
X289355000Y-211465000D01*
X288605000Y-211465000D01*
X288598874Y-211464699D01*
X288592807Y-211463799D01*
X288586857Y-211462309D01*
X288581082Y-211460242D01*
X288575538Y-211457620D01*
X288570277Y-211454467D01*
X288565350Y-211450813D01*
X288560806Y-211446694D01*
X288556687Y-211442150D01*
X288553033Y-211437223D01*
X288549880Y-211431962D01*
X288547258Y-211426418D01*
X288545191Y-211420643D01*
X288543701Y-211414693D01*
X288542801Y-211408626D01*
X288542500Y-211402500D01*
X288542500Y-211277500D01*
X288542801Y-211271374D01*
X288543701Y-211265307D01*
X288545191Y-211259357D01*
X288547258Y-211253582D01*
X288549880Y-211248038D01*
X288553033Y-211242777D01*
X288556687Y-211237850D01*
X288560806Y-211233306D01*
X288565350Y-211229187D01*
X288570277Y-211225533D01*
X288575538Y-211222380D01*
X288581082Y-211219758D01*
X288586857Y-211217691D01*
X288592807Y-211216201D01*
X288598874Y-211215301D01*
X288605000Y-211215000D01*
X289355000Y-211215000D01*
X289361126Y-211215301D01*
X289361126Y-211215301D01*
G37*
D27*
X288980000Y-211340000D03*
D19*
G36*
X289361126Y-211715301D02*
G01*
X289367193Y-211716201D01*
X289373143Y-211717691D01*
X289378918Y-211719758D01*
X289384462Y-211722380D01*
X289389723Y-211725533D01*
X289394650Y-211729187D01*
X289399194Y-211733306D01*
X289403313Y-211737850D01*
X289406967Y-211742777D01*
X289410120Y-211748038D01*
X289412742Y-211753582D01*
X289414809Y-211759357D01*
X289416299Y-211765307D01*
X289417199Y-211771374D01*
X289417500Y-211777500D01*
X289417500Y-211902500D01*
X289417199Y-211908626D01*
X289416299Y-211914693D01*
X289414809Y-211920643D01*
X289412742Y-211926418D01*
X289410120Y-211931962D01*
X289406967Y-211937223D01*
X289403313Y-211942150D01*
X289399194Y-211946694D01*
X289394650Y-211950813D01*
X289389723Y-211954467D01*
X289384462Y-211957620D01*
X289378918Y-211960242D01*
X289373143Y-211962309D01*
X289367193Y-211963799D01*
X289361126Y-211964699D01*
X289355000Y-211965000D01*
X288605000Y-211965000D01*
X288598874Y-211964699D01*
X288592807Y-211963799D01*
X288586857Y-211962309D01*
X288581082Y-211960242D01*
X288575538Y-211957620D01*
X288570277Y-211954467D01*
X288565350Y-211950813D01*
X288560806Y-211946694D01*
X288556687Y-211942150D01*
X288553033Y-211937223D01*
X288549880Y-211931962D01*
X288547258Y-211926418D01*
X288545191Y-211920643D01*
X288543701Y-211914693D01*
X288542801Y-211908626D01*
X288542500Y-211902500D01*
X288542500Y-211777500D01*
X288542801Y-211771374D01*
X288543701Y-211765307D01*
X288545191Y-211759357D01*
X288547258Y-211753582D01*
X288549880Y-211748038D01*
X288553033Y-211742777D01*
X288556687Y-211737850D01*
X288560806Y-211733306D01*
X288565350Y-211729187D01*
X288570277Y-211725533D01*
X288575538Y-211722380D01*
X288581082Y-211719758D01*
X288586857Y-211717691D01*
X288592807Y-211716201D01*
X288598874Y-211715301D01*
X288605000Y-211715000D01*
X289355000Y-211715000D01*
X289361126Y-211715301D01*
X289361126Y-211715301D01*
G37*
D27*
X288980000Y-211840000D03*
D19*
G36*
X289361126Y-212215301D02*
G01*
X289367193Y-212216201D01*
X289373143Y-212217691D01*
X289378918Y-212219758D01*
X289384462Y-212222380D01*
X289389723Y-212225533D01*
X289394650Y-212229187D01*
X289399194Y-212233306D01*
X289403313Y-212237850D01*
X289406967Y-212242777D01*
X289410120Y-212248038D01*
X289412742Y-212253582D01*
X289414809Y-212259357D01*
X289416299Y-212265307D01*
X289417199Y-212271374D01*
X289417500Y-212277500D01*
X289417500Y-212402500D01*
X289417199Y-212408626D01*
X289416299Y-212414693D01*
X289414809Y-212420643D01*
X289412742Y-212426418D01*
X289410120Y-212431962D01*
X289406967Y-212437223D01*
X289403313Y-212442150D01*
X289399194Y-212446694D01*
X289394650Y-212450813D01*
X289389723Y-212454467D01*
X289384462Y-212457620D01*
X289378918Y-212460242D01*
X289373143Y-212462309D01*
X289367193Y-212463799D01*
X289361126Y-212464699D01*
X289355000Y-212465000D01*
X288605000Y-212465000D01*
X288598874Y-212464699D01*
X288592807Y-212463799D01*
X288586857Y-212462309D01*
X288581082Y-212460242D01*
X288575538Y-212457620D01*
X288570277Y-212454467D01*
X288565350Y-212450813D01*
X288560806Y-212446694D01*
X288556687Y-212442150D01*
X288553033Y-212437223D01*
X288549880Y-212431962D01*
X288547258Y-212426418D01*
X288545191Y-212420643D01*
X288543701Y-212414693D01*
X288542801Y-212408626D01*
X288542500Y-212402500D01*
X288542500Y-212277500D01*
X288542801Y-212271374D01*
X288543701Y-212265307D01*
X288545191Y-212259357D01*
X288547258Y-212253582D01*
X288549880Y-212248038D01*
X288553033Y-212242777D01*
X288556687Y-212237850D01*
X288560806Y-212233306D01*
X288565350Y-212229187D01*
X288570277Y-212225533D01*
X288575538Y-212222380D01*
X288581082Y-212219758D01*
X288586857Y-212217691D01*
X288592807Y-212216201D01*
X288598874Y-212215301D01*
X288605000Y-212215000D01*
X289355000Y-212215000D01*
X289361126Y-212215301D01*
X289361126Y-212215301D01*
G37*
D27*
X288980000Y-212340000D03*
D19*
G36*
X289361126Y-212715301D02*
G01*
X289367193Y-212716201D01*
X289373143Y-212717691D01*
X289378918Y-212719758D01*
X289384462Y-212722380D01*
X289389723Y-212725533D01*
X289394650Y-212729187D01*
X289399194Y-212733306D01*
X289403313Y-212737850D01*
X289406967Y-212742777D01*
X289410120Y-212748038D01*
X289412742Y-212753582D01*
X289414809Y-212759357D01*
X289416299Y-212765307D01*
X289417199Y-212771374D01*
X289417500Y-212777500D01*
X289417500Y-212902500D01*
X289417199Y-212908626D01*
X289416299Y-212914693D01*
X289414809Y-212920643D01*
X289412742Y-212926418D01*
X289410120Y-212931962D01*
X289406967Y-212937223D01*
X289403313Y-212942150D01*
X289399194Y-212946694D01*
X289394650Y-212950813D01*
X289389723Y-212954467D01*
X289384462Y-212957620D01*
X289378918Y-212960242D01*
X289373143Y-212962309D01*
X289367193Y-212963799D01*
X289361126Y-212964699D01*
X289355000Y-212965000D01*
X288605000Y-212965000D01*
X288598874Y-212964699D01*
X288592807Y-212963799D01*
X288586857Y-212962309D01*
X288581082Y-212960242D01*
X288575538Y-212957620D01*
X288570277Y-212954467D01*
X288565350Y-212950813D01*
X288560806Y-212946694D01*
X288556687Y-212942150D01*
X288553033Y-212937223D01*
X288549880Y-212931962D01*
X288547258Y-212926418D01*
X288545191Y-212920643D01*
X288543701Y-212914693D01*
X288542801Y-212908626D01*
X288542500Y-212902500D01*
X288542500Y-212777500D01*
X288542801Y-212771374D01*
X288543701Y-212765307D01*
X288545191Y-212759357D01*
X288547258Y-212753582D01*
X288549880Y-212748038D01*
X288553033Y-212742777D01*
X288556687Y-212737850D01*
X288560806Y-212733306D01*
X288565350Y-212729187D01*
X288570277Y-212725533D01*
X288575538Y-212722380D01*
X288581082Y-212719758D01*
X288586857Y-212717691D01*
X288592807Y-212716201D01*
X288598874Y-212715301D01*
X288605000Y-212715000D01*
X289355000Y-212715000D01*
X289361126Y-212715301D01*
X289361126Y-212715301D01*
G37*
D27*
X288980000Y-212840000D03*
D19*
G36*
X289361126Y-213215301D02*
G01*
X289367193Y-213216201D01*
X289373143Y-213217691D01*
X289378918Y-213219758D01*
X289384462Y-213222380D01*
X289389723Y-213225533D01*
X289394650Y-213229187D01*
X289399194Y-213233306D01*
X289403313Y-213237850D01*
X289406967Y-213242777D01*
X289410120Y-213248038D01*
X289412742Y-213253582D01*
X289414809Y-213259357D01*
X289416299Y-213265307D01*
X289417199Y-213271374D01*
X289417500Y-213277500D01*
X289417500Y-213402500D01*
X289417199Y-213408626D01*
X289416299Y-213414693D01*
X289414809Y-213420643D01*
X289412742Y-213426418D01*
X289410120Y-213431962D01*
X289406967Y-213437223D01*
X289403313Y-213442150D01*
X289399194Y-213446694D01*
X289394650Y-213450813D01*
X289389723Y-213454467D01*
X289384462Y-213457620D01*
X289378918Y-213460242D01*
X289373143Y-213462309D01*
X289367193Y-213463799D01*
X289361126Y-213464699D01*
X289355000Y-213465000D01*
X288605000Y-213465000D01*
X288598874Y-213464699D01*
X288592807Y-213463799D01*
X288586857Y-213462309D01*
X288581082Y-213460242D01*
X288575538Y-213457620D01*
X288570277Y-213454467D01*
X288565350Y-213450813D01*
X288560806Y-213446694D01*
X288556687Y-213442150D01*
X288553033Y-213437223D01*
X288549880Y-213431962D01*
X288547258Y-213426418D01*
X288545191Y-213420643D01*
X288543701Y-213414693D01*
X288542801Y-213408626D01*
X288542500Y-213402500D01*
X288542500Y-213277500D01*
X288542801Y-213271374D01*
X288543701Y-213265307D01*
X288545191Y-213259357D01*
X288547258Y-213253582D01*
X288549880Y-213248038D01*
X288553033Y-213242777D01*
X288556687Y-213237850D01*
X288560806Y-213233306D01*
X288565350Y-213229187D01*
X288570277Y-213225533D01*
X288575538Y-213222380D01*
X288581082Y-213219758D01*
X288586857Y-213217691D01*
X288592807Y-213216201D01*
X288598874Y-213215301D01*
X288605000Y-213215000D01*
X289355000Y-213215000D01*
X289361126Y-213215301D01*
X289361126Y-213215301D01*
G37*
D27*
X288980000Y-213340000D03*
D19*
G36*
X289361126Y-213715301D02*
G01*
X289367193Y-213716201D01*
X289373143Y-213717691D01*
X289378918Y-213719758D01*
X289384462Y-213722380D01*
X289389723Y-213725533D01*
X289394650Y-213729187D01*
X289399194Y-213733306D01*
X289403313Y-213737850D01*
X289406967Y-213742777D01*
X289410120Y-213748038D01*
X289412742Y-213753582D01*
X289414809Y-213759357D01*
X289416299Y-213765307D01*
X289417199Y-213771374D01*
X289417500Y-213777500D01*
X289417500Y-213902500D01*
X289417199Y-213908626D01*
X289416299Y-213914693D01*
X289414809Y-213920643D01*
X289412742Y-213926418D01*
X289410120Y-213931962D01*
X289406967Y-213937223D01*
X289403313Y-213942150D01*
X289399194Y-213946694D01*
X289394650Y-213950813D01*
X289389723Y-213954467D01*
X289384462Y-213957620D01*
X289378918Y-213960242D01*
X289373143Y-213962309D01*
X289367193Y-213963799D01*
X289361126Y-213964699D01*
X289355000Y-213965000D01*
X288605000Y-213965000D01*
X288598874Y-213964699D01*
X288592807Y-213963799D01*
X288586857Y-213962309D01*
X288581082Y-213960242D01*
X288575538Y-213957620D01*
X288570277Y-213954467D01*
X288565350Y-213950813D01*
X288560806Y-213946694D01*
X288556687Y-213942150D01*
X288553033Y-213937223D01*
X288549880Y-213931962D01*
X288547258Y-213926418D01*
X288545191Y-213920643D01*
X288543701Y-213914693D01*
X288542801Y-213908626D01*
X288542500Y-213902500D01*
X288542500Y-213777500D01*
X288542801Y-213771374D01*
X288543701Y-213765307D01*
X288545191Y-213759357D01*
X288547258Y-213753582D01*
X288549880Y-213748038D01*
X288553033Y-213742777D01*
X288556687Y-213737850D01*
X288560806Y-213733306D01*
X288565350Y-213729187D01*
X288570277Y-213725533D01*
X288575538Y-213722380D01*
X288581082Y-213719758D01*
X288586857Y-213717691D01*
X288592807Y-213716201D01*
X288598874Y-213715301D01*
X288605000Y-213715000D01*
X289355000Y-213715000D01*
X289361126Y-213715301D01*
X289361126Y-213715301D01*
G37*
D27*
X288980000Y-213840000D03*
D19*
G36*
X289361126Y-214215301D02*
G01*
X289367193Y-214216201D01*
X289373143Y-214217691D01*
X289378918Y-214219758D01*
X289384462Y-214222380D01*
X289389723Y-214225533D01*
X289394650Y-214229187D01*
X289399194Y-214233306D01*
X289403313Y-214237850D01*
X289406967Y-214242777D01*
X289410120Y-214248038D01*
X289412742Y-214253582D01*
X289414809Y-214259357D01*
X289416299Y-214265307D01*
X289417199Y-214271374D01*
X289417500Y-214277500D01*
X289417500Y-214402500D01*
X289417199Y-214408626D01*
X289416299Y-214414693D01*
X289414809Y-214420643D01*
X289412742Y-214426418D01*
X289410120Y-214431962D01*
X289406967Y-214437223D01*
X289403313Y-214442150D01*
X289399194Y-214446694D01*
X289394650Y-214450813D01*
X289389723Y-214454467D01*
X289384462Y-214457620D01*
X289378918Y-214460242D01*
X289373143Y-214462309D01*
X289367193Y-214463799D01*
X289361126Y-214464699D01*
X289355000Y-214465000D01*
X288605000Y-214465000D01*
X288598874Y-214464699D01*
X288592807Y-214463799D01*
X288586857Y-214462309D01*
X288581082Y-214460242D01*
X288575538Y-214457620D01*
X288570277Y-214454467D01*
X288565350Y-214450813D01*
X288560806Y-214446694D01*
X288556687Y-214442150D01*
X288553033Y-214437223D01*
X288549880Y-214431962D01*
X288547258Y-214426418D01*
X288545191Y-214420643D01*
X288543701Y-214414693D01*
X288542801Y-214408626D01*
X288542500Y-214402500D01*
X288542500Y-214277500D01*
X288542801Y-214271374D01*
X288543701Y-214265307D01*
X288545191Y-214259357D01*
X288547258Y-214253582D01*
X288549880Y-214248038D01*
X288553033Y-214242777D01*
X288556687Y-214237850D01*
X288560806Y-214233306D01*
X288565350Y-214229187D01*
X288570277Y-214225533D01*
X288575538Y-214222380D01*
X288581082Y-214219758D01*
X288586857Y-214217691D01*
X288592807Y-214216201D01*
X288598874Y-214215301D01*
X288605000Y-214215000D01*
X289355000Y-214215000D01*
X289361126Y-214215301D01*
X289361126Y-214215301D01*
G37*
D27*
X288980000Y-214340000D03*
D19*
G36*
X289361126Y-214715301D02*
G01*
X289367193Y-214716201D01*
X289373143Y-214717691D01*
X289378918Y-214719758D01*
X289384462Y-214722380D01*
X289389723Y-214725533D01*
X289394650Y-214729187D01*
X289399194Y-214733306D01*
X289403313Y-214737850D01*
X289406967Y-214742777D01*
X289410120Y-214748038D01*
X289412742Y-214753582D01*
X289414809Y-214759357D01*
X289416299Y-214765307D01*
X289417199Y-214771374D01*
X289417500Y-214777500D01*
X289417500Y-214902500D01*
X289417199Y-214908626D01*
X289416299Y-214914693D01*
X289414809Y-214920643D01*
X289412742Y-214926418D01*
X289410120Y-214931962D01*
X289406967Y-214937223D01*
X289403313Y-214942150D01*
X289399194Y-214946694D01*
X289394650Y-214950813D01*
X289389723Y-214954467D01*
X289384462Y-214957620D01*
X289378918Y-214960242D01*
X289373143Y-214962309D01*
X289367193Y-214963799D01*
X289361126Y-214964699D01*
X289355000Y-214965000D01*
X288605000Y-214965000D01*
X288598874Y-214964699D01*
X288592807Y-214963799D01*
X288586857Y-214962309D01*
X288581082Y-214960242D01*
X288575538Y-214957620D01*
X288570277Y-214954467D01*
X288565350Y-214950813D01*
X288560806Y-214946694D01*
X288556687Y-214942150D01*
X288553033Y-214937223D01*
X288549880Y-214931962D01*
X288547258Y-214926418D01*
X288545191Y-214920643D01*
X288543701Y-214914693D01*
X288542801Y-214908626D01*
X288542500Y-214902500D01*
X288542500Y-214777500D01*
X288542801Y-214771374D01*
X288543701Y-214765307D01*
X288545191Y-214759357D01*
X288547258Y-214753582D01*
X288549880Y-214748038D01*
X288553033Y-214742777D01*
X288556687Y-214737850D01*
X288560806Y-214733306D01*
X288565350Y-214729187D01*
X288570277Y-214725533D01*
X288575538Y-214722380D01*
X288581082Y-214719758D01*
X288586857Y-214717691D01*
X288592807Y-214716201D01*
X288598874Y-214715301D01*
X288605000Y-214715000D01*
X289355000Y-214715000D01*
X289361126Y-214715301D01*
X289361126Y-214715301D01*
G37*
D27*
X288980000Y-214840000D03*
D19*
G36*
X289736126Y-215090301D02*
G01*
X289742193Y-215091201D01*
X289748143Y-215092691D01*
X289753918Y-215094758D01*
X289759462Y-215097380D01*
X289764723Y-215100533D01*
X289769650Y-215104187D01*
X289774194Y-215108306D01*
X289778313Y-215112850D01*
X289781967Y-215117777D01*
X289785120Y-215123038D01*
X289787742Y-215128582D01*
X289789809Y-215134357D01*
X289791299Y-215140307D01*
X289792199Y-215146374D01*
X289792500Y-215152500D01*
X289792500Y-215902500D01*
X289792199Y-215908626D01*
X289791299Y-215914693D01*
X289789809Y-215920643D01*
X289787742Y-215926418D01*
X289785120Y-215931962D01*
X289781967Y-215937223D01*
X289778313Y-215942150D01*
X289774194Y-215946694D01*
X289769650Y-215950813D01*
X289764723Y-215954467D01*
X289759462Y-215957620D01*
X289753918Y-215960242D01*
X289748143Y-215962309D01*
X289742193Y-215963799D01*
X289736126Y-215964699D01*
X289730000Y-215965000D01*
X289605000Y-215965000D01*
X289598874Y-215964699D01*
X289592807Y-215963799D01*
X289586857Y-215962309D01*
X289581082Y-215960242D01*
X289575538Y-215957620D01*
X289570277Y-215954467D01*
X289565350Y-215950813D01*
X289560806Y-215946694D01*
X289556687Y-215942150D01*
X289553033Y-215937223D01*
X289549880Y-215931962D01*
X289547258Y-215926418D01*
X289545191Y-215920643D01*
X289543701Y-215914693D01*
X289542801Y-215908626D01*
X289542500Y-215902500D01*
X289542500Y-215152500D01*
X289542801Y-215146374D01*
X289543701Y-215140307D01*
X289545191Y-215134357D01*
X289547258Y-215128582D01*
X289549880Y-215123038D01*
X289553033Y-215117777D01*
X289556687Y-215112850D01*
X289560806Y-215108306D01*
X289565350Y-215104187D01*
X289570277Y-215100533D01*
X289575538Y-215097380D01*
X289581082Y-215094758D01*
X289586857Y-215092691D01*
X289592807Y-215091201D01*
X289598874Y-215090301D01*
X289605000Y-215090000D01*
X289730000Y-215090000D01*
X289736126Y-215090301D01*
X289736126Y-215090301D01*
G37*
D27*
X289667500Y-215527500D03*
D19*
G36*
X290236126Y-215090301D02*
G01*
X290242193Y-215091201D01*
X290248143Y-215092691D01*
X290253918Y-215094758D01*
X290259462Y-215097380D01*
X290264723Y-215100533D01*
X290269650Y-215104187D01*
X290274194Y-215108306D01*
X290278313Y-215112850D01*
X290281967Y-215117777D01*
X290285120Y-215123038D01*
X290287742Y-215128582D01*
X290289809Y-215134357D01*
X290291299Y-215140307D01*
X290292199Y-215146374D01*
X290292500Y-215152500D01*
X290292500Y-215902500D01*
X290292199Y-215908626D01*
X290291299Y-215914693D01*
X290289809Y-215920643D01*
X290287742Y-215926418D01*
X290285120Y-215931962D01*
X290281967Y-215937223D01*
X290278313Y-215942150D01*
X290274194Y-215946694D01*
X290269650Y-215950813D01*
X290264723Y-215954467D01*
X290259462Y-215957620D01*
X290253918Y-215960242D01*
X290248143Y-215962309D01*
X290242193Y-215963799D01*
X290236126Y-215964699D01*
X290230000Y-215965000D01*
X290105000Y-215965000D01*
X290098874Y-215964699D01*
X290092807Y-215963799D01*
X290086857Y-215962309D01*
X290081082Y-215960242D01*
X290075538Y-215957620D01*
X290070277Y-215954467D01*
X290065350Y-215950813D01*
X290060806Y-215946694D01*
X290056687Y-215942150D01*
X290053033Y-215937223D01*
X290049880Y-215931962D01*
X290047258Y-215926418D01*
X290045191Y-215920643D01*
X290043701Y-215914693D01*
X290042801Y-215908626D01*
X290042500Y-215902500D01*
X290042500Y-215152500D01*
X290042801Y-215146374D01*
X290043701Y-215140307D01*
X290045191Y-215134357D01*
X290047258Y-215128582D01*
X290049880Y-215123038D01*
X290053033Y-215117777D01*
X290056687Y-215112850D01*
X290060806Y-215108306D01*
X290065350Y-215104187D01*
X290070277Y-215100533D01*
X290075538Y-215097380D01*
X290081082Y-215094758D01*
X290086857Y-215092691D01*
X290092807Y-215091201D01*
X290098874Y-215090301D01*
X290105000Y-215090000D01*
X290230000Y-215090000D01*
X290236126Y-215090301D01*
X290236126Y-215090301D01*
G37*
D27*
X290167500Y-215527500D03*
D19*
G36*
X290736126Y-215090301D02*
G01*
X290742193Y-215091201D01*
X290748143Y-215092691D01*
X290753918Y-215094758D01*
X290759462Y-215097380D01*
X290764723Y-215100533D01*
X290769650Y-215104187D01*
X290774194Y-215108306D01*
X290778313Y-215112850D01*
X290781967Y-215117777D01*
X290785120Y-215123038D01*
X290787742Y-215128582D01*
X290789809Y-215134357D01*
X290791299Y-215140307D01*
X290792199Y-215146374D01*
X290792500Y-215152500D01*
X290792500Y-215902500D01*
X290792199Y-215908626D01*
X290791299Y-215914693D01*
X290789809Y-215920643D01*
X290787742Y-215926418D01*
X290785120Y-215931962D01*
X290781967Y-215937223D01*
X290778313Y-215942150D01*
X290774194Y-215946694D01*
X290769650Y-215950813D01*
X290764723Y-215954467D01*
X290759462Y-215957620D01*
X290753918Y-215960242D01*
X290748143Y-215962309D01*
X290742193Y-215963799D01*
X290736126Y-215964699D01*
X290730000Y-215965000D01*
X290605000Y-215965000D01*
X290598874Y-215964699D01*
X290592807Y-215963799D01*
X290586857Y-215962309D01*
X290581082Y-215960242D01*
X290575538Y-215957620D01*
X290570277Y-215954467D01*
X290565350Y-215950813D01*
X290560806Y-215946694D01*
X290556687Y-215942150D01*
X290553033Y-215937223D01*
X290549880Y-215931962D01*
X290547258Y-215926418D01*
X290545191Y-215920643D01*
X290543701Y-215914693D01*
X290542801Y-215908626D01*
X290542500Y-215902500D01*
X290542500Y-215152500D01*
X290542801Y-215146374D01*
X290543701Y-215140307D01*
X290545191Y-215134357D01*
X290547258Y-215128582D01*
X290549880Y-215123038D01*
X290553033Y-215117777D01*
X290556687Y-215112850D01*
X290560806Y-215108306D01*
X290565350Y-215104187D01*
X290570277Y-215100533D01*
X290575538Y-215097380D01*
X290581082Y-215094758D01*
X290586857Y-215092691D01*
X290592807Y-215091201D01*
X290598874Y-215090301D01*
X290605000Y-215090000D01*
X290730000Y-215090000D01*
X290736126Y-215090301D01*
X290736126Y-215090301D01*
G37*
D27*
X290667500Y-215527500D03*
D19*
G36*
X291236126Y-215090301D02*
G01*
X291242193Y-215091201D01*
X291248143Y-215092691D01*
X291253918Y-215094758D01*
X291259462Y-215097380D01*
X291264723Y-215100533D01*
X291269650Y-215104187D01*
X291274194Y-215108306D01*
X291278313Y-215112850D01*
X291281967Y-215117777D01*
X291285120Y-215123038D01*
X291287742Y-215128582D01*
X291289809Y-215134357D01*
X291291299Y-215140307D01*
X291292199Y-215146374D01*
X291292500Y-215152500D01*
X291292500Y-215902500D01*
X291292199Y-215908626D01*
X291291299Y-215914693D01*
X291289809Y-215920643D01*
X291287742Y-215926418D01*
X291285120Y-215931962D01*
X291281967Y-215937223D01*
X291278313Y-215942150D01*
X291274194Y-215946694D01*
X291269650Y-215950813D01*
X291264723Y-215954467D01*
X291259462Y-215957620D01*
X291253918Y-215960242D01*
X291248143Y-215962309D01*
X291242193Y-215963799D01*
X291236126Y-215964699D01*
X291230000Y-215965000D01*
X291105000Y-215965000D01*
X291098874Y-215964699D01*
X291092807Y-215963799D01*
X291086857Y-215962309D01*
X291081082Y-215960242D01*
X291075538Y-215957620D01*
X291070277Y-215954467D01*
X291065350Y-215950813D01*
X291060806Y-215946694D01*
X291056687Y-215942150D01*
X291053033Y-215937223D01*
X291049880Y-215931962D01*
X291047258Y-215926418D01*
X291045191Y-215920643D01*
X291043701Y-215914693D01*
X291042801Y-215908626D01*
X291042500Y-215902500D01*
X291042500Y-215152500D01*
X291042801Y-215146374D01*
X291043701Y-215140307D01*
X291045191Y-215134357D01*
X291047258Y-215128582D01*
X291049880Y-215123038D01*
X291053033Y-215117777D01*
X291056687Y-215112850D01*
X291060806Y-215108306D01*
X291065350Y-215104187D01*
X291070277Y-215100533D01*
X291075538Y-215097380D01*
X291081082Y-215094758D01*
X291086857Y-215092691D01*
X291092807Y-215091201D01*
X291098874Y-215090301D01*
X291105000Y-215090000D01*
X291230000Y-215090000D01*
X291236126Y-215090301D01*
X291236126Y-215090301D01*
G37*
D27*
X291167500Y-215527500D03*
D19*
G36*
X291736126Y-215090301D02*
G01*
X291742193Y-215091201D01*
X291748143Y-215092691D01*
X291753918Y-215094758D01*
X291759462Y-215097380D01*
X291764723Y-215100533D01*
X291769650Y-215104187D01*
X291774194Y-215108306D01*
X291778313Y-215112850D01*
X291781967Y-215117777D01*
X291785120Y-215123038D01*
X291787742Y-215128582D01*
X291789809Y-215134357D01*
X291791299Y-215140307D01*
X291792199Y-215146374D01*
X291792500Y-215152500D01*
X291792500Y-215902500D01*
X291792199Y-215908626D01*
X291791299Y-215914693D01*
X291789809Y-215920643D01*
X291787742Y-215926418D01*
X291785120Y-215931962D01*
X291781967Y-215937223D01*
X291778313Y-215942150D01*
X291774194Y-215946694D01*
X291769650Y-215950813D01*
X291764723Y-215954467D01*
X291759462Y-215957620D01*
X291753918Y-215960242D01*
X291748143Y-215962309D01*
X291742193Y-215963799D01*
X291736126Y-215964699D01*
X291730000Y-215965000D01*
X291605000Y-215965000D01*
X291598874Y-215964699D01*
X291592807Y-215963799D01*
X291586857Y-215962309D01*
X291581082Y-215960242D01*
X291575538Y-215957620D01*
X291570277Y-215954467D01*
X291565350Y-215950813D01*
X291560806Y-215946694D01*
X291556687Y-215942150D01*
X291553033Y-215937223D01*
X291549880Y-215931962D01*
X291547258Y-215926418D01*
X291545191Y-215920643D01*
X291543701Y-215914693D01*
X291542801Y-215908626D01*
X291542500Y-215902500D01*
X291542500Y-215152500D01*
X291542801Y-215146374D01*
X291543701Y-215140307D01*
X291545191Y-215134357D01*
X291547258Y-215128582D01*
X291549880Y-215123038D01*
X291553033Y-215117777D01*
X291556687Y-215112850D01*
X291560806Y-215108306D01*
X291565350Y-215104187D01*
X291570277Y-215100533D01*
X291575538Y-215097380D01*
X291581082Y-215094758D01*
X291586857Y-215092691D01*
X291592807Y-215091201D01*
X291598874Y-215090301D01*
X291605000Y-215090000D01*
X291730000Y-215090000D01*
X291736126Y-215090301D01*
X291736126Y-215090301D01*
G37*
D27*
X291667500Y-215527500D03*
D19*
G36*
X292236126Y-215090301D02*
G01*
X292242193Y-215091201D01*
X292248143Y-215092691D01*
X292253918Y-215094758D01*
X292259462Y-215097380D01*
X292264723Y-215100533D01*
X292269650Y-215104187D01*
X292274194Y-215108306D01*
X292278313Y-215112850D01*
X292281967Y-215117777D01*
X292285120Y-215123038D01*
X292287742Y-215128582D01*
X292289809Y-215134357D01*
X292291299Y-215140307D01*
X292292199Y-215146374D01*
X292292500Y-215152500D01*
X292292500Y-215902500D01*
X292292199Y-215908626D01*
X292291299Y-215914693D01*
X292289809Y-215920643D01*
X292287742Y-215926418D01*
X292285120Y-215931962D01*
X292281967Y-215937223D01*
X292278313Y-215942150D01*
X292274194Y-215946694D01*
X292269650Y-215950813D01*
X292264723Y-215954467D01*
X292259462Y-215957620D01*
X292253918Y-215960242D01*
X292248143Y-215962309D01*
X292242193Y-215963799D01*
X292236126Y-215964699D01*
X292230000Y-215965000D01*
X292105000Y-215965000D01*
X292098874Y-215964699D01*
X292092807Y-215963799D01*
X292086857Y-215962309D01*
X292081082Y-215960242D01*
X292075538Y-215957620D01*
X292070277Y-215954467D01*
X292065350Y-215950813D01*
X292060806Y-215946694D01*
X292056687Y-215942150D01*
X292053033Y-215937223D01*
X292049880Y-215931962D01*
X292047258Y-215926418D01*
X292045191Y-215920643D01*
X292043701Y-215914693D01*
X292042801Y-215908626D01*
X292042500Y-215902500D01*
X292042500Y-215152500D01*
X292042801Y-215146374D01*
X292043701Y-215140307D01*
X292045191Y-215134357D01*
X292047258Y-215128582D01*
X292049880Y-215123038D01*
X292053033Y-215117777D01*
X292056687Y-215112850D01*
X292060806Y-215108306D01*
X292065350Y-215104187D01*
X292070277Y-215100533D01*
X292075538Y-215097380D01*
X292081082Y-215094758D01*
X292086857Y-215092691D01*
X292092807Y-215091201D01*
X292098874Y-215090301D01*
X292105000Y-215090000D01*
X292230000Y-215090000D01*
X292236126Y-215090301D01*
X292236126Y-215090301D01*
G37*
D27*
X292167500Y-215527500D03*
D19*
G36*
X292736126Y-215090301D02*
G01*
X292742193Y-215091201D01*
X292748143Y-215092691D01*
X292753918Y-215094758D01*
X292759462Y-215097380D01*
X292764723Y-215100533D01*
X292769650Y-215104187D01*
X292774194Y-215108306D01*
X292778313Y-215112850D01*
X292781967Y-215117777D01*
X292785120Y-215123038D01*
X292787742Y-215128582D01*
X292789809Y-215134357D01*
X292791299Y-215140307D01*
X292792199Y-215146374D01*
X292792500Y-215152500D01*
X292792500Y-215902500D01*
X292792199Y-215908626D01*
X292791299Y-215914693D01*
X292789809Y-215920643D01*
X292787742Y-215926418D01*
X292785120Y-215931962D01*
X292781967Y-215937223D01*
X292778313Y-215942150D01*
X292774194Y-215946694D01*
X292769650Y-215950813D01*
X292764723Y-215954467D01*
X292759462Y-215957620D01*
X292753918Y-215960242D01*
X292748143Y-215962309D01*
X292742193Y-215963799D01*
X292736126Y-215964699D01*
X292730000Y-215965000D01*
X292605000Y-215965000D01*
X292598874Y-215964699D01*
X292592807Y-215963799D01*
X292586857Y-215962309D01*
X292581082Y-215960242D01*
X292575538Y-215957620D01*
X292570277Y-215954467D01*
X292565350Y-215950813D01*
X292560806Y-215946694D01*
X292556687Y-215942150D01*
X292553033Y-215937223D01*
X292549880Y-215931962D01*
X292547258Y-215926418D01*
X292545191Y-215920643D01*
X292543701Y-215914693D01*
X292542801Y-215908626D01*
X292542500Y-215902500D01*
X292542500Y-215152500D01*
X292542801Y-215146374D01*
X292543701Y-215140307D01*
X292545191Y-215134357D01*
X292547258Y-215128582D01*
X292549880Y-215123038D01*
X292553033Y-215117777D01*
X292556687Y-215112850D01*
X292560806Y-215108306D01*
X292565350Y-215104187D01*
X292570277Y-215100533D01*
X292575538Y-215097380D01*
X292581082Y-215094758D01*
X292586857Y-215092691D01*
X292592807Y-215091201D01*
X292598874Y-215090301D01*
X292605000Y-215090000D01*
X292730000Y-215090000D01*
X292736126Y-215090301D01*
X292736126Y-215090301D01*
G37*
D27*
X292667500Y-215527500D03*
D19*
G36*
X293236126Y-215090301D02*
G01*
X293242193Y-215091201D01*
X293248143Y-215092691D01*
X293253918Y-215094758D01*
X293259462Y-215097380D01*
X293264723Y-215100533D01*
X293269650Y-215104187D01*
X293274194Y-215108306D01*
X293278313Y-215112850D01*
X293281967Y-215117777D01*
X293285120Y-215123038D01*
X293287742Y-215128582D01*
X293289809Y-215134357D01*
X293291299Y-215140307D01*
X293292199Y-215146374D01*
X293292500Y-215152500D01*
X293292500Y-215902500D01*
X293292199Y-215908626D01*
X293291299Y-215914693D01*
X293289809Y-215920643D01*
X293287742Y-215926418D01*
X293285120Y-215931962D01*
X293281967Y-215937223D01*
X293278313Y-215942150D01*
X293274194Y-215946694D01*
X293269650Y-215950813D01*
X293264723Y-215954467D01*
X293259462Y-215957620D01*
X293253918Y-215960242D01*
X293248143Y-215962309D01*
X293242193Y-215963799D01*
X293236126Y-215964699D01*
X293230000Y-215965000D01*
X293105000Y-215965000D01*
X293098874Y-215964699D01*
X293092807Y-215963799D01*
X293086857Y-215962309D01*
X293081082Y-215960242D01*
X293075538Y-215957620D01*
X293070277Y-215954467D01*
X293065350Y-215950813D01*
X293060806Y-215946694D01*
X293056687Y-215942150D01*
X293053033Y-215937223D01*
X293049880Y-215931962D01*
X293047258Y-215926418D01*
X293045191Y-215920643D01*
X293043701Y-215914693D01*
X293042801Y-215908626D01*
X293042500Y-215902500D01*
X293042500Y-215152500D01*
X293042801Y-215146374D01*
X293043701Y-215140307D01*
X293045191Y-215134357D01*
X293047258Y-215128582D01*
X293049880Y-215123038D01*
X293053033Y-215117777D01*
X293056687Y-215112850D01*
X293060806Y-215108306D01*
X293065350Y-215104187D01*
X293070277Y-215100533D01*
X293075538Y-215097380D01*
X293081082Y-215094758D01*
X293086857Y-215092691D01*
X293092807Y-215091201D01*
X293098874Y-215090301D01*
X293105000Y-215090000D01*
X293230000Y-215090000D01*
X293236126Y-215090301D01*
X293236126Y-215090301D01*
G37*
D27*
X293167500Y-215527500D03*
D19*
G36*
X293736126Y-215090301D02*
G01*
X293742193Y-215091201D01*
X293748143Y-215092691D01*
X293753918Y-215094758D01*
X293759462Y-215097380D01*
X293764723Y-215100533D01*
X293769650Y-215104187D01*
X293774194Y-215108306D01*
X293778313Y-215112850D01*
X293781967Y-215117777D01*
X293785120Y-215123038D01*
X293787742Y-215128582D01*
X293789809Y-215134357D01*
X293791299Y-215140307D01*
X293792199Y-215146374D01*
X293792500Y-215152500D01*
X293792500Y-215902500D01*
X293792199Y-215908626D01*
X293791299Y-215914693D01*
X293789809Y-215920643D01*
X293787742Y-215926418D01*
X293785120Y-215931962D01*
X293781967Y-215937223D01*
X293778313Y-215942150D01*
X293774194Y-215946694D01*
X293769650Y-215950813D01*
X293764723Y-215954467D01*
X293759462Y-215957620D01*
X293753918Y-215960242D01*
X293748143Y-215962309D01*
X293742193Y-215963799D01*
X293736126Y-215964699D01*
X293730000Y-215965000D01*
X293605000Y-215965000D01*
X293598874Y-215964699D01*
X293592807Y-215963799D01*
X293586857Y-215962309D01*
X293581082Y-215960242D01*
X293575538Y-215957620D01*
X293570277Y-215954467D01*
X293565350Y-215950813D01*
X293560806Y-215946694D01*
X293556687Y-215942150D01*
X293553033Y-215937223D01*
X293549880Y-215931962D01*
X293547258Y-215926418D01*
X293545191Y-215920643D01*
X293543701Y-215914693D01*
X293542801Y-215908626D01*
X293542500Y-215902500D01*
X293542500Y-215152500D01*
X293542801Y-215146374D01*
X293543701Y-215140307D01*
X293545191Y-215134357D01*
X293547258Y-215128582D01*
X293549880Y-215123038D01*
X293553033Y-215117777D01*
X293556687Y-215112850D01*
X293560806Y-215108306D01*
X293565350Y-215104187D01*
X293570277Y-215100533D01*
X293575538Y-215097380D01*
X293581082Y-215094758D01*
X293586857Y-215092691D01*
X293592807Y-215091201D01*
X293598874Y-215090301D01*
X293605000Y-215090000D01*
X293730000Y-215090000D01*
X293736126Y-215090301D01*
X293736126Y-215090301D01*
G37*
D27*
X293667500Y-215527500D03*
D19*
G36*
X294236126Y-215090301D02*
G01*
X294242193Y-215091201D01*
X294248143Y-215092691D01*
X294253918Y-215094758D01*
X294259462Y-215097380D01*
X294264723Y-215100533D01*
X294269650Y-215104187D01*
X294274194Y-215108306D01*
X294278313Y-215112850D01*
X294281967Y-215117777D01*
X294285120Y-215123038D01*
X294287742Y-215128582D01*
X294289809Y-215134357D01*
X294291299Y-215140307D01*
X294292199Y-215146374D01*
X294292500Y-215152500D01*
X294292500Y-215902500D01*
X294292199Y-215908626D01*
X294291299Y-215914693D01*
X294289809Y-215920643D01*
X294287742Y-215926418D01*
X294285120Y-215931962D01*
X294281967Y-215937223D01*
X294278313Y-215942150D01*
X294274194Y-215946694D01*
X294269650Y-215950813D01*
X294264723Y-215954467D01*
X294259462Y-215957620D01*
X294253918Y-215960242D01*
X294248143Y-215962309D01*
X294242193Y-215963799D01*
X294236126Y-215964699D01*
X294230000Y-215965000D01*
X294105000Y-215965000D01*
X294098874Y-215964699D01*
X294092807Y-215963799D01*
X294086857Y-215962309D01*
X294081082Y-215960242D01*
X294075538Y-215957620D01*
X294070277Y-215954467D01*
X294065350Y-215950813D01*
X294060806Y-215946694D01*
X294056687Y-215942150D01*
X294053033Y-215937223D01*
X294049880Y-215931962D01*
X294047258Y-215926418D01*
X294045191Y-215920643D01*
X294043701Y-215914693D01*
X294042801Y-215908626D01*
X294042500Y-215902500D01*
X294042500Y-215152500D01*
X294042801Y-215146374D01*
X294043701Y-215140307D01*
X294045191Y-215134357D01*
X294047258Y-215128582D01*
X294049880Y-215123038D01*
X294053033Y-215117777D01*
X294056687Y-215112850D01*
X294060806Y-215108306D01*
X294065350Y-215104187D01*
X294070277Y-215100533D01*
X294075538Y-215097380D01*
X294081082Y-215094758D01*
X294086857Y-215092691D01*
X294092807Y-215091201D01*
X294098874Y-215090301D01*
X294105000Y-215090000D01*
X294230000Y-215090000D01*
X294236126Y-215090301D01*
X294236126Y-215090301D01*
G37*
D27*
X294167500Y-215527500D03*
D19*
G36*
X294736126Y-215090301D02*
G01*
X294742193Y-215091201D01*
X294748143Y-215092691D01*
X294753918Y-215094758D01*
X294759462Y-215097380D01*
X294764723Y-215100533D01*
X294769650Y-215104187D01*
X294774194Y-215108306D01*
X294778313Y-215112850D01*
X294781967Y-215117777D01*
X294785120Y-215123038D01*
X294787742Y-215128582D01*
X294789809Y-215134357D01*
X294791299Y-215140307D01*
X294792199Y-215146374D01*
X294792500Y-215152500D01*
X294792500Y-215902500D01*
X294792199Y-215908626D01*
X294791299Y-215914693D01*
X294789809Y-215920643D01*
X294787742Y-215926418D01*
X294785120Y-215931962D01*
X294781967Y-215937223D01*
X294778313Y-215942150D01*
X294774194Y-215946694D01*
X294769650Y-215950813D01*
X294764723Y-215954467D01*
X294759462Y-215957620D01*
X294753918Y-215960242D01*
X294748143Y-215962309D01*
X294742193Y-215963799D01*
X294736126Y-215964699D01*
X294730000Y-215965000D01*
X294605000Y-215965000D01*
X294598874Y-215964699D01*
X294592807Y-215963799D01*
X294586857Y-215962309D01*
X294581082Y-215960242D01*
X294575538Y-215957620D01*
X294570277Y-215954467D01*
X294565350Y-215950813D01*
X294560806Y-215946694D01*
X294556687Y-215942150D01*
X294553033Y-215937223D01*
X294549880Y-215931962D01*
X294547258Y-215926418D01*
X294545191Y-215920643D01*
X294543701Y-215914693D01*
X294542801Y-215908626D01*
X294542500Y-215902500D01*
X294542500Y-215152500D01*
X294542801Y-215146374D01*
X294543701Y-215140307D01*
X294545191Y-215134357D01*
X294547258Y-215128582D01*
X294549880Y-215123038D01*
X294553033Y-215117777D01*
X294556687Y-215112850D01*
X294560806Y-215108306D01*
X294565350Y-215104187D01*
X294570277Y-215100533D01*
X294575538Y-215097380D01*
X294581082Y-215094758D01*
X294586857Y-215092691D01*
X294592807Y-215091201D01*
X294598874Y-215090301D01*
X294605000Y-215090000D01*
X294730000Y-215090000D01*
X294736126Y-215090301D01*
X294736126Y-215090301D01*
G37*
D27*
X294667500Y-215527500D03*
D19*
G36*
X295236126Y-215090301D02*
G01*
X295242193Y-215091201D01*
X295248143Y-215092691D01*
X295253918Y-215094758D01*
X295259462Y-215097380D01*
X295264723Y-215100533D01*
X295269650Y-215104187D01*
X295274194Y-215108306D01*
X295278313Y-215112850D01*
X295281967Y-215117777D01*
X295285120Y-215123038D01*
X295287742Y-215128582D01*
X295289809Y-215134357D01*
X295291299Y-215140307D01*
X295292199Y-215146374D01*
X295292500Y-215152500D01*
X295292500Y-215902500D01*
X295292199Y-215908626D01*
X295291299Y-215914693D01*
X295289809Y-215920643D01*
X295287742Y-215926418D01*
X295285120Y-215931962D01*
X295281967Y-215937223D01*
X295278313Y-215942150D01*
X295274194Y-215946694D01*
X295269650Y-215950813D01*
X295264723Y-215954467D01*
X295259462Y-215957620D01*
X295253918Y-215960242D01*
X295248143Y-215962309D01*
X295242193Y-215963799D01*
X295236126Y-215964699D01*
X295230000Y-215965000D01*
X295105000Y-215965000D01*
X295098874Y-215964699D01*
X295092807Y-215963799D01*
X295086857Y-215962309D01*
X295081082Y-215960242D01*
X295075538Y-215957620D01*
X295070277Y-215954467D01*
X295065350Y-215950813D01*
X295060806Y-215946694D01*
X295056687Y-215942150D01*
X295053033Y-215937223D01*
X295049880Y-215931962D01*
X295047258Y-215926418D01*
X295045191Y-215920643D01*
X295043701Y-215914693D01*
X295042801Y-215908626D01*
X295042500Y-215902500D01*
X295042500Y-215152500D01*
X295042801Y-215146374D01*
X295043701Y-215140307D01*
X295045191Y-215134357D01*
X295047258Y-215128582D01*
X295049880Y-215123038D01*
X295053033Y-215117777D01*
X295056687Y-215112850D01*
X295060806Y-215108306D01*
X295065350Y-215104187D01*
X295070277Y-215100533D01*
X295075538Y-215097380D01*
X295081082Y-215094758D01*
X295086857Y-215092691D01*
X295092807Y-215091201D01*
X295098874Y-215090301D01*
X295105000Y-215090000D01*
X295230000Y-215090000D01*
X295236126Y-215090301D01*
X295236126Y-215090301D01*
G37*
D27*
X295167500Y-215527500D03*
D19*
G36*
X294992004Y-209291204D02*
G01*
X295016273Y-209294804D01*
X295040071Y-209300765D01*
X295063171Y-209309030D01*
X295085349Y-209319520D01*
X295106393Y-209332133D01*
X295126098Y-209346747D01*
X295144277Y-209363223D01*
X295160753Y-209381402D01*
X295175367Y-209401107D01*
X295187980Y-209422151D01*
X295198470Y-209444329D01*
X295206735Y-209467429D01*
X295212696Y-209491227D01*
X295216296Y-209515496D01*
X295217500Y-209540000D01*
X295217500Y-214640000D01*
X295216296Y-214664504D01*
X295212696Y-214688773D01*
X295206735Y-214712571D01*
X295198470Y-214735671D01*
X295187980Y-214757849D01*
X295175367Y-214778893D01*
X295160753Y-214798598D01*
X295144277Y-214816777D01*
X295126098Y-214833253D01*
X295106393Y-214847867D01*
X295085349Y-214860480D01*
X295063171Y-214870970D01*
X295040071Y-214879235D01*
X295016273Y-214885196D01*
X294992004Y-214888796D01*
X294967500Y-214890000D01*
X289867500Y-214890000D01*
X289842996Y-214888796D01*
X289818727Y-214885196D01*
X289794929Y-214879235D01*
X289771829Y-214870970D01*
X289749651Y-214860480D01*
X289728607Y-214847867D01*
X289708902Y-214833253D01*
X289690723Y-214816777D01*
X289674247Y-214798598D01*
X289659633Y-214778893D01*
X289647020Y-214757849D01*
X289636530Y-214735671D01*
X289628265Y-214712571D01*
X289622304Y-214688773D01*
X289618704Y-214664504D01*
X289617500Y-214640000D01*
X289617500Y-209540000D01*
X289618704Y-209515496D01*
X289622304Y-209491227D01*
X289628265Y-209467429D01*
X289636530Y-209444329D01*
X289647020Y-209422151D01*
X289659633Y-209401107D01*
X289674247Y-209381402D01*
X289690723Y-209363223D01*
X289708902Y-209346747D01*
X289728607Y-209332133D01*
X289749651Y-209319520D01*
X289771829Y-209309030D01*
X289794929Y-209300765D01*
X289818727Y-209294804D01*
X289842996Y-209291204D01*
X289867500Y-209290000D01*
X294967500Y-209290000D01*
X294992004Y-209291204D01*
X294992004Y-209291204D01*
G37*
D28*
X292417500Y-212090000D03*
D23*
X119201000Y-177582000D03*
X112701000Y-182082000D03*
X119201000Y-182082000D03*
X112701000Y-177582000D03*
D19*
G36*
X119733142Y-191489174D02*
G01*
X119756803Y-191492684D01*
X119780007Y-191498496D01*
X119802529Y-191506554D01*
X119824153Y-191516782D01*
X119844670Y-191529079D01*
X119863883Y-191543329D01*
X119881607Y-191559393D01*
X119897671Y-191577117D01*
X119911921Y-191596330D01*
X119924218Y-191616847D01*
X119934446Y-191638471D01*
X119942504Y-191660993D01*
X119948316Y-191684197D01*
X119951826Y-191707858D01*
X119953000Y-191731750D01*
X119953000Y-192219250D01*
X119951826Y-192243142D01*
X119948316Y-192266803D01*
X119942504Y-192290007D01*
X119934446Y-192312529D01*
X119924218Y-192334153D01*
X119911921Y-192354670D01*
X119897671Y-192373883D01*
X119881607Y-192391607D01*
X119863883Y-192407671D01*
X119844670Y-192421921D01*
X119824153Y-192434218D01*
X119802529Y-192444446D01*
X119780007Y-192452504D01*
X119756803Y-192458316D01*
X119733142Y-192461826D01*
X119709250Y-192463000D01*
X118796750Y-192463000D01*
X118772858Y-192461826D01*
X118749197Y-192458316D01*
X118725993Y-192452504D01*
X118703471Y-192444446D01*
X118681847Y-192434218D01*
X118661330Y-192421921D01*
X118642117Y-192407671D01*
X118624393Y-192391607D01*
X118608329Y-192373883D01*
X118594079Y-192354670D01*
X118581782Y-192334153D01*
X118571554Y-192312529D01*
X118563496Y-192290007D01*
X118557684Y-192266803D01*
X118554174Y-192243142D01*
X118553000Y-192219250D01*
X118553000Y-191731750D01*
X118554174Y-191707858D01*
X118557684Y-191684197D01*
X118563496Y-191660993D01*
X118571554Y-191638471D01*
X118581782Y-191616847D01*
X118594079Y-191596330D01*
X118608329Y-191577117D01*
X118624393Y-191559393D01*
X118642117Y-191543329D01*
X118661330Y-191529079D01*
X118681847Y-191516782D01*
X118703471Y-191506554D01*
X118725993Y-191498496D01*
X118749197Y-191492684D01*
X118772858Y-191489174D01*
X118796750Y-191488000D01*
X119709250Y-191488000D01*
X119733142Y-191489174D01*
X119733142Y-191489174D01*
G37*
D22*
X119253000Y-191975500D03*
D19*
G36*
X119733142Y-193364174D02*
G01*
X119756803Y-193367684D01*
X119780007Y-193373496D01*
X119802529Y-193381554D01*
X119824153Y-193391782D01*
X119844670Y-193404079D01*
X119863883Y-193418329D01*
X119881607Y-193434393D01*
X119897671Y-193452117D01*
X119911921Y-193471330D01*
X119924218Y-193491847D01*
X119934446Y-193513471D01*
X119942504Y-193535993D01*
X119948316Y-193559197D01*
X119951826Y-193582858D01*
X119953000Y-193606750D01*
X119953000Y-194094250D01*
X119951826Y-194118142D01*
X119948316Y-194141803D01*
X119942504Y-194165007D01*
X119934446Y-194187529D01*
X119924218Y-194209153D01*
X119911921Y-194229670D01*
X119897671Y-194248883D01*
X119881607Y-194266607D01*
X119863883Y-194282671D01*
X119844670Y-194296921D01*
X119824153Y-194309218D01*
X119802529Y-194319446D01*
X119780007Y-194327504D01*
X119756803Y-194333316D01*
X119733142Y-194336826D01*
X119709250Y-194338000D01*
X118796750Y-194338000D01*
X118772858Y-194336826D01*
X118749197Y-194333316D01*
X118725993Y-194327504D01*
X118703471Y-194319446D01*
X118681847Y-194309218D01*
X118661330Y-194296921D01*
X118642117Y-194282671D01*
X118624393Y-194266607D01*
X118608329Y-194248883D01*
X118594079Y-194229670D01*
X118581782Y-194209153D01*
X118571554Y-194187529D01*
X118563496Y-194165007D01*
X118557684Y-194141803D01*
X118554174Y-194118142D01*
X118553000Y-194094250D01*
X118553000Y-193606750D01*
X118554174Y-193582858D01*
X118557684Y-193559197D01*
X118563496Y-193535993D01*
X118571554Y-193513471D01*
X118581782Y-193491847D01*
X118594079Y-193471330D01*
X118608329Y-193452117D01*
X118624393Y-193434393D01*
X118642117Y-193418329D01*
X118661330Y-193404079D01*
X118681847Y-193391782D01*
X118703471Y-193381554D01*
X118725993Y-193373496D01*
X118749197Y-193367684D01*
X118772858Y-193364174D01*
X118796750Y-193363000D01*
X119709250Y-193363000D01*
X119733142Y-193364174D01*
X119733142Y-193364174D01*
G37*
D22*
X119253000Y-193850500D03*
D19*
G36*
X114526142Y-171931174D02*
G01*
X114549803Y-171934684D01*
X114573007Y-171940496D01*
X114595529Y-171948554D01*
X114617153Y-171958782D01*
X114637670Y-171971079D01*
X114656883Y-171985329D01*
X114674607Y-172001393D01*
X114690671Y-172019117D01*
X114704921Y-172038330D01*
X114717218Y-172058847D01*
X114727446Y-172080471D01*
X114735504Y-172102993D01*
X114741316Y-172126197D01*
X114744826Y-172149858D01*
X114746000Y-172173750D01*
X114746000Y-172661250D01*
X114744826Y-172685142D01*
X114741316Y-172708803D01*
X114735504Y-172732007D01*
X114727446Y-172754529D01*
X114717218Y-172776153D01*
X114704921Y-172796670D01*
X114690671Y-172815883D01*
X114674607Y-172833607D01*
X114656883Y-172849671D01*
X114637670Y-172863921D01*
X114617153Y-172876218D01*
X114595529Y-172886446D01*
X114573007Y-172894504D01*
X114549803Y-172900316D01*
X114526142Y-172903826D01*
X114502250Y-172905000D01*
X113589750Y-172905000D01*
X113565858Y-172903826D01*
X113542197Y-172900316D01*
X113518993Y-172894504D01*
X113496471Y-172886446D01*
X113474847Y-172876218D01*
X113454330Y-172863921D01*
X113435117Y-172849671D01*
X113417393Y-172833607D01*
X113401329Y-172815883D01*
X113387079Y-172796670D01*
X113374782Y-172776153D01*
X113364554Y-172754529D01*
X113356496Y-172732007D01*
X113350684Y-172708803D01*
X113347174Y-172685142D01*
X113346000Y-172661250D01*
X113346000Y-172173750D01*
X113347174Y-172149858D01*
X113350684Y-172126197D01*
X113356496Y-172102993D01*
X113364554Y-172080471D01*
X113374782Y-172058847D01*
X113387079Y-172038330D01*
X113401329Y-172019117D01*
X113417393Y-172001393D01*
X113435117Y-171985329D01*
X113454330Y-171971079D01*
X113474847Y-171958782D01*
X113496471Y-171948554D01*
X113518993Y-171940496D01*
X113542197Y-171934684D01*
X113565858Y-171931174D01*
X113589750Y-171930000D01*
X114502250Y-171930000D01*
X114526142Y-171931174D01*
X114526142Y-171931174D01*
G37*
D22*
X114046000Y-172417500D03*
D19*
G36*
X114526142Y-173806174D02*
G01*
X114549803Y-173809684D01*
X114573007Y-173815496D01*
X114595529Y-173823554D01*
X114617153Y-173833782D01*
X114637670Y-173846079D01*
X114656883Y-173860329D01*
X114674607Y-173876393D01*
X114690671Y-173894117D01*
X114704921Y-173913330D01*
X114717218Y-173933847D01*
X114727446Y-173955471D01*
X114735504Y-173977993D01*
X114741316Y-174001197D01*
X114744826Y-174024858D01*
X114746000Y-174048750D01*
X114746000Y-174536250D01*
X114744826Y-174560142D01*
X114741316Y-174583803D01*
X114735504Y-174607007D01*
X114727446Y-174629529D01*
X114717218Y-174651153D01*
X114704921Y-174671670D01*
X114690671Y-174690883D01*
X114674607Y-174708607D01*
X114656883Y-174724671D01*
X114637670Y-174738921D01*
X114617153Y-174751218D01*
X114595529Y-174761446D01*
X114573007Y-174769504D01*
X114549803Y-174775316D01*
X114526142Y-174778826D01*
X114502250Y-174780000D01*
X113589750Y-174780000D01*
X113565858Y-174778826D01*
X113542197Y-174775316D01*
X113518993Y-174769504D01*
X113496471Y-174761446D01*
X113474847Y-174751218D01*
X113454330Y-174738921D01*
X113435117Y-174724671D01*
X113417393Y-174708607D01*
X113401329Y-174690883D01*
X113387079Y-174671670D01*
X113374782Y-174651153D01*
X113364554Y-174629529D01*
X113356496Y-174607007D01*
X113350684Y-174583803D01*
X113347174Y-174560142D01*
X113346000Y-174536250D01*
X113346000Y-174048750D01*
X113347174Y-174024858D01*
X113350684Y-174001197D01*
X113356496Y-173977993D01*
X113364554Y-173955471D01*
X113374782Y-173933847D01*
X113387079Y-173913330D01*
X113401329Y-173894117D01*
X113417393Y-173876393D01*
X113435117Y-173860329D01*
X113454330Y-173846079D01*
X113474847Y-173833782D01*
X113496471Y-173823554D01*
X113518993Y-173815496D01*
X113542197Y-173809684D01*
X113565858Y-173806174D01*
X113589750Y-173805000D01*
X114502250Y-173805000D01*
X114526142Y-173806174D01*
X114526142Y-173806174D01*
G37*
D22*
X114046000Y-174292500D03*
D21*
X151400000Y-115182000D03*
X151400000Y-118482000D03*
X170450000Y-115182000D03*
X170450000Y-118482000D03*
X189500000Y-115182000D03*
X189500000Y-118482000D03*
X208550000Y-115182000D03*
X208550000Y-118482000D03*
X227600000Y-115182000D03*
X227600000Y-118482000D03*
X246650000Y-115182000D03*
X246650000Y-118482000D03*
X265700000Y-115182000D03*
X265700000Y-118482000D03*
X284750000Y-115182000D03*
X284750000Y-118482000D03*
X303800000Y-115182000D03*
X303800000Y-118482000D03*
X322850000Y-115182000D03*
X322850000Y-118482000D03*
X341900000Y-115182000D03*
X341900000Y-118482000D03*
X360950000Y-115182000D03*
X360950000Y-118482000D03*
X380000000Y-115182000D03*
X380000000Y-118482000D03*
X399050000Y-115182000D03*
X399050000Y-118482000D03*
X418100000Y-115182000D03*
X418100000Y-118482000D03*
X437150000Y-115182000D03*
X437150000Y-118482000D03*
X456200000Y-115182000D03*
X456200000Y-118482000D03*
X475250000Y-115182000D03*
X475250000Y-118482000D03*
X132350000Y-134232000D03*
X132350000Y-137532000D03*
X151400000Y-134232000D03*
X151400000Y-137532000D03*
X170450000Y-134232000D03*
X170450000Y-137532000D03*
X189500000Y-134232000D03*
X189500000Y-137532000D03*
X208550000Y-134232000D03*
X208550000Y-137532000D03*
X227600000Y-134232000D03*
X227600000Y-137532000D03*
X246650000Y-134232000D03*
X246650000Y-137532000D03*
X265700000Y-134232000D03*
X265700000Y-137532000D03*
X284750000Y-134232000D03*
X284750000Y-137532000D03*
X303800000Y-134232000D03*
X303800000Y-137532000D03*
X322850000Y-134232000D03*
X322850000Y-137532000D03*
X341900000Y-134232000D03*
X341900000Y-137532000D03*
X360950000Y-134232000D03*
X360950000Y-137532000D03*
X389731250Y-134232000D03*
X389731250Y-137532000D03*
X418100000Y-134232000D03*
X418100000Y-137532000D03*
X437150000Y-134232000D03*
X437150000Y-137532000D03*
X456200000Y-134232000D03*
X456200000Y-137532000D03*
X475250000Y-134232000D03*
X475250000Y-137532000D03*
X141875000Y-153282000D03*
X141875000Y-156582000D03*
X160925000Y-153282000D03*
X160925000Y-156582000D03*
X179975000Y-153282000D03*
X179975000Y-156582000D03*
X199025000Y-153282000D03*
X199025000Y-156582000D03*
X218075000Y-153282000D03*
X218075000Y-156582000D03*
X237125000Y-153282000D03*
X237125000Y-156582000D03*
X256175000Y-153282000D03*
X256175000Y-156582000D03*
X275225000Y-153282000D03*
X275225000Y-156582000D03*
X294275000Y-153282000D03*
X294275000Y-156582000D03*
X313325000Y-153282000D03*
X313325000Y-156582000D03*
X332375000Y-153282000D03*
X332375000Y-156582000D03*
X351425000Y-153282000D03*
X351425000Y-156582000D03*
X370475000Y-153282000D03*
X370475000Y-156582000D03*
X394493750Y-153131250D03*
X394493750Y-156431250D03*
X418100000Y-153282000D03*
X418100000Y-156582000D03*
X437150000Y-153282000D03*
X437150000Y-156582000D03*
X456406250Y-156306250D03*
X456406250Y-159606250D03*
X139700000Y-172181250D03*
X139700000Y-175481250D03*
X165687500Y-172332000D03*
X165687500Y-175632000D03*
X184737500Y-172332000D03*
X184737500Y-175632000D03*
X203787500Y-172332000D03*
X203787500Y-175632000D03*
X222837500Y-172332000D03*
X222837500Y-175632000D03*
X241887500Y-172332000D03*
X241887500Y-175632000D03*
X260937500Y-172332000D03*
X260937500Y-175632000D03*
X279987500Y-172332000D03*
X279987500Y-175632000D03*
X299037500Y-172332000D03*
X299037500Y-175632000D03*
X318087500Y-172332000D03*
X318087500Y-175632000D03*
X337137500Y-172332000D03*
X337137500Y-175632000D03*
X356187500Y-172332000D03*
X356187500Y-175632000D03*
X387350000Y-172181250D03*
X387350000Y-175481250D03*
X418100000Y-172332000D03*
X418100000Y-175632000D03*
X437150000Y-172332000D03*
X437150000Y-175632000D03*
X456406250Y-169006250D03*
X456406250Y-172306250D03*
X474980000Y-160908000D03*
X474980000Y-157608000D03*
X144462500Y-191382000D03*
X144462500Y-194682000D03*
X175212500Y-191382000D03*
X175212500Y-194682000D03*
X194262500Y-191382000D03*
X194262500Y-194682000D03*
X213312500Y-191382000D03*
X213312500Y-194682000D03*
X232362500Y-191382000D03*
X232362500Y-194682000D03*
X251412500Y-191382000D03*
X251412500Y-194682000D03*
X270462500Y-191382000D03*
X270462500Y-194682000D03*
X289512500Y-191382000D03*
X289512500Y-194682000D03*
X308562500Y-191382000D03*
X308562500Y-194682000D03*
X327612500Y-191382000D03*
X327612500Y-194682000D03*
X346662500Y-191382000D03*
X346662500Y-194682000D03*
X373062500Y-191382000D03*
X373062500Y-194682000D03*
X399050000Y-191382000D03*
X399050000Y-194682000D03*
X418100000Y-191382000D03*
X418100000Y-194682000D03*
X437150000Y-191382000D03*
X437150000Y-194682000D03*
X456406250Y-194406250D03*
X456406250Y-197706250D03*
X134937500Y-210432000D03*
X134937500Y-213732000D03*
X158750000Y-210281250D03*
X158750000Y-213581250D03*
X182245000Y-210440000D03*
X182245000Y-213740000D03*
X215519000Y-210440000D03*
X215519000Y-213740000D03*
X249237500Y-210432000D03*
X249237500Y-213732000D03*
X269081250Y-206437500D03*
X269081250Y-203137500D03*
X327612500Y-210432000D03*
X327612500Y-213732000D03*
X349250000Y-210432000D03*
X349250000Y-213732000D03*
X380000000Y-210432000D03*
X380000000Y-213732000D03*
X399050000Y-210432000D03*
X399050000Y-213732000D03*
X418100000Y-210432000D03*
X418100000Y-213732000D03*
X437150000Y-210432000D03*
X437150000Y-213732000D03*
X456406250Y-206630000D03*
X456406250Y-209930000D03*
X474980000Y-197103000D03*
X474980000Y-193803000D03*
M02*
