M48
; DRILL file {KiCad (5.1.4)-1} date 7/23/2020 5:22:32 PM
; FORMAT={-:-/ absolute / inch / decimal}
; #@! TF.CreationDate,2020-07-23T17:22:32-07:00
; #@! TF.GenerationSoftware,Kicad,Pcbnew,(5.1.4)-1
; #@! TF.FileFunction,NonPlated,1,2,NPTH
FMAT,2
INCH
T1C0.0256
T2C0.0689
T3C0.1200
T4C0.1570
%
G90
G05
T1
X5.1675Y-4.1261
X5.395Y-4.1261
T2
X4.675Y-5.33
X5.075Y-5.33
X16.675Y-6.83
X17.075Y-6.83
X18.175Y-4.58
X18.575Y-4.58
X16.675Y-7.58
X17.075Y-7.58
X8.425Y-5.33
X8.825Y-5.33
X11.425Y-4.58
X11.825Y-4.58
X6.3625Y-7.58
X6.7625Y-7.58
X13.4875Y-6.83
X13.8875Y-6.83
X18.175Y-5.33
X18.575Y-5.33
X6.7375Y-6.83
X7.1375Y-6.83
X7.675Y-5.33
X8.075Y-5.33
X14.8Y-5.33
X15.2Y-5.33
X17.425Y-7.58
X17.825Y-7.58
X17.425Y-5.33
X17.825Y-5.33
X16.675Y-8.33
X17.075Y-8.33
X17.425Y-6.08
X17.825Y-6.08
X15.175Y-4.58
X15.575Y-4.58
X15.175Y-7.58
X15.575Y-7.58
X7.1125Y-7.58
X7.5125Y-7.58
X8.8Y-6.08
X9.2Y-6.08
X13.2062Y-8.33
X13.6062Y-8.33
X16.675Y-6.08
X17.075Y-6.08
X12.925Y-4.58
X13.325Y-4.58
X4.675Y-4.58
X5.075Y-4.58
X10.1125Y-7.58
X10.5125Y-7.58
X8.05Y-6.08
X8.45Y-6.08
X9.2687Y-8.33
X9.6687Y-8.33
X11.05Y-6.08
X11.45Y-6.08
X14.7062Y-6.83
X15.1062Y-6.83
X9.175Y-5.33
X9.575Y-5.33
X14.05Y-6.08
X14.45Y-6.08
X5.9875Y-6.83
X6.3875Y-6.83
X10.675Y-4.58
X11.075Y-4.58
X7.8625Y-7.58
X8.2625Y-7.58
X13.675Y-4.58
X14.075Y-4.58
X12.3625Y-7.58
X12.7625Y-7.58
X4.7687Y-8.33
X5.1688Y-8.33
X16.675Y-4.58
X17.075Y-4.58
X5.1437Y-7.58
X5.5438Y-7.58
X8.6125Y-7.58
X9.0125Y-7.58
X7.3Y-6.08
X7.7Y-6.08
X8.2375Y-6.83
X8.6375Y-6.83
X15.925Y-4.58
X16.325Y-4.58
X9.175Y-4.58
X9.575Y-4.58
X6.175Y-4.58
X6.575Y-4.58
X12.7375Y-6.83
X13.1375Y-6.83
X16.675Y-5.33
X17.075Y-5.33
X4.9562Y-6.83
X5.3563Y-6.83
X6.175Y-5.33
X6.575Y-5.33
X15.925Y-7.58
X16.325Y-7.58
X11.425Y-5.33
X11.825Y-5.33
X15.175Y-8.33
X15.575Y-8.33
X11.2375Y-6.83
X11.6375Y-6.83
X8.425Y-4.58
X8.825Y-4.58
X6.55Y-6.08
X6.95Y-6.08
X9.3625Y-7.58
X9.7625Y-7.58
X13.675Y-5.33
X14.075Y-5.33
X14.425Y-8.33
X14.825Y-8.33
X11.8Y-6.08
X12.2Y-6.08
X10.7687Y-8.33
X11.1687Y-8.33
X5.8Y-6.08
X6.2Y-6.08
X6.6437Y-8.33
X7.0438Y-8.33
X9.7375Y-6.83
X10.1375Y-6.83
X12.175Y-5.33
X12.575Y-5.33
X10.4875Y-6.83
X10.8875Y-6.83
X17.425Y-4.58
X17.825Y-4.58
X5.425Y-4.58
X5.825Y-4.58
X17.425Y-6.83
X17.825Y-6.83
X6.925Y-5.33
X7.325Y-5.33
X18.375Y-7.755
X18.375Y-8.155
X13.1125Y-7.58
X13.5125Y-7.58
X12.175Y-4.58
X12.575Y-4.58
X14.1437Y-7.58
X14.5437Y-7.58
X7.675Y-4.58
X8.075Y-4.58
X15.925Y-6.83
X16.325Y-6.83
X4.8625Y-6.08
X5.2625Y-6.08
X8.9875Y-6.83
X9.3875Y-6.83
X9.925Y-4.58
X10.325Y-4.58
X18.375Y-6.255
X18.375Y-6.655
X5.7062Y-8.33
X6.1063Y-8.33
X12.925Y-5.33
X13.325Y-5.33
X14.9875Y-6.08
X15.3875Y-6.08
X5.425Y-5.33
X5.825Y-5.33
X6.925Y-4.58
X7.325Y-4.58
X11.9875Y-6.83
X12.3875Y-6.83
X15.925Y-5.33
X16.325Y-5.33
X15.925Y-8.33
X16.325Y-8.33
X13.3Y-6.08
X13.7Y-6.08
X14.425Y-4.58
X14.825Y-4.58
X7.9562Y-8.33
X8.3562Y-8.33
X10.8625Y-7.58
X11.2625Y-7.58
X10.675Y-5.33
X11.075Y-5.33
X12.2687Y-8.33
X12.6687Y-8.33
X12.55Y-6.08
X12.95Y-6.08
X11.6125Y-7.58
X12.0125Y-7.58
X9.925Y-5.33
X10.325Y-5.33
X15.925Y-6.08
X16.325Y-6.08
X10.3Y-6.08
X10.7Y-6.08
X9.55Y-6.08
X9.95Y-6.08
X7.4875Y-6.83
X7.8875Y-6.83
X17.425Y-8.33
X17.825Y-8.33
T3
X4.875Y-7.305
X5.8125Y-7.305
X10.2188Y-8.055
X11.7188Y-8.055
X18.65Y-7.4863
X18.65Y-8.4238
X18.65Y-5.9863
X18.65Y-6.9238
X7.6875Y-8.055
X8.625Y-8.055
X14.5312Y-5.055
X15.4688Y-5.055
X14.4375Y-6.555
X15.375Y-6.555
T4
X17.625Y-4.58
X5.625Y-4.58
X17.625Y-6.83
X7.125Y-5.33
X18.05Y-7.4863
X18.05Y-8.4238
X18.375Y-7.955
X13.3125Y-7.58
X12.375Y-4.58
X14.3438Y-7.58
X7.875Y-4.58
X16.125Y-6.83
X5.0625Y-6.08
X9.1875Y-6.83
X10.125Y-4.58
X18.05Y-5.9863
X18.05Y-6.9238
X18.375Y-6.455
X5.9062Y-8.33
X13.125Y-5.33
X15.1875Y-6.08
X5.625Y-5.33
X7.125Y-4.58
X12.1875Y-6.83
X16.125Y-5.33
X16.125Y-8.33
X13.5Y-6.08
X14.625Y-4.58
X7.6875Y-8.655
X8.1562Y-8.33
X8.625Y-8.655
X11.0625Y-7.58
X10.875Y-5.33
X12.4688Y-8.33
X12.75Y-6.08
X11.8125Y-7.58
X10.125Y-5.33
X16.125Y-6.08
X10.5Y-6.08
X9.75Y-6.08
X7.6875Y-6.83
X17.625Y-8.33
X4.875Y-5.33
X16.875Y-6.83
X18.375Y-4.58
X16.875Y-7.58
X8.625Y-5.33
X11.625Y-4.58
X6.5625Y-7.58
X13.6875Y-6.83
X18.375Y-5.33
X6.9375Y-6.83
X7.875Y-5.33
X14.5312Y-5.655
X15.0Y-5.33
X15.4688Y-5.655
X17.625Y-7.58
X17.625Y-5.33
X16.875Y-8.33
X17.625Y-6.08
X15.375Y-4.58
X15.375Y-7.58
X7.3125Y-7.58
X9.0Y-6.08
X13.4062Y-8.33
X16.875Y-6.08
X13.125Y-4.58
X4.875Y-4.58
X10.3125Y-7.58
X8.25Y-6.08
X9.4688Y-8.33
X11.25Y-6.08
X14.4375Y-7.155
X14.9062Y-6.83
X15.375Y-7.155
X9.375Y-5.33
X14.25Y-6.08
X6.1875Y-6.83
X10.875Y-4.58
X8.0625Y-7.58
X13.875Y-4.58
X12.5625Y-7.58
X4.9688Y-8.33
X16.875Y-4.58
X4.875Y-7.905
X5.3438Y-7.58
X5.8125Y-7.905
X8.8125Y-7.58
X7.5Y-6.08
X8.4375Y-6.83
X16.125Y-4.58
X9.375Y-4.58
X6.375Y-4.58
X12.9375Y-6.83
X16.875Y-5.33
X5.1562Y-6.83
X6.375Y-5.33
X16.125Y-7.58
X11.625Y-5.33
X15.375Y-8.33
X11.4375Y-6.83
X8.625Y-4.58
X6.75Y-6.08
X9.5625Y-7.58
X13.875Y-5.33
X14.625Y-8.33
X12.0Y-6.08
X10.2188Y-8.655
X10.9688Y-8.33
X11.7188Y-8.655
X6.0Y-6.08
X6.8438Y-8.33
X9.9375Y-6.83
X12.375Y-5.33
X10.6875Y-6.83
T0
M30
