M48
; DRILL file {KiCad (5.1.4)-1} date 7/23/2020 5:22:32 PM
; FORMAT={-:-/ absolute / inch / decimal}
; #@! TF.CreationDate,2020-07-23T17:22:32-07:00
; #@! TF.GenerationSoftware,Kicad,Pcbnew,(5.1.4)-1
; #@! TF.FileFunction,Plated,1,2,PTH
FMAT,2
INCH
T1C0.0157
T2C0.0236
T3C0.0394
T4C0.0579
%
G90
G05
T1
X4.49Y-6.7
X4.535Y-6.225
X4.6Y-6.225
X4.615Y-5.825
X4.68Y-4.065
X4.695Y-7.7
X5.07Y-4.315
X5.25Y-4.415
X5.31Y-4.38
X5.485Y-4.31
X11.125Y-8.6875
X11.125Y-8.75
X11.1875Y-8.6875
X11.1875Y-8.75
X11.2337Y-8.3756
X11.259Y-8.4057
X11.2841Y-8.436
X11.3175Y-8.0931
X11.3464Y-8.0645
X11.3755Y-8.0359
X11.4071Y-8.0072
X11.4431Y-7.9786
X11.474Y-7.95
X11.5134Y-7.95
X11.542Y-8.6787
X11.5463Y-8.7812
X11.5505Y-8.7172
X11.56Y-7.87
X11.5902Y-7.8986
X11.695Y-8.4891
X11.81Y-8.4475
X11.825Y-7.945
X11.88Y-8.4475
X11.95Y-8.13
X11.985Y-8.195
X12.0735Y-8.397
X13.255Y-8.471
X14.195Y-8.4433
X14.475Y-8.4433
X15.225Y-8.471
X15.975Y-8.471
X16.725Y-8.471
X17.475Y-8.45
X18.475Y-8.455
T3
X4.437Y-7.2864
X4.437Y-7.4636
X4.693Y-7.2864
X4.693Y-7.4636
X4.437Y-6.9914
X4.437Y-7.1686
X4.693Y-6.9914
X4.693Y-7.1686
T4
X13.725Y-4.48
X13.975Y-4.38
X12.4125Y-7.48
X12.6625Y-7.38
X4.8187Y-8.23
X5.0687Y-8.13
X16.725Y-4.48
X16.975Y-4.38
X5.1937Y-7.48
X5.4437Y-7.38
X8.6625Y-7.48
X8.9125Y-7.38
X7.35Y-5.98
X7.6Y-5.88
X8.2875Y-6.73
X8.5375Y-6.63
X15.975Y-4.48
X16.225Y-4.38
X9.225Y-4.48
X9.475Y-4.38
X6.225Y-4.48
X6.475Y-4.38
X12.7875Y-6.73
X13.0375Y-6.63
X16.725Y-5.23
X16.975Y-5.13
X5.0062Y-6.73
X5.2562Y-6.63
X6.225Y-5.23
X6.475Y-5.13
X15.975Y-7.48
X16.225Y-7.38
X11.475Y-5.23
X11.725Y-5.13
X15.225Y-8.23
X15.475Y-8.13
X11.2875Y-6.73
X11.5375Y-6.63
X8.475Y-4.48
X8.725Y-4.38
X6.6Y-5.98
X6.85Y-5.88
X9.4125Y-7.48
X9.6625Y-7.38
X13.725Y-5.23
X13.975Y-5.13
X14.475Y-8.23
X14.725Y-8.13
X11.85Y-5.98
X12.1Y-5.88
X10.8187Y-8.23
X11.0687Y-8.13
X5.85Y-5.98
X6.1Y-5.88
X6.6937Y-8.23
X6.9437Y-8.13
X9.7875Y-6.73
X10.0375Y-6.63
X12.225Y-5.23
X12.475Y-5.13
X10.5375Y-6.73
X10.7875Y-6.63
X17.475Y-4.48
X17.725Y-4.38
X5.475Y-4.48
X5.725Y-4.38
X17.475Y-6.73
X17.725Y-6.63
X6.975Y-5.23
X7.225Y-5.13
X18.475Y-7.805
X18.575Y-8.055
X13.1625Y-7.48
X13.4125Y-7.38
X12.225Y-4.48
X12.475Y-4.38
X14.1937Y-7.48
X14.4437Y-7.38
X7.725Y-4.48
X7.975Y-4.38
X15.975Y-6.73
X16.225Y-6.63
X4.9125Y-5.98
X5.1625Y-5.88
X9.0375Y-6.73
X9.2875Y-6.63
X9.975Y-4.48
X10.225Y-4.38
X18.475Y-6.305
X18.575Y-6.555
X5.7562Y-8.23
X6.0062Y-8.13
X12.975Y-5.23
X13.225Y-5.13
X15.0375Y-5.98
X15.2875Y-5.88
X5.475Y-5.23
X5.725Y-5.13
X6.975Y-4.48
X7.225Y-4.38
X12.0375Y-6.73
X12.2875Y-6.63
X15.975Y-5.23
X16.225Y-5.13
X15.975Y-8.23
X16.225Y-8.13
X13.35Y-5.98
X13.6Y-5.88
X14.475Y-4.48
X14.725Y-4.38
X8.0062Y-8.23
X8.2562Y-8.13
X10.9125Y-7.48
X11.1625Y-7.38
X10.725Y-5.23
X10.975Y-5.13
X12.3187Y-8.23
X12.5687Y-8.13
X12.6Y-5.98
X12.85Y-5.88
X11.6625Y-7.48
X11.9125Y-7.38
X9.975Y-5.23
X10.225Y-5.13
X15.975Y-5.98
X16.225Y-5.88
X10.35Y-5.98
X10.6Y-5.88
X9.6Y-5.98
X9.85Y-5.88
X7.5375Y-6.73
X7.7875Y-6.63
X17.475Y-8.23
X17.725Y-8.13
X4.725Y-5.23
X4.975Y-5.13
X16.725Y-6.73
X16.975Y-6.63
X18.225Y-4.48
X18.475Y-4.38
X16.725Y-7.48
X16.975Y-7.38
X8.475Y-5.23
X8.725Y-5.13
X11.475Y-4.48
X11.725Y-4.38
X6.4125Y-7.48
X6.6625Y-7.38
X13.5375Y-6.73
X13.7875Y-6.63
X18.225Y-5.23
X18.475Y-5.13
X6.7875Y-6.73
X7.0375Y-6.63
X7.725Y-5.23
X7.975Y-5.13
X14.85Y-5.23
X15.1Y-5.13
X17.475Y-7.48
X17.725Y-7.38
X17.475Y-5.23
X17.725Y-5.13
X16.725Y-8.23
X16.975Y-8.13
X17.475Y-5.98
X17.725Y-5.88
X15.225Y-4.48
X15.475Y-4.38
X15.225Y-7.48
X15.475Y-7.38
X7.1625Y-7.48
X7.4125Y-7.38
X8.85Y-5.98
X9.1Y-5.88
X13.2562Y-8.23
X13.5062Y-8.13
X16.725Y-5.98
X16.975Y-5.88
X12.975Y-4.48
X13.225Y-4.38
X4.725Y-4.48
X4.975Y-4.38
X10.1625Y-7.48
X10.4125Y-7.38
X8.1Y-5.98
X8.35Y-5.88
X9.3187Y-8.23
X9.5687Y-8.13
X11.1Y-5.98
X11.35Y-5.88
X14.7562Y-6.73
X15.0062Y-6.63
X9.225Y-5.23
X9.475Y-5.13
X14.1Y-5.98
X14.35Y-5.88
X6.0375Y-6.73
X6.2875Y-6.63
X10.725Y-4.48
X10.975Y-4.38
X7.9125Y-7.48
X8.1625Y-7.38
T2
G00X5.1112Y-3.9706
M15
G01X5.1112Y-3.9942
M16
G05
G00X5.1112Y-4.1253
M15
G01X5.1112Y-4.1686
M16
G05
G00X5.4513Y-3.9706
M15
G01X5.4513Y-3.9942
M16
G05
G00X5.4513Y-4.1253
M15
G01X5.4513Y-4.1686
M16
G05
T0
M30
